ISO-10303-21;
HEADER;
/* Generated by software containing ST-Developer
 * from STEP Tools, Inc. (www.steptools.com) 
 */

FILE_DESCRIPTION(
/* description */ (''),
/* implementation_level */ '2;1');

FILE_NAME(
/* name */ 'Pan-Tilt base-connector.step',
/* time_stamp */ '2026-09-03T12:22:01+03:00',
/* author */ (''),
/* organization */ (''),
/* preprocessor_version */ 'ST-DEVELOPER v20.1',
/* originating_system */ 'Autodesk Translation Framework v15.8.0.0',
/* authorisation */ '');

FILE_SCHEMA (('AUTOMOTIVE_DESIGN { 1 0 10303 214 3 1 1 }'));
ENDSEC;

DATA;
#10=MECHANICAL_DESIGN_GEOMETRIC_PRESENTATION_REPRESENTATION('',(#13),#804);
#11=SHAPE_REPRESENTATION_RELATIONSHIP('SRR','None',#811,#12);
#12=ADVANCED_BREP_SHAPE_REPRESENTATION('',(#14),#803);
#13=STYLED_ITEM('',(#820),#14);
#14=MANIFOLD_SOLID_BREP('Body1',#460);
#15=FACE_BOUND('',#65,.T.);
#16=FACE_BOUND('',#68,.T.);
#17=FACE_BOUND('',#73,.T.);
#18=FACE_BOUND('',#75,.T.);
#19=FACE_BOUND('',#77,.T.);
#20=PLANE('',#477);
#21=PLANE('',#481);
#22=PLANE('',#499);
#23=PLANE('',#500);
#24=PLANE('',#501);
#25=PLANE('',#506);
#26=PLANE('',#507);
#27=PLANE('',#510);
#28=PLANE('',#511);
#29=PLANE('',#512);
#30=PLANE('',#515);
#31=PLANE('',#516);
#32=PLANE('',#517);
#33=PLANE('',#520);
#34=PLANE('',#521);
#35=PLANE('',#522);
#36=PLANE('',#525);
#37=FACE_OUTER_BOUND('',#63,.T.);
#38=FACE_OUTER_BOUND('',#64,.T.);
#39=FACE_OUTER_BOUND('',#66,.T.);
#40=FACE_OUTER_BOUND('',#67,.T.);
#41=FACE_OUTER_BOUND('',#69,.T.);
#42=FACE_OUTER_BOUND('',#70,.T.);
#43=FACE_OUTER_BOUND('',#71,.T.);
#44=FACE_OUTER_BOUND('',#72,.T.);
#45=FACE_OUTER_BOUND('',#74,.T.);
#46=FACE_OUTER_BOUND('',#76,.T.);
#47=FACE_OUTER_BOUND('',#78,.T.);
#48=FACE_OUTER_BOUND('',#79,.T.);
#49=FACE_OUTER_BOUND('',#80,.T.);
#50=FACE_OUTER_BOUND('',#81,.T.);
#51=FACE_OUTER_BOUND('',#82,.T.);
#52=FACE_OUTER_BOUND('',#83,.T.);
#53=FACE_OUTER_BOUND('',#84,.T.);
#54=FACE_OUTER_BOUND('',#85,.T.);
#55=FACE_OUTER_BOUND('',#86,.T.);
#56=FACE_OUTER_BOUND('',#87,.T.);
#57=FACE_OUTER_BOUND('',#88,.T.);
#58=FACE_OUTER_BOUND('',#89,.T.);
#59=FACE_OUTER_BOUND('',#90,.T.);
#60=FACE_OUTER_BOUND('',#91,.T.);
#61=FACE_OUTER_BOUND('',#92,.T.);
#62=FACE_OUTER_BOUND('',#93,.T.);
#63=EDGE_LOOP('',(#299,#300,#301,#302));
#64=EDGE_LOOP('',(#303));
#65=EDGE_LOOP('',(#304));
#66=EDGE_LOOP('',(#305,#306,#307,#308));
#67=EDGE_LOOP('',(#309));
#68=EDGE_LOOP('',(#310));
#69=EDGE_LOOP('',(#311,#312,#313,#314));
#70=EDGE_LOOP('',(#315,#316,#317,#318));
#71=EDGE_LOOP('',(#319,#320,#321,#322,#323,#324,#325,#326,#327,#328,#329,
#330,#331,#332,#333,#334,#335,#336,#337,#338));
#72=EDGE_LOOP('',(#339));
#73=EDGE_LOOP('',(#340));
#74=EDGE_LOOP('',(#341));
#75=EDGE_LOOP('',(#342));
#76=EDGE_LOOP('',(#343,#344,#345,#346,#347,#348,#349,#350,#351,#352,#353,
#354,#355,#356,#357,#358));
#77=EDGE_LOOP('',(#359));
#78=EDGE_LOOP('',(#360,#361,#362,#363));
#79=EDGE_LOOP('',(#364,#365,#366,#367));
#80=EDGE_LOOP('',(#368,#369,#370,#371));
#81=EDGE_LOOP('',(#372,#373,#374,#375));
#82=EDGE_LOOP('',(#376,#377,#378,#379));
#83=EDGE_LOOP('',(#380,#381,#382,#383));
#84=EDGE_LOOP('',(#384,#385,#386,#387));
#85=EDGE_LOOP('',(#388,#389,#390,#391,#392));
#86=EDGE_LOOP('',(#393,#394,#395,#396));
#87=EDGE_LOOP('',(#397,#398,#399,#400));
#88=EDGE_LOOP('',(#401,#402,#403,#404));
#89=EDGE_LOOP('',(#405,#406,#407,#408));
#90=EDGE_LOOP('',(#409,#410,#411,#412));
#91=EDGE_LOOP('',(#413,#414,#415,#416));
#92=EDGE_LOOP('',(#417,#418,#419,#420));
#93=EDGE_LOOP('',(#421,#422,#423,#424));
#94=LINE('',#674,#131);
#95=LINE('',#682,#132);
#96=LINE('',#689,#133);
#97=LINE('',#694,#134);
#98=LINE('',#700,#135);
#99=LINE('',#704,#136);
#100=LINE('',#708,#137);
#101=LINE('',#712,#138);
#102=LINE('',#716,#139);
#103=LINE('',#720,#140);
#104=LINE('',#724,#141);
#105=LINE('',#728,#142);
#106=LINE('',#732,#143);
#107=LINE('',#738,#144);
#108=LINE('',#740,#145);
#109=LINE('',#743,#146);
#110=LINE('',#745,#147);
#111=LINE('',#748,#148);
#112=LINE('',#750,#149);
#113=LINE('',#753,#150);
#114=LINE('',#755,#151);
#115=LINE('',#759,#152);
#116=LINE('',#760,#153);
#117=LINE('',#763,#154);
#118=LINE('',#764,#155);
#119=LINE('',#770,#156);
#120=LINE('',#771,#157);
#121=LINE('',#774,#158);
#122=LINE('',#775,#159);
#123=LINE('',#781,#160);
#124=LINE('',#782,#161);
#125=LINE('',#785,#162);
#126=LINE('',#786,#163);
#127=LINE('',#792,#164);
#128=LINE('',#793,#165);
#129=LINE('',#796,#166);
#130=LINE('',#797,#167);
#131=VECTOR('',#532,2.15);
#132=VECTOR('',#543,1.);
#133=VECTOR('',#552,1.5);
#134=VECTOR('',#557,2.5);
#135=VECTOR('',#564,3.5);
#136=VECTOR('',#567,10.);
#137=VECTOR('',#570,10.);
#138=VECTOR('',#573,10.);
#139=VECTOR('',#576,10.);
#140=VECTOR('',#579,10.);
#141=VECTOR('',#582,10.);
#142=VECTOR('',#585,10.);
#143=VECTOR('',#588,10.);
#144=VECTOR('',#597,10.);
#145=VECTOR('',#598,10.);
#146=VECTOR('',#601,10.);
#147=VECTOR('',#602,10.);
#148=VECTOR('',#605,10.);
#149=VECTOR('',#606,10.);
#150=VECTOR('',#609,10.);
#151=VECTOR('',#610,10.);
#152=VECTOR('',#615,10.);
#153=VECTOR('',#616,10.);
#154=VECTOR('',#619,10.);
#155=VECTOR('',#620,10.);
#156=VECTOR('',#629,10.);
#157=VECTOR('',#630,10.);
#158=VECTOR('',#633,10.);
#159=VECTOR('',#634,10.);
#160=VECTOR('',#643,10.);
#161=VECTOR('',#644,10.);
#162=VECTOR('',#647,10.);
#163=VECTOR('',#648,10.);
#164=VECTOR('',#657,10.);
#165=VECTOR('',#658,10.);
#166=VECTOR('',#661,10.);
#167=VECTOR('',#662,10.);
#168=CIRCLE('',#475,2.15);
#169=CIRCLE('',#476,2.15);
#170=CIRCLE('',#478,1.);
#171=CIRCLE('',#480,1.);
#172=CIRCLE('',#482,1.5);
#173=CIRCLE('',#484,1.5);
#174=CIRCLE('',#486,2.5);
#175=CIRCLE('',#487,2.5);
#176=CIRCLE('',#489,3.5);
#177=CIRCLE('',#490,3.5);
#178=CIRCLE('',#491,3.5);
#179=CIRCLE('',#492,3.5);
#180=CIRCLE('',#493,3.5);
#181=CIRCLE('',#494,3.5);
#182=CIRCLE('',#495,3.5);
#183=CIRCLE('',#496,3.5);
#184=CIRCLE('',#497,3.5);
#185=CIRCLE('',#498,3.5);
#186=CIRCLE('',#502,2.);
#187=CIRCLE('',#503,2.);
#188=CIRCLE('',#504,2.);
#189=CIRCLE('',#505,2.);
#190=CIRCLE('',#509,2.);
#191=CIRCLE('',#514,2.);
#192=CIRCLE('',#519,2.);
#193=CIRCLE('',#524,2.);
#194=VERTEX_POINT('',#671);
#195=VERTEX_POINT('',#673);
#196=VERTEX_POINT('',#677);
#197=VERTEX_POINT('',#680);
#198=VERTEX_POINT('',#684);
#199=VERTEX_POINT('',#687);
#200=VERTEX_POINT('',#691);
#201=VERTEX_POINT('',#693);
#202=VERTEX_POINT('',#697);
#203=VERTEX_POINT('',#699);
#204=VERTEX_POINT('',#701);
#205=VERTEX_POINT('',#703);
#206=VERTEX_POINT('',#705);
#207=VERTEX_POINT('',#707);
#208=VERTEX_POINT('',#709);
#209=VERTEX_POINT('',#711);
#210=VERTEX_POINT('',#713);
#211=VERTEX_POINT('',#715);
#212=VERTEX_POINT('',#717);
#213=VERTEX_POINT('',#719);
#214=VERTEX_POINT('',#721);
#215=VERTEX_POINT('',#723);
#216=VERTEX_POINT('',#725);
#217=VERTEX_POINT('',#727);
#218=VERTEX_POINT('',#729);
#219=VERTEX_POINT('',#731);
#220=VERTEX_POINT('',#737);
#221=VERTEX_POINT('',#739);
#222=VERTEX_POINT('',#741);
#223=VERTEX_POINT('',#744);
#224=VERTEX_POINT('',#746);
#225=VERTEX_POINT('',#749);
#226=VERTEX_POINT('',#751);
#227=VERTEX_POINT('',#754);
#228=VERTEX_POINT('',#758);
#229=VERTEX_POINT('',#762);
#230=VERTEX_POINT('',#769);
#231=VERTEX_POINT('',#773);
#232=VERTEX_POINT('',#780);
#233=VERTEX_POINT('',#784);
#234=VERTEX_POINT('',#791);
#235=VERTEX_POINT('',#795);
#236=EDGE_CURVE('',#194,#194,#168,.T.);
#237=EDGE_CURVE('',#194,#195,#94,.T.);
#238=EDGE_CURVE('',#195,#195,#169,.T.);
#239=EDGE_CURVE('',#196,#196,#170,.T.);
#240=EDGE_CURVE('',#197,#197,#171,.T.);
#241=EDGE_CURVE('',#197,#196,#95,.T.);
#242=EDGE_CURVE('',#198,#198,#172,.T.);
#243=EDGE_CURVE('',#199,#199,#173,.T.);
#244=EDGE_CURVE('',#199,#198,#96,.T.);
#245=EDGE_CURVE('',#200,#200,#174,.T.);
#246=EDGE_CURVE('',#200,#201,#97,.T.);
#247=EDGE_CURVE('',#201,#201,#175,.T.);
#248=EDGE_CURVE('',#202,#202,#176,.T.);
#249=EDGE_CURVE('',#202,#203,#98,.T.);
#250=EDGE_CURVE('',#204,#203,#177,.T.);
#251=EDGE_CURVE('',#205,#204,#99,.T.);
#252=EDGE_CURVE('',#205,#206,#178,.T.);
#253=EDGE_CURVE('',#206,#207,#100,.T.);
#254=EDGE_CURVE('',#208,#207,#179,.T.);
#255=EDGE_CURVE('',#209,#208,#101,.T.);
#256=EDGE_CURVE('',#209,#210,#180,.T.);
#257=EDGE_CURVE('',#210,#211,#102,.T.);
#258=EDGE_CURVE('',#212,#211,#181,.T.);
#259=EDGE_CURVE('',#213,#212,#103,.T.);
#260=EDGE_CURVE('',#213,#214,#182,.T.);
#261=EDGE_CURVE('',#214,#215,#104,.T.);
#262=EDGE_CURVE('',#216,#215,#183,.T.);
#263=EDGE_CURVE('',#217,#216,#105,.T.);
#264=EDGE_CURVE('',#217,#218,#184,.T.);
#265=EDGE_CURVE('',#218,#219,#106,.T.);
#266=EDGE_CURVE('',#203,#219,#185,.T.);
#267=EDGE_CURVE('',#214,#220,#107,.T.);
#268=EDGE_CURVE('',#221,#213,#108,.T.);
#269=EDGE_CURVE('',#222,#221,#186,.T.);
#270=EDGE_CURVE('',#210,#222,#109,.T.);
#271=EDGE_CURVE('',#223,#209,#110,.T.);
#272=EDGE_CURVE('',#224,#223,#187,.T.);
#273=EDGE_CURVE('',#206,#224,#111,.T.);
#274=EDGE_CURVE('',#225,#205,#112,.T.);
#275=EDGE_CURVE('',#226,#225,#188,.T.);
#276=EDGE_CURVE('',#218,#226,#113,.T.);
#277=EDGE_CURVE('',#227,#217,#114,.T.);
#278=EDGE_CURVE('',#220,#227,#189,.T.);
#279=EDGE_CURVE('',#220,#228,#115,.T.);
#280=EDGE_CURVE('',#215,#228,#116,.T.);
#281=EDGE_CURVE('',#229,#216,#117,.T.);
#282=EDGE_CURVE('',#227,#229,#118,.T.);
#283=EDGE_CURVE('',#228,#229,#190,.T.);
#284=EDGE_CURVE('',#226,#230,#119,.T.);
#285=EDGE_CURVE('',#219,#230,#120,.T.);
#286=EDGE_CURVE('',#231,#204,#121,.T.);
#287=EDGE_CURVE('',#225,#231,#122,.T.);
#288=EDGE_CURVE('',#230,#231,#191,.T.);
#289=EDGE_CURVE('',#222,#232,#123,.T.);
#290=EDGE_CURVE('',#211,#232,#124,.T.);
#291=EDGE_CURVE('',#233,#212,#125,.T.);
#292=EDGE_CURVE('',#221,#233,#126,.T.);
#293=EDGE_CURVE('',#232,#233,#192,.T.);
#294=EDGE_CURVE('',#224,#234,#127,.T.);
#295=EDGE_CURVE('',#207,#234,#128,.T.);
#296=EDGE_CURVE('',#235,#208,#129,.T.);
#297=EDGE_CURVE('',#223,#235,#130,.T.);
#298=EDGE_CURVE('',#234,#235,#193,.T.);
#299=ORIENTED_EDGE('',*,*,#236,.F.);
#300=ORIENTED_EDGE('',*,*,#237,.T.);
#301=ORIENTED_EDGE('',*,*,#238,.T.);
#302=ORIENTED_EDGE('',*,*,#237,.F.);
#303=ORIENTED_EDGE('',*,*,#238,.F.);
#304=ORIENTED_EDGE('',*,*,#239,.F.);
#305=ORIENTED_EDGE('',*,*,#240,.F.);
#306=ORIENTED_EDGE('',*,*,#241,.T.);
#307=ORIENTED_EDGE('',*,*,#239,.T.);
#308=ORIENTED_EDGE('',*,*,#241,.F.);
#309=ORIENTED_EDGE('',*,*,#242,.F.);
#310=ORIENTED_EDGE('',*,*,#240,.T.);
#311=ORIENTED_EDGE('',*,*,#243,.F.);
#312=ORIENTED_EDGE('',*,*,#244,.T.);
#313=ORIENTED_EDGE('',*,*,#242,.T.);
#314=ORIENTED_EDGE('',*,*,#244,.F.);
#315=ORIENTED_EDGE('',*,*,#245,.F.);
#316=ORIENTED_EDGE('',*,*,#246,.T.);
#317=ORIENTED_EDGE('',*,*,#247,.F.);
#318=ORIENTED_EDGE('',*,*,#246,.F.);
#319=ORIENTED_EDGE('',*,*,#248,.F.);
#320=ORIENTED_EDGE('',*,*,#249,.T.);
#321=ORIENTED_EDGE('',*,*,#250,.F.);
#322=ORIENTED_EDGE('',*,*,#251,.F.);
#323=ORIENTED_EDGE('',*,*,#252,.T.);
#324=ORIENTED_EDGE('',*,*,#253,.T.);
#325=ORIENTED_EDGE('',*,*,#254,.F.);
#326=ORIENTED_EDGE('',*,*,#255,.F.);
#327=ORIENTED_EDGE('',*,*,#256,.T.);
#328=ORIENTED_EDGE('',*,*,#257,.T.);
#329=ORIENTED_EDGE('',*,*,#258,.F.);
#330=ORIENTED_EDGE('',*,*,#259,.F.);
#331=ORIENTED_EDGE('',*,*,#260,.T.);
#332=ORIENTED_EDGE('',*,*,#261,.T.);
#333=ORIENTED_EDGE('',*,*,#262,.F.);
#334=ORIENTED_EDGE('',*,*,#263,.F.);
#335=ORIENTED_EDGE('',*,*,#264,.T.);
#336=ORIENTED_EDGE('',*,*,#265,.T.);
#337=ORIENTED_EDGE('',*,*,#266,.F.);
#338=ORIENTED_EDGE('',*,*,#249,.F.);
#339=ORIENTED_EDGE('',*,*,#248,.T.);
#340=ORIENTED_EDGE('',*,*,#243,.T.);
#341=ORIENTED_EDGE('',*,*,#245,.T.);
#342=ORIENTED_EDGE('',*,*,#236,.T.);
#343=ORIENTED_EDGE('',*,*,#267,.F.);
#344=ORIENTED_EDGE('',*,*,#260,.F.);
#345=ORIENTED_EDGE('',*,*,#268,.F.);
#346=ORIENTED_EDGE('',*,*,#269,.F.);
#347=ORIENTED_EDGE('',*,*,#270,.F.);
#348=ORIENTED_EDGE('',*,*,#256,.F.);
#349=ORIENTED_EDGE('',*,*,#271,.F.);
#350=ORIENTED_EDGE('',*,*,#272,.F.);
#351=ORIENTED_EDGE('',*,*,#273,.F.);
#352=ORIENTED_EDGE('',*,*,#252,.F.);
#353=ORIENTED_EDGE('',*,*,#274,.F.);
#354=ORIENTED_EDGE('',*,*,#275,.F.);
#355=ORIENTED_EDGE('',*,*,#276,.F.);
#356=ORIENTED_EDGE('',*,*,#264,.F.);
#357=ORIENTED_EDGE('',*,*,#277,.F.);
#358=ORIENTED_EDGE('',*,*,#278,.F.);
#359=ORIENTED_EDGE('',*,*,#247,.T.);
#360=ORIENTED_EDGE('',*,*,#267,.T.);
#361=ORIENTED_EDGE('',*,*,#279,.T.);
#362=ORIENTED_EDGE('',*,*,#280,.F.);
#363=ORIENTED_EDGE('',*,*,#261,.F.);
#364=ORIENTED_EDGE('',*,*,#277,.T.);
#365=ORIENTED_EDGE('',*,*,#263,.T.);
#366=ORIENTED_EDGE('',*,*,#281,.F.);
#367=ORIENTED_EDGE('',*,*,#282,.F.);
#368=ORIENTED_EDGE('',*,*,#278,.T.);
#369=ORIENTED_EDGE('',*,*,#282,.T.);
#370=ORIENTED_EDGE('',*,*,#283,.F.);
#371=ORIENTED_EDGE('',*,*,#279,.F.);
#372=ORIENTED_EDGE('',*,*,#280,.T.);
#373=ORIENTED_EDGE('',*,*,#283,.T.);
#374=ORIENTED_EDGE('',*,*,#281,.T.);
#375=ORIENTED_EDGE('',*,*,#262,.T.);
#376=ORIENTED_EDGE('',*,*,#276,.T.);
#377=ORIENTED_EDGE('',*,*,#284,.T.);
#378=ORIENTED_EDGE('',*,*,#285,.F.);
#379=ORIENTED_EDGE('',*,*,#265,.F.);
#380=ORIENTED_EDGE('',*,*,#274,.T.);
#381=ORIENTED_EDGE('',*,*,#251,.T.);
#382=ORIENTED_EDGE('',*,*,#286,.F.);
#383=ORIENTED_EDGE('',*,*,#287,.F.);
#384=ORIENTED_EDGE('',*,*,#275,.T.);
#385=ORIENTED_EDGE('',*,*,#287,.T.);
#386=ORIENTED_EDGE('',*,*,#288,.F.);
#387=ORIENTED_EDGE('',*,*,#284,.F.);
#388=ORIENTED_EDGE('',*,*,#285,.T.);
#389=ORIENTED_EDGE('',*,*,#288,.T.);
#390=ORIENTED_EDGE('',*,*,#286,.T.);
#391=ORIENTED_EDGE('',*,*,#250,.T.);
#392=ORIENTED_EDGE('',*,*,#266,.T.);
#393=ORIENTED_EDGE('',*,*,#270,.T.);
#394=ORIENTED_EDGE('',*,*,#289,.T.);
#395=ORIENTED_EDGE('',*,*,#290,.F.);
#396=ORIENTED_EDGE('',*,*,#257,.F.);
#397=ORIENTED_EDGE('',*,*,#268,.T.);
#398=ORIENTED_EDGE('',*,*,#259,.T.);
#399=ORIENTED_EDGE('',*,*,#291,.F.);
#400=ORIENTED_EDGE('',*,*,#292,.F.);
#401=ORIENTED_EDGE('',*,*,#269,.T.);
#402=ORIENTED_EDGE('',*,*,#292,.T.);
#403=ORIENTED_EDGE('',*,*,#293,.F.);
#404=ORIENTED_EDGE('',*,*,#289,.F.);
#405=ORIENTED_EDGE('',*,*,#290,.T.);
#406=ORIENTED_EDGE('',*,*,#293,.T.);
#407=ORIENTED_EDGE('',*,*,#291,.T.);
#408=ORIENTED_EDGE('',*,*,#258,.T.);
#409=ORIENTED_EDGE('',*,*,#273,.T.);
#410=ORIENTED_EDGE('',*,*,#294,.T.);
#411=ORIENTED_EDGE('',*,*,#295,.F.);
#412=ORIENTED_EDGE('',*,*,#253,.F.);
#413=ORIENTED_EDGE('',*,*,#271,.T.);
#414=ORIENTED_EDGE('',*,*,#255,.T.);
#415=ORIENTED_EDGE('',*,*,#296,.F.);
#416=ORIENTED_EDGE('',*,*,#297,.F.);
#417=ORIENTED_EDGE('',*,*,#272,.T.);
#418=ORIENTED_EDGE('',*,*,#297,.T.);
#419=ORIENTED_EDGE('',*,*,#298,.F.);
#420=ORIENTED_EDGE('',*,*,#294,.F.);
#421=ORIENTED_EDGE('',*,*,#295,.T.);
#422=ORIENTED_EDGE('',*,*,#298,.T.);
#423=ORIENTED_EDGE('',*,*,#296,.T.);
#424=ORIENTED_EDGE('',*,*,#254,.T.);
#425=CYLINDRICAL_SURFACE('',#474,2.15);
#426=CYLINDRICAL_SURFACE('',#479,1.);
#427=CYLINDRICAL_SURFACE('',#483,1.5);
#428=CYLINDRICAL_SURFACE('',#485,2.5);
#429=CYLINDRICAL_SURFACE('',#488,3.5);
#430=CYLINDRICAL_SURFACE('',#508,2.);
#431=CYLINDRICAL_SURFACE('',#513,2.);
#432=CYLINDRICAL_SURFACE('',#518,2.);
#433=CYLINDRICAL_SURFACE('',#523,2.);
#434=ADVANCED_FACE('',(#37),#425,.F.);
#435=ADVANCED_FACE('',(#38,#15),#20,.F.);
#436=ADVANCED_FACE('',(#39),#426,.F.);
#437=ADVANCED_FACE('',(#40,#16),#21,.T.);
#438=ADVANCED_FACE('',(#41),#427,.F.);
#439=ADVANCED_FACE('',(#42),#428,.T.);
#440=ADVANCED_FACE('',(#43),#429,.T.);
#441=ADVANCED_FACE('',(#44,#17),#22,.T.);
#442=ADVANCED_FACE('',(#45,#18),#23,.F.);
#443=ADVANCED_FACE('',(#46,#19),#24,.F.);
#444=ADVANCED_FACE('',(#47),#25,.T.);
#445=ADVANCED_FACE('',(#48),#26,.T.);
#446=ADVANCED_FACE('',(#49),#430,.T.);
#447=ADVANCED_FACE('',(#50),#27,.T.);
#448=ADVANCED_FACE('',(#51),#28,.T.);
#449=ADVANCED_FACE('',(#52),#29,.T.);
#450=ADVANCED_FACE('',(#53),#431,.T.);
#451=ADVANCED_FACE('',(#54),#30,.T.);
#452=ADVANCED_FACE('',(#55),#31,.T.);
#453=ADVANCED_FACE('',(#56),#32,.T.);
#454=ADVANCED_FACE('',(#57),#432,.T.);
#455=ADVANCED_FACE('',(#58),#33,.T.);
#456=ADVANCED_FACE('',(#59),#34,.T.);
#457=ADVANCED_FACE('',(#60),#35,.T.);
#458=ADVANCED_FACE('',(#61),#433,.T.);
#459=ADVANCED_FACE('',(#62),#36,.T.);
#460=CLOSED_SHELL('',(#434,#435,#436,#437,#438,#439,#440,#441,#442,#443,
#444,#445,#446,#447,#448,#449,#450,#451,#452,#453,#454,#455,#456,#457,#458,
#459));
#461=DERIVED_UNIT_ELEMENT(#463,1.);
#462=DERIVED_UNIT_ELEMENT(#806,-3.);
#463=(
MASS_UNIT()
NAMED_UNIT(*)
SI_UNIT(.KILO.,.GRAM.)
);
#464=DERIVED_UNIT((#461,#462));
#465=MEASURE_REPRESENTATION_ITEM('density measure',
POSITIVE_RATIO_MEASURE(7850.),#464);
#466=PROPERTY_DEFINITION_REPRESENTATION(#471,#468);
#467=PROPERTY_DEFINITION_REPRESENTATION(#472,#469);
#468=REPRESENTATION('material name',(#470),#803);
#469=REPRESENTATION('density',(#465),#803);
#470=DESCRIPTIVE_REPRESENTATION_ITEM('Steel','Steel');
#471=PROPERTY_DEFINITION('material property','material name',#813);
#472=PROPERTY_DEFINITION('material property','density of part',#813);
#473=AXIS2_PLACEMENT_3D('',#669,#526,#527);
#474=AXIS2_PLACEMENT_3D('',#670,#528,#529);
#475=AXIS2_PLACEMENT_3D('',#672,#530,#531);
#476=AXIS2_PLACEMENT_3D('',#675,#533,#534);
#477=AXIS2_PLACEMENT_3D('',#676,#535,#536);
#478=AXIS2_PLACEMENT_3D('',#678,#537,#538);
#479=AXIS2_PLACEMENT_3D('',#679,#539,#540);
#480=AXIS2_PLACEMENT_3D('',#681,#541,#542);
#481=AXIS2_PLACEMENT_3D('',#683,#544,#545);
#482=AXIS2_PLACEMENT_3D('',#685,#546,#547);
#483=AXIS2_PLACEMENT_3D('',#686,#548,#549);
#484=AXIS2_PLACEMENT_3D('',#688,#550,#551);
#485=AXIS2_PLACEMENT_3D('',#690,#553,#554);
#486=AXIS2_PLACEMENT_3D('',#692,#555,#556);
#487=AXIS2_PLACEMENT_3D('',#695,#558,#559);
#488=AXIS2_PLACEMENT_3D('',#696,#560,#561);
#489=AXIS2_PLACEMENT_3D('',#698,#562,#563);
#490=AXIS2_PLACEMENT_3D('',#702,#565,#566);
#491=AXIS2_PLACEMENT_3D('',#706,#568,#569);
#492=AXIS2_PLACEMENT_3D('',#710,#571,#572);
#493=AXIS2_PLACEMENT_3D('',#714,#574,#575);
#494=AXIS2_PLACEMENT_3D('',#718,#577,#578);
#495=AXIS2_PLACEMENT_3D('',#722,#580,#581);
#496=AXIS2_PLACEMENT_3D('',#726,#583,#584);
#497=AXIS2_PLACEMENT_3D('',#730,#586,#587);
#498=AXIS2_PLACEMENT_3D('',#733,#589,#590);
#499=AXIS2_PLACEMENT_3D('',#734,#591,#592);
#500=AXIS2_PLACEMENT_3D('',#735,#593,#594);
#501=AXIS2_PLACEMENT_3D('',#736,#595,#596);
#502=AXIS2_PLACEMENT_3D('',#742,#599,#600);
#503=AXIS2_PLACEMENT_3D('',#747,#603,#604);
#504=AXIS2_PLACEMENT_3D('',#752,#607,#608);
#505=AXIS2_PLACEMENT_3D('',#756,#611,#612);
#506=AXIS2_PLACEMENT_3D('',#757,#613,#614);
#507=AXIS2_PLACEMENT_3D('',#761,#617,#618);
#508=AXIS2_PLACEMENT_3D('',#765,#621,#622);
#509=AXIS2_PLACEMENT_3D('',#766,#623,#624);
#510=AXIS2_PLACEMENT_3D('',#767,#625,#626);
#511=AXIS2_PLACEMENT_3D('',#768,#627,#628);
#512=AXIS2_PLACEMENT_3D('',#772,#631,#632);
#513=AXIS2_PLACEMENT_3D('',#776,#635,#636);
#514=AXIS2_PLACEMENT_3D('',#777,#637,#638);
#515=AXIS2_PLACEMENT_3D('',#778,#639,#640);
#516=AXIS2_PLACEMENT_3D('',#779,#641,#642);
#517=AXIS2_PLACEMENT_3D('',#783,#645,#646);
#518=AXIS2_PLACEMENT_3D('',#787,#649,#650);
#519=AXIS2_PLACEMENT_3D('',#788,#651,#652);
#520=AXIS2_PLACEMENT_3D('',#789,#653,#654);
#521=AXIS2_PLACEMENT_3D('',#790,#655,#656);
#522=AXIS2_PLACEMENT_3D('',#794,#659,#660);
#523=AXIS2_PLACEMENT_3D('',#798,#663,#664);
#524=AXIS2_PLACEMENT_3D('',#799,#665,#666);
#525=AXIS2_PLACEMENT_3D('',#800,#667,#668);
#526=DIRECTION('axis',(0.,0.,1.));
#527=DIRECTION('refdir',(1.,0.,0.));
#528=DIRECTION('center_axis',(0.,0.,1.));
#529=DIRECTION('ref_axis',(1.,0.,0.));
#530=DIRECTION('center_axis',(0.,0.,1.));
#531=DIRECTION('ref_axis',(1.,0.,0.));
#532=DIRECTION('',(0.,0.,1.));
#533=DIRECTION('center_axis',(0.,0.,1.));
#534=DIRECTION('ref_axis',(1.,0.,0.));
#535=DIRECTION('center_axis',(0.,0.,1.));
#536=DIRECTION('ref_axis',(1.,0.,0.));
#537=DIRECTION('center_axis',(0.,0.,-1.));
#538=DIRECTION('ref_axis',(1.,0.,0.));
#539=DIRECTION('center_axis',(0.,0.,1.));
#540=DIRECTION('ref_axis',(1.,0.,0.));
#541=DIRECTION('center_axis',(0.,0.,-1.));
#542=DIRECTION('ref_axis',(1.,0.,0.));
#543=DIRECTION('',(0.,0.,-1.));
#544=DIRECTION('center_axis',(0.,0.,1.));
#545=DIRECTION('ref_axis',(1.,0.,0.));
#546=DIRECTION('center_axis',(0.,0.,-1.));
#547=DIRECTION('ref_axis',(1.,0.,0.));
#548=DIRECTION('center_axis',(0.,0.,1.));
#549=DIRECTION('ref_axis',(1.,0.,0.));
#550=DIRECTION('center_axis',(0.,0.,-1.));
#551=DIRECTION('ref_axis',(1.,0.,0.));
#552=DIRECTION('',(0.,0.,-1.));
#553=DIRECTION('center_axis',(0.,0.,1.));
#554=DIRECTION('ref_axis',(1.,0.,0.));
#555=DIRECTION('center_axis',(0.,0.,-1.));
#556=DIRECTION('ref_axis',(1.,0.,0.));
#557=DIRECTION('',(0.,0.,1.));
#558=DIRECTION('center_axis',(0.,0.,1.));
#559=DIRECTION('ref_axis',(1.,0.,0.));
#560=DIRECTION('center_axis',(0.,0.,1.));
#561=DIRECTION('ref_axis',(1.,0.,0.));
#562=DIRECTION('center_axis',(0.,0.,1.));
#563=DIRECTION('ref_axis',(1.,0.,0.));
#564=DIRECTION('',(0.,0.,-1.));
#565=DIRECTION('center_axis',(0.,0.,-1.));
#566=DIRECTION('ref_axis',(1.,0.,0.));
#567=DIRECTION('',(0.,0.,1.));
#568=DIRECTION('center_axis',(0.,0.,1.));
#569=DIRECTION('ref_axis',(1.,0.,0.));
#570=DIRECTION('',(0.,0.,1.));
#571=DIRECTION('center_axis',(0.,0.,-1.));
#572=DIRECTION('ref_axis',(1.,0.,0.));
#573=DIRECTION('',(0.,0.,1.));
#574=DIRECTION('center_axis',(0.,0.,1.));
#575=DIRECTION('ref_axis',(1.,0.,0.));
#576=DIRECTION('',(0.,0.,1.));
#577=DIRECTION('center_axis',(0.,0.,-1.));
#578=DIRECTION('ref_axis',(1.,0.,0.));
#579=DIRECTION('',(0.,0.,1.));
#580=DIRECTION('center_axis',(0.,0.,1.));
#581=DIRECTION('ref_axis',(1.,0.,0.));
#582=DIRECTION('',(0.,0.,1.));
#583=DIRECTION('center_axis',(0.,0.,-1.));
#584=DIRECTION('ref_axis',(1.,0.,0.));
#585=DIRECTION('',(0.,0.,1.));
#586=DIRECTION('center_axis',(0.,0.,1.));
#587=DIRECTION('ref_axis',(1.,0.,0.));
#588=DIRECTION('',(0.,0.,1.));
#589=DIRECTION('center_axis',(0.,0.,-1.));
#590=DIRECTION('ref_axis',(1.,0.,0.));
#591=DIRECTION('center_axis',(0.,0.,1.));
#592=DIRECTION('ref_axis',(1.,0.,0.));
#593=DIRECTION('center_axis',(0.,0.,1.));
#594=DIRECTION('ref_axis',(1.,0.,0.));
#595=DIRECTION('center_axis',(0.,0.,1.));
#596=DIRECTION('ref_axis',(1.,0.,0.));
#597=DIRECTION('',(1.34483853137057E-16,1.,0.));
#598=DIRECTION('',(-1.,0.,0.));
#599=DIRECTION('center_axis',(0.,0.,1.));
#600=DIRECTION('ref_axis',(0.,-1.,0.));
#601=DIRECTION('',(1.,0.,0.));
#602=DIRECTION('',(0.,1.,0.));
#603=DIRECTION('center_axis',(0.,0.,1.));
#604=DIRECTION('ref_axis',(-1.,0.,0.));
#605=DIRECTION('',(-2.01725779705586E-16,-1.,0.));
#606=DIRECTION('',(1.,0.,0.));
#607=DIRECTION('center_axis',(0.,0.,1.));
#608=DIRECTION('ref_axis',(0.,1.,0.));
#609=DIRECTION('',(-1.,0.,0.));
#610=DIRECTION('',(0.,-1.,0.));
#611=DIRECTION('center_axis',(0.,0.,1.));
#612=DIRECTION('ref_axis',(1.,0.,0.));
#613=DIRECTION('center_axis',(1.,-1.34483853137057E-16,0.));
#614=DIRECTION('ref_axis',(1.34483853137057E-16,1.,0.));
#615=DIRECTION('',(0.,0.,1.));
#616=DIRECTION('',(1.34483853137057E-16,1.,0.));
#617=DIRECTION('center_axis',(-1.,0.,0.));
#618=DIRECTION('ref_axis',(0.,-1.,0.));
#619=DIRECTION('',(0.,-1.,0.));
#620=DIRECTION('',(0.,0.,1.));
#621=DIRECTION('center_axis',(0.,0.,1.));
#622=DIRECTION('ref_axis',(1.,0.,0.));
#623=DIRECTION('center_axis',(0.,0.,1.));
#624=DIRECTION('ref_axis',(1.,0.,0.));
#625=DIRECTION('center_axis',(0.,0.,1.));
#626=DIRECTION('ref_axis',(1.,0.,0.));
#627=DIRECTION('center_axis',(0.,1.,0.));
#628=DIRECTION('ref_axis',(-1.,0.,0.));
#629=DIRECTION('',(0.,0.,1.));
#630=DIRECTION('',(-1.,0.,0.));
#631=DIRECTION('center_axis',(0.,-1.,0.));
#632=DIRECTION('ref_axis',(1.,0.,0.));
#633=DIRECTION('',(1.,0.,0.));
#634=DIRECTION('',(0.,0.,1.));
#635=DIRECTION('center_axis',(0.,0.,1.));
#636=DIRECTION('ref_axis',(0.,1.,0.));
#637=DIRECTION('center_axis',(0.,0.,1.));
#638=DIRECTION('ref_axis',(0.,1.,0.));
#639=DIRECTION('center_axis',(0.,0.,1.));
#640=DIRECTION('ref_axis',(1.,0.,0.));
#641=DIRECTION('center_axis',(0.,-1.,0.));
#642=DIRECTION('ref_axis',(1.,0.,0.));
#643=DIRECTION('',(0.,0.,1.));
#644=DIRECTION('',(1.,0.,0.));
#645=DIRECTION('center_axis',(0.,1.,0.));
#646=DIRECTION('ref_axis',(-1.,0.,0.));
#647=DIRECTION('',(-1.,0.,0.));
#648=DIRECTION('',(0.,0.,1.));
#649=DIRECTION('center_axis',(0.,0.,1.));
#650=DIRECTION('ref_axis',(0.,-1.,0.));
#651=DIRECTION('center_axis',(0.,0.,1.));
#652=DIRECTION('ref_axis',(0.,-1.,0.));
#653=DIRECTION('center_axis',(0.,0.,1.));
#654=DIRECTION('ref_axis',(1.,0.,0.));
#655=DIRECTION('center_axis',(-1.,2.01725779705586E-16,0.));
#656=DIRECTION('ref_axis',(-2.01725779705586E-16,-1.,0.));
#657=DIRECTION('',(0.,0.,1.));
#658=DIRECTION('',(-2.01725779705586E-16,-1.,0.));
#659=DIRECTION('center_axis',(1.,0.,0.));
#660=DIRECTION('ref_axis',(0.,1.,0.));
#661=DIRECTION('',(0.,1.,0.));
#662=DIRECTION('',(0.,0.,1.));
#663=DIRECTION('center_axis',(0.,0.,1.));
#664=DIRECTION('ref_axis',(-1.,0.,0.));
#665=DIRECTION('center_axis',(0.,0.,1.));
#666=DIRECTION('ref_axis',(-1.,0.,0.));
#667=DIRECTION('center_axis',(0.,0.,1.));
#668=DIRECTION('ref_axis',(1.,0.,0.));
#669=CARTESIAN_POINT('',(0.,0.,0.));
#670=CARTESIAN_POINT('Origin',(0.,0.,0.));
#671=CARTESIAN_POINT('',(-2.15,-2.63299061816681E-16,0.));
#672=CARTESIAN_POINT('Origin',(0.,0.,0.));
#673=CARTESIAN_POINT('',(-2.15,-2.63299061816681E-16,0.6));
#674=CARTESIAN_POINT('',(-2.15,-2.63299061816681E-16,0.));
#675=CARTESIAN_POINT('Origin',(0.,0.,0.6));
#676=CARTESIAN_POINT('Origin',(0.,0.,0.6));
#677=CARTESIAN_POINT('',(-1.,-1.22464679914735E-16,0.6));
#678=CARTESIAN_POINT('Origin',(0.,0.,0.6));
#679=CARTESIAN_POINT('Origin',(0.,0.,0.));
#680=CARTESIAN_POINT('',(-1.,-1.22464679914735E-16,6.));
#681=CARTESIAN_POINT('Origin',(0.,0.,6.));
#682=CARTESIAN_POINT('',(-1.,-1.22464679914735E-16,0.));
#683=CARTESIAN_POINT('Origin',(0.,0.,6.));
#684=CARTESIAN_POINT('',(-1.5,-1.83697019872103E-16,6.));
#685=CARTESIAN_POINT('Origin',(0.,0.,6.));
#686=CARTESIAN_POINT('Origin',(0.,0.,0.));
#687=CARTESIAN_POINT('',(-1.5,-1.83697019872103E-16,9.5));
#688=CARTESIAN_POINT('Origin',(0.,0.,9.5));
#689=CARTESIAN_POINT('',(-1.5,-1.83697019872103E-16,0.));
#690=CARTESIAN_POINT('Origin',(0.,0.,0.));
#691=CARTESIAN_POINT('',(-2.5,-3.06161699786838E-16,0.));
#692=CARTESIAN_POINT('Origin',(0.,0.,0.));
#693=CARTESIAN_POINT('',(-2.5,-3.06161699786838E-16,0.6));
#694=CARTESIAN_POINT('',(-2.5,-3.06161699786838E-16,0.));
#695=CARTESIAN_POINT('Origin',(0.,0.,0.6));
#696=CARTESIAN_POINT('Origin',(0.,0.,0.));
#697=CARTESIAN_POINT('',(-3.5,-4.28626379701574E-16,9.5));
#698=CARTESIAN_POINT('Origin',(0.,0.,9.5));
#699=CARTESIAN_POINT('',(-3.5,-4.28626379701574E-16,2.2));
#700=CARTESIAN_POINT('',(-3.5,-4.28626379701574E-16,0.));
#701=CARTESIAN_POINT('',(-2.87228132326901,-2.,2.2));
#702=CARTESIAN_POINT('Origin',(0.,0.,2.2));
#703=CARTESIAN_POINT('',(-2.87228132326901,-2.,0.6));
#704=CARTESIAN_POINT('',(-2.87228132326901,-2.,0.));
#705=CARTESIAN_POINT('',(-2.,-2.87228132326902,0.6));
#706=CARTESIAN_POINT('Origin',(0.,0.,0.6));
#707=CARTESIAN_POINT('',(-2.,-2.87228132326902,2.2));
#708=CARTESIAN_POINT('',(-2.,-2.87228132326902,0.));
#709=CARTESIAN_POINT('',(2.,-2.87228132326901,2.2));
#710=CARTESIAN_POINT('Origin',(0.,0.,2.2));
#711=CARTESIAN_POINT('',(2.,-2.87228132326901,0.6));
#712=CARTESIAN_POINT('',(2.,-2.87228132326901,0.));
#713=CARTESIAN_POINT('',(2.87228132326901,-2.,0.6));
#714=CARTESIAN_POINT('Origin',(0.,0.,0.6));
#715=CARTESIAN_POINT('',(2.87228132326901,-2.,2.2));
#716=CARTESIAN_POINT('',(2.87228132326901,-2.,0.));
#717=CARTESIAN_POINT('',(2.87228132326901,2.,2.2));
#718=CARTESIAN_POINT('Origin',(0.,0.,2.2));
#719=CARTESIAN_POINT('',(2.87228132326901,2.,0.6));
#720=CARTESIAN_POINT('',(2.87228132326901,2.,0.));
#721=CARTESIAN_POINT('',(2.,2.87228132326901,0.6));
#722=CARTESIAN_POINT('Origin',(0.,0.,0.6));
#723=CARTESIAN_POINT('',(2.,2.87228132326901,2.2));
#724=CARTESIAN_POINT('',(2.,2.87228132326901,0.));
#725=CARTESIAN_POINT('',(-2.,2.87228132326901,2.2));
#726=CARTESIAN_POINT('Origin',(0.,0.,2.2));
#727=CARTESIAN_POINT('',(-2.,2.87228132326901,0.6));
#728=CARTESIAN_POINT('',(-2.,2.87228132326901,0.));
#729=CARTESIAN_POINT('',(-2.87228132326901,2.,0.6));
#730=CARTESIAN_POINT('Origin',(0.,0.,0.6));
#731=CARTESIAN_POINT('',(-2.87228132326901,2.,2.2));
#732=CARTESIAN_POINT('',(-2.87228132326901,2.,0.));
#733=CARTESIAN_POINT('Origin',(0.,0.,2.2));
#734=CARTESIAN_POINT('Origin',(0.,0.,9.5));
#735=CARTESIAN_POINT('Origin',(0.,0.,0.));
#736=CARTESIAN_POINT('Origin',(0.,5.93614066163451,0.6));
#737=CARTESIAN_POINT('',(2.,7.,0.6));
#738=CARTESIAN_POINT('',(2.,4.40421099245176,0.6));
#739=CARTESIAN_POINT('',(8.95,2.,0.6));
#740=CARTESIAN_POINT('',(7.93057033081725,2.,0.6));
#741=CARTESIAN_POINT('',(8.95,-2.,0.6));
#742=CARTESIAN_POINT('Origin',(8.95,0.,0.6));
#743=CARTESIAN_POINT('',(4.89171099245176,-2.,0.6));
#744=CARTESIAN_POINT('',(2.,-7.,0.6));
#745=CARTESIAN_POINT('',(2.,-6.46807033081726,0.6));
#746=CARTESIAN_POINT('',(-2.,-7.,0.6));
#747=CARTESIAN_POINT('Origin',(0.,-7.,0.6));
#748=CARTESIAN_POINT('',(-2.,-4.40421099245176,0.6));
#749=CARTESIAN_POINT('',(-8.95,-2.,0.6));
#750=CARTESIAN_POINT('',(-7.93057033081725,-2.,0.6));
#751=CARTESIAN_POINT('',(-8.95,2.,0.6));
#752=CARTESIAN_POINT('Origin',(-8.95,0.,0.6));
#753=CARTESIAN_POINT('',(-4.89171099245176,2.,0.6));
#754=CARTESIAN_POINT('',(-2.,7.,0.6));
#755=CARTESIAN_POINT('',(-2.,6.46807033081726,0.6));
#756=CARTESIAN_POINT('Origin',(0.,7.,0.6));
#757=CARTESIAN_POINT('Origin',(2.,2.87228132326901,0.));
#758=CARTESIAN_POINT('',(2.,7.,2.2));
#759=CARTESIAN_POINT('',(2.,7.,0.));
#760=CARTESIAN_POINT('',(2.,2.87228132326901,2.2));
#761=CARTESIAN_POINT('Origin',(-2.,7.,0.));
#762=CARTESIAN_POINT('',(-2.,7.,2.2));
#763=CARTESIAN_POINT('',(-2.,7.,2.2));
#764=CARTESIAN_POINT('',(-2.,7.,0.));
#765=CARTESIAN_POINT('Origin',(0.,7.,0.));
#766=CARTESIAN_POINT('Origin',(0.,7.,2.2));
#767=CARTESIAN_POINT('Origin',(0.,5.93614066163451,2.2));
#768=CARTESIAN_POINT('Origin',(-2.87228132326901,2.,0.));
#769=CARTESIAN_POINT('',(-8.95,2.,2.2));
#770=CARTESIAN_POINT('',(-8.95,2.,0.));
#771=CARTESIAN_POINT('',(-2.87228132326901,2.,2.2));
#772=CARTESIAN_POINT('Origin',(-8.95,-2.,0.));
#773=CARTESIAN_POINT('',(-8.95,-2.,2.2));
#774=CARTESIAN_POINT('',(-8.95,-2.,2.2));
#775=CARTESIAN_POINT('',(-8.95,-2.,0.));
#776=CARTESIAN_POINT('Origin',(-8.95,0.,0.));
#777=CARTESIAN_POINT('Origin',(-8.95,0.,2.2));
#778=CARTESIAN_POINT('Origin',(-6.91114066163451,5.55111512312578E-16,2.2));
#779=CARTESIAN_POINT('Origin',(2.87228132326901,-2.,0.));
#780=CARTESIAN_POINT('',(8.95,-2.,2.2));
#781=CARTESIAN_POINT('',(8.95,-2.,0.));
#782=CARTESIAN_POINT('',(2.87228132326901,-2.,2.2));
#783=CARTESIAN_POINT('Origin',(8.95,2.,0.));
#784=CARTESIAN_POINT('',(8.95,2.,2.2));
#785=CARTESIAN_POINT('',(8.95,2.,2.2));
#786=CARTESIAN_POINT('',(8.95,2.,0.));
#787=CARTESIAN_POINT('Origin',(8.95,0.,0.));
#788=CARTESIAN_POINT('Origin',(8.95,0.,2.2));
#789=CARTESIAN_POINT('Origin',(6.91114066163451,0.,2.2));
#790=CARTESIAN_POINT('Origin',(-2.,-2.87228132326902,0.));
#791=CARTESIAN_POINT('',(-2.,-7.,2.2));
#792=CARTESIAN_POINT('',(-2.,-7.,0.));
#793=CARTESIAN_POINT('',(-2.,-2.87228132326902,2.2));
#794=CARTESIAN_POINT('Origin',(2.,-7.,0.));
#795=CARTESIAN_POINT('',(2.,-7.,2.2));
#796=CARTESIAN_POINT('',(2.,-7.,2.2));
#797=CARTESIAN_POINT('',(2.,-7.,0.));
#798=CARTESIAN_POINT('Origin',(0.,-7.,0.));
#799=CARTESIAN_POINT('Origin',(0.,-7.,2.2));
#800=CARTESIAN_POINT('Origin',(0.,-5.93614066163451,2.2));
#801=UNCERTAINTY_MEASURE_WITH_UNIT(LENGTH_MEASURE(0.01),#805,
'DISTANCE_ACCURACY_VALUE',
'Maximum model space distance between geometric entities at asserted c
onnectivities');
#802=UNCERTAINTY_MEASURE_WITH_UNIT(LENGTH_MEASURE(0.01),#805,
'DISTANCE_ACCURACY_VALUE',
'Maximum model space distance between geometric entities at asserted c
onnectivities');
#803=(
GEOMETRIC_REPRESENTATION_CONTEXT(3)
GLOBAL_UNCERTAINTY_ASSIGNED_CONTEXT((#801))
GLOBAL_UNIT_ASSIGNED_CONTEXT((#805,#807,#808))
REPRESENTATION_CONTEXT('','3D')
);
#804=(
GEOMETRIC_REPRESENTATION_CONTEXT(3)
GLOBAL_UNCERTAINTY_ASSIGNED_CONTEXT((#802))
GLOBAL_UNIT_ASSIGNED_CONTEXT((#805,#807,#808))
REPRESENTATION_CONTEXT('','3D')
);
#805=(
LENGTH_UNIT()
NAMED_UNIT(*)
SI_UNIT(.MILLI.,.METRE.)
);
#806=(
LENGTH_UNIT()
NAMED_UNIT(*)
SI_UNIT($,.METRE.)
);
#807=(
NAMED_UNIT(*)
PLANE_ANGLE_UNIT()
SI_UNIT($,.RADIAN.)
);
#808=(
NAMED_UNIT(*)
SI_UNIT($,.STERADIAN.)
SOLID_ANGLE_UNIT()
);
#809=SHAPE_DEFINITION_REPRESENTATION(#810,#811);
#810=PRODUCT_DEFINITION_SHAPE('',$,#813);
#811=SHAPE_REPRESENTATION('',(#473),#803);
#812=PRODUCT_DEFINITION_CONTEXT('part definition',#817,'design');
#813=PRODUCT_DEFINITION('2026-08-26-16-07-07-120',
'Pan-Tilt base-connector',#814,#812);
#814=PRODUCT_DEFINITION_FORMATION('',$,#819);
#815=PRODUCT_RELATED_PRODUCT_CATEGORY('Pan-Tilt base-connector',
'Pan-Tilt base-connector',(#819));
#816=APPLICATION_PROTOCOL_DEFINITION('international standard',
'automotive_design',2009,#817);
#817=APPLICATION_CONTEXT(
'Core Data for Automotive Mechanical Design Process');
#818=PRODUCT_CONTEXT('part definition',#817,'mechanical');
#819=PRODUCT('2026-08-26-16-07-07-120','Pan-Tilt base-connector',$,(#818));
#820=PRESENTATION_STYLE_ASSIGNMENT((#821));
#821=SURFACE_STYLE_USAGE(.BOTH.,#822);
#822=SURFACE_SIDE_STYLE('',(#823));
#823=SURFACE_STYLE_FILL_AREA(#824);
#824=FILL_AREA_STYLE('Steel - Satin',(#825));
#825=FILL_AREA_STYLE_COLOUR('Steel - Satin',#826);
#826=COLOUR_RGB('Steel - Satin',0.627450980392157,0.627450980392157,0.627450980392157);
ENDSEC;
END-ISO-10303-21;
