ISO-10303-21;
HEADER;
/* Generated by software containing ST-Developer
 * from STEP Tools, Inc. (www.steptools.com) 
 */

FILE_DESCRIPTION(
/* description */ (''),
/* implementation_level */ '2;1');

FILE_NAME(
/* name */ 'Pan-Tilt Main Body.step',
/* time_stamp */ '2026-09-03T12:21:00+03:00',
/* author */ (''),
/* organization */ (''),
/* preprocessor_version */ 'ST-DEVELOPER v20.1',
/* originating_system */ 'Autodesk Translation Framework v15.8.0.0',
/* authorisation */ '');

FILE_SCHEMA (('AUTOMOTIVE_DESIGN { 1 0 10303 214 3 1 1 }'));
ENDSEC;

DATA;
#10=MECHANICAL_DESIGN_GEOMETRIC_PRESENTATION_REPRESENTATION('',(#13),#958);
#11=SHAPE_REPRESENTATION_RELATIONSHIP('SRR','None',#965,#12);
#12=ADVANCED_BREP_SHAPE_REPRESENTATION('',(#14),#957);
#13=STYLED_ITEM('',(#974),#14);
#14=MANIFOLD_SOLID_BREP('Body1',#561);
#15=CYLINDRICAL_SURFACE('',#591,2.);
#16=CYLINDRICAL_SURFACE('',#594,2.);
#17=CYLINDRICAL_SURFACE('',#599,0.899999999999999);
#18=CYLINDRICAL_SURFACE('',#601,2.);
#19=CYLINDRICAL_SURFACE('',#604,0.9);
#20=CYLINDRICAL_SURFACE('',#606,2.);
#21=CYLINDRICAL_SURFACE('',#610,1.9);
#22=CYLINDRICAL_SURFACE('',#614,1.);
#23=CYLINDRICAL_SURFACE('',#616,5.9);
#24=CYLINDRICAL_SURFACE('',#619,1.00000000000002);
#25=CYLINDRICAL_SURFACE('',#621,3.25);
#26=FACE_BOUND('',#88,.T.);
#27=FACE_BOUND('',#91,.T.);
#28=FACE_BOUND('',#101,.T.);
#29=FACE_BOUND('',#106,.T.);
#30=FACE_BOUND('',#114,.T.);
#31=CIRCLE('',#577,2.);
#32=CIRCLE('',#578,2.);
#33=CIRCLE('',#579,0.9);
#34=CIRCLE('',#582,2.);
#35=CIRCLE('',#583,2.);
#36=CIRCLE('',#584,0.899999999999999);
#37=CIRCLE('',#586,5.9);
#38=CIRCLE('',#587,1.00000000000002);
#39=CIRCLE('',#588,3.25);
#40=CIRCLE('',#589,1.);
#41=CIRCLE('',#590,5.9);
#42=CIRCLE('',#592,2.);
#43=CIRCLE('',#595,2.);
#44=CIRCLE('',#598,5.9);
#45=CIRCLE('',#600,0.899999999999999);
#46=CIRCLE('',#602,2.);
#47=CIRCLE('',#605,0.9);
#48=CIRCLE('',#607,2.);
#49=CIRCLE('',#611,1.9);
#50=CIRCLE('',#612,1.9);
#51=CIRCLE('',#615,1.);
#52=CIRCLE('',#617,5.9);
#53=CIRCLE('',#618,5.9);
#54=CIRCLE('',#620,1.00000000000002);
#55=CIRCLE('',#622,3.25);
#56=FACE_OUTER_BOUND('',#86,.T.);
#57=FACE_OUTER_BOUND('',#87,.T.);
#58=FACE_OUTER_BOUND('',#89,.T.);
#59=FACE_OUTER_BOUND('',#90,.T.);
#60=FACE_OUTER_BOUND('',#92,.T.);
#61=FACE_OUTER_BOUND('',#93,.T.);
#62=FACE_OUTER_BOUND('',#94,.T.);
#63=FACE_OUTER_BOUND('',#95,.T.);
#64=FACE_OUTER_BOUND('',#96,.T.);
#65=FACE_OUTER_BOUND('',#97,.T.);
#66=FACE_OUTER_BOUND('',#98,.T.);
#67=FACE_OUTER_BOUND('',#99,.T.);
#68=FACE_OUTER_BOUND('',#100,.T.);
#69=FACE_OUTER_BOUND('',#102,.T.);
#70=FACE_OUTER_BOUND('',#103,.T.);
#71=FACE_OUTER_BOUND('',#104,.T.);
#72=FACE_OUTER_BOUND('',#105,.T.);
#73=FACE_OUTER_BOUND('',#107,.T.);
#74=FACE_OUTER_BOUND('',#108,.T.);
#75=FACE_OUTER_BOUND('',#109,.T.);
#76=FACE_OUTER_BOUND('',#110,.T.);
#77=FACE_OUTER_BOUND('',#111,.T.);
#78=FACE_OUTER_BOUND('',#112,.T.);
#79=FACE_OUTER_BOUND('',#113,.T.);
#80=FACE_OUTER_BOUND('',#115,.T.);
#81=FACE_OUTER_BOUND('',#116,.T.);
#82=FACE_OUTER_BOUND('',#117,.T.);
#83=FACE_OUTER_BOUND('',#118,.T.);
#84=FACE_OUTER_BOUND('',#119,.T.);
#85=FACE_OUTER_BOUND('',#120,.T.);
#86=EDGE_LOOP('',(#356,#357,#358,#359));
#87=EDGE_LOOP('',(#360,#361,#362,#363,#364,#365));
#88=EDGE_LOOP('',(#366));
#89=EDGE_LOOP('',(#367,#368,#369,#370,#371));
#90=EDGE_LOOP('',(#372,#373,#374,#375,#376,#377));
#91=EDGE_LOOP('',(#378));
#92=EDGE_LOOP('',(#379,#380,#381,#382,#383,#384,#385,#386));
#93=EDGE_LOOP('',(#387,#388,#389,#390));
#94=EDGE_LOOP('',(#391,#392,#393,#394));
#95=EDGE_LOOP('',(#395,#396,#397,#398));
#96=EDGE_LOOP('',(#399,#400,#401,#402,#403,#404,#405,#406,#407,#408,#409,
#410,#411,#412));
#97=EDGE_LOOP('',(#413,#414,#415));
#98=EDGE_LOOP('',(#416,#417,#418,#419));
#99=EDGE_LOOP('',(#420,#421,#422,#423));
#100=EDGE_LOOP('',(#424,#425,#426,#427,#428,#429));
#101=EDGE_LOOP('',(#430));
#102=EDGE_LOOP('',(#431,#432,#433,#434));
#103=EDGE_LOOP('',(#435,#436,#437,#438));
#104=EDGE_LOOP('',(#439,#440,#441,#442));
#105=EDGE_LOOP('',(#443,#444,#445,#446,#447,#448));
#106=EDGE_LOOP('',(#449));
#107=EDGE_LOOP('',(#450,#451,#452,#453));
#108=EDGE_LOOP('',(#454));
#109=EDGE_LOOP('',(#455,#456,#457,#458));
#110=EDGE_LOOP('',(#459,#460,#461,#462,#463,#464,#465));
#111=EDGE_LOOP('',(#466,#467,#468,#469));
#112=EDGE_LOOP('',(#470,#471,#472,#473));
#113=EDGE_LOOP('',(#474,#475,#476,#477));
#114=EDGE_LOOP('',(#478));
#115=EDGE_LOOP('',(#479,#480,#481));
#116=EDGE_LOOP('',(#482,#483,#484,#485));
#117=EDGE_LOOP('',(#486,#487,#488,#489));
#118=EDGE_LOOP('',(#490,#491,#492,#493));
#119=EDGE_LOOP('',(#494,#495,#496,#497));
#120=EDGE_LOOP('',(#498,#499,#500,#501,#502,#503,#504,#505,#506,#507,#508,
#509,#510,#511));
#121=LINE('',#799,#174);
#122=LINE('',#801,#175);
#123=LINE('',#803,#176);
#124=LINE('',#804,#177);
#125=LINE('',#809,#178);
#126=LINE('',#811,#179);
#127=LINE('',#814,#180);
#128=LINE('',#820,#181);
#129=LINE('',#822,#182);
#130=LINE('',#824,#183);
#131=LINE('',#826,#184);
#132=LINE('',#827,#185);
#133=LINE('',#830,#186);
#134=LINE('',#834,#187);
#135=LINE('',#837,#188);
#136=LINE('',#842,#189);
#137=LINE('',#853,#190);
#138=LINE('',#856,#191);
#139=LINE('',#859,#192);
#140=LINE('',#862,#193);
#141=LINE('',#864,#194);
#142=LINE('',#865,#195);
#143=LINE('',#868,#196);
#144=LINE('',#872,#197);
#145=LINE('',#874,#198);
#146=LINE('',#876,#199);
#147=LINE('',#878,#200);
#148=LINE('',#880,#201);
#149=LINE('',#881,#202);
#150=LINE('',#882,#203);
#151=LINE('',#888,#204);
#152=LINE('',#892,#205);
#153=LINE('',#895,#206);
#154=LINE('',#896,#207);
#155=LINE('',#900,#208);
#156=LINE('',#903,#209);
#157=LINE('',#906,#210);
#158=LINE('',#908,#211);
#159=LINE('',#911,#212);
#160=LINE('',#912,#213);
#161=LINE('',#917,#214);
#162=LINE('',#922,#215);
#163=LINE('',#925,#216);
#164=LINE('',#930,#217);
#165=LINE('',#934,#218);
#166=LINE('',#939,#219);
#167=LINE('',#943,#220);
#168=LINE('',#944,#221);
#169=LINE('',#945,#222);
#170=LINE('',#947,#223);
#171=LINE('',#950,#224);
#172=LINE('',#951,#225);
#173=LINE('',#953,#226);
#174=VECTOR('',#634,10.);
#175=VECTOR('',#635,10.);
#176=VECTOR('',#636,10.);
#177=VECTOR('',#637,10.);
#178=VECTOR('',#642,10.);
#179=VECTOR('',#643,10.);
#180=VECTOR('',#646,10.);
#181=VECTOR('',#651,10.);
#182=VECTOR('',#652,10.);
#183=VECTOR('',#653,10.);
#184=VECTOR('',#654,10.);
#185=VECTOR('',#655,10.);
#186=VECTOR('',#658,10.);
#187=VECTOR('',#661,10.);
#188=VECTOR('',#664,10.);
#189=VECTOR('',#669,10.);
#190=VECTOR('',#680,10.);
#191=VECTOR('',#683,10.);
#192=VECTOR('',#686,10.);
#193=VECTOR('',#689,10.);
#194=VECTOR('',#690,10.);
#195=VECTOR('',#691,10.);
#196=VECTOR('',#694,10.);
#197=VECTOR('',#699,10.);
#198=VECTOR('',#700,10.);
#199=VECTOR('',#701,10.);
#200=VECTOR('',#702,10.);
#201=VECTOR('',#703,10.);
#202=VECTOR('',#704,10.);
#203=VECTOR('',#705,10.);
#204=VECTOR('',#714,0.899999999999999);
#205=VECTOR('',#719,10.);
#206=VECTOR('',#722,10.);
#207=VECTOR('',#723,10.);
#208=VECTOR('',#728,0.9);
#209=VECTOR('',#731,10.);
#210=VECTOR('',#734,10.);
#211=VECTOR('',#737,10.);
#212=VECTOR('',#740,10.);
#213=VECTOR('',#741,10.);
#214=VECTOR('',#746,1.9);
#215=VECTOR('',#753,10.);
#216=VECTOR('',#756,10.);
#217=VECTOR('',#763,10.);
#218=VECTOR('',#768,10.);
#219=VECTOR('',#777,10.);
#220=VECTOR('',#780,10.);
#221=VECTOR('',#781,10.);
#222=VECTOR('',#782,10.);
#223=VECTOR('',#785,10.);
#224=VECTOR('',#788,10.);
#225=VECTOR('',#789,10.);
#226=VECTOR('',#792,10.);
#227=VERTEX_POINT('',#797);
#228=VERTEX_POINT('',#798);
#229=VERTEX_POINT('',#800);
#230=VERTEX_POINT('',#802);
#231=VERTEX_POINT('',#806);
#232=VERTEX_POINT('',#807);
#233=VERTEX_POINT('',#810);
#234=VERTEX_POINT('',#812);
#235=VERTEX_POINT('',#815);
#236=VERTEX_POINT('',#818);
#237=VERTEX_POINT('',#819);
#238=VERTEX_POINT('',#821);
#239=VERTEX_POINT('',#823);
#240=VERTEX_POINT('',#825);
#241=VERTEX_POINT('',#829);
#242=VERTEX_POINT('',#831);
#243=VERTEX_POINT('',#833);
#244=VERTEX_POINT('',#835);
#245=VERTEX_POINT('',#838);
#246=VERTEX_POINT('',#841);
#247=VERTEX_POINT('',#843);
#248=VERTEX_POINT('',#845);
#249=VERTEX_POINT('',#847);
#250=VERTEX_POINT('',#849);
#251=VERTEX_POINT('',#851);
#252=VERTEX_POINT('',#855);
#253=VERTEX_POINT('',#857);
#254=VERTEX_POINT('',#861);
#255=VERTEX_POINT('',#863);
#256=VERTEX_POINT('',#867);
#257=VERTEX_POINT('',#871);
#258=VERTEX_POINT('',#873);
#259=VERTEX_POINT('',#875);
#260=VERTEX_POINT('',#877);
#261=VERTEX_POINT('',#879);
#262=VERTEX_POINT('',#886);
#263=VERTEX_POINT('',#890);
#264=VERTEX_POINT('',#894);
#265=VERTEX_POINT('',#898);
#266=VERTEX_POINT('',#902);
#267=VERTEX_POINT('',#904);
#268=VERTEX_POINT('',#910);
#269=VERTEX_POINT('',#914);
#270=VERTEX_POINT('',#916);
#271=VERTEX_POINT('',#921);
#272=VERTEX_POINT('',#923);
#273=VERTEX_POINT('',#928);
#274=VERTEX_POINT('',#932);
#275=VERTEX_POINT('',#941);
#276=VERTEX_POINT('',#942);
#277=VERTEX_POINT('',#949);
#278=EDGE_CURVE('',#227,#228,#121,.T.);
#279=EDGE_CURVE('',#229,#227,#122,.T.);
#280=EDGE_CURVE('',#229,#230,#123,.T.);
#281=EDGE_CURVE('',#228,#230,#124,.T.);
#282=EDGE_CURVE('',#231,#232,#31,.T.);
#283=EDGE_CURVE('',#230,#231,#125,.T.);
#284=EDGE_CURVE('',#233,#229,#126,.T.);
#285=EDGE_CURVE('',#234,#233,#32,.T.);
#286=EDGE_CURVE('',#232,#234,#127,.T.);
#287=EDGE_CURVE('',#235,#235,#33,.T.);
#288=EDGE_CURVE('',#236,#237,#128,.T.);
#289=EDGE_CURVE('',#238,#236,#129,.T.);
#290=EDGE_CURVE('',#238,#239,#130,.T.);
#291=EDGE_CURVE('',#240,#239,#131,.T.);
#292=EDGE_CURVE('',#237,#240,#132,.T.);
#293=EDGE_CURVE('',#241,#238,#133,.T.);
#294=EDGE_CURVE('',#242,#241,#34,.T.);
#295=EDGE_CURVE('',#243,#242,#134,.T.);
#296=EDGE_CURVE('',#244,#243,#35,.T.);
#297=EDGE_CURVE('',#239,#244,#135,.T.);
#298=EDGE_CURVE('',#245,#245,#36,.T.);
#299=EDGE_CURVE('',#246,#228,#136,.T.);
#300=EDGE_CURVE('',#246,#247,#37,.T.);
#301=EDGE_CURVE('',#247,#248,#38,.T.);
#302=EDGE_CURVE('',#248,#249,#39,.T.);
#303=EDGE_CURVE('',#249,#250,#40,.T.);
#304=EDGE_CURVE('',#250,#251,#41,.T.);
#305=EDGE_CURVE('',#251,#227,#137,.T.);
#306=EDGE_CURVE('',#232,#252,#138,.T.);
#307=EDGE_CURVE('',#253,#252,#42,.T.);
#308=EDGE_CURVE('',#231,#253,#139,.T.);
#309=EDGE_CURVE('',#242,#254,#140,.T.);
#310=EDGE_CURVE('',#255,#254,#141,.T.);
#311=EDGE_CURVE('',#243,#255,#142,.T.);
#312=EDGE_CURVE('',#241,#256,#143,.T.);
#313=EDGE_CURVE('',#254,#256,#43,.T.);
#314=EDGE_CURVE('',#257,#253,#144,.T.);
#315=EDGE_CURVE('',#257,#258,#145,.T.);
#316=EDGE_CURVE('',#258,#259,#146,.T.);
#317=EDGE_CURVE('',#259,#260,#147,.T.);
#318=EDGE_CURVE('',#260,#261,#148,.T.);
#319=EDGE_CURVE('',#256,#261,#149,.T.);
#320=EDGE_CURVE('',#236,#246,#150,.T.);
#321=EDGE_CURVE('',#237,#246,#44,.T.);
#322=EDGE_CURVE('',#262,#262,#45,.T.);
#323=EDGE_CURVE('',#262,#245,#151,.T.);
#324=EDGE_CURVE('',#263,#255,#46,.T.);
#325=EDGE_CURVE('',#244,#263,#152,.T.);
#326=EDGE_CURVE('',#264,#261,#153,.T.);
#327=EDGE_CURVE('',#264,#263,#154,.T.);
#328=EDGE_CURVE('',#265,#265,#47,.T.);
#329=EDGE_CURVE('',#265,#235,#155,.T.);
#330=EDGE_CURVE('',#233,#266,#156,.T.);
#331=EDGE_CURVE('',#267,#266,#48,.T.);
#332=EDGE_CURVE('',#234,#267,#157,.T.);
#333=EDGE_CURVE('',#252,#267,#158,.T.);
#334=EDGE_CURVE('',#266,#268,#159,.T.);
#335=EDGE_CURVE('',#257,#268,#160,.T.);
#336=EDGE_CURVE('',#269,#269,#49,.T.);
#337=EDGE_CURVE('',#269,#270,#161,.T.);
#338=EDGE_CURVE('',#270,#270,#50,.T.);
#339=EDGE_CURVE('',#249,#271,#162,.T.);
#340=EDGE_CURVE('',#272,#271,#51,.T.);
#341=EDGE_CURVE('',#250,#272,#163,.T.);
#342=EDGE_CURVE('',#251,#237,#52,.T.);
#343=EDGE_CURVE('',#273,#272,#53,.T.);
#344=EDGE_CURVE('',#247,#273,#164,.T.);
#345=EDGE_CURVE('',#274,#273,#54,.T.);
#346=EDGE_CURVE('',#248,#274,#165,.T.);
#347=EDGE_CURVE('',#271,#274,#55,.T.);
#348=EDGE_CURVE('',#251,#240,#166,.T.);
#349=EDGE_CURVE('',#275,#276,#167,.T.);
#350=EDGE_CURVE('',#276,#259,#168,.T.);
#351=EDGE_CURVE('',#275,#258,#169,.T.);
#352=EDGE_CURVE('',#268,#275,#170,.T.);
#353=EDGE_CURVE('',#277,#260,#171,.T.);
#354=EDGE_CURVE('',#277,#264,#172,.T.);
#355=EDGE_CURVE('',#276,#277,#173,.T.);
#356=ORIENTED_EDGE('',*,*,#278,.F.);
#357=ORIENTED_EDGE('',*,*,#279,.F.);
#358=ORIENTED_EDGE('',*,*,#280,.T.);
#359=ORIENTED_EDGE('',*,*,#281,.F.);
#360=ORIENTED_EDGE('',*,*,#282,.F.);
#361=ORIENTED_EDGE('',*,*,#283,.F.);
#362=ORIENTED_EDGE('',*,*,#280,.F.);
#363=ORIENTED_EDGE('',*,*,#284,.F.);
#364=ORIENTED_EDGE('',*,*,#285,.F.);
#365=ORIENTED_EDGE('',*,*,#286,.F.);
#366=ORIENTED_EDGE('',*,*,#287,.F.);
#367=ORIENTED_EDGE('',*,*,#288,.F.);
#368=ORIENTED_EDGE('',*,*,#289,.F.);
#369=ORIENTED_EDGE('',*,*,#290,.T.);
#370=ORIENTED_EDGE('',*,*,#291,.F.);
#371=ORIENTED_EDGE('',*,*,#292,.F.);
#372=ORIENTED_EDGE('',*,*,#293,.F.);
#373=ORIENTED_EDGE('',*,*,#294,.F.);
#374=ORIENTED_EDGE('',*,*,#295,.F.);
#375=ORIENTED_EDGE('',*,*,#296,.F.);
#376=ORIENTED_EDGE('',*,*,#297,.F.);
#377=ORIENTED_EDGE('',*,*,#290,.F.);
#378=ORIENTED_EDGE('',*,*,#298,.F.);
#379=ORIENTED_EDGE('',*,*,#278,.T.);
#380=ORIENTED_EDGE('',*,*,#299,.F.);
#381=ORIENTED_EDGE('',*,*,#300,.T.);
#382=ORIENTED_EDGE('',*,*,#301,.T.);
#383=ORIENTED_EDGE('',*,*,#302,.T.);
#384=ORIENTED_EDGE('',*,*,#303,.T.);
#385=ORIENTED_EDGE('',*,*,#304,.T.);
#386=ORIENTED_EDGE('',*,*,#305,.T.);
#387=ORIENTED_EDGE('',*,*,#282,.T.);
#388=ORIENTED_EDGE('',*,*,#306,.T.);
#389=ORIENTED_EDGE('',*,*,#307,.F.);
#390=ORIENTED_EDGE('',*,*,#308,.F.);
#391=ORIENTED_EDGE('',*,*,#295,.T.);
#392=ORIENTED_EDGE('',*,*,#309,.T.);
#393=ORIENTED_EDGE('',*,*,#310,.F.);
#394=ORIENTED_EDGE('',*,*,#311,.F.);
#395=ORIENTED_EDGE('',*,*,#294,.T.);
#396=ORIENTED_EDGE('',*,*,#312,.T.);
#397=ORIENTED_EDGE('',*,*,#313,.F.);
#398=ORIENTED_EDGE('',*,*,#309,.F.);
#399=ORIENTED_EDGE('',*,*,#281,.T.);
#400=ORIENTED_EDGE('',*,*,#283,.T.);
#401=ORIENTED_EDGE('',*,*,#308,.T.);
#402=ORIENTED_EDGE('',*,*,#314,.F.);
#403=ORIENTED_EDGE('',*,*,#315,.T.);
#404=ORIENTED_EDGE('',*,*,#316,.T.);
#405=ORIENTED_EDGE('',*,*,#317,.T.);
#406=ORIENTED_EDGE('',*,*,#318,.T.);
#407=ORIENTED_EDGE('',*,*,#319,.F.);
#408=ORIENTED_EDGE('',*,*,#312,.F.);
#409=ORIENTED_EDGE('',*,*,#293,.T.);
#410=ORIENTED_EDGE('',*,*,#289,.T.);
#411=ORIENTED_EDGE('',*,*,#320,.T.);
#412=ORIENTED_EDGE('',*,*,#299,.T.);
#413=ORIENTED_EDGE('',*,*,#288,.T.);
#414=ORIENTED_EDGE('',*,*,#321,.T.);
#415=ORIENTED_EDGE('',*,*,#320,.F.);
#416=ORIENTED_EDGE('',*,*,#322,.F.);
#417=ORIENTED_EDGE('',*,*,#323,.T.);
#418=ORIENTED_EDGE('',*,*,#298,.T.);
#419=ORIENTED_EDGE('',*,*,#323,.F.);
#420=ORIENTED_EDGE('',*,*,#296,.T.);
#421=ORIENTED_EDGE('',*,*,#311,.T.);
#422=ORIENTED_EDGE('',*,*,#324,.F.);
#423=ORIENTED_EDGE('',*,*,#325,.F.);
#424=ORIENTED_EDGE('',*,*,#319,.T.);
#425=ORIENTED_EDGE('',*,*,#326,.F.);
#426=ORIENTED_EDGE('',*,*,#327,.T.);
#427=ORIENTED_EDGE('',*,*,#324,.T.);
#428=ORIENTED_EDGE('',*,*,#310,.T.);
#429=ORIENTED_EDGE('',*,*,#313,.T.);
#430=ORIENTED_EDGE('',*,*,#322,.T.);
#431=ORIENTED_EDGE('',*,*,#328,.F.);
#432=ORIENTED_EDGE('',*,*,#329,.T.);
#433=ORIENTED_EDGE('',*,*,#287,.T.);
#434=ORIENTED_EDGE('',*,*,#329,.F.);
#435=ORIENTED_EDGE('',*,*,#285,.T.);
#436=ORIENTED_EDGE('',*,*,#330,.T.);
#437=ORIENTED_EDGE('',*,*,#331,.F.);
#438=ORIENTED_EDGE('',*,*,#332,.F.);
#439=ORIENTED_EDGE('',*,*,#286,.T.);
#440=ORIENTED_EDGE('',*,*,#332,.T.);
#441=ORIENTED_EDGE('',*,*,#333,.F.);
#442=ORIENTED_EDGE('',*,*,#306,.F.);
#443=ORIENTED_EDGE('',*,*,#307,.T.);
#444=ORIENTED_EDGE('',*,*,#333,.T.);
#445=ORIENTED_EDGE('',*,*,#331,.T.);
#446=ORIENTED_EDGE('',*,*,#334,.T.);
#447=ORIENTED_EDGE('',*,*,#335,.F.);
#448=ORIENTED_EDGE('',*,*,#314,.T.);
#449=ORIENTED_EDGE('',*,*,#328,.T.);
#450=ORIENTED_EDGE('',*,*,#336,.F.);
#451=ORIENTED_EDGE('',*,*,#337,.T.);
#452=ORIENTED_EDGE('',*,*,#338,.F.);
#453=ORIENTED_EDGE('',*,*,#337,.F.);
#454=ORIENTED_EDGE('',*,*,#336,.T.);
#455=ORIENTED_EDGE('',*,*,#303,.F.);
#456=ORIENTED_EDGE('',*,*,#339,.T.);
#457=ORIENTED_EDGE('',*,*,#340,.F.);
#458=ORIENTED_EDGE('',*,*,#341,.F.);
#459=ORIENTED_EDGE('',*,*,#300,.F.);
#460=ORIENTED_EDGE('',*,*,#321,.F.);
#461=ORIENTED_EDGE('',*,*,#342,.F.);
#462=ORIENTED_EDGE('',*,*,#304,.F.);
#463=ORIENTED_EDGE('',*,*,#341,.T.);
#464=ORIENTED_EDGE('',*,*,#343,.F.);
#465=ORIENTED_EDGE('',*,*,#344,.F.);
#466=ORIENTED_EDGE('',*,*,#301,.F.);
#467=ORIENTED_EDGE('',*,*,#344,.T.);
#468=ORIENTED_EDGE('',*,*,#345,.F.);
#469=ORIENTED_EDGE('',*,*,#346,.F.);
#470=ORIENTED_EDGE('',*,*,#302,.F.);
#471=ORIENTED_EDGE('',*,*,#346,.T.);
#472=ORIENTED_EDGE('',*,*,#347,.F.);
#473=ORIENTED_EDGE('',*,*,#339,.F.);
#474=ORIENTED_EDGE('',*,*,#347,.T.);
#475=ORIENTED_EDGE('',*,*,#345,.T.);
#476=ORIENTED_EDGE('',*,*,#343,.T.);
#477=ORIENTED_EDGE('',*,*,#340,.T.);
#478=ORIENTED_EDGE('',*,*,#338,.T.);
#479=ORIENTED_EDGE('',*,*,#292,.T.);
#480=ORIENTED_EDGE('',*,*,#348,.F.);
#481=ORIENTED_EDGE('',*,*,#342,.T.);
#482=ORIENTED_EDGE('',*,*,#349,.T.);
#483=ORIENTED_EDGE('',*,*,#350,.T.);
#484=ORIENTED_EDGE('',*,*,#316,.F.);
#485=ORIENTED_EDGE('',*,*,#351,.F.);
#486=ORIENTED_EDGE('',*,*,#335,.T.);
#487=ORIENTED_EDGE('',*,*,#352,.T.);
#488=ORIENTED_EDGE('',*,*,#351,.T.);
#489=ORIENTED_EDGE('',*,*,#315,.F.);
#490=ORIENTED_EDGE('',*,*,#326,.T.);
#491=ORIENTED_EDGE('',*,*,#318,.F.);
#492=ORIENTED_EDGE('',*,*,#353,.F.);
#493=ORIENTED_EDGE('',*,*,#354,.T.);
#494=ORIENTED_EDGE('',*,*,#355,.T.);
#495=ORIENTED_EDGE('',*,*,#353,.T.);
#496=ORIENTED_EDGE('',*,*,#317,.F.);
#497=ORIENTED_EDGE('',*,*,#350,.F.);
#498=ORIENTED_EDGE('',*,*,#279,.T.);
#499=ORIENTED_EDGE('',*,*,#305,.F.);
#500=ORIENTED_EDGE('',*,*,#348,.T.);
#501=ORIENTED_EDGE('',*,*,#291,.T.);
#502=ORIENTED_EDGE('',*,*,#297,.T.);
#503=ORIENTED_EDGE('',*,*,#325,.T.);
#504=ORIENTED_EDGE('',*,*,#327,.F.);
#505=ORIENTED_EDGE('',*,*,#354,.F.);
#506=ORIENTED_EDGE('',*,*,#355,.F.);
#507=ORIENTED_EDGE('',*,*,#349,.F.);
#508=ORIENTED_EDGE('',*,*,#352,.F.);
#509=ORIENTED_EDGE('',*,*,#334,.F.);
#510=ORIENTED_EDGE('',*,*,#330,.F.);
#511=ORIENTED_EDGE('',*,*,#284,.T.);
#512=PLANE('',#575);
#513=PLANE('',#576);
#514=PLANE('',#580);
#515=PLANE('',#581);
#516=PLANE('',#585);
#517=PLANE('',#593);
#518=PLANE('',#596);
#519=PLANE('',#597);
#520=PLANE('',#603);
#521=PLANE('',#608);
#522=PLANE('',#609);
#523=PLANE('',#613);
#524=PLANE('',#623);
#525=PLANE('',#624);
#526=PLANE('',#625);
#527=PLANE('',#626);
#528=PLANE('',#627);
#529=PLANE('',#628);
#530=PLANE('',#629);
#531=ADVANCED_FACE('',(#56),#512,.F.);
#532=ADVANCED_FACE('',(#57,#26),#513,.T.);
#533=ADVANCED_FACE('',(#58),#514,.F.);
#534=ADVANCED_FACE('',(#59,#27),#515,.T.);
#535=ADVANCED_FACE('',(#60),#516,.T.);
#536=ADVANCED_FACE('',(#61),#15,.T.);
#537=ADVANCED_FACE('',(#62),#517,.T.);
#538=ADVANCED_FACE('',(#63),#16,.T.);
#539=ADVANCED_FACE('',(#64),#518,.T.);
#540=ADVANCED_FACE('',(#65),#519,.T.);
#541=ADVANCED_FACE('',(#66),#17,.F.);
#542=ADVANCED_FACE('',(#67),#18,.T.);
#543=ADVANCED_FACE('',(#68,#28),#520,.F.);
#544=ADVANCED_FACE('',(#69),#19,.F.);
#545=ADVANCED_FACE('',(#70),#20,.T.);
#546=ADVANCED_FACE('',(#71),#521,.T.);
#547=ADVANCED_FACE('',(#72,#29),#522,.F.);
#548=ADVANCED_FACE('',(#73),#21,.T.);
#549=ADVANCED_FACE('',(#74),#523,.T.);
#550=ADVANCED_FACE('',(#75),#22,.F.);
#551=ADVANCED_FACE('',(#76),#23,.T.);
#552=ADVANCED_FACE('',(#77),#24,.F.);
#553=ADVANCED_FACE('',(#78),#25,.T.);
#554=ADVANCED_FACE('',(#79,#30),#524,.T.);
#555=ADVANCED_FACE('',(#80),#525,.T.);
#556=ADVANCED_FACE('',(#81),#526,.T.);
#557=ADVANCED_FACE('',(#82),#527,.T.);
#558=ADVANCED_FACE('',(#83),#528,.T.);
#559=ADVANCED_FACE('',(#84),#529,.T.);
#560=ADVANCED_FACE('',(#85),#530,.F.);
#561=CLOSED_SHELL('',(#531,#532,#533,#534,#535,#536,#537,#538,#539,#540,
#541,#542,#543,#544,#545,#546,#547,#548,#549,#550,#551,#552,#553,#554,#555,
#556,#557,#558,#559,#560));
#562=DERIVED_UNIT_ELEMENT(#564,1.);
#563=DERIVED_UNIT_ELEMENT(#960,-3.);
#564=(
MASS_UNIT()
NAMED_UNIT(*)
SI_UNIT(.KILO.,.GRAM.)
);
#565=DERIVED_UNIT((#562,#563));
#566=MEASURE_REPRESENTATION_ITEM('density measure',
POSITIVE_RATIO_MEASURE(7850.),#565);
#567=PROPERTY_DEFINITION_REPRESENTATION(#572,#569);
#568=PROPERTY_DEFINITION_REPRESENTATION(#573,#570);
#569=REPRESENTATION('material name',(#571),#957);
#570=REPRESENTATION('density',(#566),#957);
#571=DESCRIPTIVE_REPRESENTATION_ITEM('Steel','Steel');
#572=PROPERTY_DEFINITION('material property','material name',#967);
#573=PROPERTY_DEFINITION('material property','density of part',#967);
#574=AXIS2_PLACEMENT_3D('',#795,#630,#631);
#575=AXIS2_PLACEMENT_3D('',#796,#632,#633);
#576=AXIS2_PLACEMENT_3D('',#805,#638,#639);
#577=AXIS2_PLACEMENT_3D('',#808,#640,#641);
#578=AXIS2_PLACEMENT_3D('',#813,#644,#645);
#579=AXIS2_PLACEMENT_3D('',#816,#647,#648);
#580=AXIS2_PLACEMENT_3D('',#817,#649,#650);
#581=AXIS2_PLACEMENT_3D('',#828,#656,#657);
#582=AXIS2_PLACEMENT_3D('',#832,#659,#660);
#583=AXIS2_PLACEMENT_3D('',#836,#662,#663);
#584=AXIS2_PLACEMENT_3D('',#839,#665,#666);
#585=AXIS2_PLACEMENT_3D('',#840,#667,#668);
#586=AXIS2_PLACEMENT_3D('',#844,#670,#671);
#587=AXIS2_PLACEMENT_3D('',#846,#672,#673);
#588=AXIS2_PLACEMENT_3D('',#848,#674,#675);
#589=AXIS2_PLACEMENT_3D('',#850,#676,#677);
#590=AXIS2_PLACEMENT_3D('',#852,#678,#679);
#591=AXIS2_PLACEMENT_3D('',#854,#681,#682);
#592=AXIS2_PLACEMENT_3D('',#858,#684,#685);
#593=AXIS2_PLACEMENT_3D('',#860,#687,#688);
#594=AXIS2_PLACEMENT_3D('',#866,#692,#693);
#595=AXIS2_PLACEMENT_3D('',#869,#695,#696);
#596=AXIS2_PLACEMENT_3D('',#870,#697,#698);
#597=AXIS2_PLACEMENT_3D('',#883,#706,#707);
#598=AXIS2_PLACEMENT_3D('',#884,#708,#709);
#599=AXIS2_PLACEMENT_3D('',#885,#710,#711);
#600=AXIS2_PLACEMENT_3D('',#887,#712,#713);
#601=AXIS2_PLACEMENT_3D('',#889,#715,#716);
#602=AXIS2_PLACEMENT_3D('',#891,#717,#718);
#603=AXIS2_PLACEMENT_3D('',#893,#720,#721);
#604=AXIS2_PLACEMENT_3D('',#897,#724,#725);
#605=AXIS2_PLACEMENT_3D('',#899,#726,#727);
#606=AXIS2_PLACEMENT_3D('',#901,#729,#730);
#607=AXIS2_PLACEMENT_3D('',#905,#732,#733);
#608=AXIS2_PLACEMENT_3D('',#907,#735,#736);
#609=AXIS2_PLACEMENT_3D('',#909,#738,#739);
#610=AXIS2_PLACEMENT_3D('',#913,#742,#743);
#611=AXIS2_PLACEMENT_3D('',#915,#744,#745);
#612=AXIS2_PLACEMENT_3D('',#918,#747,#748);
#613=AXIS2_PLACEMENT_3D('',#919,#749,#750);
#614=AXIS2_PLACEMENT_3D('',#920,#751,#752);
#615=AXIS2_PLACEMENT_3D('',#924,#754,#755);
#616=AXIS2_PLACEMENT_3D('',#926,#757,#758);
#617=AXIS2_PLACEMENT_3D('',#927,#759,#760);
#618=AXIS2_PLACEMENT_3D('',#929,#761,#762);
#619=AXIS2_PLACEMENT_3D('',#931,#764,#765);
#620=AXIS2_PLACEMENT_3D('',#933,#766,#767);
#621=AXIS2_PLACEMENT_3D('',#935,#769,#770);
#622=AXIS2_PLACEMENT_3D('',#936,#771,#772);
#623=AXIS2_PLACEMENT_3D('',#937,#773,#774);
#624=AXIS2_PLACEMENT_3D('',#938,#775,#776);
#625=AXIS2_PLACEMENT_3D('',#940,#778,#779);
#626=AXIS2_PLACEMENT_3D('',#946,#783,#784);
#627=AXIS2_PLACEMENT_3D('',#948,#786,#787);
#628=AXIS2_PLACEMENT_3D('',#952,#790,#791);
#629=AXIS2_PLACEMENT_3D('',#954,#793,#794);
#630=DIRECTION('axis',(0.,0.,1.));
#631=DIRECTION('refdir',(1.,0.,0.));
#632=DIRECTION('center_axis',(1.,0.,0.));
#633=DIRECTION('ref_axis',(0.,1.,0.));
#634=DIRECTION('',(0.,1.,0.));
#635=DIRECTION('',(0.,0.,-1.));
#636=DIRECTION('',(0.,1.,0.));
#637=DIRECTION('',(0.,0.,1.));
#638=DIRECTION('center_axis',(0.,0.,-1.));
#639=DIRECTION('ref_axis',(1.,0.,0.));
#640=DIRECTION('center_axis',(0.,0.,1.));
#641=DIRECTION('ref_axis',(-1.,-5.55111512312579E-16,0.));
#642=DIRECTION('',(-1.,0.,0.));
#643=DIRECTION('',(1.,0.,0.));
#644=DIRECTION('center_axis',(0.,0.,1.));
#645=DIRECTION('ref_axis',(5.55111512312579E-16,-1.,0.));
#646=DIRECTION('',(-7.11681426041767E-17,-1.,0.));
#647=DIRECTION('center_axis',(0.,0.,-1.));
#648=DIRECTION('ref_axis',(1.,0.,0.));
#649=DIRECTION('center_axis',(-1.,0.,0.));
#650=DIRECTION('ref_axis',(0.,-1.,0.));
#651=DIRECTION('',(0.,-1.,0.));
#652=DIRECTION('',(0.,0.,-1.));
#653=DIRECTION('',(0.,-1.,0.));
#654=DIRECTION('',(0.,0.,1.));
#655=DIRECTION('',(0.,-1.,0.));
#656=DIRECTION('center_axis',(0.,0.,-1.));
#657=DIRECTION('ref_axis',(1.,0.,0.));
#658=DIRECTION('',(-1.,0.,0.));
#659=DIRECTION('center_axis',(0.,0.,1.));
#660=DIRECTION('ref_axis',(0.,1.,0.));
#661=DIRECTION('',(0.,1.,0.));
#662=DIRECTION('center_axis',(0.,0.,1.));
#663=DIRECTION('ref_axis',(1.,-1.66533453693773E-15,0.));
#664=DIRECTION('',(1.,0.,0.));
#665=DIRECTION('center_axis',(0.,0.,-1.));
#666=DIRECTION('ref_axis',(1.,0.,0.));
#667=DIRECTION('center_axis',(0.,0.,-1.));
#668=DIRECTION('ref_axis',(-1.,0.,0.));
#669=DIRECTION('',(-1.,0.,0.));
#670=DIRECTION('center_axis',(0.,0.,1.));
#671=DIRECTION('ref_axis',(-0.794228270980464,0.607619497362768,0.));
#672=DIRECTION('center_axis',(0.,0.,-1.));
#673=DIRECTION('ref_axis',(0.794228270980458,-0.607619497362775,0.));
#674=DIRECTION('center_axis',(0.,0.,1.));
#675=DIRECTION('ref_axis',(0.0804353656811999,-0.996759826612074,0.));
#676=DIRECTION('center_axis',(0.,0.,-1.));
#677=DIRECTION('ref_axis',(-0.0804353656812039,0.996759826612074,0.));
#678=DIRECTION('center_axis',(0.,0.,1.));
#679=DIRECTION('ref_axis',(-0.794228270980464,0.607619497362768,0.));
#680=DIRECTION('',(-1.,0.,0.));
#681=DIRECTION('center_axis',(0.,0.,1.));
#682=DIRECTION('ref_axis',(-1.,-5.55111512312579E-16,0.));
#683=DIRECTION('',(0.,0.,1.));
#684=DIRECTION('center_axis',(0.,0.,1.));
#685=DIRECTION('ref_axis',(-1.,-5.55111512312579E-16,0.));
#686=DIRECTION('',(0.,0.,1.));
#687=DIRECTION('center_axis',(1.,0.,0.));
#688=DIRECTION('ref_axis',(0.,1.,0.));
#689=DIRECTION('',(0.,0.,1.));
#690=DIRECTION('',(0.,1.,0.));
#691=DIRECTION('',(0.,0.,1.));
#692=DIRECTION('center_axis',(0.,0.,1.));
#693=DIRECTION('ref_axis',(0.,1.,0.));
#694=DIRECTION('',(0.,0.,1.));
#695=DIRECTION('center_axis',(0.,0.,1.));
#696=DIRECTION('ref_axis',(0.,1.,0.));
#697=DIRECTION('center_axis',(0.,1.,0.));
#698=DIRECTION('ref_axis',(0.,0.,1.));
#699=DIRECTION('',(-1.,0.,0.));
#700=DIRECTION('',(0.,0.,1.));
#701=DIRECTION('',(1.,0.,0.));
#702=DIRECTION('',(0.894454333511363,0.,-0.447159306358197));
#703=DIRECTION('',(0.,0.,-1.));
#704=DIRECTION('',(-1.,0.,0.));
#705=DIRECTION('',(-1.,0.,0.));
#706=DIRECTION('center_axis',(0.,0.,-1.));
#707=DIRECTION('ref_axis',(-1.,0.,0.));
#708=DIRECTION('center_axis',(0.,0.,1.));
#709=DIRECTION('ref_axis',(-0.794228270980464,0.607619497362768,0.));
#710=DIRECTION('center_axis',(0.,0.,1.));
#711=DIRECTION('ref_axis',(1.,0.,0.));
#712=DIRECTION('center_axis',(0.,0.,-1.));
#713=DIRECTION('ref_axis',(1.,0.,0.));
#714=DIRECTION('',(0.,0.,-1.));
#715=DIRECTION('center_axis',(0.,0.,1.));
#716=DIRECTION('ref_axis',(1.,-1.66533453693773E-15,0.));
#717=DIRECTION('center_axis',(0.,0.,1.));
#718=DIRECTION('ref_axis',(1.,-1.66533453693773E-15,0.));
#719=DIRECTION('',(0.,0.,1.));
#720=DIRECTION('center_axis',(0.,0.,-1.));
#721=DIRECTION('ref_axis',(1.,0.,0.));
#722=DIRECTION('',(0.,1.,0.));
#723=DIRECTION('',(1.,0.,0.));
#724=DIRECTION('center_axis',(0.,0.,1.));
#725=DIRECTION('ref_axis',(1.,0.,0.));
#726=DIRECTION('center_axis',(0.,0.,-1.));
#727=DIRECTION('ref_axis',(1.,0.,0.));
#728=DIRECTION('',(0.,0.,-1.));
#729=DIRECTION('center_axis',(0.,0.,1.));
#730=DIRECTION('ref_axis',(5.55111512312579E-16,-1.,0.));
#731=DIRECTION('',(0.,0.,1.));
#732=DIRECTION('center_axis',(0.,0.,1.));
#733=DIRECTION('ref_axis',(5.55111512312579E-16,-1.,0.));
#734=DIRECTION('',(0.,0.,1.));
#735=DIRECTION('center_axis',(-1.,7.11681426041767E-17,0.));
#736=DIRECTION('ref_axis',(-7.11681426041767E-17,-1.,0.));
#737=DIRECTION('',(-7.11681426041767E-17,-1.,0.));
#738=DIRECTION('center_axis',(0.,0.,-1.));
#739=DIRECTION('ref_axis',(1.,0.,0.));
#740=DIRECTION('',(1.,-9.91270557701032E-17,0.));
#741=DIRECTION('',(0.,-1.,0.));
#742=DIRECTION('center_axis',(0.,0.,-1.));
#743=DIRECTION('ref_axis',(1.,0.,0.));
#744=DIRECTION('center_axis',(0.,0.,-1.));
#745=DIRECTION('ref_axis',(1.,0.,0.));
#746=DIRECTION('',(0.,0.,1.));
#747=DIRECTION('center_axis',(0.,0.,1.));
#748=DIRECTION('ref_axis',(1.,0.,0.));
#749=DIRECTION('center_axis',(0.,0.,-1.));
#750=DIRECTION('ref_axis',(1.,0.,0.));
#751=DIRECTION('center_axis',(0.,0.,-1.));
#752=DIRECTION('ref_axis',(-0.0804353656812039,0.996759826612074,0.));
#753=DIRECTION('',(0.,0.,-1.));
#754=DIRECTION('center_axis',(0.,0.,1.));
#755=DIRECTION('ref_axis',(-0.0804353656812039,0.996759826612074,0.));
#756=DIRECTION('',(0.,0.,-1.));
#757=DIRECTION('center_axis',(0.,0.,-1.));
#758=DIRECTION('ref_axis',(0.999963911732532,0.00849560077764522,0.));
#759=DIRECTION('center_axis',(0.,0.,1.));
#760=DIRECTION('ref_axis',(-0.794228270980464,0.607619497362768,0.));
#761=DIRECTION('center_axis',(0.,0.,-1.));
#762=DIRECTION('ref_axis',(-0.794228270980464,0.607619497362768,0.));
#763=DIRECTION('',(0.,0.,-1.));
#764=DIRECTION('center_axis',(0.,0.,-1.));
#765=DIRECTION('ref_axis',(0.794228270980458,-0.607619497362775,0.));
#766=DIRECTION('center_axis',(0.,0.,1.));
#767=DIRECTION('ref_axis',(0.794228270980458,-0.607619497362775,0.));
#768=DIRECTION('',(0.,0.,-1.));
#769=DIRECTION('center_axis',(0.,0.,-1.));
#770=DIRECTION('ref_axis',(-0.999963911732532,-0.008495600777645,0.));
#771=DIRECTION('center_axis',(0.,0.,-1.));
#772=DIRECTION('ref_axis',(0.0804353656811999,-0.996759826612074,0.));
#773=DIRECTION('center_axis',(0.,0.,-1.));
#774=DIRECTION('ref_axis',(1.,0.,0.));
#775=DIRECTION('center_axis',(0.,0.,-1.));
#776=DIRECTION('ref_axis',(-1.,0.,0.));
#777=DIRECTION('',(1.,0.,0.));
#778=DIRECTION('center_axis',(0.,0.,1.));
#779=DIRECTION('ref_axis',(1.,0.,0.));
#780=DIRECTION('',(1.,0.,0.));
#781=DIRECTION('',(0.,1.,0.));
#782=DIRECTION('',(0.,1.,0.));
#783=DIRECTION('center_axis',(-1.,0.,0.));
#784=DIRECTION('ref_axis',(0.,0.,1.));
#785=DIRECTION('',(0.,0.,1.));
#786=DIRECTION('center_axis',(1.,0.,0.));
#787=DIRECTION('ref_axis',(0.,0.,-1.));
#788=DIRECTION('',(0.,1.,0.));
#789=DIRECTION('',(0.,0.,-1.));
#790=DIRECTION('center_axis',(0.447159306358197,0.,0.894454333511363));
#791=DIRECTION('ref_axis',(0.894454333511363,0.,-0.447159306358197));
#792=DIRECTION('',(0.894454333511363,0.,-0.447159306358197));
#793=DIRECTION('center_axis',(0.,1.,0.));
#794=DIRECTION('ref_axis',(1.,0.,0.));
#795=CARTESIAN_POINT('',(0.,0.,0.));
#796=CARTESIAN_POINT('Origin',(0.,0.,25.0000006705523));
#797=CARTESIAN_POINT('',(0.,0.,25.0000006705523));
#798=CARTESIAN_POINT('',(0.,11.8,25.0000006705523));
#799=CARTESIAN_POINT('',(0.,0.,25.0000006705523));
#800=CARTESIAN_POINT('',(0.,0.,28.6000006705523));
#801=CARTESIAN_POINT('',(0.,0.,30.0000006705523));
#802=CARTESIAN_POINT('',(0.,11.8,28.6000006705523));
#803=CARTESIAN_POINT('',(0.,11.8,28.6000006705523));
#804=CARTESIAN_POINT('',(0.,11.8,30.0000006705523));
#805=CARTESIAN_POINT('Origin',(-2.4,5.9,28.6000006705523));
#806=CARTESIAN_POINT('',(-2.8,11.8,28.6000006705523));
#807=CARTESIAN_POINT('',(-4.8,9.8,28.6000006705523));
#808=CARTESIAN_POINT('Origin',(-2.8,9.8,28.6000006705523));
#809=CARTESIAN_POINT('',(4.675,11.8,28.6000006705522));
#810=CARTESIAN_POINT('',(-2.8,0.,28.6000006705523));
#811=CARTESIAN_POINT('',(4.675,0.,28.6000006705522));
#812=CARTESIAN_POINT('',(-4.8,2.,28.6000006705523));
#813=CARTESIAN_POINT('Origin',(-2.8,2.,28.6000006705523));
#814=CARTESIAN_POINT('',(-4.8,7.85,28.6000006705522));
#815=CARTESIAN_POINT('',(-3.2,5.9,28.6000006705523));
#816=CARTESIAN_POINT('Origin',(-2.3,5.9,28.6000006705523));
#817=CARTESIAN_POINT('Origin',(23.5,11.8,25.0000006705523));
#818=CARTESIAN_POINT('',(23.5,11.8,25.0000006705523));
#819=CARTESIAN_POINT('',(23.5,5.9,25.0000006705523));
#820=CARTESIAN_POINT('',(23.5,5.9,25.0000006705523));
#821=CARTESIAN_POINT('',(23.5,11.8,28.6000006705523));
#822=CARTESIAN_POINT('',(23.5,11.8,30.0000006705523));
#823=CARTESIAN_POINT('',(23.5,0.,28.6000006705523));
#824=CARTESIAN_POINT('',(23.5,11.8,28.6000006705523));
#825=CARTESIAN_POINT('',(23.5,0.,25.0000006705523));
#826=CARTESIAN_POINT('',(23.5,0.,30.0000006705523));
#827=CARTESIAN_POINT('',(23.5,5.9,25.0000006705523));
#828=CARTESIAN_POINT('Origin',(25.9,5.9,28.6000006705523));
#829=CARTESIAN_POINT('',(26.3,11.8,28.6000006705523));
#830=CARTESIAN_POINT('',(18.825,11.8,28.6000006705522));
#831=CARTESIAN_POINT('',(28.3,9.8,28.6000006705523));
#832=CARTESIAN_POINT('Origin',(26.3,9.8,28.6000006705523));
#833=CARTESIAN_POINT('',(28.3,2.,28.6000006705523));
#834=CARTESIAN_POINT('',(28.3,3.95,28.6000006705522));
#835=CARTESIAN_POINT('',(26.3,1.11022302462516E-15,28.6000006705523));
#836=CARTESIAN_POINT('Origin',(26.3,2.,28.6000006705523));
#837=CARTESIAN_POINT('',(18.825,0.,28.6000006705522));
#838=CARTESIAN_POINT('',(24.9,5.9,28.6000006705523));
#839=CARTESIAN_POINT('Origin',(25.8,5.9,28.6000006705523));
#840=CARTESIAN_POINT('Origin',(23.5,0.,25.0000006705523));
#841=CARTESIAN_POINT('',(17.6,11.8,25.0000006705523));
#842=CARTESIAN_POINT('',(23.5,11.8,25.0000006705523));
#843=CARTESIAN_POINT('',(12.9140532012153,9.48495503444033,25.0000006705523));
#844=CARTESIAN_POINT('Origin',(17.6,5.9,25.0000006705523));
#845=CARTESIAN_POINT('',(12.056336711356,9.09459194374678,25.0000006705523));
#846=CARTESIAN_POINT('Origin',(12.1198249302348,10.0925745318031,25.0000006705523));
#847=CARTESIAN_POINT('',(12.1114149384639,2.61167909607448,25.0000006705523));
#848=CARTESIAN_POINT('Origin',(11.85,5.85114853256372,25.0000006705523));
#849=CARTESIAN_POINT('',(12.9756401151386,2.23594546229394,25.0000006705523));
#850=CARTESIAN_POINT('Origin',(12.1918503041451,1.6149192694624,25.0000006705523));
#851=CARTESIAN_POINT('',(17.6,0.,25.0000006705523));
#852=CARTESIAN_POINT('Origin',(17.6,5.9,25.0000006705523));
#853=CARTESIAN_POINT('',(23.5,0.,25.0000006705523));
#854=CARTESIAN_POINT('Origin',(-2.8,9.8,25.0000006705523));
#855=CARTESIAN_POINT('',(-4.8,9.8,30.2000006705523));
#856=CARTESIAN_POINT('',(-4.8,9.8,25.0000006705523));
#857=CARTESIAN_POINT('',(-2.8,11.8,30.2000006705523));
#858=CARTESIAN_POINT('Origin',(-2.8,9.8,30.2000006705523));
#859=CARTESIAN_POINT('',(-2.8,11.8,25.0000006705523));
#860=CARTESIAN_POINT('Origin',(28.3,2.,25.0000006705523));
#861=CARTESIAN_POINT('',(28.3,9.8,30.2000006705523));
#862=CARTESIAN_POINT('',(28.3,9.8,25.0000006705523));
#863=CARTESIAN_POINT('',(28.3,2.,30.2000006705523));
#864=CARTESIAN_POINT('',(28.3,2.,30.2000006705523));
#865=CARTESIAN_POINT('',(28.3,2.,25.0000006705523));
#866=CARTESIAN_POINT('Origin',(26.3,9.8,25.0000006705523));
#867=CARTESIAN_POINT('',(26.3,11.8,30.2000006705523));
#868=CARTESIAN_POINT('',(26.3,11.8,25.0000006705523));
#869=CARTESIAN_POINT('Origin',(26.3,9.8,30.2000006705523));
#870=CARTESIAN_POINT('Origin',(11.75,11.8,35.0000006705523));
#871=CARTESIAN_POINT('',(0.,11.8,30.2000006705523));
#872=CARTESIAN_POINT('',(-2.8,11.8,30.2000006705523));
#873=CARTESIAN_POINT('',(0.,11.8,45.0000006705523));
#874=CARTESIAN_POINT('',(0.,11.8,25.0000006705523));
#875=CARTESIAN_POINT('',(18.5000002756715,11.8,45.0000006705523));
#876=CARTESIAN_POINT('',(0.,11.8,45.0000006705523));
#877=CARTESIAN_POINT('',(23.5,11.8,42.5003801480099));
#878=CARTESIAN_POINT('',(18.5000002756715,11.8,45.0000006705523));
#879=CARTESIAN_POINT('',(23.5,11.8,30.2000006705523));
#880=CARTESIAN_POINT('',(23.5,11.8,42.5003801480099));
#881=CARTESIAN_POINT('',(26.3,11.8,30.2000006705523));
#882=CARTESIAN_POINT('',(26.3,11.8,25.0000006705523));
#883=CARTESIAN_POINT('Origin',(23.5,0.,25.0000006705523));
#884=CARTESIAN_POINT('Origin',(17.6,5.9,25.0000006705523));
#885=CARTESIAN_POINT('Origin',(25.8,5.9,25.0000006705523));
#886=CARTESIAN_POINT('',(24.9,5.9,30.2000006705523));
#887=CARTESIAN_POINT('Origin',(25.8,5.9,30.2000006705523));
#888=CARTESIAN_POINT('',(24.9,5.9,25.0000006705523));
#889=CARTESIAN_POINT('Origin',(26.3,2.,25.0000006705523));
#890=CARTESIAN_POINT('',(26.3,1.11022302462516E-15,30.2000006705523));
#891=CARTESIAN_POINT('Origin',(26.3,2.,30.2000006705523));
#892=CARTESIAN_POINT('',(26.3,1.11022302462516E-15,25.0000006705523));
#893=CARTESIAN_POINT('Origin',(25.9,5.9,30.2000006705523));
#894=CARTESIAN_POINT('',(23.5,0.,30.2000006705523));
#895=CARTESIAN_POINT('',(23.5,2.95,30.2000006705523));
#896=CARTESIAN_POINT('',(23.5,0.,30.2000006705523));
#897=CARTESIAN_POINT('Origin',(-2.3,5.9,25.0000006705523));
#898=CARTESIAN_POINT('',(-3.2,5.9,30.2000006705523));
#899=CARTESIAN_POINT('Origin',(-2.3,5.9,30.2000006705523));
#900=CARTESIAN_POINT('',(-3.2,5.9,25.0000006705523));
#901=CARTESIAN_POINT('Origin',(-2.8,2.,25.0000006705523));
#902=CARTESIAN_POINT('',(-2.8,0.,30.2000006705523));
#903=CARTESIAN_POINT('',(-2.8,2.77555756156289E-16,25.0000006705523));
#904=CARTESIAN_POINT('',(-4.8,2.,30.2000006705523));
#905=CARTESIAN_POINT('Origin',(-2.8,2.,30.2000006705523));
#906=CARTESIAN_POINT('',(-4.8,2.,25.0000006705523));
#907=CARTESIAN_POINT('Origin',(-4.8,9.8,25.0000006705523));
#908=CARTESIAN_POINT('',(-4.8,2.,30.2000006705523));
#909=CARTESIAN_POINT('Origin',(-2.4,5.9,30.2000006705523));
#910=CARTESIAN_POINT('',(0.,0.,30.2000006705523));
#911=CARTESIAN_POINT('',(0.,0.,30.2000006705523));
#912=CARTESIAN_POINT('',(0.,2.95,30.2000006705522));
#913=CARTESIAN_POINT('Origin',(17.6,5.9,25.0000006705523));
#914=CARTESIAN_POINT('',(15.7,5.9,17.7000006705523));
#915=CARTESIAN_POINT('Origin',(17.6,5.9,17.7000006705523));
#916=CARTESIAN_POINT('',(15.7,5.9,21.3000006705523));
#917=CARTESIAN_POINT('',(15.7,5.9,25.0000006705523));
#918=CARTESIAN_POINT('Origin',(17.6,5.9,21.3000006705523));
#919=CARTESIAN_POINT('Origin',(17.6,5.9,17.7000006705523));
#920=CARTESIAN_POINT('Origin',(12.1918503041451,1.6149192694624,25.0000006705523));
#921=CARTESIAN_POINT('',(12.1114149384639,2.61167909607448,21.3000006705523));
#922=CARTESIAN_POINT('',(12.1114149384639,2.61167909607448,25.0000006705523));
#923=CARTESIAN_POINT('',(12.9756401151386,2.23594546229394,21.3000006705523));
#924=CARTESIAN_POINT('Origin',(12.1918503041451,1.6149192694624,21.3000006705523));
#925=CARTESIAN_POINT('',(12.9756401151386,2.23594546229394,25.0000006705523));
#926=CARTESIAN_POINT('Origin',(17.6,5.9,25.0000006705523));
#927=CARTESIAN_POINT('Origin',(17.6,5.9,25.0000006705523));
#928=CARTESIAN_POINT('',(12.9140532012153,9.48495503444033,21.3000006705523));
#929=CARTESIAN_POINT('Origin',(17.6,5.9,21.3000006705523));
#930=CARTESIAN_POINT('',(12.9140532012153,9.48495503444033,25.0000006705523));
#931=CARTESIAN_POINT('Origin',(12.1198249302348,10.0925745318031,25.0000006705523));
#932=CARTESIAN_POINT('',(12.056336711356,9.09459194374678,21.3000006705523));
#933=CARTESIAN_POINT('Origin',(12.1198249302348,10.0925745318031,21.3000006705523));
#934=CARTESIAN_POINT('',(12.056336711356,9.09459194374678,25.0000006705523));
#935=CARTESIAN_POINT('Origin',(11.85,5.85114853256372,25.0000006705523));
#936=CARTESIAN_POINT('Origin',(11.85,5.85114853256372,21.3000006705523));
#937=CARTESIAN_POINT('Origin',(16.05,5.9,21.3000006705523));
#938=CARTESIAN_POINT('Origin',(23.5,0.,25.0000006705523));
#939=CARTESIAN_POINT('',(23.5,0.,25.0000006705523));
#940=CARTESIAN_POINT('Origin',(0.,0.,45.0000006705523));
#941=CARTESIAN_POINT('',(0.,0.,45.0000006705523));
#942=CARTESIAN_POINT('',(18.5000002756715,0.,45.0000006705523));
#943=CARTESIAN_POINT('',(0.,0.,45.0000006705523));
#944=CARTESIAN_POINT('',(18.5000002756715,0.,45.0000006705523));
#945=CARTESIAN_POINT('',(0.,0.,45.0000006705523));
#946=CARTESIAN_POINT('Origin',(0.,0.,25.0000006705523));
#947=CARTESIAN_POINT('',(0.,0.,25.0000006705523));
#948=CARTESIAN_POINT('Origin',(23.5,0.,42.5003801480099));
#949=CARTESIAN_POINT('',(23.5,0.,42.5003801480099));
#950=CARTESIAN_POINT('',(23.5,0.,42.5003801480099));
#951=CARTESIAN_POINT('',(23.5,0.,42.5003801480099));
#952=CARTESIAN_POINT('Origin',(18.5000002756715,0.,45.0000006705523));
#953=CARTESIAN_POINT('',(18.5000002756715,0.,45.0000006705523));
#954=CARTESIAN_POINT('Origin',(11.75,0.,35.0000006705523));
#955=UNCERTAINTY_MEASURE_WITH_UNIT(LENGTH_MEASURE(0.01),#959,
'DISTANCE_ACCURACY_VALUE',
'Maximum model space distance between geometric entities at asserted c
onnectivities');
#956=UNCERTAINTY_MEASURE_WITH_UNIT(LENGTH_MEASURE(0.01),#959,
'DISTANCE_ACCURACY_VALUE',
'Maximum model space distance between geometric entities at asserted c
onnectivities');
#957=(
GEOMETRIC_REPRESENTATION_CONTEXT(3)
GLOBAL_UNCERTAINTY_ASSIGNED_CONTEXT((#955))
GLOBAL_UNIT_ASSIGNED_CONTEXT((#959,#961,#962))
REPRESENTATION_CONTEXT('','3D')
);
#958=(
GEOMETRIC_REPRESENTATION_CONTEXT(3)
GLOBAL_UNCERTAINTY_ASSIGNED_CONTEXT((#956))
GLOBAL_UNIT_ASSIGNED_CONTEXT((#959,#961,#962))
REPRESENTATION_CONTEXT('','3D')
);
#959=(
LENGTH_UNIT()
NAMED_UNIT(*)
SI_UNIT(.MILLI.,.METRE.)
);
#960=(
LENGTH_UNIT()
NAMED_UNIT(*)
SI_UNIT($,.METRE.)
);
#961=(
NAMED_UNIT(*)
PLANE_ANGLE_UNIT()
SI_UNIT($,.RADIAN.)
);
#962=(
NAMED_UNIT(*)
SI_UNIT($,.STERADIAN.)
SOLID_ANGLE_UNIT()
);
#963=SHAPE_DEFINITION_REPRESENTATION(#964,#965);
#964=PRODUCT_DEFINITION_SHAPE('',$,#967);
#965=SHAPE_REPRESENTATION('',(#574),#957);
#966=PRODUCT_DEFINITION_CONTEXT('part definition',#971,'design');
#967=PRODUCT_DEFINITION('2026-08-27-13-44-28-463','Pan-Tilt Main Body',
#968,#966);
#968=PRODUCT_DEFINITION_FORMATION('',$,#973);
#969=PRODUCT_RELATED_PRODUCT_CATEGORY('Pan-Tilt Main Body',
'Pan-Tilt Main Body',(#973));
#970=APPLICATION_PROTOCOL_DEFINITION('international standard',
'automotive_design',2009,#971);
#971=APPLICATION_CONTEXT(
'Core Data for Automotive Mechanical Design Process');
#972=PRODUCT_CONTEXT('part definition',#971,'mechanical');
#973=PRODUCT('2026-08-27-13-44-28-463','Pan-Tilt Main Body',$,(#972));
#974=PRESENTATION_STYLE_ASSIGNMENT((#975));
#975=SURFACE_STYLE_USAGE(.BOTH.,#976);
#976=SURFACE_SIDE_STYLE('',(#977));
#977=SURFACE_STYLE_FILL_AREA(#978);
#978=FILL_AREA_STYLE('Steel - Satin',(#979));
#979=FILL_AREA_STYLE_COLOUR('Steel - Satin',#980);
#980=COLOUR_RGB('Steel - Satin',0.627450980392157,0.627450980392157,0.627450980392157);
ENDSEC;
END-ISO-10303-21;
