ISO-10303-21;
HEADER;
/* Generated by software containing ST-Developer
 * from STEP Tools, Inc. (www.steptools.com) 
 */

FILE_DESCRIPTION(
/* description */ (''),
/* implementation_level */ '2;1');

FILE_NAME(
/* name */ 'Pan-Tilt Left Domsdlay.step',
/* time_stamp */ '2026-09-03T12:19:15+03:00',
/* author */ (''),
/* organization */ (''),
/* preprocessor_version */ 'ST-DEVELOPER v20.1',
/* originating_system */ 'Autodesk Translation Framework v15.8.0.0',
/* authorisation */ '');

FILE_SCHEMA (('AUTOMOTIVE_DESIGN { 1 0 10303 214 3 1 1 }'));
ENDSEC;

DATA;
#10=MECHANICAL_DESIGN_GEOMETRIC_PRESENTATION_REPRESENTATION('',(#13),#1239);
#11=SHAPE_REPRESENTATION_RELATIONSHIP('SRR','None',#1246,#12);
#12=ADVANCED_BREP_SHAPE_REPRESENTATION('',(#14),#1238);
#13=STYLED_ITEM('',(#1255),#14);
#14=MANIFOLD_SOLID_BREP('Body1',#757);
#15=ELLIPSE('',#791,1.4143902182187,1.);
#16=ELLIPSE('',#799,1.4143902182187,1.);
#17=CYLINDRICAL_SURFACE('',#787,2.5);
#18=CYLINDRICAL_SURFACE('',#790,1.);
#19=CYLINDRICAL_SURFACE('',#794,1.00000000000001);
#20=CYLINDRICAL_SURFACE('',#797,1.);
#21=CYLINDRICAL_SURFACE('',#801,1.00000000000005);
#22=CYLINDRICAL_SURFACE('',#803,5.);
#23=FACE_BOUND('',#85,.T.);
#24=FACE_BOUND('',#86,.T.);
#25=CIRCLE('',#781,5.);
#26=CIRCLE('',#782,1.);
#27=CIRCLE('',#783,1.);
#28=CIRCLE('',#784,1.00000000000001);
#29=CIRCLE('',#785,1.00000000000005);
#30=CIRCLE('',#786,2.5);
#31=CIRCLE('',#788,2.5);
#32=CIRCLE('',#792,1.);
#33=CIRCLE('',#795,1.00000000000001);
#34=CIRCLE('',#798,1.);
#35=CIRCLE('',#802,1.00000000000005);
#36=CIRCLE('',#804,5.);
#37=FACE_OUTER_BOUND('',#75,.T.);
#38=FACE_OUTER_BOUND('',#76,.T.);
#39=FACE_OUTER_BOUND('',#77,.T.);
#40=FACE_OUTER_BOUND('',#78,.T.);
#41=FACE_OUTER_BOUND('',#79,.T.);
#42=FACE_OUTER_BOUND('',#80,.T.);
#43=FACE_OUTER_BOUND('',#81,.T.);
#44=FACE_OUTER_BOUND('',#82,.T.);
#45=FACE_OUTER_BOUND('',#83,.T.);
#46=FACE_OUTER_BOUND('',#84,.T.);
#47=FACE_OUTER_BOUND('',#87,.T.);
#48=FACE_OUTER_BOUND('',#88,.T.);
#49=FACE_OUTER_BOUND('',#89,.T.);
#50=FACE_OUTER_BOUND('',#90,.T.);
#51=FACE_OUTER_BOUND('',#91,.T.);
#52=FACE_OUTER_BOUND('',#92,.T.);
#53=FACE_OUTER_BOUND('',#93,.T.);
#54=FACE_OUTER_BOUND('',#94,.T.);
#55=FACE_OUTER_BOUND('',#95,.T.);
#56=FACE_OUTER_BOUND('',#96,.T.);
#57=FACE_OUTER_BOUND('',#97,.T.);
#58=FACE_OUTER_BOUND('',#98,.T.);
#59=FACE_OUTER_BOUND('',#99,.T.);
#60=FACE_OUTER_BOUND('',#100,.T.);
#61=FACE_OUTER_BOUND('',#101,.T.);
#62=FACE_OUTER_BOUND('',#102,.T.);
#63=FACE_OUTER_BOUND('',#103,.T.);
#64=FACE_OUTER_BOUND('',#104,.T.);
#65=FACE_OUTER_BOUND('',#105,.T.);
#66=FACE_OUTER_BOUND('',#106,.T.);
#67=FACE_OUTER_BOUND('',#107,.T.);
#68=FACE_OUTER_BOUND('',#108,.T.);
#69=FACE_OUTER_BOUND('',#109,.T.);
#70=FACE_OUTER_BOUND('',#110,.T.);
#71=FACE_OUTER_BOUND('',#111,.T.);
#72=FACE_OUTER_BOUND('',#112,.T.);
#73=FACE_OUTER_BOUND('',#113,.T.);
#74=FACE_OUTER_BOUND('',#114,.T.);
#75=EDGE_LOOP('',(#475,#476,#477,#478,#479,#480,#481,#482));
#76=EDGE_LOOP('',(#483,#484,#485,#486,#487,#488,#489,#490));
#77=EDGE_LOOP('',(#491,#492,#493,#494));
#78=EDGE_LOOP('',(#495,#496,#497,#498));
#79=EDGE_LOOP('',(#499,#500,#501,#502,#503,#504,#505));
#80=EDGE_LOOP('',(#506,#507,#508,#509));
#81=EDGE_LOOP('',(#510,#511,#512,#513,#514,#515,#516,#517,#518,#519));
#82=EDGE_LOOP('',(#520,#521,#522,#523,#524,#525,#526,#527));
#83=EDGE_LOOP('',(#528,#529,#530,#531));
#84=EDGE_LOOP('',(#532,#533,#534,#535,#536,#537,#538));
#85=EDGE_LOOP('',(#539,#540,#541,#542,#543,#544,#545,#546));
#86=EDGE_LOOP('',(#547));
#87=EDGE_LOOP('',(#548,#549,#550,#551));
#88=EDGE_LOOP('',(#552));
#89=EDGE_LOOP('',(#553,#554,#555,#556,#557));
#90=EDGE_LOOP('',(#558,#559,#560,#561));
#91=EDGE_LOOP('',(#562,#563,#564,#565));
#92=EDGE_LOOP('',(#566,#567,#568,#569));
#93=EDGE_LOOP('',(#570,#571,#572,#573,#574));
#94=EDGE_LOOP('',(#575,#576,#577,#578));
#95=EDGE_LOOP('',(#579,#580,#581,#582));
#96=EDGE_LOOP('',(#583,#584,#585,#586));
#97=EDGE_LOOP('',(#587,#588,#589,#590));
#98=EDGE_LOOP('',(#591,#592,#593,#594));
#99=EDGE_LOOP('',(#595,#596,#597,#598,#599));
#100=EDGE_LOOP('',(#600,#601,#602,#603,#604));
#101=EDGE_LOOP('',(#605,#606,#607,#608));
#102=EDGE_LOOP('',(#609,#610,#611,#612,#613,#614,#615,#616,#617,#618,#619,
#620));
#103=EDGE_LOOP('',(#621,#622,#623,#624));
#104=EDGE_LOOP('',(#625,#626,#627,#628,#629,#630,#631,#632));
#105=EDGE_LOOP('',(#633,#634,#635,#636,#637,#638,#639,#640,#641,#642,#643,
#644,#645,#646));
#106=EDGE_LOOP('',(#647,#648,#649,#650,#651,#652,#653,#654));
#107=EDGE_LOOP('',(#655,#656,#657,#658));
#108=EDGE_LOOP('',(#659,#660,#661,#662));
#109=EDGE_LOOP('',(#663,#664,#665,#666));
#110=EDGE_LOOP('',(#667,#668,#669,#670));
#111=EDGE_LOOP('',(#671,#672,#673,#674));
#112=EDGE_LOOP('',(#675,#676,#677,#678));
#113=EDGE_LOOP('',(#679,#680,#681,#682));
#114=EDGE_LOOP('',(#683,#684,#685,#686));
#115=LINE('',#1025,#207);
#116=LINE('',#1027,#208);
#117=LINE('',#1029,#209);
#118=LINE('',#1031,#210);
#119=LINE('',#1033,#211);
#120=LINE('',#1035,#212);
#121=LINE('',#1037,#213);
#122=LINE('',#1038,#214);
#123=LINE('',#1042,#215);
#124=LINE('',#1044,#216);
#125=LINE('',#1046,#217);
#126=LINE('',#1048,#218);
#127=LINE('',#1050,#219);
#128=LINE('',#1052,#220);
#129=LINE('',#1054,#221);
#130=LINE('',#1055,#222);
#131=LINE('',#1058,#223);
#132=LINE('',#1060,#224);
#133=LINE('',#1061,#225);
#134=LINE('',#1064,#226);
#135=LINE('',#1065,#227);
#136=LINE('',#1068,#228);
#137=LINE('',#1070,#229);
#138=LINE('',#1072,#230);
#139=LINE('',#1074,#231);
#140=LINE('',#1076,#232);
#141=LINE('',#1077,#233);
#142=LINE('',#1080,#234);
#143=LINE('',#1082,#235);
#144=LINE('',#1083,#236);
#145=LINE('',#1086,#237);
#146=LINE('',#1088,#238);
#147=LINE('',#1090,#239);
#148=LINE('',#1092,#240);
#149=LINE('',#1094,#241);
#150=LINE('',#1096,#242);
#151=LINE('',#1098,#243);
#152=LINE('',#1100,#244);
#153=LINE('',#1101,#245);
#154=LINE('',#1103,#246);
#155=LINE('',#1105,#247);
#156=LINE('',#1106,#248);
#157=LINE('',#1110,#249);
#158=LINE('',#1112,#250);
#159=LINE('',#1114,#251);
#160=LINE('',#1115,#252);
#161=LINE('',#1119,#253);
#162=LINE('',#1121,#254);
#163=LINE('',#1123,#255);
#164=LINE('',#1126,#256);
#165=LINE('',#1127,#257);
#166=LINE('',#1133,#258);
#167=LINE('',#1137,#259);
#168=LINE('',#1140,#260);
#169=LINE('',#1146,#261);
#170=LINE('',#1153,#262);
#171=LINE('',#1156,#263);
#172=LINE('',#1157,#264);
#173=LINE('',#1161,#265);
#174=LINE('',#1164,#266);
#175=LINE('',#1165,#267);
#176=LINE('',#1168,#268);
#177=LINE('',#1174,#269);
#178=LINE('',#1175,#270);
#179=LINE('',#1182,#271);
#180=LINE('',#1183,#272);
#181=LINE('',#1186,#273);
#182=LINE('',#1187,#274);
#183=LINE('',#1189,#275);
#184=LINE('',#1191,#276);
#185=LINE('',#1193,#277);
#186=LINE('',#1194,#278);
#187=LINE('',#1196,#279);
#188=LINE('',#1199,#280);
#189=LINE('',#1200,#281);
#190=LINE('',#1203,#282);
#191=LINE('',#1205,#283);
#192=LINE('',#1206,#284);
#193=LINE('',#1208,#285);
#194=LINE('',#1210,#286);
#195=LINE('',#1212,#287);
#196=LINE('',#1213,#288);
#197=LINE('',#1215,#289);
#198=LINE('',#1217,#290);
#199=LINE('',#1218,#291);
#200=LINE('',#1219,#292);
#201=LINE('',#1222,#293);
#202=LINE('',#1224,#294);
#203=LINE('',#1226,#295);
#204=LINE('',#1228,#296);
#205=LINE('',#1230,#297);
#206=LINE('',#1234,#298);
#207=VECTOR('',#827,10.);
#208=VECTOR('',#828,10.);
#209=VECTOR('',#829,10.);
#210=VECTOR('',#830,10.);
#211=VECTOR('',#831,10.);
#212=VECTOR('',#832,10.);
#213=VECTOR('',#833,10.);
#214=VECTOR('',#834,10.);
#215=VECTOR('',#837,10.);
#216=VECTOR('',#838,10.);
#217=VECTOR('',#839,10.);
#218=VECTOR('',#840,10.);
#219=VECTOR('',#841,10.);
#220=VECTOR('',#842,10.);
#221=VECTOR('',#843,10.);
#222=VECTOR('',#844,10.);
#223=VECTOR('',#847,10.);
#224=VECTOR('',#848,10.);
#225=VECTOR('',#849,10.);
#226=VECTOR('',#852,10.);
#227=VECTOR('',#853,10.);
#228=VECTOR('',#856,10.);
#229=VECTOR('',#857,10.);
#230=VECTOR('',#858,10.);
#231=VECTOR('',#859,10.);
#232=VECTOR('',#860,10.);
#233=VECTOR('',#861,10.);
#234=VECTOR('',#864,10.);
#235=VECTOR('',#865,10.);
#236=VECTOR('',#866,10.);
#237=VECTOR('',#869,10.);
#238=VECTOR('',#870,10.);
#239=VECTOR('',#871,10.);
#240=VECTOR('',#872,10.);
#241=VECTOR('',#873,10.);
#242=VECTOR('',#874,10.);
#243=VECTOR('',#875,10.);
#244=VECTOR('',#876,10.);
#245=VECTOR('',#877,10.);
#246=VECTOR('',#880,10.);
#247=VECTOR('',#881,10.);
#248=VECTOR('',#882,10.);
#249=VECTOR('',#885,10.);
#250=VECTOR('',#886,10.);
#251=VECTOR('',#887,10.);
#252=VECTOR('',#888,10.);
#253=VECTOR('',#891,10.);
#254=VECTOR('',#892,10.);
#255=VECTOR('',#893,10.);
#256=VECTOR('',#896,10.);
#257=VECTOR('',#897,10.);
#258=VECTOR('',#902,10.);
#259=VECTOR('',#905,10.);
#260=VECTOR('',#908,10.);
#261=VECTOR('',#915,2.5);
#262=VECTOR('',#924,10.);
#263=VECTOR('',#927,10.);
#264=VECTOR('',#928,10.);
#265=VECTOR('',#933,10.);
#266=VECTOR('',#936,10.);
#267=VECTOR('',#937,10.);
#268=VECTOR('',#940,10.);
#269=VECTOR('',#947,10.);
#270=VECTOR('',#948,10.);
#271=VECTOR('',#957,10.);
#272=VECTOR('',#958,10.);
#273=VECTOR('',#961,10.);
#274=VECTOR('',#962,10.);
#275=VECTOR('',#965,10.);
#276=VECTOR('',#968,10.);
#277=VECTOR('',#969,10.);
#278=VECTOR('',#970,10.);
#279=VECTOR('',#973,10.);
#280=VECTOR('',#976,10.);
#281=VECTOR('',#977,10.);
#282=VECTOR('',#980,10.);
#283=VECTOR('',#981,10.);
#284=VECTOR('',#982,10.);
#285=VECTOR('',#983,10.);
#286=VECTOR('',#984,10.);
#287=VECTOR('',#985,10.);
#288=VECTOR('',#986,10.);
#289=VECTOR('',#989,10.);
#290=VECTOR('',#992,10.);
#291=VECTOR('',#993,10.);
#292=VECTOR('',#994,10.);
#293=VECTOR('',#999,10.);
#294=VECTOR('',#1002,10.);
#295=VECTOR('',#1005,10.);
#296=VECTOR('',#1008,10.);
#297=VECTOR('',#1011,10.);
#298=VECTOR('',#1018,10.);
#299=VERTEX_POINT('',#1023);
#300=VERTEX_POINT('',#1024);
#301=VERTEX_POINT('',#1026);
#302=VERTEX_POINT('',#1028);
#303=VERTEX_POINT('',#1030);
#304=VERTEX_POINT('',#1032);
#305=VERTEX_POINT('',#1034);
#306=VERTEX_POINT('',#1036);
#307=VERTEX_POINT('',#1040);
#308=VERTEX_POINT('',#1041);
#309=VERTEX_POINT('',#1043);
#310=VERTEX_POINT('',#1045);
#311=VERTEX_POINT('',#1047);
#312=VERTEX_POINT('',#1049);
#313=VERTEX_POINT('',#1051);
#314=VERTEX_POINT('',#1053);
#315=VERTEX_POINT('',#1057);
#316=VERTEX_POINT('',#1059);
#317=VERTEX_POINT('',#1063);
#318=VERTEX_POINT('',#1067);
#319=VERTEX_POINT('',#1069);
#320=VERTEX_POINT('',#1071);
#321=VERTEX_POINT('',#1073);
#322=VERTEX_POINT('',#1075);
#323=VERTEX_POINT('',#1079);
#324=VERTEX_POINT('',#1081);
#325=VERTEX_POINT('',#1085);
#326=VERTEX_POINT('',#1087);
#327=VERTEX_POINT('',#1089);
#328=VERTEX_POINT('',#1091);
#329=VERTEX_POINT('',#1093);
#330=VERTEX_POINT('',#1095);
#331=VERTEX_POINT('',#1097);
#332=VERTEX_POINT('',#1099);
#333=VERTEX_POINT('',#1104);
#334=VERTEX_POINT('',#1108);
#335=VERTEX_POINT('',#1109);
#336=VERTEX_POINT('',#1111);
#337=VERTEX_POINT('',#1113);
#338=VERTEX_POINT('',#1117);
#339=VERTEX_POINT('',#1118);
#340=VERTEX_POINT('',#1120);
#341=VERTEX_POINT('',#1122);
#342=VERTEX_POINT('',#1124);
#343=VERTEX_POINT('',#1128);
#344=VERTEX_POINT('',#1130);
#345=VERTEX_POINT('',#1132);
#346=VERTEX_POINT('',#1134);
#347=VERTEX_POINT('',#1136);
#348=VERTEX_POINT('',#1138);
#349=VERTEX_POINT('',#1141);
#350=VERTEX_POINT('',#1144);
#351=VERTEX_POINT('',#1149);
#352=VERTEX_POINT('',#1151);
#353=VERTEX_POINT('',#1155);
#354=VERTEX_POINT('',#1159);
#355=VERTEX_POINT('',#1163);
#356=VERTEX_POINT('',#1167);
#357=VERTEX_POINT('',#1169);
#358=VERTEX_POINT('',#1173);
#359=VERTEX_POINT('',#1179);
#360=VERTEX_POINT('',#1180);
#361=VERTEX_POINT('',#1185);
#362=VERTEX_POINT('',#1192);
#363=VERTEX_POINT('',#1198);
#364=VERTEX_POINT('',#1202);
#365=VERTEX_POINT('',#1204);
#366=VERTEX_POINT('',#1207);
#367=VERTEX_POINT('',#1209);
#368=VERTEX_POINT('',#1211);
#369=EDGE_CURVE('',#299,#300,#115,.T.);
#370=EDGE_CURVE('',#301,#299,#116,.T.);
#371=EDGE_CURVE('',#302,#301,#117,.T.);
#372=EDGE_CURVE('',#303,#302,#118,.T.);
#373=EDGE_CURVE('',#304,#303,#119,.T.);
#374=EDGE_CURVE('',#305,#304,#120,.T.);
#375=EDGE_CURVE('',#306,#305,#121,.T.);
#376=EDGE_CURVE('',#300,#306,#122,.T.);
#377=EDGE_CURVE('',#307,#308,#123,.T.);
#378=EDGE_CURVE('',#309,#307,#124,.T.);
#379=EDGE_CURVE('',#310,#309,#125,.T.);
#380=EDGE_CURVE('',#311,#310,#126,.T.);
#381=EDGE_CURVE('',#312,#311,#127,.T.);
#382=EDGE_CURVE('',#313,#312,#128,.T.);
#383=EDGE_CURVE('',#314,#313,#129,.T.);
#384=EDGE_CURVE('',#308,#314,#130,.T.);
#385=EDGE_CURVE('',#315,#309,#131,.T.);
#386=EDGE_CURVE('',#316,#315,#132,.T.);
#387=EDGE_CURVE('',#310,#316,#133,.T.);
#388=EDGE_CURVE('',#317,#307,#134,.T.);
#389=EDGE_CURVE('',#315,#317,#135,.T.);
#390=EDGE_CURVE('',#314,#318,#136,.T.);
#391=EDGE_CURVE('',#318,#319,#137,.T.);
#392=EDGE_CURVE('',#319,#320,#138,.T.);
#393=EDGE_CURVE('',#320,#321,#139,.T.);
#394=EDGE_CURVE('',#321,#322,#140,.T.);
#395=EDGE_CURVE('',#322,#308,#141,.T.);
#396=EDGE_CURVE('',#300,#323,#142,.T.);
#397=EDGE_CURVE('',#324,#323,#143,.T.);
#398=EDGE_CURVE('',#299,#324,#144,.T.);
#399=EDGE_CURVE('',#305,#325,#145,.T.);
#400=EDGE_CURVE('',#325,#326,#146,.T.);
#401=EDGE_CURVE('',#326,#327,#147,.T.);
#402=EDGE_CURVE('',#327,#328,#148,.T.);
#403=EDGE_CURVE('',#328,#329,#149,.T.);
#404=EDGE_CURVE('',#329,#330,#150,.T.);
#405=EDGE_CURVE('',#330,#331,#151,.T.);
#406=EDGE_CURVE('',#332,#331,#152,.T.);
#407=EDGE_CURVE('',#306,#332,#153,.T.);
#408=EDGE_CURVE('',#325,#322,#154,.T.);
#409=EDGE_CURVE('',#304,#333,#155,.T.);
#410=EDGE_CURVE('',#333,#317,#156,.T.);
#411=EDGE_CURVE('',#334,#335,#157,.T.);
#412=EDGE_CURVE('',#334,#336,#158,.T.);
#413=EDGE_CURVE('',#337,#336,#159,.T.);
#414=EDGE_CURVE('',#337,#335,#160,.T.);
#415=EDGE_CURVE('',#338,#339,#161,.T.);
#416=EDGE_CURVE('',#338,#340,#162,.T.);
#417=EDGE_CURVE('',#340,#341,#163,.T.);
#418=EDGE_CURVE('',#341,#342,#25,.T.);
#419=EDGE_CURVE('',#342,#329,#164,.T.);
#420=EDGE_CURVE('',#328,#339,#165,.T.);
#421=EDGE_CURVE('',#343,#334,#26,.T.);
#422=EDGE_CURVE('',#335,#344,#27,.T.);
#423=EDGE_CURVE('',#344,#345,#166,.T.);
#424=EDGE_CURVE('',#345,#346,#28,.T.);
#425=EDGE_CURVE('',#346,#347,#167,.T.);
#426=EDGE_CURVE('',#347,#348,#29,.T.);
#427=EDGE_CURVE('',#348,#343,#168,.T.);
#428=EDGE_CURVE('',#349,#349,#30,.T.);
#429=EDGE_CURVE('',#350,#350,#31,.T.);
#430=EDGE_CURVE('',#350,#349,#169,.T.);
#431=EDGE_CURVE('',#351,#337,#15,.T.);
#432=EDGE_CURVE('',#352,#351,#32,.T.);
#433=EDGE_CURVE('',#344,#352,#170,.T.);
#434=EDGE_CURVE('',#353,#352,#171,.T.);
#435=EDGE_CURVE('',#345,#353,#172,.T.);
#436=EDGE_CURVE('',#354,#353,#33,.T.);
#437=EDGE_CURVE('',#346,#354,#173,.T.);
#438=EDGE_CURVE('',#355,#354,#174,.T.);
#439=EDGE_CURVE('',#355,#347,#175,.T.);
#440=EDGE_CURVE('',#343,#356,#176,.T.);
#441=EDGE_CURVE('',#357,#356,#34,.T.);
#442=EDGE_CURVE('',#336,#357,#16,.T.);
#443=EDGE_CURVE('',#348,#358,#177,.T.);
#444=EDGE_CURVE('',#356,#358,#178,.T.);
#445=EDGE_CURVE('',#358,#355,#35,.T.);
#446=EDGE_CURVE('',#359,#360,#36,.T.);
#447=EDGE_CURVE('',#359,#342,#179,.T.);
#448=EDGE_CURVE('',#360,#341,#180,.T.);
#449=EDGE_CURVE('',#360,#361,#181,.T.);
#450=EDGE_CURVE('',#361,#340,#182,.T.);
#451=EDGE_CURVE('',#330,#359,#183,.T.);
#452=EDGE_CURVE('',#319,#339,#184,.T.);
#453=EDGE_CURVE('',#362,#318,#185,.T.);
#454=EDGE_CURVE('',#362,#338,#186,.T.);
#455=EDGE_CURVE('',#327,#320,#187,.T.);
#456=EDGE_CURVE('',#303,#363,#188,.T.);
#457=EDGE_CURVE('',#363,#333,#189,.T.);
#458=EDGE_CURVE('',#363,#364,#190,.T.);
#459=EDGE_CURVE('',#365,#364,#191,.T.);
#460=EDGE_CURVE('',#365,#324,#192,.T.);
#461=EDGE_CURVE('',#366,#323,#193,.T.);
#462=EDGE_CURVE('',#366,#367,#194,.T.);
#463=EDGE_CURVE('',#367,#368,#195,.T.);
#464=EDGE_CURVE('',#368,#316,#196,.T.);
#465=EDGE_CURVE('',#362,#361,#197,.T.);
#466=EDGE_CURVE('',#357,#362,#198,.T.);
#467=EDGE_CURVE('',#332,#318,#199,.T.);
#468=EDGE_CURVE('',#331,#351,#200,.T.);
#469=EDGE_CURVE('',#313,#366,#201,.T.);
#470=EDGE_CURVE('',#301,#365,#202,.T.);
#471=EDGE_CURVE('',#364,#302,#203,.T.);
#472=EDGE_CURVE('',#367,#312,#204,.T.);
#473=EDGE_CURVE('',#368,#311,#205,.T.);
#474=EDGE_CURVE('',#326,#321,#206,.T.);
#475=ORIENTED_EDGE('',*,*,#369,.F.);
#476=ORIENTED_EDGE('',*,*,#370,.F.);
#477=ORIENTED_EDGE('',*,*,#371,.F.);
#478=ORIENTED_EDGE('',*,*,#372,.F.);
#479=ORIENTED_EDGE('',*,*,#373,.F.);
#480=ORIENTED_EDGE('',*,*,#374,.F.);
#481=ORIENTED_EDGE('',*,*,#375,.F.);
#482=ORIENTED_EDGE('',*,*,#376,.F.);
#483=ORIENTED_EDGE('',*,*,#377,.F.);
#484=ORIENTED_EDGE('',*,*,#378,.F.);
#485=ORIENTED_EDGE('',*,*,#379,.F.);
#486=ORIENTED_EDGE('',*,*,#380,.F.);
#487=ORIENTED_EDGE('',*,*,#381,.F.);
#488=ORIENTED_EDGE('',*,*,#382,.F.);
#489=ORIENTED_EDGE('',*,*,#383,.F.);
#490=ORIENTED_EDGE('',*,*,#384,.F.);
#491=ORIENTED_EDGE('',*,*,#379,.T.);
#492=ORIENTED_EDGE('',*,*,#385,.F.);
#493=ORIENTED_EDGE('',*,*,#386,.F.);
#494=ORIENTED_EDGE('',*,*,#387,.F.);
#495=ORIENTED_EDGE('',*,*,#378,.T.);
#496=ORIENTED_EDGE('',*,*,#388,.F.);
#497=ORIENTED_EDGE('',*,*,#389,.F.);
#498=ORIENTED_EDGE('',*,*,#385,.T.);
#499=ORIENTED_EDGE('',*,*,#384,.T.);
#500=ORIENTED_EDGE('',*,*,#390,.T.);
#501=ORIENTED_EDGE('',*,*,#391,.T.);
#502=ORIENTED_EDGE('',*,*,#392,.T.);
#503=ORIENTED_EDGE('',*,*,#393,.T.);
#504=ORIENTED_EDGE('',*,*,#394,.T.);
#505=ORIENTED_EDGE('',*,*,#395,.T.);
#506=ORIENTED_EDGE('',*,*,#369,.T.);
#507=ORIENTED_EDGE('',*,*,#396,.T.);
#508=ORIENTED_EDGE('',*,*,#397,.F.);
#509=ORIENTED_EDGE('',*,*,#398,.F.);
#510=ORIENTED_EDGE('',*,*,#375,.T.);
#511=ORIENTED_EDGE('',*,*,#399,.T.);
#512=ORIENTED_EDGE('',*,*,#400,.T.);
#513=ORIENTED_EDGE('',*,*,#401,.T.);
#514=ORIENTED_EDGE('',*,*,#402,.T.);
#515=ORIENTED_EDGE('',*,*,#403,.T.);
#516=ORIENTED_EDGE('',*,*,#404,.T.);
#517=ORIENTED_EDGE('',*,*,#405,.T.);
#518=ORIENTED_EDGE('',*,*,#406,.F.);
#519=ORIENTED_EDGE('',*,*,#407,.F.);
#520=ORIENTED_EDGE('',*,*,#377,.T.);
#521=ORIENTED_EDGE('',*,*,#395,.F.);
#522=ORIENTED_EDGE('',*,*,#408,.F.);
#523=ORIENTED_EDGE('',*,*,#399,.F.);
#524=ORIENTED_EDGE('',*,*,#374,.T.);
#525=ORIENTED_EDGE('',*,*,#409,.T.);
#526=ORIENTED_EDGE('',*,*,#410,.T.);
#527=ORIENTED_EDGE('',*,*,#388,.T.);
#528=ORIENTED_EDGE('',*,*,#411,.F.);
#529=ORIENTED_EDGE('',*,*,#412,.T.);
#530=ORIENTED_EDGE('',*,*,#413,.F.);
#531=ORIENTED_EDGE('',*,*,#414,.T.);
#532=ORIENTED_EDGE('',*,*,#415,.F.);
#533=ORIENTED_EDGE('',*,*,#416,.T.);
#534=ORIENTED_EDGE('',*,*,#417,.T.);
#535=ORIENTED_EDGE('',*,*,#418,.T.);
#536=ORIENTED_EDGE('',*,*,#419,.T.);
#537=ORIENTED_EDGE('',*,*,#403,.F.);
#538=ORIENTED_EDGE('',*,*,#420,.T.);
#539=ORIENTED_EDGE('',*,*,#421,.T.);
#540=ORIENTED_EDGE('',*,*,#411,.T.);
#541=ORIENTED_EDGE('',*,*,#422,.T.);
#542=ORIENTED_EDGE('',*,*,#423,.T.);
#543=ORIENTED_EDGE('',*,*,#424,.T.);
#544=ORIENTED_EDGE('',*,*,#425,.T.);
#545=ORIENTED_EDGE('',*,*,#426,.T.);
#546=ORIENTED_EDGE('',*,*,#427,.T.);
#547=ORIENTED_EDGE('',*,*,#428,.T.);
#548=ORIENTED_EDGE('',*,*,#429,.F.);
#549=ORIENTED_EDGE('',*,*,#430,.T.);
#550=ORIENTED_EDGE('',*,*,#428,.F.);
#551=ORIENTED_EDGE('',*,*,#430,.F.);
#552=ORIENTED_EDGE('',*,*,#429,.T.);
#553=ORIENTED_EDGE('',*,*,#422,.F.);
#554=ORIENTED_EDGE('',*,*,#414,.F.);
#555=ORIENTED_EDGE('',*,*,#431,.F.);
#556=ORIENTED_EDGE('',*,*,#432,.F.);
#557=ORIENTED_EDGE('',*,*,#433,.F.);
#558=ORIENTED_EDGE('',*,*,#423,.F.);
#559=ORIENTED_EDGE('',*,*,#433,.T.);
#560=ORIENTED_EDGE('',*,*,#434,.F.);
#561=ORIENTED_EDGE('',*,*,#435,.F.);
#562=ORIENTED_EDGE('',*,*,#424,.F.);
#563=ORIENTED_EDGE('',*,*,#435,.T.);
#564=ORIENTED_EDGE('',*,*,#436,.F.);
#565=ORIENTED_EDGE('',*,*,#437,.F.);
#566=ORIENTED_EDGE('',*,*,#425,.F.);
#567=ORIENTED_EDGE('',*,*,#437,.T.);
#568=ORIENTED_EDGE('',*,*,#438,.F.);
#569=ORIENTED_EDGE('',*,*,#439,.T.);
#570=ORIENTED_EDGE('',*,*,#421,.F.);
#571=ORIENTED_EDGE('',*,*,#440,.T.);
#572=ORIENTED_EDGE('',*,*,#441,.F.);
#573=ORIENTED_EDGE('',*,*,#442,.F.);
#574=ORIENTED_EDGE('',*,*,#412,.F.);
#575=ORIENTED_EDGE('',*,*,#427,.F.);
#576=ORIENTED_EDGE('',*,*,#443,.T.);
#577=ORIENTED_EDGE('',*,*,#444,.F.);
#578=ORIENTED_EDGE('',*,*,#440,.F.);
#579=ORIENTED_EDGE('',*,*,#426,.F.);
#580=ORIENTED_EDGE('',*,*,#439,.F.);
#581=ORIENTED_EDGE('',*,*,#445,.F.);
#582=ORIENTED_EDGE('',*,*,#443,.F.);
#583=ORIENTED_EDGE('',*,*,#446,.F.);
#584=ORIENTED_EDGE('',*,*,#447,.T.);
#585=ORIENTED_EDGE('',*,*,#418,.F.);
#586=ORIENTED_EDGE('',*,*,#448,.F.);
#587=ORIENTED_EDGE('',*,*,#449,.F.);
#588=ORIENTED_EDGE('',*,*,#448,.T.);
#589=ORIENTED_EDGE('',*,*,#417,.F.);
#590=ORIENTED_EDGE('',*,*,#450,.F.);
#591=ORIENTED_EDGE('',*,*,#451,.F.);
#592=ORIENTED_EDGE('',*,*,#404,.F.);
#593=ORIENTED_EDGE('',*,*,#419,.F.);
#594=ORIENTED_EDGE('',*,*,#447,.F.);
#595=ORIENTED_EDGE('',*,*,#452,.F.);
#596=ORIENTED_EDGE('',*,*,#391,.F.);
#597=ORIENTED_EDGE('',*,*,#453,.F.);
#598=ORIENTED_EDGE('',*,*,#454,.T.);
#599=ORIENTED_EDGE('',*,*,#415,.T.);
#600=ORIENTED_EDGE('',*,*,#452,.T.);
#601=ORIENTED_EDGE('',*,*,#420,.F.);
#602=ORIENTED_EDGE('',*,*,#402,.F.);
#603=ORIENTED_EDGE('',*,*,#455,.T.);
#604=ORIENTED_EDGE('',*,*,#392,.F.);
#605=ORIENTED_EDGE('',*,*,#373,.T.);
#606=ORIENTED_EDGE('',*,*,#456,.T.);
#607=ORIENTED_EDGE('',*,*,#457,.T.);
#608=ORIENTED_EDGE('',*,*,#409,.F.);
#609=ORIENTED_EDGE('',*,*,#389,.T.);
#610=ORIENTED_EDGE('',*,*,#410,.F.);
#611=ORIENTED_EDGE('',*,*,#457,.F.);
#612=ORIENTED_EDGE('',*,*,#458,.T.);
#613=ORIENTED_EDGE('',*,*,#459,.F.);
#614=ORIENTED_EDGE('',*,*,#460,.T.);
#615=ORIENTED_EDGE('',*,*,#397,.T.);
#616=ORIENTED_EDGE('',*,*,#461,.F.);
#617=ORIENTED_EDGE('',*,*,#462,.T.);
#618=ORIENTED_EDGE('',*,*,#463,.T.);
#619=ORIENTED_EDGE('',*,*,#464,.T.);
#620=ORIENTED_EDGE('',*,*,#386,.T.);
#621=ORIENTED_EDGE('',*,*,#454,.F.);
#622=ORIENTED_EDGE('',*,*,#465,.T.);
#623=ORIENTED_EDGE('',*,*,#450,.T.);
#624=ORIENTED_EDGE('',*,*,#416,.F.);
#625=ORIENTED_EDGE('',*,*,#442,.T.);
#626=ORIENTED_EDGE('',*,*,#466,.T.);
#627=ORIENTED_EDGE('',*,*,#453,.T.);
#628=ORIENTED_EDGE('',*,*,#467,.F.);
#629=ORIENTED_EDGE('',*,*,#406,.T.);
#630=ORIENTED_EDGE('',*,*,#468,.T.);
#631=ORIENTED_EDGE('',*,*,#431,.T.);
#632=ORIENTED_EDGE('',*,*,#413,.T.);
#633=ORIENTED_EDGE('',*,*,#432,.T.);
#634=ORIENTED_EDGE('',*,*,#468,.F.);
#635=ORIENTED_EDGE('',*,*,#405,.F.);
#636=ORIENTED_EDGE('',*,*,#451,.T.);
#637=ORIENTED_EDGE('',*,*,#446,.T.);
#638=ORIENTED_EDGE('',*,*,#449,.T.);
#639=ORIENTED_EDGE('',*,*,#465,.F.);
#640=ORIENTED_EDGE('',*,*,#466,.F.);
#641=ORIENTED_EDGE('',*,*,#441,.T.);
#642=ORIENTED_EDGE('',*,*,#444,.T.);
#643=ORIENTED_EDGE('',*,*,#445,.T.);
#644=ORIENTED_EDGE('',*,*,#438,.T.);
#645=ORIENTED_EDGE('',*,*,#436,.T.);
#646=ORIENTED_EDGE('',*,*,#434,.T.);
#647=ORIENTED_EDGE('',*,*,#383,.T.);
#648=ORIENTED_EDGE('',*,*,#469,.T.);
#649=ORIENTED_EDGE('',*,*,#461,.T.);
#650=ORIENTED_EDGE('',*,*,#396,.F.);
#651=ORIENTED_EDGE('',*,*,#376,.T.);
#652=ORIENTED_EDGE('',*,*,#407,.T.);
#653=ORIENTED_EDGE('',*,*,#467,.T.);
#654=ORIENTED_EDGE('',*,*,#390,.F.);
#655=ORIENTED_EDGE('',*,*,#370,.T.);
#656=ORIENTED_EDGE('',*,*,#398,.T.);
#657=ORIENTED_EDGE('',*,*,#460,.F.);
#658=ORIENTED_EDGE('',*,*,#470,.F.);
#659=ORIENTED_EDGE('',*,*,#371,.T.);
#660=ORIENTED_EDGE('',*,*,#470,.T.);
#661=ORIENTED_EDGE('',*,*,#459,.T.);
#662=ORIENTED_EDGE('',*,*,#471,.T.);
#663=ORIENTED_EDGE('',*,*,#382,.T.);
#664=ORIENTED_EDGE('',*,*,#472,.F.);
#665=ORIENTED_EDGE('',*,*,#462,.F.);
#666=ORIENTED_EDGE('',*,*,#469,.F.);
#667=ORIENTED_EDGE('',*,*,#381,.T.);
#668=ORIENTED_EDGE('',*,*,#473,.F.);
#669=ORIENTED_EDGE('',*,*,#463,.F.);
#670=ORIENTED_EDGE('',*,*,#472,.T.);
#671=ORIENTED_EDGE('',*,*,#380,.T.);
#672=ORIENTED_EDGE('',*,*,#387,.T.);
#673=ORIENTED_EDGE('',*,*,#464,.F.);
#674=ORIENTED_EDGE('',*,*,#473,.T.);
#675=ORIENTED_EDGE('',*,*,#372,.T.);
#676=ORIENTED_EDGE('',*,*,#471,.F.);
#677=ORIENTED_EDGE('',*,*,#458,.F.);
#678=ORIENTED_EDGE('',*,*,#456,.F.);
#679=ORIENTED_EDGE('',*,*,#400,.F.);
#680=ORIENTED_EDGE('',*,*,#408,.T.);
#681=ORIENTED_EDGE('',*,*,#394,.F.);
#682=ORIENTED_EDGE('',*,*,#474,.F.);
#683=ORIENTED_EDGE('',*,*,#474,.T.);
#684=ORIENTED_EDGE('',*,*,#393,.F.);
#685=ORIENTED_EDGE('',*,*,#455,.F.);
#686=ORIENTED_EDGE('',*,*,#401,.F.);
#687=PLANE('',#771);
#688=PLANE('',#772);
#689=PLANE('',#773);
#690=PLANE('',#774);
#691=PLANE('',#775);
#692=PLANE('',#776);
#693=PLANE('',#777);
#694=PLANE('',#778);
#695=PLANE('',#779);
#696=PLANE('',#780);
#697=PLANE('',#789);
#698=PLANE('',#793);
#699=PLANE('',#796);
#700=PLANE('',#800);
#701=PLANE('',#805);
#702=PLANE('',#806);
#703=PLANE('',#807);
#704=PLANE('',#808);
#705=PLANE('',#809);
#706=PLANE('',#810);
#707=PLANE('',#811);
#708=PLANE('',#812);
#709=PLANE('',#813);
#710=PLANE('',#814);
#711=PLANE('',#815);
#712=PLANE('',#816);
#713=PLANE('',#817);
#714=PLANE('',#818);
#715=PLANE('',#819);
#716=PLANE('',#820);
#717=PLANE('',#821);
#718=PLANE('',#822);
#719=ADVANCED_FACE('',(#37),#687,.F.);
#720=ADVANCED_FACE('',(#38),#688,.F.);
#721=ADVANCED_FACE('',(#39),#689,.F.);
#722=ADVANCED_FACE('',(#40),#690,.F.);
#723=ADVANCED_FACE('',(#41),#691,.T.);
#724=ADVANCED_FACE('',(#42),#692,.T.);
#725=ADVANCED_FACE('',(#43),#693,.F.);
#726=ADVANCED_FACE('',(#44),#694,.T.);
#727=ADVANCED_FACE('',(#45),#695,.F.);
#728=ADVANCED_FACE('',(#46,#23,#24),#696,.T.);
#729=ADVANCED_FACE('',(#47),#17,.T.);
#730=ADVANCED_FACE('',(#48),#697,.T.);
#731=ADVANCED_FACE('',(#49),#18,.F.);
#732=ADVANCED_FACE('',(#50),#698,.F.);
#733=ADVANCED_FACE('',(#51),#19,.F.);
#734=ADVANCED_FACE('',(#52),#699,.F.);
#735=ADVANCED_FACE('',(#53),#20,.F.);
#736=ADVANCED_FACE('',(#54),#700,.F.);
#737=ADVANCED_FACE('',(#55),#21,.F.);
#738=ADVANCED_FACE('',(#56),#22,.T.);
#739=ADVANCED_FACE('',(#57),#701,.T.);
#740=ADVANCED_FACE('',(#58),#702,.T.);
#741=ADVANCED_FACE('',(#59),#703,.F.);
#742=ADVANCED_FACE('',(#60),#704,.T.);
#743=ADVANCED_FACE('',(#61),#705,.F.);
#744=ADVANCED_FACE('',(#62),#706,.F.);
#745=ADVANCED_FACE('',(#63),#707,.F.);
#746=ADVANCED_FACE('',(#64),#708,.T.);
#747=ADVANCED_FACE('',(#65),#709,.T.);
#748=ADVANCED_FACE('',(#66),#710,.T.);
#749=ADVANCED_FACE('',(#67),#711,.T.);
#750=ADVANCED_FACE('',(#68),#712,.F.);
#751=ADVANCED_FACE('',(#69),#713,.T.);
#752=ADVANCED_FACE('',(#70),#714,.T.);
#753=ADVANCED_FACE('',(#71),#715,.F.);
#754=ADVANCED_FACE('',(#72),#716,.F.);
#755=ADVANCED_FACE('',(#73),#717,.T.);
#756=ADVANCED_FACE('',(#74),#718,.T.);
#757=CLOSED_SHELL('',(#719,#720,#721,#722,#723,#724,#725,#726,#727,#728,
#729,#730,#731,#732,#733,#734,#735,#736,#737,#738,#739,#740,#741,#742,#743,
#744,#745,#746,#747,#748,#749,#750,#751,#752,#753,#754,#755,#756));
#758=DERIVED_UNIT_ELEMENT(#760,1.);
#759=DERIVED_UNIT_ELEMENT(#1241,-3.);
#760=(
MASS_UNIT()
NAMED_UNIT(*)
SI_UNIT(.KILO.,.GRAM.)
);
#761=DERIVED_UNIT((#758,#759));
#762=MEASURE_REPRESENTATION_ITEM('density measure',
POSITIVE_RATIO_MEASURE(7850.),#761);
#763=PROPERTY_DEFINITION_REPRESENTATION(#768,#765);
#764=PROPERTY_DEFINITION_REPRESENTATION(#769,#766);
#765=REPRESENTATION('material name',(#767),#1238);
#766=REPRESENTATION('density',(#762),#1238);
#767=DESCRIPTIVE_REPRESENTATION_ITEM('Steel','Steel');
#768=PROPERTY_DEFINITION('material property','material name',#1248);
#769=PROPERTY_DEFINITION('material property','density of part',#1248);
#770=AXIS2_PLACEMENT_3D('',#1021,#823,#824);
#771=AXIS2_PLACEMENT_3D('',#1022,#825,#826);
#772=AXIS2_PLACEMENT_3D('',#1039,#835,#836);
#773=AXIS2_PLACEMENT_3D('',#1056,#845,#846);
#774=AXIS2_PLACEMENT_3D('',#1062,#850,#851);
#775=AXIS2_PLACEMENT_3D('',#1066,#854,#855);
#776=AXIS2_PLACEMENT_3D('',#1078,#862,#863);
#777=AXIS2_PLACEMENT_3D('',#1084,#867,#868);
#778=AXIS2_PLACEMENT_3D('',#1102,#878,#879);
#779=AXIS2_PLACEMENT_3D('',#1107,#883,#884);
#780=AXIS2_PLACEMENT_3D('',#1116,#889,#890);
#781=AXIS2_PLACEMENT_3D('',#1125,#894,#895);
#782=AXIS2_PLACEMENT_3D('',#1129,#898,#899);
#783=AXIS2_PLACEMENT_3D('',#1131,#900,#901);
#784=AXIS2_PLACEMENT_3D('',#1135,#903,#904);
#785=AXIS2_PLACEMENT_3D('',#1139,#906,#907);
#786=AXIS2_PLACEMENT_3D('',#1142,#909,#910);
#787=AXIS2_PLACEMENT_3D('',#1143,#911,#912);
#788=AXIS2_PLACEMENT_3D('',#1145,#913,#914);
#789=AXIS2_PLACEMENT_3D('',#1147,#916,#917);
#790=AXIS2_PLACEMENT_3D('',#1148,#918,#919);
#791=AXIS2_PLACEMENT_3D('',#1150,#920,#921);
#792=AXIS2_PLACEMENT_3D('',#1152,#922,#923);
#793=AXIS2_PLACEMENT_3D('',#1154,#925,#926);
#794=AXIS2_PLACEMENT_3D('',#1158,#929,#930);
#795=AXIS2_PLACEMENT_3D('',#1160,#931,#932);
#796=AXIS2_PLACEMENT_3D('',#1162,#934,#935);
#797=AXIS2_PLACEMENT_3D('',#1166,#938,#939);
#798=AXIS2_PLACEMENT_3D('',#1170,#941,#942);
#799=AXIS2_PLACEMENT_3D('',#1171,#943,#944);
#800=AXIS2_PLACEMENT_3D('',#1172,#945,#946);
#801=AXIS2_PLACEMENT_3D('',#1176,#949,#950);
#802=AXIS2_PLACEMENT_3D('',#1177,#951,#952);
#803=AXIS2_PLACEMENT_3D('',#1178,#953,#954);
#804=AXIS2_PLACEMENT_3D('',#1181,#955,#956);
#805=AXIS2_PLACEMENT_3D('',#1184,#959,#960);
#806=AXIS2_PLACEMENT_3D('',#1188,#963,#964);
#807=AXIS2_PLACEMENT_3D('',#1190,#966,#967);
#808=AXIS2_PLACEMENT_3D('',#1195,#971,#972);
#809=AXIS2_PLACEMENT_3D('',#1197,#974,#975);
#810=AXIS2_PLACEMENT_3D('',#1201,#978,#979);
#811=AXIS2_PLACEMENT_3D('',#1214,#987,#988);
#812=AXIS2_PLACEMENT_3D('',#1216,#990,#991);
#813=AXIS2_PLACEMENT_3D('',#1220,#995,#996);
#814=AXIS2_PLACEMENT_3D('',#1221,#997,#998);
#815=AXIS2_PLACEMENT_3D('',#1223,#1000,#1001);
#816=AXIS2_PLACEMENT_3D('',#1225,#1003,#1004);
#817=AXIS2_PLACEMENT_3D('',#1227,#1006,#1007);
#818=AXIS2_PLACEMENT_3D('',#1229,#1009,#1010);
#819=AXIS2_PLACEMENT_3D('',#1231,#1012,#1013);
#820=AXIS2_PLACEMENT_3D('',#1232,#1014,#1015);
#821=AXIS2_PLACEMENT_3D('',#1233,#1016,#1017);
#822=AXIS2_PLACEMENT_3D('',#1235,#1019,#1020);
#823=DIRECTION('axis',(0.,0.,1.));
#824=DIRECTION('refdir',(1.,0.,0.));
#825=DIRECTION('center_axis',(0.,-1.,0.));
#826=DIRECTION('ref_axis',(-1.,0.,0.));
#827=DIRECTION('',(0.,0.,1.));
#828=DIRECTION('',(1.,0.,0.));
#829=DIRECTION('',(0.,0.,1.));
#830=DIRECTION('',(-1.,0.,0.));
#831=DIRECTION('',(0.,0.,1.));
#832=DIRECTION('',(1.,0.,0.));
#833=DIRECTION('',(0.,0.,-1.));
#834=DIRECTION('',(-1.,0.,0.));
#835=DIRECTION('center_axis',(0.,-1.,0.));
#836=DIRECTION('ref_axis',(-1.,0.,0.));
#837=DIRECTION('',(1.,0.,0.));
#838=DIRECTION('',(0.,0.,-1.));
#839=DIRECTION('',(-1.,0.,0.));
#840=DIRECTION('',(0.,0.,-1.));
#841=DIRECTION('',(1.,0.,0.));
#842=DIRECTION('',(0.,0.,-1.));
#843=DIRECTION('',(-1.,0.,0.));
#844=DIRECTION('',(0.,0.,1.));
#845=DIRECTION('center_axis',(0.,0.,-1.));
#846=DIRECTION('ref_axis',(-1.,0.,0.));
#847=DIRECTION('',(0.,1.,0.));
#848=DIRECTION('',(-1.,0.,0.));
#849=DIRECTION('',(0.,-1.,0.));
#850=DIRECTION('center_axis',(1.,0.,0.));
#851=DIRECTION('ref_axis',(0.,-1.,0.));
#852=DIRECTION('',(0.,1.,0.));
#853=DIRECTION('',(0.,0.,-1.));
#854=DIRECTION('center_axis',(1.,0.,0.));
#855=DIRECTION('ref_axis',(0.,0.,-1.));
#856=DIRECTION('',(0.,-1.,0.));
#857=DIRECTION('',(0.,-0.70701846429581,-0.707195087047976));
#858=DIRECTION('',(0.,0.707106781186549,-0.707106781186546));
#859=DIRECTION('',(0.,1.,0.));
#860=DIRECTION('',(0.,1.50030138462859E-16,-1.));
#861=DIRECTION('',(0.,1.,0.));
#862=DIRECTION('center_axis',(1.,0.,0.));
#863=DIRECTION('ref_axis',(0.,-1.,0.));
#864=DIRECTION('',(0.,-1.,0.));
#865=DIRECTION('',(0.,0.,1.));
#866=DIRECTION('',(0.,-1.,0.));
#867=DIRECTION('center_axis',(1.,0.,0.));
#868=DIRECTION('ref_axis',(0.,1.,0.));
#869=DIRECTION('',(0.,-1.,0.));
#870=DIRECTION('',(0.,-1.50030138462859E-16,1.));
#871=DIRECTION('',(0.,-1.,0.));
#872=DIRECTION('',(0.,-0.707106781186549,0.707106781186546));
#873=DIRECTION('',(0.,0.,1.));
#874=DIRECTION('',(0.,1.,0.));
#875=DIRECTION('',(0.,2.78166275459272E-16,-1.));
#876=DIRECTION('',(0.,-0.707195087047976,0.70701846429581));
#877=DIRECTION('',(0.,-1.,0.));
#878=DIRECTION('center_axis',(0.,0.,-1.));
#879=DIRECTION('ref_axis',(0.,1.,0.));
#880=DIRECTION('',(1.,0.,0.));
#881=DIRECTION('',(0.,-1.,0.));
#882=DIRECTION('',(1.,0.,0.));
#883=DIRECTION('center_axis',(0.,0.,-1.));
#884=DIRECTION('ref_axis',(-1.,0.,0.));
#885=DIRECTION('',(-1.,0.,0.));
#886=DIRECTION('',(0.,1.,0.));
#887=DIRECTION('',(1.,0.,0.));
#888=DIRECTION('',(0.,-1.,0.));
#889=DIRECTION('center_axis',(0.,-1.,0.));
#890=DIRECTION('ref_axis',(0.,0.,-1.));
#891=DIRECTION('',(0.523613590607244,0.,-0.851955871939028));
#892=DIRECTION('',(-0.776046407066546,0.,0.630675807431286));
#893=DIRECTION('',(-0.988047328097475,-5.16995552960397E-32,0.154150826917795));
#894=DIRECTION('center_axis',(0.,-1.,0.));
#895=DIRECTION('ref_axis',(0.,0.,-1.));
#896=DIRECTION('',(1.,0.,0.));
#897=DIRECTION('',(1.,0.,0.));
#898=DIRECTION('center_axis',(0.,1.,0.));
#899=DIRECTION('ref_axis',(0.683157128775741,0.,0.730271413518896));
#900=DIRECTION('center_axis',(0.,1.,0.));
#901=DIRECTION('ref_axis',(-2.22044604925031E-15,0.,-1.));
#902=DIRECTION('',(-3.31409858097062E-16,0.,1.));
#903=DIRECTION('center_axis',(0.,1.,0.));
#904=DIRECTION('ref_axis',(-1.,0.,4.4408920985006E-15));
#905=DIRECTION('',(1.,0.,0.));
#906=DIRECTION('center_axis',(0.,1.,0.));
#907=DIRECTION('ref_axis',(1.55431223447515E-14,0.,1.));
#908=DIRECTION('',(0.730271413518895,0.,-0.683157128775741));
#909=DIRECTION('center_axis',(0.,1.,0.));
#910=DIRECTION('ref_axis',(1.,0.,0.));
#911=DIRECTION('center_axis',(0.,-1.,0.));
#912=DIRECTION('ref_axis',(1.,0.,0.));
#913=DIRECTION('center_axis',(0.,-1.,0.));
#914=DIRECTION('ref_axis',(1.,0.,0.));
#915=DIRECTION('',(0.,1.,0.));
#916=DIRECTION('center_axis',(0.,-1.,0.));
#917=DIRECTION('ref_axis',(1.,0.,0.));
#918=DIRECTION('center_axis',(0.,1.,0.));
#919=DIRECTION('ref_axis',(-2.22044604925031E-15,0.,-1.));
#920=DIRECTION('center_axis',(0.,-0.70701846429581,-0.707195087047976));
#921=DIRECTION('ref_axis',(-1.56989635579265E-15,0.707195087047976,-0.70701846429581));
#922=DIRECTION('center_axis',(0.,-1.,-2.78166275459272E-16));
#923=DIRECTION('ref_axis',(-2.22044604925031E-15,0.,-1.));
#924=DIRECTION('',(0.,1.,0.));
#925=DIRECTION('center_axis',(-1.,0.,-3.31409858097062E-16));
#926=DIRECTION('ref_axis',(-3.31409858097062E-16,0.,1.));
#927=DIRECTION('',(3.31409858097062E-16,2.78166275459272E-16,-1.));
#928=DIRECTION('',(0.,1.,0.));
#929=DIRECTION('center_axis',(0.,1.,0.));
#930=DIRECTION('ref_axis',(-1.,0.,4.4408920985006E-15));
#931=DIRECTION('center_axis',(0.,-1.,-2.78166275459272E-16));
#932=DIRECTION('ref_axis',(-1.,0.,4.4408920985006E-15));
#933=DIRECTION('',(0.,1.,0.));
#934=DIRECTION('center_axis',(0.,0.,1.));
#935=DIRECTION('ref_axis',(1.,0.,0.));
#936=DIRECTION('',(-1.,0.,0.));
#937=DIRECTION('',(0.,-1.,0.));
#938=DIRECTION('center_axis',(0.,1.,0.));
#939=DIRECTION('ref_axis',(0.683157128775741,0.,0.730271413518896));
#940=DIRECTION('',(0.,1.,0.));
#941=DIRECTION('center_axis',(0.,-1.,-2.78166275459272E-16));
#942=DIRECTION('ref_axis',(0.683157128775741,0.,0.730271413518896));
#943=DIRECTION('center_axis',(0.,-0.70701846429581,-0.707195087047976));
#944=DIRECTION('ref_axis',(-4.90592611185203E-17,-0.707195087047976,0.70701846429581));
#945=DIRECTION('center_axis',(0.683157128775741,0.,0.730271413518895));
#946=DIRECTION('ref_axis',(0.730271413518895,0.,-0.683157128775741));
#947=DIRECTION('',(0.,1.,0.));
#948=DIRECTION('',(-0.730271413518895,-1.90031274064998E-16,0.683157128775741));
#949=DIRECTION('center_axis',(0.,1.,0.));
#950=DIRECTION('ref_axis',(1.55431223447515E-14,0.,1.));
#951=DIRECTION('center_axis',(0.,-1.,-2.78166275459272E-16));
#952=DIRECTION('ref_axis',(1.55431223447515E-14,0.,1.));
#953=DIRECTION('center_axis',(0.,-1.,0.));
#954=DIRECTION('ref_axis',(0.,0.,-1.));
#955=DIRECTION('center_axis',(0.,1.,0.));
#956=DIRECTION('ref_axis',(0.,0.,-1.));
#957=DIRECTION('',(0.,-1.,0.));
#958=DIRECTION('',(0.,-1.,0.));
#959=DIRECTION('center_axis',(0.154150826917795,0.,0.988047328097475));
#960=DIRECTION('ref_axis',(-0.988047328097475,-5.16995552960397E-32,0.154150826917795));
#961=DIRECTION('',(0.988047328097475,5.16995552960397E-32,-0.154150826917795));
#962=DIRECTION('',(0.,-1.,0.));
#963=DIRECTION('center_axis',(0.,0.,-1.));
#964=DIRECTION('ref_axis',(1.,0.,0.));
#965=DIRECTION('',(-1.,0.,0.));
#966=DIRECTION('center_axis',(-0.754709580222772,0.463961722115553,-0.463845847164268));
#967=DIRECTION('ref_axis',(0.656059028990507,0.533726907281585,-0.53359360839844));
#968=DIRECTION('',(-0.656059026076196,-0.533660263793339,0.53366026379334));
#969=DIRECTION('',(0.656059028990507,0.533726907281585,-0.53359360839844));
#970=DIRECTION('',(-0.656058908336292,-0.534155599990674,0.533164612283295));
#971=DIRECTION('center_axis',(0.,-0.707106781186548,-0.707106781186547));
#972=DIRECTION('ref_axis',(0.,0.707106781186547,-0.707106781186548));
#973=DIRECTION('',(1.,0.,0.));
#974=DIRECTION('center_axis',(-1.,0.,0.));
#975=DIRECTION('ref_axis',(0.,1.,0.));
#976=DIRECTION('',(0.,-1.,0.));
#977=DIRECTION('',(0.,0.,-1.));
#978=DIRECTION('center_axis',(0.,-1.,0.));
#979=DIRECTION('ref_axis',(-1.,0.,0.));
#980=DIRECTION('',(-1.,0.,0.));
#981=DIRECTION('',(0.,0.,-1.));
#982=DIRECTION('',(1.,0.,0.));
#983=DIRECTION('',(-1.,0.,0.));
#984=DIRECTION('',(0.,0.,-1.));
#985=DIRECTION('',(1.,0.,0.));
#986=DIRECTION('',(0.,0.,-1.));
#987=DIRECTION('center_axis',(-0.630675807431286,0.,-0.776046407066546));
#988=DIRECTION('ref_axis',(0.776046407066546,-4.27112024325995E-32,-0.630675807431286));
#989=DIRECTION('',(-0.776046407066546,4.27112024325995E-32,0.630675807431286));
#990=DIRECTION('center_axis',(0.,0.70701846429581,0.707195087047976));
#991=DIRECTION('ref_axis',(0.,-0.707195087047976,0.70701846429581));
#992=DIRECTION('',(1.,0.,0.));
#993=DIRECTION('',(1.,0.,0.));
#994=DIRECTION('',(1.,0.,0.));
#995=DIRECTION('center_axis',(0.,1.,2.78166275459272E-16));
#996=DIRECTION('ref_axis',(0.,-2.78166275459272E-16,1.));
#997=DIRECTION('center_axis',(0.,0.,1.));
#998=DIRECTION('ref_axis',(0.,-1.,0.));
#999=DIRECTION('',(0.,-1.,0.));
#1000=DIRECTION('center_axis',(0.,0.,-1.));
#1001=DIRECTION('ref_axis',(-1.,0.,0.));
#1002=DIRECTION('',(0.,-1.,0.));
#1003=DIRECTION('center_axis',(-1.,0.,0.));
#1004=DIRECTION('ref_axis',(0.,1.,0.));
#1005=DIRECTION('',(0.,1.,0.));
#1006=DIRECTION('center_axis',(-1.,0.,0.));
#1007=DIRECTION('ref_axis',(0.,1.,0.));
#1008=DIRECTION('',(0.,1.,0.));
#1009=DIRECTION('center_axis',(0.,0.,-1.));
#1010=DIRECTION('ref_axis',(-1.,0.,0.));
#1011=DIRECTION('',(0.,1.,0.));
#1012=DIRECTION('center_axis',(1.,0.,0.));
#1013=DIRECTION('ref_axis',(0.,-1.,0.));
#1014=DIRECTION('center_axis',(0.,0.,-1.));
#1015=DIRECTION('ref_axis',(-1.,0.,0.));
#1016=DIRECTION('center_axis',(0.,-1.,-1.50030138462859E-16));
#1017=DIRECTION('ref_axis',(0.,1.50030138462859E-16,-1.));
#1018=DIRECTION('',(1.,0.,0.));
#1019=DIRECTION('center_axis',(0.,0.,-1.));
#1020=DIRECTION('ref_axis',(0.,1.,0.));
#1021=CARTESIAN_POINT('',(0.,0.,0.));
#1022=CARTESIAN_POINT('Origin',(36.,-1.1,9.9));
#1023=CARTESIAN_POINT('',(6.25,-1.1,5.2));
#1024=CARTESIAN_POINT('',(6.25,-1.1,9.9));
#1025=CARTESIAN_POINT('',(6.25,-1.1,9.9));
#1026=CARTESIAN_POINT('',(1.85,-1.1,5.2));
#1027=CARTESIAN_POINT('',(20.025,-1.1,5.2));
#1028=CARTESIAN_POINT('',(1.85,-1.1,3.6));
#1029=CARTESIAN_POINT('',(1.85,-1.1,9.9));
#1030=CARTESIAN_POINT('',(6.25,-1.1,3.6));
#1031=CARTESIAN_POINT('',(20.025,-1.1,3.6));
#1032=CARTESIAN_POINT('',(6.25,-1.1,0.));
#1033=CARTESIAN_POINT('',(6.25,-1.1,9.9));
#1034=CARTESIAN_POINT('',(0.,-1.1,0.));
#1035=CARTESIAN_POINT('',(18.,-1.1,0.));
#1036=CARTESIAN_POINT('',(0.,-1.1,9.9));
#1037=CARTESIAN_POINT('',(0.,-1.1,7.425));
#1038=CARTESIAN_POINT('',(18.,-1.1,9.9));
#1039=CARTESIAN_POINT('Origin',(36.,-1.1,9.9));
#1040=CARTESIAN_POINT('',(29.75,-1.1,0.));
#1041=CARTESIAN_POINT('',(36.,-1.1,0.));
#1042=CARTESIAN_POINT('',(18.,-1.1,0.));
#1043=CARTESIAN_POINT('',(29.75,-1.1,3.6));
#1044=CARTESIAN_POINT('',(29.75,-1.1,9.9));
#1045=CARTESIAN_POINT('',(34.15,-1.1,3.6));
#1046=CARTESIAN_POINT('',(33.975,-1.1,3.6));
#1047=CARTESIAN_POINT('',(34.15,-1.1,5.2));
#1048=CARTESIAN_POINT('',(34.15,-1.1,9.9));
#1049=CARTESIAN_POINT('',(29.75,-1.1,5.2));
#1050=CARTESIAN_POINT('',(33.975,-1.1,5.2));
#1051=CARTESIAN_POINT('',(29.75,-1.1,9.9));
#1052=CARTESIAN_POINT('',(29.75,-1.1,9.9));
#1053=CARTESIAN_POINT('',(36.,-1.1,9.9));
#1054=CARTESIAN_POINT('',(18.,-1.1,9.9));
#1055=CARTESIAN_POINT('',(36.,-1.1,7.425));
#1056=CARTESIAN_POINT('Origin',(31.95,-3.5,3.6));
#1057=CARTESIAN_POINT('',(29.75,-7.,3.6));
#1058=CARTESIAN_POINT('',(29.75,-1.75,3.6));
#1059=CARTESIAN_POINT('',(34.15,-7.,3.6));
#1060=CARTESIAN_POINT('',(29.75,-7.,3.6));
#1061=CARTESIAN_POINT('',(34.15,-7.,3.6));
#1062=CARTESIAN_POINT('Origin',(29.75,0.,9.9));
#1063=CARTESIAN_POINT('',(29.75,-7.,0.));
#1064=CARTESIAN_POINT('',(29.75,-4.75,0.));
#1065=CARTESIAN_POINT('',(29.75,-7.,9.9));
#1066=CARTESIAN_POINT('Origin',(36.,-7.25,4.95));
#1067=CARTESIAN_POINT('',(36.,-10.964,9.9));
#1068=CARTESIAN_POINT('',(36.,-9.5,9.9));
#1069=CARTESIAN_POINT('',(36.,-12.7317791924526,8.13177919245256));
#1070=CARTESIAN_POINT('',(36.,-11.2732318842513,9.59069086545153));
#1071=CARTESIAN_POINT('',(36.,-12.,7.4));
#1072=CARTESIAN_POINT('',(36.,-14.5,9.9));
#1073=CARTESIAN_POINT('',(36.,-9.5,7.4));
#1074=CARTESIAN_POINT('',(36.,-9.5,7.4));
#1075=CARTESIAN_POINT('',(36.,-9.5,0.));
#1076=CARTESIAN_POINT('',(36.,-9.5,0.));
#1077=CARTESIAN_POINT('',(36.,0.,0.));
#1078=CARTESIAN_POINT('Origin',(6.25,0.,9.9));
#1079=CARTESIAN_POINT('',(6.25,-7.,9.9));
#1080=CARTESIAN_POINT('',(6.25,0.,9.9));
#1081=CARTESIAN_POINT('',(6.25,-7.,5.2));
#1082=CARTESIAN_POINT('',(6.25,-7.,9.9));
#1083=CARTESIAN_POINT('',(6.25,0.,5.2));
#1084=CARTESIAN_POINT('Origin',(0.,-7.25,4.95));
#1085=CARTESIAN_POINT('',(0.,-9.5,0.));
#1086=CARTESIAN_POINT('',(0.,0.,0.));
#1087=CARTESIAN_POINT('',(0.,-9.5,7.4));
#1088=CARTESIAN_POINT('',(0.,-9.5,0.));
#1089=CARTESIAN_POINT('',(0.,-12.,7.4));
#1090=CARTESIAN_POINT('',(0.,-9.5,7.4));
#1091=CARTESIAN_POINT('',(0.,-17.0003295782756,12.4003295782756));
#1092=CARTESIAN_POINT('',(0.,-14.5,9.9));
#1093=CARTESIAN_POINT('',(-1.18748792102865E-15,-17.0003295782756,21.8994463760672));
#1094=CARTESIAN_POINT('',(0.,-17.0003295782756,12.4003295782756));
#1095=CARTESIAN_POINT('',(-1.18748792102865E-15,-14.5003295782756,21.8994463760672));
#1096=CARTESIAN_POINT('',(0.,-10.8751647891378,21.8994463760672));
#1097=CARTESIAN_POINT('',(0.,-14.5003295782756,13.4354463760672));
#1098=CARTESIAN_POINT('',(0.,-14.5003295782756,29.4003295782756));
#1099=CARTESIAN_POINT('',(0.,-10.964,9.9));
#1100=CARTESIAN_POINT('',(0.,-10.964,9.9));
#1101=CARTESIAN_POINT('',(0.,-9.5,9.9));
#1102=CARTESIAN_POINT('Origin',(0.,-9.5,0.));
#1103=CARTESIAN_POINT('',(0.,-9.5,0.));
#1104=CARTESIAN_POINT('',(6.25,-7.,0.));
#1105=CARTESIAN_POINT('',(6.25,-8.25,0.));
#1106=CARTESIAN_POINT('',(14.875,-7.,0.));
#1107=CARTESIAN_POINT('Origin',(18.7732065040293,-14.5003295782756,13.2022657928051));
#1108=CARTESIAN_POINT('',(18.7732065040293,-17.0003295782756,13.2022657928051));
#1109=CARTESIAN_POINT('',(6.50596410932521,-17.0003295782756,13.2022657928051));
#1110=CARTESIAN_POINT('',(9.38660325201463,-17.0003295782756,13.2022657928051));
#1111=CARTESIAN_POINT('',(18.7732065040293,-14.2670907433575,13.2022657928051));
#1112=CARTESIAN_POINT('',(18.7732065040293,-14.5003295782756,13.2022657928051));
#1113=CARTESIAN_POINT('',(6.50596410932521,-14.2670907433575,13.2022657928051));
#1114=CARTESIAN_POINT('',(9.38660325201463,-14.2670907433575,13.2022657928051));
#1115=CARTESIAN_POINT('',(6.50596410932521,-14.5003295782756,13.2022657928051));
#1116=CARTESIAN_POINT('Origin',(0.,-17.0003295782756,29.4003295782756));
#1117=CARTESIAN_POINT('',(28.5825888724694,-17.0003295782756,15.9308082719857));
#1118=CARTESIAN_POINT('',(30.7524273421176,-17.0003295782756,12.4003295782756));
#1119=CARTESIAN_POINT('',(22.6374922207413,-17.0003295782756,25.6038956259845));
#1120=CARTESIAN_POINT('',(12.0059641093252,-17.0003295782756,29.4022657928051));
#1121=CARTESIAN_POINT('',(8.3923450973034,-17.0003295782756,32.3389743032801));
#1122=CARTESIAN_POINT('',(-4.,-17.0003295782756,31.8994463760672));
#1123=CARTESIAN_POINT('',(-4.,-17.0003295782756,31.8994463760672));
#1124=CARTESIAN_POINT('',(-4.,-17.0003295782756,21.8994463760672));
#1125=CARTESIAN_POINT('Origin',(-4.,-17.0003295782756,26.8994463760672));
#1126=CARTESIAN_POINT('',(-1.18748792102865E-15,-17.0003295782756,21.8994463760672));
#1127=CARTESIAN_POINT('',(0.,-17.0003295782756,12.4003295782756));
#1128=CARTESIAN_POINT('',(19.456363632805,-17.0003295782756,14.932537206324));
#1129=CARTESIAN_POINT('Origin',(18.7732065040293,-17.0003295782756,14.2022657928051));
#1130=CARTESIAN_POINT('',(5.50596410932521,-17.0003295782756,14.2022657928051));
#1131=CARTESIAN_POINT('Origin',(6.50596410932521,-17.0003295782756,14.2022657928051));
#1132=CARTESIAN_POINT('',(5.5059641093252,-17.0003295782756,20.9022657928051));
#1133=CARTESIAN_POINT('',(5.5059641093252,-17.0003295782756,21.8012976855404));
#1134=CARTESIAN_POINT('',(6.50596410932521,-17.0003295782756,21.9022657928051));
#1135=CARTESIAN_POINT('Origin',(6.50596410932521,-17.0003295782756,20.9022657928051));
#1136=CARTESIAN_POINT('',(11.611137538512,-17.0003295782756,21.9022657928051));
#1137=CARTESIAN_POINT('',(3.2529820546626,-17.0003295782756,21.9022657928051));
#1138=CARTESIAN_POINT('',(12.2942946672878,-17.0003295782756,21.632537206324));
#1139=CARTESIAN_POINT('Origin',(11.611137538512,-17.0003295782756,20.902265792805));
#1140=CARTESIAN_POINT('',(7.07840606638652,-17.0003295782756,26.5119168652316));
#1141=CARTESIAN_POINT('',(-6.5,-17.0003295782756,26.8994463760672));
#1142=CARTESIAN_POINT('Origin',(-4.,-17.0003295782756,26.8994463760672));
#1143=CARTESIAN_POINT('Origin',(-4.,-17.0003295782756,26.8994463760672));
#1144=CARTESIAN_POINT('',(-6.5,-19.2003295782756,26.8994463760672));
#1145=CARTESIAN_POINT('Origin',(-4.,-19.2003295782756,26.8994463760672));
#1146=CARTESIAN_POINT('',(-6.5,-17.0003295782756,26.8994463760672));
#1147=CARTESIAN_POINT('Origin',(-4.,-19.2003295782756,26.8994463760672));
#1148=CARTESIAN_POINT('Origin',(6.50596410932521,-14.5003295782756,14.2022657928051));
#1149=CARTESIAN_POINT('',(5.86410120954538,-14.5003295782756,13.4354463760672));
#1150=CARTESIAN_POINT('Origin',(6.50596410932521,-15.2673405568505,14.2022657928051));
#1151=CARTESIAN_POINT('',(5.50596410932521,-14.5003295782756,14.2022657928051));
#1152=CARTESIAN_POINT('Origin',(6.50596410932521,-14.5003295782756,14.2022657928051));
#1153=CARTESIAN_POINT('',(5.50596410932521,-14.5003295782756,14.2022657928051));
#1154=CARTESIAN_POINT('Origin',(5.50596410932521,-14.5003295782756,14.2022657928051));
#1155=CARTESIAN_POINT('',(5.5059641093252,-14.5003295782756,20.9022657928051));
#1156=CARTESIAN_POINT('',(5.50596410932521,-14.5003295782756,13.8188560844361));
#1157=CARTESIAN_POINT('',(5.5059641093252,-14.5003295782756,20.9022657928051));
#1158=CARTESIAN_POINT('Origin',(6.50596410932521,-14.5003295782756,20.9022657928051));
#1159=CARTESIAN_POINT('',(6.50596410932521,-14.5003295782756,21.9022657928051));
#1160=CARTESIAN_POINT('Origin',(6.50596410932521,-14.5003295782756,20.9022657928051));
#1161=CARTESIAN_POINT('',(6.50596410932521,-14.5003295782756,21.9022657928051));
#1162=CARTESIAN_POINT('Origin',(6.50596410932521,-14.5003295782756,21.9022657928051));
#1163=CARTESIAN_POINT('',(11.611137538512,-14.5003295782756,21.9022657928051));
#1164=CARTESIAN_POINT('',(3.2529820546626,-14.5003295782756,21.9022657928051));
#1165=CARTESIAN_POINT('',(11.611137538512,-14.5003295782756,21.9022657928051));
#1166=CARTESIAN_POINT('Origin',(18.7732065040293,-14.5003295782756,14.2022657928051));
#1167=CARTESIAN_POINT('',(19.456363632805,-14.5003295782756,14.932537206324));
#1168=CARTESIAN_POINT('',(19.456363632805,-14.5003295782756,14.932537206324));
#1169=CARTESIAN_POINT('',(19.4150694038091,-14.5003295782756,13.4354463760672));
#1170=CARTESIAN_POINT('Origin',(18.7732065040293,-14.5003295782756,14.2022657928051));
#1171=CARTESIAN_POINT('Origin',(18.7732065040293,-15.2673405568505,14.2022657928051));
#1172=CARTESIAN_POINT('Origin',(12.2942946672878,-14.5003295782756,21.632537206324));
#1173=CARTESIAN_POINT('',(12.2942946672878,-14.5003295782756,21.632537206324));
#1174=CARTESIAN_POINT('',(12.2942946672878,-14.5003295782756,21.632537206324));
#1175=CARTESIAN_POINT('',(11.0607673313103,-14.5003295782756,22.7864821335287));
#1176=CARTESIAN_POINT('Origin',(11.611137538512,-14.5003295782756,20.902265792805));
#1177=CARTESIAN_POINT('Origin',(11.611137538512,-14.5003295782756,20.902265792805));
#1178=CARTESIAN_POINT('Origin',(-4.,-14.5003295782756,26.8994463760672));
#1179=CARTESIAN_POINT('',(-4.,-14.5003295782756,21.8994463760672));
#1180=CARTESIAN_POINT('',(-4.,-14.5003295782756,31.8994463760672));
#1181=CARTESIAN_POINT('Origin',(-4.,-14.5003295782756,26.8994463760672));
#1182=CARTESIAN_POINT('',(-4.,-14.5003295782756,21.8994463760672));
#1183=CARTESIAN_POINT('',(-4.,-14.5003295782756,31.8994463760672));
#1184=CARTESIAN_POINT('Origin',(12.0059641093252,-14.5003295782756,29.4022657928051));
#1185=CARTESIAN_POINT('',(12.0059641093252,-14.5003295782756,29.4022657928051));
#1186=CARTESIAN_POINT('',(-4.,-14.5003295782756,31.8994463760672));
#1187=CARTESIAN_POINT('',(12.0059641093252,-14.5003295782756,29.4022657928051));
#1188=CARTESIAN_POINT('Origin',(-4.,-14.5003295782756,21.8994463760672));
#1189=CARTESIAN_POINT('',(-1.18748792102865E-15,-14.5003295782756,21.8994463760672));
#1190=CARTESIAN_POINT('Origin',(31.653130997029,-14.5003295782756,13.4354463760672));
#1191=CARTESIAN_POINT('',(25.4599697452692,-21.305390868479,16.705390868479));
#1192=CARTESIAN_POINT('',(31.653130997029,-14.5003295782756,13.4354463760672));
#1193=CARTESIAN_POINT('',(26.0791234071551,-19.0349792068086,17.9689634708592));
#1194=CARTESIAN_POINT('',(24.6332854064049,-20.2158069319946,19.1403201382495));
#1195=CARTESIAN_POINT('Origin',(0.,-14.5,9.9));
#1196=CARTESIAN_POINT('',(0.,-12.,7.4));
#1197=CARTESIAN_POINT('Origin',(6.25,-7.,9.9));
#1198=CARTESIAN_POINT('',(6.25,-7.,3.6));
#1199=CARTESIAN_POINT('',(6.25,-5.25,3.6));
#1200=CARTESIAN_POINT('',(6.25,-7.,9.9));
#1201=CARTESIAN_POINT('Origin',(29.75,-7.,9.9));
#1202=CARTESIAN_POINT('',(1.85,-7.,3.6));
#1203=CARTESIAN_POINT('',(6.25,-7.,3.6));
#1204=CARTESIAN_POINT('',(1.85,-7.,5.2));
#1205=CARTESIAN_POINT('',(1.85,-7.,9.9));
#1206=CARTESIAN_POINT('',(16.9,-7.,5.2));
#1207=CARTESIAN_POINT('',(29.75,-7.,9.9));
#1208=CARTESIAN_POINT('',(14.875,-7.,9.9));
#1209=CARTESIAN_POINT('',(29.75,-7.,5.2));
#1210=CARTESIAN_POINT('',(29.75,-7.,9.9));
#1211=CARTESIAN_POINT('',(34.15,-7.,5.2));
#1212=CARTESIAN_POINT('',(30.85,-7.,5.2));
#1213=CARTESIAN_POINT('',(34.15,-7.,9.9));
#1214=CARTESIAN_POINT('Origin',(12.0083466207696,-14.5003295782756,29.4003295782756));
#1215=CARTESIAN_POINT('',(31.653130997029,-14.5003295782756,13.4354463760672));
#1216=CARTESIAN_POINT('Origin',(0.,-10.964,9.9));
#1217=CARTESIAN_POINT('',(0.,-14.5003295782756,13.4354463760672));
#1218=CARTESIAN_POINT('',(0.,-10.964,9.9));
#1219=CARTESIAN_POINT('',(0.,-14.5003295782756,13.4354463760672));
#1220=CARTESIAN_POINT('Origin',(0.,-14.5003295782756,13.4354463760672));
#1221=CARTESIAN_POINT('Origin',(0.,0.,9.9));
#1222=CARTESIAN_POINT('',(29.75,0.,9.9));
#1223=CARTESIAN_POINT('Origin',(4.05,-3.5,5.2));
#1224=CARTESIAN_POINT('',(1.85,-5.25,5.2));
#1225=CARTESIAN_POINT('Origin',(1.85,-7.,9.9));
#1226=CARTESIAN_POINT('',(1.85,-7.,3.6));
#1227=CARTESIAN_POINT('Origin',(29.75,-7.,9.9));
#1228=CARTESIAN_POINT('',(29.75,0.,5.2));
#1229=CARTESIAN_POINT('Origin',(31.95,-3.5,5.2));
#1230=CARTESIAN_POINT('',(34.15,-1.75,5.2));
#1231=CARTESIAN_POINT('Origin',(34.15,0.,9.9));
#1232=CARTESIAN_POINT('Origin',(4.05,-3.5,3.6));
#1233=CARTESIAN_POINT('Origin',(0.,-9.5,7.4));
#1234=CARTESIAN_POINT('',(0.,-9.5,7.4));
#1235=CARTESIAN_POINT('Origin',(0.,-12.,7.4));
#1236=UNCERTAINTY_MEASURE_WITH_UNIT(LENGTH_MEASURE(0.01),#1240,
'DISTANCE_ACCURACY_VALUE',
'Maximum model space distance between geometric entities at asserted c
onnectivities');
#1237=UNCERTAINTY_MEASURE_WITH_UNIT(LENGTH_MEASURE(0.01),#1240,
'DISTANCE_ACCURACY_VALUE',
'Maximum model space distance between geometric entities at asserted c
onnectivities');
#1238=(
GEOMETRIC_REPRESENTATION_CONTEXT(3)
GLOBAL_UNCERTAINTY_ASSIGNED_CONTEXT((#1236))
GLOBAL_UNIT_ASSIGNED_CONTEXT((#1240,#1242,#1243))
REPRESENTATION_CONTEXT('','3D')
);
#1239=(
GEOMETRIC_REPRESENTATION_CONTEXT(3)
GLOBAL_UNCERTAINTY_ASSIGNED_CONTEXT((#1237))
GLOBAL_UNIT_ASSIGNED_CONTEXT((#1240,#1242,#1243))
REPRESENTATION_CONTEXT('','3D')
);
#1240=(
LENGTH_UNIT()
NAMED_UNIT(*)
SI_UNIT(.MILLI.,.METRE.)
);
#1241=(
LENGTH_UNIT()
NAMED_UNIT(*)
SI_UNIT($,.METRE.)
);
#1242=(
NAMED_UNIT(*)
PLANE_ANGLE_UNIT()
SI_UNIT($,.RADIAN.)
);
#1243=(
NAMED_UNIT(*)
SI_UNIT($,.STERADIAN.)
SOLID_ANGLE_UNIT()
);
#1244=SHAPE_DEFINITION_REPRESENTATION(#1245,#1246);
#1245=PRODUCT_DEFINITION_SHAPE('',$,#1248);
#1246=SHAPE_REPRESENTATION('',(#770),#1238);
#1247=PRODUCT_DEFINITION_CONTEXT('part definition',#1252,'design');
#1248=PRODUCT_DEFINITION('2026-08-27-14-04-08-856',
'Pan-Tilt Left Domsdlay',#1249,#1247);
#1249=PRODUCT_DEFINITION_FORMATION('',$,#1254);
#1250=PRODUCT_RELATED_PRODUCT_CATEGORY('Pan-Tilt Left Domsdlay',
'Pan-Tilt Left Domsdlay',(#1254));
#1251=APPLICATION_PROTOCOL_DEFINITION('international standard',
'automotive_design',2009,#1252);
#1252=APPLICATION_CONTEXT(
'Core Data for Automotive Mechanical Design Process');
#1253=PRODUCT_CONTEXT('part definition',#1252,'mechanical');
#1254=PRODUCT('2026-08-27-14-04-08-856','Pan-Tilt Left Domsdlay',$,(#1253));
#1255=PRESENTATION_STYLE_ASSIGNMENT((#1256));
#1256=SURFACE_STYLE_USAGE(.BOTH.,#1257);
#1257=SURFACE_SIDE_STYLE('',(#1258));
#1258=SURFACE_STYLE_FILL_AREA(#1259);
#1259=FILL_AREA_STYLE('Steel - Satin',(#1260));
#1260=FILL_AREA_STYLE_COLOUR('Steel - Satin',#1261);
#1261=COLOUR_RGB('Steel - Satin',0.627450980392157,0.627450980392157,0.627450980392157);
ENDSEC;
END-ISO-10303-21;
