ISO-10303-21;
HEADER;
/* Generated by software containing ST-Developer
 * from STEP Tools, Inc. (www.steptools.com) 
 */

FILE_DESCRIPTION(
/* description */ (''),
/* implementation_level */ '2;1');

FILE_NAME(
/* name */ 'Pan-Tilt Horn.step',
/* time_stamp */ '2026-09-03T12:20:31+03:00',
/* author */ (''),
/* organization */ (''),
/* preprocessor_version */ 'ST-DEVELOPER v20.1',
/* originating_system */ 'Autodesk Translation Framework v15.8.0.0',
/* authorisation */ '');

FILE_SCHEMA (('AUTOMOTIVE_DESIGN { 1 0 10303 214 3 1 1 }'));
ENDSEC;

DATA;
#10=MECHANICAL_DESIGN_GEOMETRIC_PRESENTATION_REPRESENTATION('',(#13),#396);
#11=SHAPE_REPRESENTATION_RELATIONSHIP('SRR','None',#403,#12);
#12=ADVANCED_BREP_SHAPE_REPRESENTATION('',(#14),#395);
#13=STYLED_ITEM('',(#412),#14);
#14=MANIFOLD_SOLID_BREP('Body1',#220);
#15=FACE_BOUND('',#45,.T.);
#16=FACE_BOUND('',#47,.T.);
#17=FACE_BOUND('',#55,.T.);
#18=FACE_BOUND('',#58,.T.);
#19=FACE_BOUND('',#60,.T.);
#20=PLANE('',#240);
#21=PLANE('',#241);
#22=PLANE('',#245);
#23=PLANE('',#248);
#24=PLANE('',#249);
#25=PLANE('',#256);
#26=PLANE('',#260);
#27=PLANE('',#261);
#28=FACE_OUTER_BOUND('',#42,.T.);
#29=FACE_OUTER_BOUND('',#43,.T.);
#30=FACE_OUTER_BOUND('',#44,.T.);
#31=FACE_OUTER_BOUND('',#46,.T.);
#32=FACE_OUTER_BOUND('',#48,.T.);
#33=FACE_OUTER_BOUND('',#49,.T.);
#34=FACE_OUTER_BOUND('',#50,.T.);
#35=FACE_OUTER_BOUND('',#51,.T.);
#36=FACE_OUTER_BOUND('',#52,.T.);
#37=FACE_OUTER_BOUND('',#53,.T.);
#38=FACE_OUTER_BOUND('',#54,.T.);
#39=FACE_OUTER_BOUND('',#56,.T.);
#40=FACE_OUTER_BOUND('',#57,.T.);
#41=FACE_OUTER_BOUND('',#59,.T.);
#42=EDGE_LOOP('',(#146,#147,#148,#149));
#43=EDGE_LOOP('',(#150,#151,#152,#153));
#44=EDGE_LOOP('',(#154));
#45=EDGE_LOOP('',(#155));
#46=EDGE_LOOP('',(#156,#157,#158,#159,#160));
#47=EDGE_LOOP('',(#161));
#48=EDGE_LOOP('',(#162,#163,#164,#165));
#49=EDGE_LOOP('',(#166,#167,#168,#169));
#50=EDGE_LOOP('',(#170,#171,#172,#173));
#51=EDGE_LOOP('',(#174,#175,#176,#177));
#52=EDGE_LOOP('',(#178,#179,#180,#181,#182,#183,#184,#185));
#53=EDGE_LOOP('',(#186,#187,#188,#189));
#54=EDGE_LOOP('',(#190));
#55=EDGE_LOOP('',(#191));
#56=EDGE_LOOP('',(#192,#193,#194,#195));
#57=EDGE_LOOP('',(#196));
#58=EDGE_LOOP('',(#197));
#59=EDGE_LOOP('',(#198));
#60=EDGE_LOOP('',(#199));
#61=LINE('',#338,#74);
#62=LINE('',#344,#75);
#63=LINE('',#352,#76);
#64=LINE('',#356,#77);
#65=LINE('',#360,#78);
#66=LINE('',#362,#79);
#67=LINE('',#363,#80);
#68=LINE('',#367,#81);
#69=LINE('',#370,#82);
#70=LINE('',#371,#83);
#71=LINE('',#377,#84);
#72=LINE('',#382,#85);
#73=LINE('',#390,#86);
#74=VECTOR('',#268,1.9);
#75=VECTOR('',#275,2.75);
#76=VECTOR('',#284,10.);
#77=VECTOR('',#287,10.);
#78=VECTOR('',#292,10.);
#79=VECTOR('',#293,10.);
#80=VECTOR('',#294,10.);
#81=VECTOR('',#299,10.);
#82=VECTOR('',#302,10.);
#83=VECTOR('',#303,10.);
#84=VECTOR('',#312,3.5);
#85=VECTOR('',#317,1.);
#86=VECTOR('',#328,1.9);
#87=CIRCLE('',#235,1.9);
#88=CIRCLE('',#236,1.9);
#89=CIRCLE('',#238,2.75);
#90=CIRCLE('',#239,2.75);
#91=CIRCLE('',#242,3.5);
#92=CIRCLE('',#243,2.);
#93=CIRCLE('',#244,3.5);
#94=CIRCLE('',#247,2.);
#95=CIRCLE('',#250,3.5);
#96=CIRCLE('',#252,3.5);
#97=CIRCLE('',#254,1.);
#98=CIRCLE('',#255,1.);
#99=CIRCLE('',#257,1.9);
#100=CIRCLE('',#259,1.9);
#101=VERTEX_POINT('',#335);
#102=VERTEX_POINT('',#337);
#103=VERTEX_POINT('',#341);
#104=VERTEX_POINT('',#343);
#105=VERTEX_POINT('',#348);
#106=VERTEX_POINT('',#349);
#107=VERTEX_POINT('',#351);
#108=VERTEX_POINT('',#353);
#109=VERTEX_POINT('',#355);
#110=VERTEX_POINT('',#359);
#111=VERTEX_POINT('',#361);
#112=VERTEX_POINT('',#365);
#113=VERTEX_POINT('',#369);
#114=VERTEX_POINT('',#375);
#115=VERTEX_POINT('',#379);
#116=VERTEX_POINT('',#381);
#117=VERTEX_POINT('',#385);
#118=VERTEX_POINT('',#388);
#119=EDGE_CURVE('',#101,#101,#87,.T.);
#120=EDGE_CURVE('',#101,#102,#61,.T.);
#121=EDGE_CURVE('',#102,#102,#88,.T.);
#122=EDGE_CURVE('',#103,#103,#89,.T.);
#123=EDGE_CURVE('',#103,#104,#62,.T.);
#124=EDGE_CURVE('',#104,#104,#90,.T.);
#125=EDGE_CURVE('',#105,#106,#91,.T.);
#126=EDGE_CURVE('',#107,#105,#63,.T.);
#127=EDGE_CURVE('',#108,#107,#92,.T.);
#128=EDGE_CURVE('',#109,#108,#64,.T.);
#129=EDGE_CURVE('',#106,#109,#93,.T.);
#130=EDGE_CURVE('',#110,#105,#65,.T.);
#131=EDGE_CURVE('',#111,#110,#66,.T.);
#132=EDGE_CURVE('',#107,#111,#67,.T.);
#133=EDGE_CURVE('',#112,#111,#94,.T.);
#134=EDGE_CURVE('',#108,#112,#68,.T.);
#135=EDGE_CURVE('',#113,#112,#69,.T.);
#136=EDGE_CURVE('',#109,#113,#70,.T.);
#137=EDGE_CURVE('',#113,#110,#95,.T.);
#138=EDGE_CURVE('',#114,#114,#96,.T.);
#139=EDGE_CURVE('',#114,#106,#71,.T.);
#140=EDGE_CURVE('',#115,#115,#97,.T.);
#141=EDGE_CURVE('',#115,#116,#72,.T.);
#142=EDGE_CURVE('',#116,#116,#98,.T.);
#143=EDGE_CURVE('',#117,#117,#99,.T.);
#144=EDGE_CURVE('',#118,#118,#100,.T.);
#145=EDGE_CURVE('',#118,#117,#73,.T.);
#146=ORIENTED_EDGE('',*,*,#119,.F.);
#147=ORIENTED_EDGE('',*,*,#120,.T.);
#148=ORIENTED_EDGE('',*,*,#121,.F.);
#149=ORIENTED_EDGE('',*,*,#120,.F.);
#150=ORIENTED_EDGE('',*,*,#122,.F.);
#151=ORIENTED_EDGE('',*,*,#123,.T.);
#152=ORIENTED_EDGE('',*,*,#124,.F.);
#153=ORIENTED_EDGE('',*,*,#123,.F.);
#154=ORIENTED_EDGE('',*,*,#122,.T.);
#155=ORIENTED_EDGE('',*,*,#119,.T.);
#156=ORIENTED_EDGE('',*,*,#125,.F.);
#157=ORIENTED_EDGE('',*,*,#126,.F.);
#158=ORIENTED_EDGE('',*,*,#127,.F.);
#159=ORIENTED_EDGE('',*,*,#128,.F.);
#160=ORIENTED_EDGE('',*,*,#129,.F.);
#161=ORIENTED_EDGE('',*,*,#124,.T.);
#162=ORIENTED_EDGE('',*,*,#126,.T.);
#163=ORIENTED_EDGE('',*,*,#130,.F.);
#164=ORIENTED_EDGE('',*,*,#131,.F.);
#165=ORIENTED_EDGE('',*,*,#132,.F.);
#166=ORIENTED_EDGE('',*,*,#127,.T.);
#167=ORIENTED_EDGE('',*,*,#132,.T.);
#168=ORIENTED_EDGE('',*,*,#133,.F.);
#169=ORIENTED_EDGE('',*,*,#134,.F.);
#170=ORIENTED_EDGE('',*,*,#128,.T.);
#171=ORIENTED_EDGE('',*,*,#134,.T.);
#172=ORIENTED_EDGE('',*,*,#135,.F.);
#173=ORIENTED_EDGE('',*,*,#136,.F.);
#174=ORIENTED_EDGE('',*,*,#135,.T.);
#175=ORIENTED_EDGE('',*,*,#133,.T.);
#176=ORIENTED_EDGE('',*,*,#131,.T.);
#177=ORIENTED_EDGE('',*,*,#137,.F.);
#178=ORIENTED_EDGE('',*,*,#138,.F.);
#179=ORIENTED_EDGE('',*,*,#139,.T.);
#180=ORIENTED_EDGE('',*,*,#129,.T.);
#181=ORIENTED_EDGE('',*,*,#136,.T.);
#182=ORIENTED_EDGE('',*,*,#137,.T.);
#183=ORIENTED_EDGE('',*,*,#130,.T.);
#184=ORIENTED_EDGE('',*,*,#125,.T.);
#185=ORIENTED_EDGE('',*,*,#139,.F.);
#186=ORIENTED_EDGE('',*,*,#140,.F.);
#187=ORIENTED_EDGE('',*,*,#141,.T.);
#188=ORIENTED_EDGE('',*,*,#142,.T.);
#189=ORIENTED_EDGE('',*,*,#141,.F.);
#190=ORIENTED_EDGE('',*,*,#143,.F.);
#191=ORIENTED_EDGE('',*,*,#140,.T.);
#192=ORIENTED_EDGE('',*,*,#144,.F.);
#193=ORIENTED_EDGE('',*,*,#145,.T.);
#194=ORIENTED_EDGE('',*,*,#143,.T.);
#195=ORIENTED_EDGE('',*,*,#145,.F.);
#196=ORIENTED_EDGE('',*,*,#138,.T.);
#197=ORIENTED_EDGE('',*,*,#144,.T.);
#198=ORIENTED_EDGE('',*,*,#121,.T.);
#199=ORIENTED_EDGE('',*,*,#142,.F.);
#200=CYLINDRICAL_SURFACE('',#234,1.9);
#201=CYLINDRICAL_SURFACE('',#237,2.75);
#202=CYLINDRICAL_SURFACE('',#246,2.);
#203=CYLINDRICAL_SURFACE('',#251,3.5);
#204=CYLINDRICAL_SURFACE('',#253,1.);
#205=CYLINDRICAL_SURFACE('',#258,1.9);
#206=ADVANCED_FACE('',(#28),#200,.F.);
#207=ADVANCED_FACE('',(#29),#201,.T.);
#208=ADVANCED_FACE('',(#30,#15),#20,.F.);
#209=ADVANCED_FACE('',(#31,#16),#21,.F.);
#210=ADVANCED_FACE('',(#32),#22,.T.);
#211=ADVANCED_FACE('',(#33),#202,.T.);
#212=ADVANCED_FACE('',(#34),#23,.T.);
#213=ADVANCED_FACE('',(#35),#24,.T.);
#214=ADVANCED_FACE('',(#36),#203,.T.);
#215=ADVANCED_FACE('',(#37),#204,.F.);
#216=ADVANCED_FACE('',(#38,#17),#25,.T.);
#217=ADVANCED_FACE('',(#39),#205,.F.);
#218=ADVANCED_FACE('',(#40,#18),#26,.T.);
#219=ADVANCED_FACE('',(#41,#19),#27,.F.);
#220=CLOSED_SHELL('',(#206,#207,#208,#209,#210,#211,#212,#213,#214,#215,
#216,#217,#218,#219));
#221=DERIVED_UNIT_ELEMENT(#223,1.);
#222=DERIVED_UNIT_ELEMENT(#398,-3.);
#223=(
MASS_UNIT()
NAMED_UNIT(*)
SI_UNIT(.KILO.,.GRAM.)
);
#224=DERIVED_UNIT((#221,#222));
#225=MEASURE_REPRESENTATION_ITEM('density measure',
POSITIVE_RATIO_MEASURE(7850.),#224);
#226=PROPERTY_DEFINITION_REPRESENTATION(#231,#228);
#227=PROPERTY_DEFINITION_REPRESENTATION(#232,#229);
#228=REPRESENTATION('material name',(#230),#395);
#229=REPRESENTATION('density',(#225),#395);
#230=DESCRIPTIVE_REPRESENTATION_ITEM('Steel','Steel');
#231=PROPERTY_DEFINITION('material property','material name',#405);
#232=PROPERTY_DEFINITION('material property','density of part',#405);
#233=AXIS2_PLACEMENT_3D('',#333,#262,#263);
#234=AXIS2_PLACEMENT_3D('',#334,#264,#265);
#235=AXIS2_PLACEMENT_3D('',#336,#266,#267);
#236=AXIS2_PLACEMENT_3D('',#339,#269,#270);
#237=AXIS2_PLACEMENT_3D('',#340,#271,#272);
#238=AXIS2_PLACEMENT_3D('',#342,#273,#274);
#239=AXIS2_PLACEMENT_3D('',#345,#276,#277);
#240=AXIS2_PLACEMENT_3D('',#346,#278,#279);
#241=AXIS2_PLACEMENT_3D('',#347,#280,#281);
#242=AXIS2_PLACEMENT_3D('',#350,#282,#283);
#243=AXIS2_PLACEMENT_3D('',#354,#285,#286);
#244=AXIS2_PLACEMENT_3D('',#357,#288,#289);
#245=AXIS2_PLACEMENT_3D('',#358,#290,#291);
#246=AXIS2_PLACEMENT_3D('',#364,#295,#296);
#247=AXIS2_PLACEMENT_3D('',#366,#297,#298);
#248=AXIS2_PLACEMENT_3D('',#368,#300,#301);
#249=AXIS2_PLACEMENT_3D('',#372,#304,#305);
#250=AXIS2_PLACEMENT_3D('',#373,#306,#307);
#251=AXIS2_PLACEMENT_3D('',#374,#308,#309);
#252=AXIS2_PLACEMENT_3D('',#376,#310,#311);
#253=AXIS2_PLACEMENT_3D('',#378,#313,#314);
#254=AXIS2_PLACEMENT_3D('',#380,#315,#316);
#255=AXIS2_PLACEMENT_3D('',#383,#318,#319);
#256=AXIS2_PLACEMENT_3D('',#384,#320,#321);
#257=AXIS2_PLACEMENT_3D('',#386,#322,#323);
#258=AXIS2_PLACEMENT_3D('',#387,#324,#325);
#259=AXIS2_PLACEMENT_3D('',#389,#326,#327);
#260=AXIS2_PLACEMENT_3D('',#391,#329,#330);
#261=AXIS2_PLACEMENT_3D('',#392,#331,#332);
#262=DIRECTION('axis',(0.,0.,1.));
#263=DIRECTION('refdir',(1.,0.,0.));
#264=DIRECTION('center_axis',(0.,0.,-1.));
#265=DIRECTION('ref_axis',(1.,0.,0.));
#266=DIRECTION('center_axis',(0.,0.,1.));
#267=DIRECTION('ref_axis',(1.,0.,0.));
#268=DIRECTION('',(0.,0.,1.));
#269=DIRECTION('center_axis',(0.,0.,-1.));
#270=DIRECTION('ref_axis',(1.,0.,0.));
#271=DIRECTION('center_axis',(0.,0.,-1.));
#272=DIRECTION('ref_axis',(1.,0.,0.));
#273=DIRECTION('center_axis',(0.,0.,-1.));
#274=DIRECTION('ref_axis',(1.,0.,0.));
#275=DIRECTION('',(0.,0.,1.));
#276=DIRECTION('center_axis',(0.,0.,1.));
#277=DIRECTION('ref_axis',(1.,0.,0.));
#278=DIRECTION('center_axis',(0.,0.,1.));
#279=DIRECTION('ref_axis',(1.,0.,0.));
#280=DIRECTION('center_axis',(0.,0.,1.));
#281=DIRECTION('ref_axis',(1.,0.,0.));
#282=DIRECTION('center_axis',(0.,0.,1.));
#283=DIRECTION('ref_axis',(1.,0.,0.));
#284=DIRECTION('',(9.19406057211552E-17,-1.,0.));
#285=DIRECTION('center_axis',(0.,0.,1.));
#286=DIRECTION('ref_axis',(1.,0.,0.));
#287=DIRECTION('',(9.19406057211552E-17,1.,0.));
#288=DIRECTION('center_axis',(0.,0.,1.));
#289=DIRECTION('ref_axis',(1.,0.,0.));
#290=DIRECTION('center_axis',(-1.,-9.19406057211552E-17,0.));
#291=DIRECTION('ref_axis',(9.19406057211552E-17,-1.,0.));
#292=DIRECTION('',(0.,0.,-1.));
#293=DIRECTION('',(9.19406057211552E-17,-1.,0.));
#294=DIRECTION('',(0.,0.,1.));
#295=DIRECTION('center_axis',(0.,0.,1.));
#296=DIRECTION('ref_axis',(1.,0.,0.));
#297=DIRECTION('center_axis',(0.,0.,1.));
#298=DIRECTION('ref_axis',(1.,0.,0.));
#299=DIRECTION('',(0.,0.,1.));
#300=DIRECTION('center_axis',(1.,-9.19406057211552E-17,0.));
#301=DIRECTION('ref_axis',(9.19406057211552E-17,1.,0.));
#302=DIRECTION('',(9.19406057211552E-17,1.,0.));
#303=DIRECTION('',(0.,0.,1.));
#304=DIRECTION('center_axis',(0.,0.,1.));
#305=DIRECTION('ref_axis',(1.,0.,0.));
#306=DIRECTION('center_axis',(0.,0.,1.));
#307=DIRECTION('ref_axis',(1.,0.,0.));
#308=DIRECTION('center_axis',(0.,0.,1.));
#309=DIRECTION('ref_axis',(1.,0.,0.));
#310=DIRECTION('center_axis',(0.,0.,1.));
#311=DIRECTION('ref_axis',(1.,0.,0.));
#312=DIRECTION('',(0.,0.,-1.));
#313=DIRECTION('center_axis',(0.,0.,1.));
#314=DIRECTION('ref_axis',(1.,0.,0.));
#315=DIRECTION('center_axis',(0.,0.,-1.));
#316=DIRECTION('ref_axis',(1.,0.,0.));
#317=DIRECTION('',(0.,0.,-1.));
#318=DIRECTION('center_axis',(0.,0.,-1.));
#319=DIRECTION('ref_axis',(1.,0.,0.));
#320=DIRECTION('center_axis',(0.,0.,1.));
#321=DIRECTION('ref_axis',(1.,0.,0.));
#322=DIRECTION('center_axis',(0.,0.,-1.));
#323=DIRECTION('ref_axis',(1.,0.,0.));
#324=DIRECTION('center_axis',(0.,0.,1.));
#325=DIRECTION('ref_axis',(1.,0.,0.));
#326=DIRECTION('center_axis',(0.,0.,-1.));
#327=DIRECTION('ref_axis',(1.,0.,0.));
#328=DIRECTION('',(0.,0.,-1.));
#329=DIRECTION('center_axis',(0.,0.,1.));
#330=DIRECTION('ref_axis',(1.,0.,0.));
#331=DIRECTION('center_axis',(0.,0.,1.));
#332=DIRECTION('ref_axis',(1.,0.,0.));
#333=CARTESIAN_POINT('',(0.,0.,0.));
#334=CARTESIAN_POINT('Origin',(0.,0.,0.));
#335=CARTESIAN_POINT('',(-1.9,-2.32682891837997E-16,-0.6));
#336=CARTESIAN_POINT('Origin',(0.,0.,-0.6));
#337=CARTESIAN_POINT('',(-1.9,-2.32682891837997E-16,0.));
#338=CARTESIAN_POINT('',(-1.9,2.32682891837997E-16,0.));
#339=CARTESIAN_POINT('Origin',(0.,0.,0.));
#340=CARTESIAN_POINT('Origin',(0.,0.,0.));
#341=CARTESIAN_POINT('',(-2.75,-3.36777869765522E-16,-0.6));
#342=CARTESIAN_POINT('Origin',(0.,0.,-0.6));
#343=CARTESIAN_POINT('',(-2.75,-3.36777869765522E-16,0.));
#344=CARTESIAN_POINT('',(-2.75,3.36777869765522E-16,0.));
#345=CARTESIAN_POINT('Origin',(0.,0.,0.));
#346=CARTESIAN_POINT('Origin',(0.,0.,-0.6));
#347=CARTESIAN_POINT('Origin',(0.,0.,0.));
#348=CARTESIAN_POINT('',(-2.,2.87228132326901,0.));
#349=CARTESIAN_POINT('',(-3.5,-4.28626379701574E-16,0.));
#350=CARTESIAN_POINT('Origin',(0.,0.,0.));
#351=CARTESIAN_POINT('',(-2.,8.91,0.));
#352=CARTESIAN_POINT('',(-2.,8.91,0.));
#353=CARTESIAN_POINT('',(2.,8.91,0.));
#354=CARTESIAN_POINT('Origin',(0.,8.91,0.));
#355=CARTESIAN_POINT('',(2.,2.87228132326901,0.));
#356=CARTESIAN_POINT('',(2.,2.87228132326901,0.));
#357=CARTESIAN_POINT('Origin',(0.,0.,0.));
#358=CARTESIAN_POINT('Origin',(-2.,8.91,0.));
#359=CARTESIAN_POINT('',(-2.,2.87228132326901,1.6));
#360=CARTESIAN_POINT('',(-2.,2.87228132326902,0.));
#361=CARTESIAN_POINT('',(-2.,8.91,1.6));
#362=CARTESIAN_POINT('',(-2.,8.91,1.6));
#363=CARTESIAN_POINT('',(-2.,8.91,0.));
#364=CARTESIAN_POINT('Origin',(0.,8.91,0.));
#365=CARTESIAN_POINT('',(2.,8.91,1.6));
#366=CARTESIAN_POINT('Origin',(0.,8.91,1.6));
#367=CARTESIAN_POINT('',(2.,8.91,0.));
#368=CARTESIAN_POINT('Origin',(2.,2.87228132326901,0.));
#369=CARTESIAN_POINT('',(2.,2.87228132326901,1.6));
#370=CARTESIAN_POINT('',(2.,2.87228132326901,1.6));
#371=CARTESIAN_POINT('',(2.,2.87228132326901,0.));
#372=CARTESIAN_POINT('Origin',(0.,6.89114066163451,1.6));
#373=CARTESIAN_POINT('Origin',(0.,0.,1.6));
#374=CARTESIAN_POINT('Origin',(0.,0.,0.));
#375=CARTESIAN_POINT('',(-3.5,-4.28626379701574E-16,8.9));
#376=CARTESIAN_POINT('Origin',(0.,0.,8.9));
#377=CARTESIAN_POINT('',(-3.5,-4.28626379701574E-16,0.));
#378=CARTESIAN_POINT('Origin',(0.,0.,0.));
#379=CARTESIAN_POINT('',(-1.,-1.22464679914735E-16,5.4));
#380=CARTESIAN_POINT('Origin',(0.,0.,5.4));
#381=CARTESIAN_POINT('',(-1.,-1.22464679914735E-16,0.));
#382=CARTESIAN_POINT('',(-1.,-1.22464679914735E-16,0.));
#383=CARTESIAN_POINT('Origin',(0.,0.,0.));
#384=CARTESIAN_POINT('Origin',(0.,0.,5.4));
#385=CARTESIAN_POINT('',(-1.9,-2.32682891837997E-16,5.4));
#386=CARTESIAN_POINT('Origin',(0.,0.,5.4));
#387=CARTESIAN_POINT('Origin',(0.,0.,0.));
#388=CARTESIAN_POINT('',(-1.9,-2.32682891837997E-16,8.9));
#389=CARTESIAN_POINT('Origin',(0.,0.,8.9));
#390=CARTESIAN_POINT('',(-1.9,-2.32682891837997E-16,0.));
#391=CARTESIAN_POINT('Origin',(0.,0.,8.9));
#392=CARTESIAN_POINT('Origin',(0.,0.,0.));
#393=UNCERTAINTY_MEASURE_WITH_UNIT(LENGTH_MEASURE(0.01),#397,
'DISTANCE_ACCURACY_VALUE',
'Maximum model space distance between geometric entities at asserted c
onnectivities');
#394=UNCERTAINTY_MEASURE_WITH_UNIT(LENGTH_MEASURE(0.01),#397,
'DISTANCE_ACCURACY_VALUE',
'Maximum model space distance between geometric entities at asserted c
onnectivities');
#395=(
GEOMETRIC_REPRESENTATION_CONTEXT(3)
GLOBAL_UNCERTAINTY_ASSIGNED_CONTEXT((#393))
GLOBAL_UNIT_ASSIGNED_CONTEXT((#397,#399,#400))
REPRESENTATION_CONTEXT('','3D')
);
#396=(
GEOMETRIC_REPRESENTATION_CONTEXT(3)
GLOBAL_UNCERTAINTY_ASSIGNED_CONTEXT((#394))
GLOBAL_UNIT_ASSIGNED_CONTEXT((#397,#399,#400))
REPRESENTATION_CONTEXT('','3D')
);
#397=(
LENGTH_UNIT()
NAMED_UNIT(*)
SI_UNIT(.MILLI.,.METRE.)
);
#398=(
LENGTH_UNIT()
NAMED_UNIT(*)
SI_UNIT($,.METRE.)
);
#399=(
NAMED_UNIT(*)
PLANE_ANGLE_UNIT()
SI_UNIT($,.RADIAN.)
);
#400=(
NAMED_UNIT(*)
SI_UNIT($,.STERADIAN.)
SOLID_ANGLE_UNIT()
);
#401=SHAPE_DEFINITION_REPRESENTATION(#402,#403);
#402=PRODUCT_DEFINITION_SHAPE('',$,#405);
#403=SHAPE_REPRESENTATION('',(#233),#395);
#404=PRODUCT_DEFINITION_CONTEXT('part definition',#409,'design');
#405=PRODUCT_DEFINITION('2026-08-27-14-23-05-554','Pan-Tilt Horn',#406,
#404);
#406=PRODUCT_DEFINITION_FORMATION('',$,#411);
#407=PRODUCT_RELATED_PRODUCT_CATEGORY('Pan-Tilt Horn','Pan-Tilt Horn',(#411));
#408=APPLICATION_PROTOCOL_DEFINITION('international standard',
'automotive_design',2009,#409);
#409=APPLICATION_CONTEXT(
'Core Data for Automotive Mechanical Design Process');
#410=PRODUCT_CONTEXT('part definition',#409,'mechanical');
#411=PRODUCT('2026-08-27-14-23-05-554','Pan-Tilt Horn',$,(#410));
#412=PRESENTATION_STYLE_ASSIGNMENT((#413));
#413=SURFACE_STYLE_USAGE(.BOTH.,#414);
#414=SURFACE_SIDE_STYLE('',(#415));
#415=SURFACE_STYLE_FILL_AREA(#416);
#416=FILL_AREA_STYLE('Steel - Satin',(#417));
#417=FILL_AREA_STYLE_COLOUR('Steel - Satin',#418);
#418=COLOUR_RGB('Steel - Satin',0.627450980392157,0.627450980392157,0.627450980392157);
ENDSEC;
END-ISO-10303-21;
