ISO-10303-21;
HEADER;
/* Generated by software containing ST-Developer
 * from STEP Tools, Inc. (www.steptools.com) 
 */

FILE_DESCRIPTION(
/* description */ (''),
/* implementation_level */ '2;1');

FILE_NAME(
/* name */ 'Pan-Tilt Base.step',
/* time_stamp */ '2026-09-03T12:22:28+03:00',
/* author */ (''),
/* organization */ (''),
/* preprocessor_version */ 'ST-DEVELOPER v20.1',
/* originating_system */ 'Autodesk Translation Framework v15.8.0.0',
/* authorisation */ '');

FILE_SCHEMA (('AUTOMOTIVE_DESIGN { 1 0 10303 214 3 1 1 }'));
ENDSEC;

DATA;
#10=MECHANICAL_DESIGN_GEOMETRIC_PRESENTATION_REPRESENTATION('',(#13),#1226);
#11=SHAPE_REPRESENTATION_RELATIONSHIP('SRR','None',#1233,#12);
#12=ADVANCED_BREP_SHAPE_REPRESENTATION('',(#14),#1225);
#13=STYLED_ITEM('',(#1242),#14);
#14=MANIFOLD_SOLID_BREP('Body1',#706);
#15=FACE_BOUND('',#106,.T.);
#16=FACE_BOUND('',#107,.T.);
#17=FACE_BOUND('',#108,.T.);
#18=FACE_BOUND('',#109,.T.);
#19=FACE_BOUND('',#110,.T.);
#20=FACE_BOUND('',#113,.T.);
#21=FACE_BOUND('',#116,.T.);
#22=FACE_BOUND('',#119,.T.);
#23=FACE_BOUND('',#122,.T.);
#24=FACE_BOUND('',#129,.T.);
#25=FACE_BOUND('',#130,.T.);
#26=FACE_BOUND('',#131,.T.);
#27=FACE_BOUND('',#132,.T.);
#28=FACE_BOUND('',#133,.T.);
#29=FACE_BOUND('',#137,.T.);
#30=FACE_BOUND('',#151,.T.);
#31=FACE_BOUND('',#152,.T.);
#32=FACE_BOUND('',#153,.T.);
#33=FACE_BOUND('',#154,.T.);
#34=FACE_BOUND('',#155,.T.);
#35=FACE_BOUND('',#157,.T.);
#36=FACE_BOUND('',#158,.T.);
#37=FACE_BOUND('',#159,.T.);
#38=FACE_BOUND('',#160,.T.);
#39=FACE_BOUND('',#161,.T.);
#40=PLANE('',#723);
#41=PLANE('',#727);
#42=PLANE('',#731);
#43=PLANE('',#735);
#44=PLANE('',#736);
#45=PLANE('',#745);
#46=PLANE('',#750);
#47=PLANE('',#755);
#48=PLANE('',#760);
#49=PLANE('',#772);
#50=PLANE('',#779);
#51=PLANE('',#788);
#52=PLANE('',#792);
#53=PLANE('',#796);
#54=PLANE('',#800);
#55=PLANE('',#804);
#56=PLANE('',#805);
#57=FACE_OUTER_BOUND('',#97,.T.);
#58=FACE_OUTER_BOUND('',#98,.T.);
#59=FACE_OUTER_BOUND('',#99,.T.);
#60=FACE_OUTER_BOUND('',#100,.T.);
#61=FACE_OUTER_BOUND('',#101,.T.);
#62=FACE_OUTER_BOUND('',#102,.T.);
#63=FACE_OUTER_BOUND('',#103,.T.);
#64=FACE_OUTER_BOUND('',#104,.T.);
#65=FACE_OUTER_BOUND('',#105,.T.);
#66=FACE_OUTER_BOUND('',#111,.T.);
#67=FACE_OUTER_BOUND('',#112,.T.);
#68=FACE_OUTER_BOUND('',#114,.T.);
#69=FACE_OUTER_BOUND('',#115,.T.);
#70=FACE_OUTER_BOUND('',#117,.T.);
#71=FACE_OUTER_BOUND('',#118,.T.);
#72=FACE_OUTER_BOUND('',#120,.T.);
#73=FACE_OUTER_BOUND('',#121,.T.);
#74=FACE_OUTER_BOUND('',#123,.T.);
#75=FACE_OUTER_BOUND('',#124,.T.);
#76=FACE_OUTER_BOUND('',#125,.T.);
#77=FACE_OUTER_BOUND('',#126,.T.);
#78=FACE_OUTER_BOUND('',#127,.T.);
#79=FACE_OUTER_BOUND('',#128,.T.);
#80=FACE_OUTER_BOUND('',#134,.T.);
#81=FACE_OUTER_BOUND('',#135,.T.);
#82=FACE_OUTER_BOUND('',#136,.T.);
#83=FACE_OUTER_BOUND('',#138,.T.);
#84=FACE_OUTER_BOUND('',#139,.T.);
#85=FACE_OUTER_BOUND('',#140,.T.);
#86=FACE_OUTER_BOUND('',#141,.T.);
#87=FACE_OUTER_BOUND('',#142,.T.);
#88=FACE_OUTER_BOUND('',#143,.T.);
#89=FACE_OUTER_BOUND('',#144,.T.);
#90=FACE_OUTER_BOUND('',#145,.T.);
#91=FACE_OUTER_BOUND('',#146,.T.);
#92=FACE_OUTER_BOUND('',#147,.T.);
#93=FACE_OUTER_BOUND('',#148,.T.);
#94=FACE_OUTER_BOUND('',#149,.T.);
#95=FACE_OUTER_BOUND('',#150,.T.);
#96=FACE_OUTER_BOUND('',#156,.T.);
#97=EDGE_LOOP('',(#457,#458,#459,#460));
#98=EDGE_LOOP('',(#461,#462,#463,#464));
#99=EDGE_LOOP('',(#465,#466,#467,#468));
#100=EDGE_LOOP('',(#469,#470,#471,#472));
#101=EDGE_LOOP('',(#473,#474,#475,#476));
#102=EDGE_LOOP('',(#477,#478,#479,#480));
#103=EDGE_LOOP('',(#481,#482,#483,#484));
#104=EDGE_LOOP('',(#485,#486,#487,#488));
#105=EDGE_LOOP('',(#489,#490,#491,#492,#493,#494,#495,#496));
#106=EDGE_LOOP('',(#497));
#107=EDGE_LOOP('',(#498));
#108=EDGE_LOOP('',(#499));
#109=EDGE_LOOP('',(#500));
#110=EDGE_LOOP('',(#501));
#111=EDGE_LOOP('',(#502,#503,#504,#505));
#112=EDGE_LOOP('',(#506));
#113=EDGE_LOOP('',(#507));
#114=EDGE_LOOP('',(#508,#509,#510,#511));
#115=EDGE_LOOP('',(#512));
#116=EDGE_LOOP('',(#513));
#117=EDGE_LOOP('',(#514,#515,#516,#517));
#118=EDGE_LOOP('',(#518));
#119=EDGE_LOOP('',(#519));
#120=EDGE_LOOP('',(#520,#521,#522,#523));
#121=EDGE_LOOP('',(#524));
#122=EDGE_LOOP('',(#525));
#123=EDGE_LOOP('',(#526,#527,#528,#529));
#124=EDGE_LOOP('',(#530,#531,#532,#533));
#125=EDGE_LOOP('',(#534,#535,#536,#537));
#126=EDGE_LOOP('',(#538,#539,#540,#541));
#127=EDGE_LOOP('',(#542,#543,#544,#545));
#128=EDGE_LOOP('',(#546));
#129=EDGE_LOOP('',(#547));
#130=EDGE_LOOP('',(#548));
#131=EDGE_LOOP('',(#549));
#132=EDGE_LOOP('',(#550));
#133=EDGE_LOOP('',(#551));
#134=EDGE_LOOP('',(#552,#553,#554,#555));
#135=EDGE_LOOP('',(#556,#557,#558,#559));
#136=EDGE_LOOP('',(#560));
#137=EDGE_LOOP('',(#561));
#138=EDGE_LOOP('',(#562,#563,#564,#565));
#139=EDGE_LOOP('',(#566,#567,#568,#569));
#140=EDGE_LOOP('',(#570,#571,#572,#573));
#141=EDGE_LOOP('',(#574,#575,#576,#577));
#142=EDGE_LOOP('',(#578,#579,#580,#581));
#143=EDGE_LOOP('',(#582,#583,#584,#585));
#144=EDGE_LOOP('',(#586,#587,#588,#589));
#145=EDGE_LOOP('',(#590,#591,#592,#593));
#146=EDGE_LOOP('',(#594,#595,#596,#597));
#147=EDGE_LOOP('',(#598,#599,#600,#601));
#148=EDGE_LOOP('',(#602,#603,#604,#605));
#149=EDGE_LOOP('',(#606,#607,#608,#609));
#150=EDGE_LOOP('',(#610,#611,#612,#613,#614,#615,#616,#617));
#151=EDGE_LOOP('',(#618));
#152=EDGE_LOOP('',(#619));
#153=EDGE_LOOP('',(#620));
#154=EDGE_LOOP('',(#621));
#155=EDGE_LOOP('',(#622));
#156=EDGE_LOOP('',(#623,#624,#625,#626,#627,#628,#629,#630));
#157=EDGE_LOOP('',(#631));
#158=EDGE_LOOP('',(#632));
#159=EDGE_LOOP('',(#633));
#160=EDGE_LOOP('',(#634));
#161=EDGE_LOOP('',(#635,#636,#637,#638,#639,#640,#641,#642));
#162=LINE('',#1033,#209);
#163=LINE('',#1036,#210);
#164=LINE('',#1039,#211);
#165=LINE('',#1041,#212);
#166=LINE('',#1042,#213);
#167=LINE('',#1047,#214);
#168=LINE('',#1051,#215);
#169=LINE('',#1053,#216);
#170=LINE('',#1054,#217);
#171=LINE('',#1059,#218);
#172=LINE('',#1063,#219);
#173=LINE('',#1065,#220);
#174=LINE('',#1066,#221);
#175=LINE('',#1071,#222);
#176=LINE('',#1074,#223);
#177=LINE('',#1075,#224);
#178=LINE('',#1091,#225);
#179=LINE('',#1100,#226);
#180=LINE('',#1109,#227);
#181=LINE('',#1118,#228);
#182=LINE('',#1126,#229);
#183=LINE('',#1130,#230);
#184=LINE('',#1134,#231);
#185=LINE('',#1138,#232);
#186=LINE('',#1142,#233);
#187=LINE('',#1150,#234);
#188=LINE('',#1155,#235);
#189=LINE('',#1160,#236);
#190=LINE('',#1164,#237);
#191=LINE('',#1168,#238);
#192=LINE('',#1172,#239);
#193=LINE('',#1176,#240);
#194=LINE('',#1178,#241);
#195=LINE('',#1180,#242);
#196=LINE('',#1181,#243);
#197=LINE('',#1187,#244);
#198=LINE('',#1190,#245);
#199=LINE('',#1192,#246);
#200=LINE('',#1193,#247);
#201=LINE('',#1199,#248);
#202=LINE('',#1202,#249);
#203=LINE('',#1204,#250);
#204=LINE('',#1205,#251);
#205=LINE('',#1211,#252);
#206=LINE('',#1214,#253);
#207=LINE('',#1216,#254);
#208=LINE('',#1217,#255);
#209=VECTOR('',#812,10.);
#210=VECTOR('',#815,10.);
#211=VECTOR('',#818,10.);
#212=VECTOR('',#819,10.);
#213=VECTOR('',#820,10.);
#214=VECTOR('',#825,10.);
#215=VECTOR('',#830,10.);
#216=VECTOR('',#831,10.);
#217=VECTOR('',#832,10.);
#218=VECTOR('',#837,10.);
#219=VECTOR('',#842,10.);
#220=VECTOR('',#843,10.);
#221=VECTOR('',#844,10.);
#222=VECTOR('',#849,10.);
#223=VECTOR('',#854,10.);
#224=VECTOR('',#855,10.);
#225=VECTOR('',#872,1.);
#226=VECTOR('',#883,1.);
#227=VECTOR('',#894,1.);
#228=VECTOR('',#905,1.);
#229=VECTOR('',#916,1.1);
#230=VECTOR('',#921,1.1);
#231=VECTOR('',#926,3.);
#232=VECTOR('',#931,1.1);
#233=VECTOR('',#936,1.1);
#234=VECTOR('',#945,12.);
#235=VECTOR('',#952,11.);
#236=VECTOR('',#959,1.8);
#237=VECTOR('',#964,1.8);
#238=VECTOR('',#969,1.8);
#239=VECTOR('',#974,1.8);
#240=VECTOR('',#977,10.);
#241=VECTOR('',#978,10.);
#242=VECTOR('',#979,10.);
#243=VECTOR('',#980,10.);
#244=VECTOR('',#987,10.);
#245=VECTOR('',#990,10.);
#246=VECTOR('',#991,10.);
#247=VECTOR('',#992,10.);
#248=VECTOR('',#999,10.);
#249=VECTOR('',#1002,10.);
#250=VECTOR('',#1003,10.);
#251=VECTOR('',#1004,10.);
#252=VECTOR('',#1011,10.);
#253=VECTOR('',#1014,10.);
#254=VECTOR('',#1015,10.);
#255=VECTOR('',#1016,10.);
#256=CIRCLE('',#721,3.2);
#257=CIRCLE('',#722,3.2);
#258=CIRCLE('',#725,3.2);
#259=CIRCLE('',#726,3.2);
#260=CIRCLE('',#729,3.2);
#261=CIRCLE('',#730,3.2);
#262=CIRCLE('',#733,3.2);
#263=CIRCLE('',#734,3.2);
#264=CIRCLE('',#737,1.1);
#265=CIRCLE('',#738,3.);
#266=CIRCLE('',#739,1.1);
#267=CIRCLE('',#740,1.1);
#268=CIRCLE('',#741,1.1);
#269=CIRCLE('',#743,1.);
#270=CIRCLE('',#744,1.);
#271=CIRCLE('',#746,1.8);
#272=CIRCLE('',#748,1.);
#273=CIRCLE('',#749,1.);
#274=CIRCLE('',#751,1.8);
#275=CIRCLE('',#753,1.);
#276=CIRCLE('',#754,1.);
#277=CIRCLE('',#756,1.8);
#278=CIRCLE('',#758,1.);
#279=CIRCLE('',#759,1.);
#280=CIRCLE('',#761,1.8);
#281=CIRCLE('',#763,1.1);
#282=CIRCLE('',#765,1.1);
#283=CIRCLE('',#767,3.);
#284=CIRCLE('',#769,1.1);
#285=CIRCLE('',#771,1.1);
#286=CIRCLE('',#773,11.);
#287=CIRCLE('',#775,12.);
#288=CIRCLE('',#776,12.);
#289=CIRCLE('',#778,11.);
#290=CIRCLE('',#781,1.8);
#291=CIRCLE('',#783,1.8);
#292=CIRCLE('',#785,1.8);
#293=CIRCLE('',#787,1.8);
#294=CIRCLE('',#790,4.);
#295=CIRCLE('',#791,4.);
#296=CIRCLE('',#794,4.);
#297=CIRCLE('',#795,4.);
#298=CIRCLE('',#798,4.);
#299=CIRCLE('',#799,4.);
#300=CIRCLE('',#802,4.);
#301=CIRCLE('',#803,4.);
#302=VERTEX_POINT('',#1029);
#303=VERTEX_POINT('',#1030);
#304=VERTEX_POINT('',#1032);
#305=VERTEX_POINT('',#1034);
#306=VERTEX_POINT('',#1038);
#307=VERTEX_POINT('',#1040);
#308=VERTEX_POINT('',#1044);
#309=VERTEX_POINT('',#1046);
#310=VERTEX_POINT('',#1050);
#311=VERTEX_POINT('',#1052);
#312=VERTEX_POINT('',#1056);
#313=VERTEX_POINT('',#1058);
#314=VERTEX_POINT('',#1062);
#315=VERTEX_POINT('',#1064);
#316=VERTEX_POINT('',#1068);
#317=VERTEX_POINT('',#1070);
#318=VERTEX_POINT('',#1077);
#319=VERTEX_POINT('',#1079);
#320=VERTEX_POINT('',#1081);
#321=VERTEX_POINT('',#1083);
#322=VERTEX_POINT('',#1085);
#323=VERTEX_POINT('',#1088);
#324=VERTEX_POINT('',#1090);
#325=VERTEX_POINT('',#1094);
#326=VERTEX_POINT('',#1097);
#327=VERTEX_POINT('',#1099);
#328=VERTEX_POINT('',#1103);
#329=VERTEX_POINT('',#1106);
#330=VERTEX_POINT('',#1108);
#331=VERTEX_POINT('',#1112);
#332=VERTEX_POINT('',#1115);
#333=VERTEX_POINT('',#1117);
#334=VERTEX_POINT('',#1121);
#335=VERTEX_POINT('',#1124);
#336=VERTEX_POINT('',#1128);
#337=VERTEX_POINT('',#1132);
#338=VERTEX_POINT('',#1136);
#339=VERTEX_POINT('',#1140);
#340=VERTEX_POINT('',#1144);
#341=VERTEX_POINT('',#1147);
#342=VERTEX_POINT('',#1149);
#343=VERTEX_POINT('',#1153);
#344=VERTEX_POINT('',#1158);
#345=VERTEX_POINT('',#1162);
#346=VERTEX_POINT('',#1166);
#347=VERTEX_POINT('',#1170);
#348=VERTEX_POINT('',#1174);
#349=VERTEX_POINT('',#1175);
#350=VERTEX_POINT('',#1177);
#351=VERTEX_POINT('',#1179);
#352=VERTEX_POINT('',#1183);
#353=VERTEX_POINT('',#1185);
#354=VERTEX_POINT('',#1189);
#355=VERTEX_POINT('',#1191);
#356=VERTEX_POINT('',#1195);
#357=VERTEX_POINT('',#1197);
#358=VERTEX_POINT('',#1201);
#359=VERTEX_POINT('',#1203);
#360=VERTEX_POINT('',#1207);
#361=VERTEX_POINT('',#1209);
#362=VERTEX_POINT('',#1213);
#363=VERTEX_POINT('',#1215);
#364=EDGE_CURVE('',#302,#303,#256,.T.);
#365=EDGE_CURVE('',#302,#304,#162,.T.);
#366=EDGE_CURVE('',#304,#305,#257,.T.);
#367=EDGE_CURVE('',#303,#305,#163,.T.);
#368=EDGE_CURVE('',#306,#302,#164,.T.);
#369=EDGE_CURVE('',#306,#307,#165,.T.);
#370=EDGE_CURVE('',#307,#304,#166,.T.);
#371=EDGE_CURVE('',#308,#306,#258,.T.);
#372=EDGE_CURVE('',#308,#309,#167,.T.);
#373=EDGE_CURVE('',#309,#307,#259,.T.);
#374=EDGE_CURVE('',#310,#308,#168,.T.);
#375=EDGE_CURVE('',#310,#311,#169,.T.);
#376=EDGE_CURVE('',#311,#309,#170,.T.);
#377=EDGE_CURVE('',#312,#310,#260,.T.);
#378=EDGE_CURVE('',#312,#313,#171,.T.);
#379=EDGE_CURVE('',#313,#311,#261,.T.);
#380=EDGE_CURVE('',#314,#312,#172,.T.);
#381=EDGE_CURVE('',#314,#315,#173,.T.);
#382=EDGE_CURVE('',#315,#313,#174,.T.);
#383=EDGE_CURVE('',#316,#314,#262,.T.);
#384=EDGE_CURVE('',#316,#317,#175,.T.);
#385=EDGE_CURVE('',#317,#315,#263,.T.);
#386=EDGE_CURVE('',#303,#316,#176,.T.);
#387=EDGE_CURVE('',#305,#317,#177,.T.);
#388=EDGE_CURVE('',#318,#318,#264,.T.);
#389=EDGE_CURVE('',#319,#319,#265,.T.);
#390=EDGE_CURVE('',#320,#320,#266,.T.);
#391=EDGE_CURVE('',#321,#321,#267,.T.);
#392=EDGE_CURVE('',#322,#322,#268,.T.);
#393=EDGE_CURVE('',#323,#323,#269,.T.);
#394=EDGE_CURVE('',#323,#324,#178,.T.);
#395=EDGE_CURVE('',#324,#324,#270,.T.);
#396=EDGE_CURVE('',#325,#325,#271,.T.);
#397=EDGE_CURVE('',#326,#326,#272,.T.);
#398=EDGE_CURVE('',#326,#327,#179,.T.);
#399=EDGE_CURVE('',#327,#327,#273,.T.);
#400=EDGE_CURVE('',#328,#328,#274,.T.);
#401=EDGE_CURVE('',#329,#329,#275,.T.);
#402=EDGE_CURVE('',#329,#330,#180,.T.);
#403=EDGE_CURVE('',#330,#330,#276,.T.);
#404=EDGE_CURVE('',#331,#331,#277,.T.);
#405=EDGE_CURVE('',#332,#332,#278,.T.);
#406=EDGE_CURVE('',#332,#333,#181,.T.);
#407=EDGE_CURVE('',#333,#333,#279,.T.);
#408=EDGE_CURVE('',#334,#334,#280,.T.);
#409=EDGE_CURVE('',#335,#335,#281,.T.);
#410=EDGE_CURVE('',#335,#321,#182,.T.);
#411=EDGE_CURVE('',#336,#336,#282,.T.);
#412=EDGE_CURVE('',#336,#320,#183,.T.);
#413=EDGE_CURVE('',#337,#337,#283,.T.);
#414=EDGE_CURVE('',#337,#319,#184,.T.);
#415=EDGE_CURVE('',#338,#338,#284,.T.);
#416=EDGE_CURVE('',#338,#318,#185,.T.);
#417=EDGE_CURVE('',#339,#339,#285,.T.);
#418=EDGE_CURVE('',#339,#322,#186,.T.);
#419=EDGE_CURVE('',#340,#340,#286,.T.);
#420=EDGE_CURVE('',#341,#341,#287,.T.);
#421=EDGE_CURVE('',#341,#342,#187,.T.);
#422=EDGE_CURVE('',#342,#342,#288,.T.);
#423=EDGE_CURVE('',#343,#343,#289,.T.);
#424=EDGE_CURVE('',#343,#340,#188,.T.);
#425=EDGE_CURVE('',#344,#344,#290,.T.);
#426=EDGE_CURVE('',#344,#331,#189,.T.);
#427=EDGE_CURVE('',#345,#345,#291,.T.);
#428=EDGE_CURVE('',#345,#334,#190,.T.);
#429=EDGE_CURVE('',#346,#346,#292,.T.);
#430=EDGE_CURVE('',#346,#325,#191,.T.);
#431=EDGE_CURVE('',#347,#347,#293,.T.);
#432=EDGE_CURVE('',#347,#328,#192,.T.);
#433=EDGE_CURVE('',#348,#349,#193,.T.);
#434=EDGE_CURVE('',#349,#350,#194,.T.);
#435=EDGE_CURVE('',#351,#350,#195,.T.);
#436=EDGE_CURVE('',#348,#351,#196,.T.);
#437=EDGE_CURVE('',#352,#348,#294,.T.);
#438=EDGE_CURVE('',#353,#351,#295,.T.);
#439=EDGE_CURVE('',#352,#353,#197,.T.);
#440=EDGE_CURVE('',#354,#352,#198,.T.);
#441=EDGE_CURVE('',#355,#353,#199,.T.);
#442=EDGE_CURVE('',#354,#355,#200,.T.);
#443=EDGE_CURVE('',#356,#354,#296,.T.);
#444=EDGE_CURVE('',#357,#355,#297,.T.);
#445=EDGE_CURVE('',#356,#357,#201,.T.);
#446=EDGE_CURVE('',#358,#356,#202,.T.);
#447=EDGE_CURVE('',#359,#357,#203,.T.);
#448=EDGE_CURVE('',#358,#359,#204,.T.);
#449=EDGE_CURVE('',#360,#358,#298,.T.);
#450=EDGE_CURVE('',#361,#359,#299,.T.);
#451=EDGE_CURVE('',#360,#361,#205,.T.);
#452=EDGE_CURVE('',#362,#360,#206,.T.);
#453=EDGE_CURVE('',#363,#361,#207,.T.);
#454=EDGE_CURVE('',#362,#363,#208,.T.);
#455=EDGE_CURVE('',#349,#362,#300,.T.);
#456=EDGE_CURVE('',#350,#363,#301,.T.);
#457=ORIENTED_EDGE('',*,*,#364,.F.);
#458=ORIENTED_EDGE('',*,*,#365,.T.);
#459=ORIENTED_EDGE('',*,*,#366,.T.);
#460=ORIENTED_EDGE('',*,*,#367,.F.);
#461=ORIENTED_EDGE('',*,*,#368,.F.);
#462=ORIENTED_EDGE('',*,*,#369,.T.);
#463=ORIENTED_EDGE('',*,*,#370,.T.);
#464=ORIENTED_EDGE('',*,*,#365,.F.);
#465=ORIENTED_EDGE('',*,*,#371,.F.);
#466=ORIENTED_EDGE('',*,*,#372,.T.);
#467=ORIENTED_EDGE('',*,*,#373,.T.);
#468=ORIENTED_EDGE('',*,*,#369,.F.);
#469=ORIENTED_EDGE('',*,*,#374,.F.);
#470=ORIENTED_EDGE('',*,*,#375,.T.);
#471=ORIENTED_EDGE('',*,*,#376,.T.);
#472=ORIENTED_EDGE('',*,*,#372,.F.);
#473=ORIENTED_EDGE('',*,*,#377,.F.);
#474=ORIENTED_EDGE('',*,*,#378,.T.);
#475=ORIENTED_EDGE('',*,*,#379,.T.);
#476=ORIENTED_EDGE('',*,*,#375,.F.);
#477=ORIENTED_EDGE('',*,*,#380,.F.);
#478=ORIENTED_EDGE('',*,*,#381,.T.);
#479=ORIENTED_EDGE('',*,*,#382,.T.);
#480=ORIENTED_EDGE('',*,*,#378,.F.);
#481=ORIENTED_EDGE('',*,*,#383,.F.);
#482=ORIENTED_EDGE('',*,*,#384,.T.);
#483=ORIENTED_EDGE('',*,*,#385,.T.);
#484=ORIENTED_EDGE('',*,*,#381,.F.);
#485=ORIENTED_EDGE('',*,*,#386,.F.);
#486=ORIENTED_EDGE('',*,*,#367,.T.);
#487=ORIENTED_EDGE('',*,*,#387,.T.);
#488=ORIENTED_EDGE('',*,*,#384,.F.);
#489=ORIENTED_EDGE('',*,*,#387,.F.);
#490=ORIENTED_EDGE('',*,*,#366,.F.);
#491=ORIENTED_EDGE('',*,*,#370,.F.);
#492=ORIENTED_EDGE('',*,*,#373,.F.);
#493=ORIENTED_EDGE('',*,*,#376,.F.);
#494=ORIENTED_EDGE('',*,*,#379,.F.);
#495=ORIENTED_EDGE('',*,*,#382,.F.);
#496=ORIENTED_EDGE('',*,*,#385,.F.);
#497=ORIENTED_EDGE('',*,*,#388,.F.);
#498=ORIENTED_EDGE('',*,*,#389,.F.);
#499=ORIENTED_EDGE('',*,*,#390,.F.);
#500=ORIENTED_EDGE('',*,*,#391,.F.);
#501=ORIENTED_EDGE('',*,*,#392,.F.);
#502=ORIENTED_EDGE('',*,*,#393,.F.);
#503=ORIENTED_EDGE('',*,*,#394,.T.);
#504=ORIENTED_EDGE('',*,*,#395,.T.);
#505=ORIENTED_EDGE('',*,*,#394,.F.);
#506=ORIENTED_EDGE('',*,*,#396,.F.);
#507=ORIENTED_EDGE('',*,*,#393,.T.);
#508=ORIENTED_EDGE('',*,*,#397,.F.);
#509=ORIENTED_EDGE('',*,*,#398,.T.);
#510=ORIENTED_EDGE('',*,*,#399,.T.);
#511=ORIENTED_EDGE('',*,*,#398,.F.);
#512=ORIENTED_EDGE('',*,*,#400,.F.);
#513=ORIENTED_EDGE('',*,*,#397,.T.);
#514=ORIENTED_EDGE('',*,*,#401,.F.);
#515=ORIENTED_EDGE('',*,*,#402,.T.);
#516=ORIENTED_EDGE('',*,*,#403,.T.);
#517=ORIENTED_EDGE('',*,*,#402,.F.);
#518=ORIENTED_EDGE('',*,*,#404,.F.);
#519=ORIENTED_EDGE('',*,*,#401,.T.);
#520=ORIENTED_EDGE('',*,*,#405,.F.);
#521=ORIENTED_EDGE('',*,*,#406,.T.);
#522=ORIENTED_EDGE('',*,*,#407,.T.);
#523=ORIENTED_EDGE('',*,*,#406,.F.);
#524=ORIENTED_EDGE('',*,*,#408,.F.);
#525=ORIENTED_EDGE('',*,*,#405,.T.);
#526=ORIENTED_EDGE('',*,*,#409,.F.);
#527=ORIENTED_EDGE('',*,*,#410,.T.);
#528=ORIENTED_EDGE('',*,*,#391,.T.);
#529=ORIENTED_EDGE('',*,*,#410,.F.);
#530=ORIENTED_EDGE('',*,*,#411,.F.);
#531=ORIENTED_EDGE('',*,*,#412,.T.);
#532=ORIENTED_EDGE('',*,*,#390,.T.);
#533=ORIENTED_EDGE('',*,*,#412,.F.);
#534=ORIENTED_EDGE('',*,*,#413,.F.);
#535=ORIENTED_EDGE('',*,*,#414,.T.);
#536=ORIENTED_EDGE('',*,*,#389,.T.);
#537=ORIENTED_EDGE('',*,*,#414,.F.);
#538=ORIENTED_EDGE('',*,*,#415,.F.);
#539=ORIENTED_EDGE('',*,*,#416,.T.);
#540=ORIENTED_EDGE('',*,*,#388,.T.);
#541=ORIENTED_EDGE('',*,*,#416,.F.);
#542=ORIENTED_EDGE('',*,*,#417,.F.);
#543=ORIENTED_EDGE('',*,*,#418,.T.);
#544=ORIENTED_EDGE('',*,*,#392,.T.);
#545=ORIENTED_EDGE('',*,*,#418,.F.);
#546=ORIENTED_EDGE('',*,*,#419,.F.);
#547=ORIENTED_EDGE('',*,*,#417,.T.);
#548=ORIENTED_EDGE('',*,*,#415,.T.);
#549=ORIENTED_EDGE('',*,*,#413,.T.);
#550=ORIENTED_EDGE('',*,*,#411,.T.);
#551=ORIENTED_EDGE('',*,*,#409,.T.);
#552=ORIENTED_EDGE('',*,*,#420,.F.);
#553=ORIENTED_EDGE('',*,*,#421,.T.);
#554=ORIENTED_EDGE('',*,*,#422,.F.);
#555=ORIENTED_EDGE('',*,*,#421,.F.);
#556=ORIENTED_EDGE('',*,*,#423,.F.);
#557=ORIENTED_EDGE('',*,*,#424,.T.);
#558=ORIENTED_EDGE('',*,*,#419,.T.);
#559=ORIENTED_EDGE('',*,*,#424,.F.);
#560=ORIENTED_EDGE('',*,*,#420,.T.);
#561=ORIENTED_EDGE('',*,*,#423,.T.);
#562=ORIENTED_EDGE('',*,*,#425,.F.);
#563=ORIENTED_EDGE('',*,*,#426,.T.);
#564=ORIENTED_EDGE('',*,*,#404,.T.);
#565=ORIENTED_EDGE('',*,*,#426,.F.);
#566=ORIENTED_EDGE('',*,*,#427,.F.);
#567=ORIENTED_EDGE('',*,*,#428,.T.);
#568=ORIENTED_EDGE('',*,*,#408,.T.);
#569=ORIENTED_EDGE('',*,*,#428,.F.);
#570=ORIENTED_EDGE('',*,*,#429,.F.);
#571=ORIENTED_EDGE('',*,*,#430,.T.);
#572=ORIENTED_EDGE('',*,*,#396,.T.);
#573=ORIENTED_EDGE('',*,*,#430,.F.);
#574=ORIENTED_EDGE('',*,*,#431,.F.);
#575=ORIENTED_EDGE('',*,*,#432,.T.);
#576=ORIENTED_EDGE('',*,*,#400,.T.);
#577=ORIENTED_EDGE('',*,*,#432,.F.);
#578=ORIENTED_EDGE('',*,*,#433,.T.);
#579=ORIENTED_EDGE('',*,*,#434,.T.);
#580=ORIENTED_EDGE('',*,*,#435,.F.);
#581=ORIENTED_EDGE('',*,*,#436,.F.);
#582=ORIENTED_EDGE('',*,*,#437,.T.);
#583=ORIENTED_EDGE('',*,*,#436,.T.);
#584=ORIENTED_EDGE('',*,*,#438,.F.);
#585=ORIENTED_EDGE('',*,*,#439,.F.);
#586=ORIENTED_EDGE('',*,*,#440,.T.);
#587=ORIENTED_EDGE('',*,*,#439,.T.);
#588=ORIENTED_EDGE('',*,*,#441,.F.);
#589=ORIENTED_EDGE('',*,*,#442,.F.);
#590=ORIENTED_EDGE('',*,*,#443,.T.);
#591=ORIENTED_EDGE('',*,*,#442,.T.);
#592=ORIENTED_EDGE('',*,*,#444,.F.);
#593=ORIENTED_EDGE('',*,*,#445,.F.);
#594=ORIENTED_EDGE('',*,*,#446,.T.);
#595=ORIENTED_EDGE('',*,*,#445,.T.);
#596=ORIENTED_EDGE('',*,*,#447,.F.);
#597=ORIENTED_EDGE('',*,*,#448,.F.);
#598=ORIENTED_EDGE('',*,*,#449,.T.);
#599=ORIENTED_EDGE('',*,*,#448,.T.);
#600=ORIENTED_EDGE('',*,*,#450,.F.);
#601=ORIENTED_EDGE('',*,*,#451,.F.);
#602=ORIENTED_EDGE('',*,*,#452,.T.);
#603=ORIENTED_EDGE('',*,*,#451,.T.);
#604=ORIENTED_EDGE('',*,*,#453,.F.);
#605=ORIENTED_EDGE('',*,*,#454,.F.);
#606=ORIENTED_EDGE('',*,*,#455,.T.);
#607=ORIENTED_EDGE('',*,*,#454,.T.);
#608=ORIENTED_EDGE('',*,*,#456,.F.);
#609=ORIENTED_EDGE('',*,*,#434,.F.);
#610=ORIENTED_EDGE('',*,*,#456,.T.);
#611=ORIENTED_EDGE('',*,*,#453,.T.);
#612=ORIENTED_EDGE('',*,*,#450,.T.);
#613=ORIENTED_EDGE('',*,*,#447,.T.);
#614=ORIENTED_EDGE('',*,*,#444,.T.);
#615=ORIENTED_EDGE('',*,*,#441,.T.);
#616=ORIENTED_EDGE('',*,*,#438,.T.);
#617=ORIENTED_EDGE('',*,*,#435,.T.);
#618=ORIENTED_EDGE('',*,*,#431,.T.);
#619=ORIENTED_EDGE('',*,*,#429,.T.);
#620=ORIENTED_EDGE('',*,*,#427,.T.);
#621=ORIENTED_EDGE('',*,*,#425,.T.);
#622=ORIENTED_EDGE('',*,*,#422,.T.);
#623=ORIENTED_EDGE('',*,*,#455,.F.);
#624=ORIENTED_EDGE('',*,*,#433,.F.);
#625=ORIENTED_EDGE('',*,*,#437,.F.);
#626=ORIENTED_EDGE('',*,*,#440,.F.);
#627=ORIENTED_EDGE('',*,*,#443,.F.);
#628=ORIENTED_EDGE('',*,*,#446,.F.);
#629=ORIENTED_EDGE('',*,*,#449,.F.);
#630=ORIENTED_EDGE('',*,*,#452,.F.);
#631=ORIENTED_EDGE('',*,*,#407,.F.);
#632=ORIENTED_EDGE('',*,*,#403,.F.);
#633=ORIENTED_EDGE('',*,*,#399,.F.);
#634=ORIENTED_EDGE('',*,*,#395,.F.);
#635=ORIENTED_EDGE('',*,*,#364,.T.);
#636=ORIENTED_EDGE('',*,*,#386,.T.);
#637=ORIENTED_EDGE('',*,*,#383,.T.);
#638=ORIENTED_EDGE('',*,*,#380,.T.);
#639=ORIENTED_EDGE('',*,*,#377,.T.);
#640=ORIENTED_EDGE('',*,*,#374,.T.);
#641=ORIENTED_EDGE('',*,*,#371,.T.);
#642=ORIENTED_EDGE('',*,*,#368,.T.);
#643=CYLINDRICAL_SURFACE('',#720,3.2);
#644=CYLINDRICAL_SURFACE('',#724,3.2);
#645=CYLINDRICAL_SURFACE('',#728,3.2);
#646=CYLINDRICAL_SURFACE('',#732,3.2);
#647=CYLINDRICAL_SURFACE('',#742,1.);
#648=CYLINDRICAL_SURFACE('',#747,1.);
#649=CYLINDRICAL_SURFACE('',#752,1.);
#650=CYLINDRICAL_SURFACE('',#757,1.);
#651=CYLINDRICAL_SURFACE('',#762,1.1);
#652=CYLINDRICAL_SURFACE('',#764,1.1);
#653=CYLINDRICAL_SURFACE('',#766,3.);
#654=CYLINDRICAL_SURFACE('',#768,1.1);
#655=CYLINDRICAL_SURFACE('',#770,1.1);
#656=CYLINDRICAL_SURFACE('',#774,12.);
#657=CYLINDRICAL_SURFACE('',#777,11.);
#658=CYLINDRICAL_SURFACE('',#780,1.8);
#659=CYLINDRICAL_SURFACE('',#782,1.8);
#660=CYLINDRICAL_SURFACE('',#784,1.8);
#661=CYLINDRICAL_SURFACE('',#786,1.8);
#662=CYLINDRICAL_SURFACE('',#789,4.);
#663=CYLINDRICAL_SURFACE('',#793,4.);
#664=CYLINDRICAL_SURFACE('',#797,4.);
#665=CYLINDRICAL_SURFACE('',#801,4.);
#666=ADVANCED_FACE('',(#57),#643,.T.);
#667=ADVANCED_FACE('',(#58),#40,.F.);
#668=ADVANCED_FACE('',(#59),#644,.T.);
#669=ADVANCED_FACE('',(#60),#41,.F.);
#670=ADVANCED_FACE('',(#61),#645,.T.);
#671=ADVANCED_FACE('',(#62),#42,.F.);
#672=ADVANCED_FACE('',(#63),#646,.T.);
#673=ADVANCED_FACE('',(#64),#43,.F.);
#674=ADVANCED_FACE('',(#65,#15,#16,#17,#18,#19),#44,.T.);
#675=ADVANCED_FACE('',(#66),#647,.F.);
#676=ADVANCED_FACE('',(#67,#20),#45,.T.);
#677=ADVANCED_FACE('',(#68),#648,.F.);
#678=ADVANCED_FACE('',(#69,#21),#46,.T.);
#679=ADVANCED_FACE('',(#70),#649,.F.);
#680=ADVANCED_FACE('',(#71,#22),#47,.T.);
#681=ADVANCED_FACE('',(#72),#650,.F.);
#682=ADVANCED_FACE('',(#73,#23),#48,.T.);
#683=ADVANCED_FACE('',(#74),#651,.F.);
#684=ADVANCED_FACE('',(#75),#652,.F.);
#685=ADVANCED_FACE('',(#76),#653,.F.);
#686=ADVANCED_FACE('',(#77),#654,.F.);
#687=ADVANCED_FACE('',(#78),#655,.F.);
#688=ADVANCED_FACE('',(#79,#24,#25,#26,#27,#28),#49,.T.);
#689=ADVANCED_FACE('',(#80),#656,.T.);
#690=ADVANCED_FACE('',(#81),#657,.F.);
#691=ADVANCED_FACE('',(#82,#29),#50,.T.);
#692=ADVANCED_FACE('',(#83),#658,.F.);
#693=ADVANCED_FACE('',(#84),#659,.F.);
#694=ADVANCED_FACE('',(#85),#660,.F.);
#695=ADVANCED_FACE('',(#86),#661,.F.);
#696=ADVANCED_FACE('',(#87),#51,.T.);
#697=ADVANCED_FACE('',(#88),#662,.T.);
#698=ADVANCED_FACE('',(#89),#52,.T.);
#699=ADVANCED_FACE('',(#90),#663,.T.);
#700=ADVANCED_FACE('',(#91),#53,.T.);
#701=ADVANCED_FACE('',(#92),#664,.T.);
#702=ADVANCED_FACE('',(#93),#54,.T.);
#703=ADVANCED_FACE('',(#94),#665,.T.);
#704=ADVANCED_FACE('',(#95,#30,#31,#32,#33,#34),#55,.T.);
#705=ADVANCED_FACE('',(#96,#35,#36,#37,#38,#39),#56,.F.);
#706=CLOSED_SHELL('',(#666,#667,#668,#669,#670,#671,#672,#673,#674,#675,
#676,#677,#678,#679,#680,#681,#682,#683,#684,#685,#686,#687,#688,#689,#690,
#691,#692,#693,#694,#695,#696,#697,#698,#699,#700,#701,#702,#703,#704,#705));
#707=DERIVED_UNIT_ELEMENT(#709,1.);
#708=DERIVED_UNIT_ELEMENT(#1228,-3.);
#709=(
MASS_UNIT()
NAMED_UNIT(*)
SI_UNIT(.KILO.,.GRAM.)
);
#710=DERIVED_UNIT((#707,#708));
#711=MEASURE_REPRESENTATION_ITEM('density measure',
POSITIVE_RATIO_MEASURE(7850.),#710);
#712=PROPERTY_DEFINITION_REPRESENTATION(#717,#714);
#713=PROPERTY_DEFINITION_REPRESENTATION(#718,#715);
#714=REPRESENTATION('material name',(#716),#1225);
#715=REPRESENTATION('density',(#711),#1225);
#716=DESCRIPTIVE_REPRESENTATION_ITEM('Steel','Steel');
#717=PROPERTY_DEFINITION('material property','material name',#1235);
#718=PROPERTY_DEFINITION('material property','density of part',#1235);
#719=AXIS2_PLACEMENT_3D('',#1027,#806,#807);
#720=AXIS2_PLACEMENT_3D('',#1028,#808,#809);
#721=AXIS2_PLACEMENT_3D('',#1031,#810,#811);
#722=AXIS2_PLACEMENT_3D('',#1035,#813,#814);
#723=AXIS2_PLACEMENT_3D('',#1037,#816,#817);
#724=AXIS2_PLACEMENT_3D('',#1043,#821,#822);
#725=AXIS2_PLACEMENT_3D('',#1045,#823,#824);
#726=AXIS2_PLACEMENT_3D('',#1048,#826,#827);
#727=AXIS2_PLACEMENT_3D('',#1049,#828,#829);
#728=AXIS2_PLACEMENT_3D('',#1055,#833,#834);
#729=AXIS2_PLACEMENT_3D('',#1057,#835,#836);
#730=AXIS2_PLACEMENT_3D('',#1060,#838,#839);
#731=AXIS2_PLACEMENT_3D('',#1061,#840,#841);
#732=AXIS2_PLACEMENT_3D('',#1067,#845,#846);
#733=AXIS2_PLACEMENT_3D('',#1069,#847,#848);
#734=AXIS2_PLACEMENT_3D('',#1072,#850,#851);
#735=AXIS2_PLACEMENT_3D('',#1073,#852,#853);
#736=AXIS2_PLACEMENT_3D('',#1076,#856,#857);
#737=AXIS2_PLACEMENT_3D('',#1078,#858,#859);
#738=AXIS2_PLACEMENT_3D('',#1080,#860,#861);
#739=AXIS2_PLACEMENT_3D('',#1082,#862,#863);
#740=AXIS2_PLACEMENT_3D('',#1084,#864,#865);
#741=AXIS2_PLACEMENT_3D('',#1086,#866,#867);
#742=AXIS2_PLACEMENT_3D('',#1087,#868,#869);
#743=AXIS2_PLACEMENT_3D('',#1089,#870,#871);
#744=AXIS2_PLACEMENT_3D('',#1092,#873,#874);
#745=AXIS2_PLACEMENT_3D('',#1093,#875,#876);
#746=AXIS2_PLACEMENT_3D('',#1095,#877,#878);
#747=AXIS2_PLACEMENT_3D('',#1096,#879,#880);
#748=AXIS2_PLACEMENT_3D('',#1098,#881,#882);
#749=AXIS2_PLACEMENT_3D('',#1101,#884,#885);
#750=AXIS2_PLACEMENT_3D('',#1102,#886,#887);
#751=AXIS2_PLACEMENT_3D('',#1104,#888,#889);
#752=AXIS2_PLACEMENT_3D('',#1105,#890,#891);
#753=AXIS2_PLACEMENT_3D('',#1107,#892,#893);
#754=AXIS2_PLACEMENT_3D('',#1110,#895,#896);
#755=AXIS2_PLACEMENT_3D('',#1111,#897,#898);
#756=AXIS2_PLACEMENT_3D('',#1113,#899,#900);
#757=AXIS2_PLACEMENT_3D('',#1114,#901,#902);
#758=AXIS2_PLACEMENT_3D('',#1116,#903,#904);
#759=AXIS2_PLACEMENT_3D('',#1119,#906,#907);
#760=AXIS2_PLACEMENT_3D('',#1120,#908,#909);
#761=AXIS2_PLACEMENT_3D('',#1122,#910,#911);
#762=AXIS2_PLACEMENT_3D('',#1123,#912,#913);
#763=AXIS2_PLACEMENT_3D('',#1125,#914,#915);
#764=AXIS2_PLACEMENT_3D('',#1127,#917,#918);
#765=AXIS2_PLACEMENT_3D('',#1129,#919,#920);
#766=AXIS2_PLACEMENT_3D('',#1131,#922,#923);
#767=AXIS2_PLACEMENT_3D('',#1133,#924,#925);
#768=AXIS2_PLACEMENT_3D('',#1135,#927,#928);
#769=AXIS2_PLACEMENT_3D('',#1137,#929,#930);
#770=AXIS2_PLACEMENT_3D('',#1139,#932,#933);
#771=AXIS2_PLACEMENT_3D('',#1141,#934,#935);
#772=AXIS2_PLACEMENT_3D('',#1143,#937,#938);
#773=AXIS2_PLACEMENT_3D('',#1145,#939,#940);
#774=AXIS2_PLACEMENT_3D('',#1146,#941,#942);
#775=AXIS2_PLACEMENT_3D('',#1148,#943,#944);
#776=AXIS2_PLACEMENT_3D('',#1151,#946,#947);
#777=AXIS2_PLACEMENT_3D('',#1152,#948,#949);
#778=AXIS2_PLACEMENT_3D('',#1154,#950,#951);
#779=AXIS2_PLACEMENT_3D('',#1156,#953,#954);
#780=AXIS2_PLACEMENT_3D('',#1157,#955,#956);
#781=AXIS2_PLACEMENT_3D('',#1159,#957,#958);
#782=AXIS2_PLACEMENT_3D('',#1161,#960,#961);
#783=AXIS2_PLACEMENT_3D('',#1163,#962,#963);
#784=AXIS2_PLACEMENT_3D('',#1165,#965,#966);
#785=AXIS2_PLACEMENT_3D('',#1167,#967,#968);
#786=AXIS2_PLACEMENT_3D('',#1169,#970,#971);
#787=AXIS2_PLACEMENT_3D('',#1171,#972,#973);
#788=AXIS2_PLACEMENT_3D('',#1173,#975,#976);
#789=AXIS2_PLACEMENT_3D('',#1182,#981,#982);
#790=AXIS2_PLACEMENT_3D('',#1184,#983,#984);
#791=AXIS2_PLACEMENT_3D('',#1186,#985,#986);
#792=AXIS2_PLACEMENT_3D('',#1188,#988,#989);
#793=AXIS2_PLACEMENT_3D('',#1194,#993,#994);
#794=AXIS2_PLACEMENT_3D('',#1196,#995,#996);
#795=AXIS2_PLACEMENT_3D('',#1198,#997,#998);
#796=AXIS2_PLACEMENT_3D('',#1200,#1000,#1001);
#797=AXIS2_PLACEMENT_3D('',#1206,#1005,#1006);
#798=AXIS2_PLACEMENT_3D('',#1208,#1007,#1008);
#799=AXIS2_PLACEMENT_3D('',#1210,#1009,#1010);
#800=AXIS2_PLACEMENT_3D('',#1212,#1012,#1013);
#801=AXIS2_PLACEMENT_3D('',#1218,#1017,#1018);
#802=AXIS2_PLACEMENT_3D('',#1219,#1019,#1020);
#803=AXIS2_PLACEMENT_3D('',#1220,#1021,#1022);
#804=AXIS2_PLACEMENT_3D('',#1221,#1023,#1024);
#805=AXIS2_PLACEMENT_3D('',#1222,#1025,#1026);
#806=DIRECTION('axis',(0.,0.,1.));
#807=DIRECTION('refdir',(1.,0.,0.));
#808=DIRECTION('center_axis',(0.,0.,1.));
#809=DIRECTION('ref_axis',(0.707106781186546,0.707106781186549,0.));
#810=DIRECTION('center_axis',(0.,0.,-1.));
#811=DIRECTION('ref_axis',(-0.9375,0.347985272676875,0.));
#812=DIRECTION('',(0.,0.,1.));
#813=DIRECTION('center_axis',(0.,0.,-1.));
#814=DIRECTION('ref_axis',(-0.9375,0.347985272676875,0.));
#815=DIRECTION('',(0.,0.,1.));
#816=DIRECTION('center_axis',(-1.,-1.49906462903649E-17,0.));
#817=DIRECTION('ref_axis',(1.49906462903649E-17,-1.,0.));
#818=DIRECTION('',(1.49906462903649E-17,-1.,0.));
#819=DIRECTION('',(0.,0.,1.));
#820=DIRECTION('',(1.49906462903649E-17,-1.,0.));
#821=DIRECTION('center_axis',(0.,0.,1.));
#822=DIRECTION('ref_axis',(0.707106781186548,-0.707106781186547,0.));
#823=DIRECTION('center_axis',(0.,0.,-1.));
#824=DIRECTION('ref_axis',(0.347985272676874,0.937500000000001,0.));
#825=DIRECTION('',(0.,0.,1.));
#826=DIRECTION('center_axis',(0.,0.,-1.));
#827=DIRECTION('ref_axis',(0.347985272676874,0.937500000000001,0.));
#828=DIRECTION('center_axis',(0.,1.,0.));
#829=DIRECTION('ref_axis',(-1.,0.,0.));
#830=DIRECTION('',(-1.,0.,0.));
#831=DIRECTION('',(0.,0.,1.));
#832=DIRECTION('',(-1.,0.,0.));
#833=DIRECTION('center_axis',(0.,0.,1.));
#834=DIRECTION('ref_axis',(-0.707106781186547,-0.707106781186548,0.));
#835=DIRECTION('center_axis',(0.,0.,-1.));
#836=DIRECTION('ref_axis',(0.937500000000001,-0.347985272676875,0.));
#837=DIRECTION('',(0.,0.,1.));
#838=DIRECTION('center_axis',(0.,0.,-1.));
#839=DIRECTION('ref_axis',(0.937500000000001,-0.347985272676875,0.));
#840=DIRECTION('center_axis',(1.,0.,0.));
#841=DIRECTION('ref_axis',(0.,1.,0.));
#842=DIRECTION('',(0.,1.,0.));
#843=DIRECTION('',(0.,0.,1.));
#844=DIRECTION('',(0.,1.,0.));
#845=DIRECTION('center_axis',(0.,0.,1.));
#846=DIRECTION('ref_axis',(-0.707106781186548,0.707106781186547,0.));
#847=DIRECTION('center_axis',(0.,0.,-1.));
#848=DIRECTION('ref_axis',(-0.347985272676878,-0.9375,0.));
#849=DIRECTION('',(0.,0.,1.));
#850=DIRECTION('center_axis',(0.,0.,-1.));
#851=DIRECTION('ref_axis',(-0.347985272676878,-0.9375,0.));
#852=DIRECTION('center_axis',(0.,-1.,0.));
#853=DIRECTION('ref_axis',(1.,0.,0.));
#854=DIRECTION('',(1.,0.,0.));
#855=DIRECTION('',(1.,0.,0.));
#856=DIRECTION('center_axis',(0.,0.,-1.));
#857=DIRECTION('ref_axis',(1.,0.,0.));
#858=DIRECTION('center_axis',(0.,0.,-1.));
#859=DIRECTION('ref_axis',(1.,0.,0.));
#860=DIRECTION('center_axis',(0.,0.,-1.));
#861=DIRECTION('ref_axis',(1.,0.,0.));
#862=DIRECTION('center_axis',(0.,0.,-1.));
#863=DIRECTION('ref_axis',(1.,0.,0.));
#864=DIRECTION('center_axis',(0.,0.,-1.));
#865=DIRECTION('ref_axis',(1.,0.,0.));
#866=DIRECTION('center_axis',(0.,0.,-1.));
#867=DIRECTION('ref_axis',(1.,0.,0.));
#868=DIRECTION('center_axis',(0.,0.,1.));
#869=DIRECTION('ref_axis',(1.,0.,0.));
#870=DIRECTION('center_axis',(0.,0.,-1.));
#871=DIRECTION('ref_axis',(1.,0.,0.));
#872=DIRECTION('',(0.,0.,-1.));
#873=DIRECTION('center_axis',(0.,0.,-1.));
#874=DIRECTION('ref_axis',(1.,0.,0.));
#875=DIRECTION('center_axis',(0.,0.,1.));
#876=DIRECTION('ref_axis',(1.,0.,0.));
#877=DIRECTION('center_axis',(0.,0.,-1.));
#878=DIRECTION('ref_axis',(1.,0.,0.));
#879=DIRECTION('center_axis',(0.,0.,1.));
#880=DIRECTION('ref_axis',(1.,0.,0.));
#881=DIRECTION('center_axis',(0.,0.,-1.));
#882=DIRECTION('ref_axis',(1.,0.,0.));
#883=DIRECTION('',(0.,0.,-1.));
#884=DIRECTION('center_axis',(0.,0.,-1.));
#885=DIRECTION('ref_axis',(1.,0.,0.));
#886=DIRECTION('center_axis',(0.,0.,1.));
#887=DIRECTION('ref_axis',(1.,0.,0.));
#888=DIRECTION('center_axis',(0.,0.,-1.));
#889=DIRECTION('ref_axis',(1.,0.,0.));
#890=DIRECTION('center_axis',(0.,0.,1.));
#891=DIRECTION('ref_axis',(1.,0.,0.));
#892=DIRECTION('center_axis',(0.,0.,-1.));
#893=DIRECTION('ref_axis',(1.,0.,0.));
#894=DIRECTION('',(0.,0.,-1.));
#895=DIRECTION('center_axis',(0.,0.,-1.));
#896=DIRECTION('ref_axis',(1.,0.,0.));
#897=DIRECTION('center_axis',(0.,0.,1.));
#898=DIRECTION('ref_axis',(1.,0.,0.));
#899=DIRECTION('center_axis',(0.,0.,-1.));
#900=DIRECTION('ref_axis',(1.,0.,0.));
#901=DIRECTION('center_axis',(0.,0.,1.));
#902=DIRECTION('ref_axis',(1.,0.,0.));
#903=DIRECTION('center_axis',(0.,0.,-1.));
#904=DIRECTION('ref_axis',(1.,0.,0.));
#905=DIRECTION('',(0.,0.,-1.));
#906=DIRECTION('center_axis',(0.,0.,-1.));
#907=DIRECTION('ref_axis',(1.,0.,0.));
#908=DIRECTION('center_axis',(0.,0.,1.));
#909=DIRECTION('ref_axis',(1.,0.,0.));
#910=DIRECTION('center_axis',(0.,0.,-1.));
#911=DIRECTION('ref_axis',(1.,0.,0.));
#912=DIRECTION('center_axis',(0.,0.,1.));
#913=DIRECTION('ref_axis',(1.,0.,0.));
#914=DIRECTION('center_axis',(0.,0.,-1.));
#915=DIRECTION('ref_axis',(1.,0.,0.));
#916=DIRECTION('',(0.,0.,-1.));
#917=DIRECTION('center_axis',(0.,0.,1.));
#918=DIRECTION('ref_axis',(1.,0.,0.));
#919=DIRECTION('center_axis',(0.,0.,-1.));
#920=DIRECTION('ref_axis',(1.,0.,0.));
#921=DIRECTION('',(0.,0.,-1.));
#922=DIRECTION('center_axis',(0.,0.,1.));
#923=DIRECTION('ref_axis',(1.,0.,0.));
#924=DIRECTION('center_axis',(0.,0.,-1.));
#925=DIRECTION('ref_axis',(1.,0.,0.));
#926=DIRECTION('',(0.,0.,-1.));
#927=DIRECTION('center_axis',(0.,0.,1.));
#928=DIRECTION('ref_axis',(1.,0.,0.));
#929=DIRECTION('center_axis',(0.,0.,-1.));
#930=DIRECTION('ref_axis',(1.,0.,0.));
#931=DIRECTION('',(0.,0.,-1.));
#932=DIRECTION('center_axis',(0.,0.,1.));
#933=DIRECTION('ref_axis',(1.,0.,0.));
#934=DIRECTION('center_axis',(0.,0.,-1.));
#935=DIRECTION('ref_axis',(1.,0.,0.));
#936=DIRECTION('',(0.,0.,-1.));
#937=DIRECTION('center_axis',(0.,0.,1.));
#938=DIRECTION('ref_axis',(1.,0.,0.));
#939=DIRECTION('center_axis',(0.,0.,-1.));
#940=DIRECTION('ref_axis',(1.,0.,0.));
#941=DIRECTION('center_axis',(0.,0.,1.));
#942=DIRECTION('ref_axis',(1.,0.,0.));
#943=DIRECTION('center_axis',(0.,0.,1.));
#944=DIRECTION('ref_axis',(1.,0.,0.));
#945=DIRECTION('',(0.,0.,-1.));
#946=DIRECTION('center_axis',(0.,0.,-1.));
#947=DIRECTION('ref_axis',(1.,0.,0.));
#948=DIRECTION('center_axis',(0.,0.,1.));
#949=DIRECTION('ref_axis',(1.,0.,0.));
#950=DIRECTION('center_axis',(0.,0.,-1.));
#951=DIRECTION('ref_axis',(1.,0.,0.));
#952=DIRECTION('',(0.,0.,-1.));
#953=DIRECTION('center_axis',(0.,0.,1.));
#954=DIRECTION('ref_axis',(1.,0.,0.));
#955=DIRECTION('center_axis',(0.,0.,1.));
#956=DIRECTION('ref_axis',(1.,0.,0.));
#957=DIRECTION('center_axis',(0.,0.,-1.));
#958=DIRECTION('ref_axis',(1.,0.,0.));
#959=DIRECTION('',(0.,0.,-1.));
#960=DIRECTION('center_axis',(0.,0.,1.));
#961=DIRECTION('ref_axis',(1.,0.,0.));
#962=DIRECTION('center_axis',(0.,0.,-1.));
#963=DIRECTION('ref_axis',(1.,0.,0.));
#964=DIRECTION('',(0.,0.,-1.));
#965=DIRECTION('center_axis',(0.,0.,1.));
#966=DIRECTION('ref_axis',(1.,0.,0.));
#967=DIRECTION('center_axis',(0.,0.,-1.));
#968=DIRECTION('ref_axis',(1.,0.,0.));
#969=DIRECTION('',(0.,0.,-1.));
#970=DIRECTION('center_axis',(0.,0.,1.));
#971=DIRECTION('ref_axis',(1.,0.,0.));
#972=DIRECTION('center_axis',(0.,0.,-1.));
#973=DIRECTION('ref_axis',(1.,0.,0.));
#974=DIRECTION('',(0.,0.,-1.));
#975=DIRECTION('center_axis',(-1.,-1.11022302462516E-16,0.));
#976=DIRECTION('ref_axis',(1.11022302462516E-16,-1.,0.));
#977=DIRECTION('',(1.11022302462516E-16,-1.,0.));
#978=DIRECTION('',(0.,0.,1.));
#979=DIRECTION('',(1.11022302462516E-16,-1.,0.));
#980=DIRECTION('',(0.,0.,1.));
#981=DIRECTION('center_axis',(0.,0.,1.));
#982=DIRECTION('ref_axis',(-1.2490009027033E-15,1.,0.));
#983=DIRECTION('center_axis',(0.,0.,1.));
#984=DIRECTION('ref_axis',(-1.2490009027033E-15,1.,0.));
#985=DIRECTION('center_axis',(0.,0.,1.));
#986=DIRECTION('ref_axis',(-1.2490009027033E-15,1.,0.));
#987=DIRECTION('',(0.,0.,1.));
#988=DIRECTION('center_axis',(0.,1.,0.));
#989=DIRECTION('ref_axis',(-1.,0.,0.));
#990=DIRECTION('',(-1.,0.,0.));
#991=DIRECTION('',(-1.,0.,0.));
#992=DIRECTION('',(0.,0.,1.));
#993=DIRECTION('center_axis',(0.,0.,1.));
#994=DIRECTION('ref_axis',(1.,1.11022302462516E-15,0.));
#995=DIRECTION('center_axis',(0.,0.,1.));
#996=DIRECTION('ref_axis',(1.,1.11022302462516E-15,0.));
#997=DIRECTION('center_axis',(0.,0.,1.));
#998=DIRECTION('ref_axis',(1.,1.11022302462516E-15,0.));
#999=DIRECTION('',(0.,0.,1.));
#1000=DIRECTION('center_axis',(1.,0.,0.));
#1001=DIRECTION('ref_axis',(0.,1.,0.));
#1002=DIRECTION('',(0.,1.,0.));
#1003=DIRECTION('',(0.,1.,0.));
#1004=DIRECTION('',(0.,0.,1.));
#1005=DIRECTION('center_axis',(0.,0.,1.));
#1006=DIRECTION('ref_axis',(1.11022302462516E-15,-1.,0.));
#1007=DIRECTION('center_axis',(0.,0.,1.));
#1008=DIRECTION('ref_axis',(1.11022302462516E-15,-1.,0.));
#1009=DIRECTION('center_axis',(0.,0.,1.));
#1010=DIRECTION('ref_axis',(1.11022302462516E-15,-1.,0.));
#1011=DIRECTION('',(0.,0.,1.));
#1012=DIRECTION('center_axis',(0.,-1.,0.));
#1013=DIRECTION('ref_axis',(1.,0.,0.));
#1014=DIRECTION('',(1.,0.,0.));
#1015=DIRECTION('',(1.,0.,0.));
#1016=DIRECTION('',(0.,0.,1.));
#1017=DIRECTION('center_axis',(0.,0.,1.));
#1018=DIRECTION('ref_axis',(-1.,2.77555756156289E-16,0.));
#1019=DIRECTION('center_axis',(0.,0.,1.));
#1020=DIRECTION('ref_axis',(-1.,2.77555756156289E-16,0.));
#1021=DIRECTION('center_axis',(0.,0.,1.));
#1022=DIRECTION('ref_axis',(-1.,2.77555756156289E-16,0.));
#1023=DIRECTION('center_axis',(0.,0.,1.));
#1024=DIRECTION('ref_axis',(1.,0.,0.));
#1025=DIRECTION('center_axis',(0.,0.,1.));
#1026=DIRECTION('ref_axis',(1.,0.,0.));
#1027=CARTESIAN_POINT('',(0.,0.,0.));
#1028=CARTESIAN_POINT('Origin',(4.,4.,0.));
#1029=CARTESIAN_POINT('',(0.999999999999998,5.113552872566,0.));
#1030=CARTESIAN_POINT('',(5.11355287256601,1.,0.));
#1031=CARTESIAN_POINT('Origin',(4.,4.,0.));
#1032=CARTESIAN_POINT('',(0.999999999999996,5.113552872566,1.));
#1033=CARTESIAN_POINT('',(0.999999999999998,5.113552872566,0.));
#1034=CARTESIAN_POINT('',(5.11355287256601,1.,1.));
#1035=CARTESIAN_POINT('Origin',(4.,4.,1.));
#1036=CARTESIAN_POINT('',(5.11355287256601,1.,0.));
#1037=CARTESIAN_POINT('Origin',(0.999999999999998,32.886447127434,0.));
#1038=CARTESIAN_POINT('',(0.999999999999998,32.886447127434,0.));
#1039=CARTESIAN_POINT('',(0.999999999999999,25.943223563717,0.));
#1040=CARTESIAN_POINT('',(0.999999999999996,32.886447127434,1.));
#1041=CARTESIAN_POINT('',(0.999999999999998,32.886447127434,0.));
#1042=CARTESIAN_POINT('',(0.999999999999998,32.886447127434,1.));
#1043=CARTESIAN_POINT('Origin',(4.,34.,0.));
#1044=CARTESIAN_POINT('',(5.113552872566,37.,0.));
#1045=CARTESIAN_POINT('Origin',(4.,34.,0.));
#1046=CARTESIAN_POINT('',(5.113552872566,37.,1.));
#1047=CARTESIAN_POINT('',(5.113552872566,37.,0.));
#1048=CARTESIAN_POINT('Origin',(4.,34.,1.));
#1049=CARTESIAN_POINT('Origin',(28.586447127434,37.,0.));
#1050=CARTESIAN_POINT('',(28.586447127434,37.,0.));
#1051=CARTESIAN_POINT('',(22.718223563717,37.,0.));
#1052=CARTESIAN_POINT('',(28.586447127434,37.,1.));
#1053=CARTESIAN_POINT('',(28.586447127434,37.,0.));
#1054=CARTESIAN_POINT('',(28.586447127434,37.,1.));
#1055=CARTESIAN_POINT('Origin',(29.7,34.,0.));
#1056=CARTESIAN_POINT('',(32.7,32.886447127434,0.));
#1057=CARTESIAN_POINT('Origin',(29.7,34.,0.));
#1058=CARTESIAN_POINT('',(32.7,32.886447127434,1.));
#1059=CARTESIAN_POINT('',(32.7,32.886447127434,0.));
#1060=CARTESIAN_POINT('Origin',(29.7,34.,1.));
#1061=CARTESIAN_POINT('Origin',(32.7,5.11355287256601,0.));
#1062=CARTESIAN_POINT('',(32.7,5.11355287256601,0.));
#1063=CARTESIAN_POINT('',(32.7,12.056776436283,0.));
#1064=CARTESIAN_POINT('',(32.7,5.11355287256601,1.));
#1065=CARTESIAN_POINT('',(32.7,5.11355287256601,0.));
#1066=CARTESIAN_POINT('',(32.7,32.886447127434,1.));
#1067=CARTESIAN_POINT('Origin',(29.7,4.,0.));
#1068=CARTESIAN_POINT('',(28.586447127434,1.,0.));
#1069=CARTESIAN_POINT('Origin',(29.7,4.,0.));
#1070=CARTESIAN_POINT('',(28.586447127434,0.999999999999999,1.));
#1071=CARTESIAN_POINT('',(28.586447127434,1.,0.));
#1072=CARTESIAN_POINT('Origin',(29.7,4.,1.));
#1073=CARTESIAN_POINT('Origin',(5.11355287256601,1.,0.));
#1074=CARTESIAN_POINT('',(10.981776436283,0.999999999999999,0.));
#1075=CARTESIAN_POINT('',(28.586447127434,1.,1.));
#1076=CARTESIAN_POINT('Origin',(16.85,19.,1.));
#1077=CARTESIAN_POINT('',(23.0000002533197,14.6783325098237,1.));
#1078=CARTESIAN_POINT('Origin',(24.1000002533197,14.6783325098237,1.));
#1079=CARTESIAN_POINT('',(14.0000002533197,14.7,1.));
#1080=CARTESIAN_POINT('Origin',(17.0000002533197,14.7,1.));
#1081=CARTESIAN_POINT('',(8.80000025331974,14.7216674901763,1.));
#1082=CARTESIAN_POINT('Origin',(9.90000025331974,14.7216674901763,1.));
#1083=CARTESIAN_POINT('',(15.9216677434961,21.8,1.));
#1084=CARTESIAN_POINT('Origin',(17.0216677434961,21.8,1.));
#1085=CARTESIAN_POINT('',(15.8783327631434,7.6,1.));
#1086=CARTESIAN_POINT('Origin',(16.9783327631434,7.6,1.));
#1087=CARTESIAN_POINT('Origin',(4.,34.,0.));
#1088=CARTESIAN_POINT('',(3.,34.,1.));
#1089=CARTESIAN_POINT('Origin',(4.,34.,1.));
#1090=CARTESIAN_POINT('',(3.,34.,0.));
#1091=CARTESIAN_POINT('',(3.,34.,0.));
#1092=CARTESIAN_POINT('Origin',(4.,34.,0.));
#1093=CARTESIAN_POINT('Origin',(4.,34.,1.));
#1094=CARTESIAN_POINT('',(2.2,34.,1.));
#1095=CARTESIAN_POINT('Origin',(4.,34.,1.));
#1096=CARTESIAN_POINT('Origin',(4.,4.,0.));
#1097=CARTESIAN_POINT('',(3.,4.,1.));
#1098=CARTESIAN_POINT('Origin',(4.,4.,1.));
#1099=CARTESIAN_POINT('',(3.,4.,0.));
#1100=CARTESIAN_POINT('',(3.,4.,0.));
#1101=CARTESIAN_POINT('Origin',(4.,4.,0.));
#1102=CARTESIAN_POINT('Origin',(4.,4.,1.));
#1103=CARTESIAN_POINT('',(2.2,4.,1.));
#1104=CARTESIAN_POINT('Origin',(4.,4.,1.));
#1105=CARTESIAN_POINT('Origin',(29.7,34.,0.));
#1106=CARTESIAN_POINT('',(28.7,34.,1.));
#1107=CARTESIAN_POINT('Origin',(29.7,34.,1.));
#1108=CARTESIAN_POINT('',(28.7,34.,0.));
#1109=CARTESIAN_POINT('',(28.7,34.,0.));
#1110=CARTESIAN_POINT('Origin',(29.7,34.,0.));
#1111=CARTESIAN_POINT('Origin',(29.7,34.,1.));
#1112=CARTESIAN_POINT('',(27.9,34.,1.));
#1113=CARTESIAN_POINT('Origin',(29.7,34.,1.));
#1114=CARTESIAN_POINT('Origin',(29.7,4.,0.));
#1115=CARTESIAN_POINT('',(28.7,4.,1.));
#1116=CARTESIAN_POINT('Origin',(29.7,4.,1.));
#1117=CARTESIAN_POINT('',(28.7,4.,0.));
#1118=CARTESIAN_POINT('',(28.7,4.,0.));
#1119=CARTESIAN_POINT('Origin',(29.7,4.,0.));
#1120=CARTESIAN_POINT('Origin',(29.7,4.,1.));
#1121=CARTESIAN_POINT('',(27.9,4.,1.));
#1122=CARTESIAN_POINT('Origin',(29.7,4.,1.));
#1123=CARTESIAN_POINT('Origin',(17.0216677434961,21.8,0.));
#1124=CARTESIAN_POINT('',(15.9216677434961,21.8,3.));
#1125=CARTESIAN_POINT('Origin',(17.0216677434961,21.8,3.));
#1126=CARTESIAN_POINT('',(15.9216677434961,21.8,0.));
#1127=CARTESIAN_POINT('Origin',(9.90000025331974,14.7216674901763,0.));
#1128=CARTESIAN_POINT('',(8.80000025331974,14.7216674901763,3.));
#1129=CARTESIAN_POINT('Origin',(9.90000025331974,14.7216674901763,3.));
#1130=CARTESIAN_POINT('',(8.80000025331974,14.7216674901763,0.));
#1131=CARTESIAN_POINT('Origin',(17.0000002533197,14.7,0.));
#1132=CARTESIAN_POINT('',(14.0000002533197,14.7,3.));
#1133=CARTESIAN_POINT('Origin',(17.0000002533197,14.7,3.));
#1134=CARTESIAN_POINT('',(14.0000002533197,14.7,0.));
#1135=CARTESIAN_POINT('Origin',(24.1000002533197,14.6783325098237,0.));
#1136=CARTESIAN_POINT('',(23.0000002533197,14.6783325098237,3.));
#1137=CARTESIAN_POINT('Origin',(24.1000002533197,14.6783325098237,3.));
#1138=CARTESIAN_POINT('',(23.0000002533197,14.6783325098237,0.));
#1139=CARTESIAN_POINT('Origin',(16.9783327631434,7.6,0.));
#1140=CARTESIAN_POINT('',(15.8783327631434,7.6,3.));
#1141=CARTESIAN_POINT('Origin',(16.9783327631434,7.6,3.));
#1142=CARTESIAN_POINT('',(15.8783327631434,7.6,0.));
#1143=CARTESIAN_POINT('Origin',(17.0000002533197,14.7,3.));
#1144=CARTESIAN_POINT('',(6.00000025331974,14.7,3.));
#1145=CARTESIAN_POINT('Origin',(17.0000002533197,14.7,3.));
#1146=CARTESIAN_POINT('Origin',(17.0000002533197,14.7,0.));
#1147=CARTESIAN_POINT('',(5.00000025331974,14.7,11.));
#1148=CARTESIAN_POINT('Origin',(17.0000002533197,14.7,11.));
#1149=CARTESIAN_POINT('',(5.00000025331974,14.7,3.));
#1150=CARTESIAN_POINT('',(5.00000025331974,14.7,0.));
#1151=CARTESIAN_POINT('Origin',(17.0000002533197,14.7,3.));
#1152=CARTESIAN_POINT('Origin',(17.0000002533197,14.7,0.));
#1153=CARTESIAN_POINT('',(6.00000025331974,14.7,11.));
#1154=CARTESIAN_POINT('Origin',(17.0000002533197,14.7,11.));
#1155=CARTESIAN_POINT('',(6.00000025331974,14.7,0.));
#1156=CARTESIAN_POINT('Origin',(17.0000002533197,14.7,11.));
#1157=CARTESIAN_POINT('Origin',(29.7,34.,0.));
#1158=CARTESIAN_POINT('',(27.9,34.,3.));
#1159=CARTESIAN_POINT('Origin',(29.7,34.,3.));
#1160=CARTESIAN_POINT('',(27.9,34.,0.));
#1161=CARTESIAN_POINT('Origin',(29.7,4.,0.));
#1162=CARTESIAN_POINT('',(27.9,4.,3.));
#1163=CARTESIAN_POINT('Origin',(29.7,4.,3.));
#1164=CARTESIAN_POINT('',(27.9,4.,0.));
#1165=CARTESIAN_POINT('Origin',(4.,34.,0.));
#1166=CARTESIAN_POINT('',(2.2,34.,3.));
#1167=CARTESIAN_POINT('Origin',(4.,34.,3.));
#1168=CARTESIAN_POINT('',(2.2,34.,0.));
#1169=CARTESIAN_POINT('Origin',(4.,4.,0.));
#1170=CARTESIAN_POINT('',(2.2,4.,3.));
#1171=CARTESIAN_POINT('Origin',(4.,4.,3.));
#1172=CARTESIAN_POINT('',(2.2,4.,0.));
#1173=CARTESIAN_POINT('Origin',(-3.88578058618805E-15,34.,0.));
#1174=CARTESIAN_POINT('',(-3.88578058618805E-15,34.,0.));
#1175=CARTESIAN_POINT('',(-5.55111512312578E-16,4.,0.));
#1176=CARTESIAN_POINT('',(-3.88578058618805E-15,34.,0.));
#1177=CARTESIAN_POINT('',(-5.55111512312578E-16,4.,3.));
#1178=CARTESIAN_POINT('',(-5.55111512312578E-16,4.,0.));
#1179=CARTESIAN_POINT('',(-3.88578058618805E-15,34.,3.));
#1180=CARTESIAN_POINT('',(-3.88578058618805E-15,34.,3.));
#1181=CARTESIAN_POINT('',(-3.88578058618805E-15,34.,0.));
#1182=CARTESIAN_POINT('Origin',(4.,34.,0.));
#1183=CARTESIAN_POINT('',(3.99999999999999,38.,0.));
#1184=CARTESIAN_POINT('Origin',(4.,34.,0.));
#1185=CARTESIAN_POINT('',(3.99999999999999,38.,3.));
#1186=CARTESIAN_POINT('Origin',(4.,34.,3.));
#1187=CARTESIAN_POINT('',(3.99999999999999,38.,0.));
#1188=CARTESIAN_POINT('Origin',(29.7,38.,0.));
#1189=CARTESIAN_POINT('',(29.7,38.,0.));
#1190=CARTESIAN_POINT('',(29.7,38.,0.));
#1191=CARTESIAN_POINT('',(29.7,38.,3.));
#1192=CARTESIAN_POINT('',(29.7,38.,3.));
#1193=CARTESIAN_POINT('',(29.7,38.,0.));
#1194=CARTESIAN_POINT('Origin',(29.7,34.,0.));
#1195=CARTESIAN_POINT('',(33.7,34.,0.));
#1196=CARTESIAN_POINT('Origin',(29.7,34.,0.));
#1197=CARTESIAN_POINT('',(33.7,34.,3.));
#1198=CARTESIAN_POINT('Origin',(29.7,34.,3.));
#1199=CARTESIAN_POINT('',(33.7,34.,0.));
#1200=CARTESIAN_POINT('Origin',(33.7,4.,0.));
#1201=CARTESIAN_POINT('',(33.7,4.,0.));
#1202=CARTESIAN_POINT('',(33.7,4.,0.));
#1203=CARTESIAN_POINT('',(33.7,4.,3.));
#1204=CARTESIAN_POINT('',(33.7,4.,3.));
#1205=CARTESIAN_POINT('',(33.7,4.,0.));
#1206=CARTESIAN_POINT('Origin',(29.7,4.,0.));
#1207=CARTESIAN_POINT('',(29.7,0.,0.));
#1208=CARTESIAN_POINT('Origin',(29.7,4.,0.));
#1209=CARTESIAN_POINT('',(29.7,0.,3.));
#1210=CARTESIAN_POINT('Origin',(29.7,4.,3.));
#1211=CARTESIAN_POINT('',(29.7,0.,0.));
#1212=CARTESIAN_POINT('Origin',(4.,0.,0.));
#1213=CARTESIAN_POINT('',(4.,0.,0.));
#1214=CARTESIAN_POINT('',(4.,0.,0.));
#1215=CARTESIAN_POINT('',(4.,0.,3.));
#1216=CARTESIAN_POINT('',(4.,0.,3.));
#1217=CARTESIAN_POINT('',(4.,0.,0.));
#1218=CARTESIAN_POINT('Origin',(4.,4.,0.));
#1219=CARTESIAN_POINT('Origin',(4.,4.,0.));
#1220=CARTESIAN_POINT('Origin',(4.,4.,3.));
#1221=CARTESIAN_POINT('Origin',(16.85,19.,3.));
#1222=CARTESIAN_POINT('Origin',(16.85,19.,0.));
#1223=UNCERTAINTY_MEASURE_WITH_UNIT(LENGTH_MEASURE(0.01),#1227,
'DISTANCE_ACCURACY_VALUE',
'Maximum model space distance between geometric entities at asserted c
onnectivities');
#1224=UNCERTAINTY_MEASURE_WITH_UNIT(LENGTH_MEASURE(0.01),#1227,
'DISTANCE_ACCURACY_VALUE',
'Maximum model space distance between geometric entities at asserted c
onnectivities');
#1225=(
GEOMETRIC_REPRESENTATION_CONTEXT(3)
GLOBAL_UNCERTAINTY_ASSIGNED_CONTEXT((#1223))
GLOBAL_UNIT_ASSIGNED_CONTEXT((#1227,#1229,#1230))
REPRESENTATION_CONTEXT('','3D')
);
#1226=(
GEOMETRIC_REPRESENTATION_CONTEXT(3)
GLOBAL_UNCERTAINTY_ASSIGNED_CONTEXT((#1224))
GLOBAL_UNIT_ASSIGNED_CONTEXT((#1227,#1229,#1230))
REPRESENTATION_CONTEXT('','3D')
);
#1227=(
LENGTH_UNIT()
NAMED_UNIT(*)
SI_UNIT(.MILLI.,.METRE.)
);
#1228=(
LENGTH_UNIT()
NAMED_UNIT(*)
SI_UNIT($,.METRE.)
);
#1229=(
NAMED_UNIT(*)
PLANE_ANGLE_UNIT()
SI_UNIT($,.RADIAN.)
);
#1230=(
NAMED_UNIT(*)
SI_UNIT($,.STERADIAN.)
SOLID_ANGLE_UNIT()
);
#1231=SHAPE_DEFINITION_REPRESENTATION(#1232,#1233);
#1232=PRODUCT_DEFINITION_SHAPE('',$,#1235);
#1233=SHAPE_REPRESENTATION('',(#719),#1225);
#1234=PRODUCT_DEFINITION_CONTEXT('part definition',#1239,'design');
#1235=PRODUCT_DEFINITION('2026-08-26-15-50-39-888','Pan-Tilt Base',#1236,
#1234);
#1236=PRODUCT_DEFINITION_FORMATION('',$,#1241);
#1237=PRODUCT_RELATED_PRODUCT_CATEGORY('Pan-Tilt Base','Pan-Tilt Base',
(#1241));
#1238=APPLICATION_PROTOCOL_DEFINITION('international standard',
'automotive_design',2009,#1239);
#1239=APPLICATION_CONTEXT(
'Core Data for Automotive Mechanical Design Process');
#1240=PRODUCT_CONTEXT('part definition',#1239,'mechanical');
#1241=PRODUCT('2026-08-26-15-50-39-888','Pan-Tilt Base',$,(#1240));
#1242=PRESENTATION_STYLE_ASSIGNMENT((#1243));
#1243=SURFACE_STYLE_USAGE(.BOTH.,#1244);
#1244=SURFACE_SIDE_STYLE('',(#1245));
#1245=SURFACE_STYLE_FILL_AREA(#1246);
#1246=FILL_AREA_STYLE('Steel - Satin',(#1247));
#1247=FILL_AREA_STYLE_COLOUR('Steel - Satin',#1248);
#1248=COLOUR_RGB('Steel - Satin',0.627450980392157,0.627450980392157,0.627450980392157);
ENDSEC;
END-ISO-10303-21;
