ISO-10303-21;
HEADER;
/* Generated by software containing ST-Developer
 * from STEP Tools, Inc. (www.steptools.com) 
 */

FILE_DESCRIPTION(
/* description */ (''),
/* implementation_level */ '2;1');

FILE_NAME(
/* name */ 'Pan-Tilt Domsdlyna.step',
/* time_stamp */ '2026-09-03T12:24:08+03:00',
/* author */ (''),
/* organization */ (''),
/* preprocessor_version */ 'ST-DEVELOPER v20.1',
/* originating_system */ 'Autodesk Translation Framework v15.8.0.0',
/* authorisation */ '');

FILE_SCHEMA (('AUTOMOTIVE_DESIGN { 1 0 10303 214 3 1 1 }'));
ENDSEC;

DATA;
#10=MECHANICAL_DESIGN_GEOMETRIC_PRESENTATION_REPRESENTATION('',(#13),#2202);
#11=SHAPE_REPRESENTATION_RELATIONSHIP('SRR','None',#2209,#12);
#12=ADVANCED_BREP_SHAPE_REPRESENTATION('',(#14),#2201);
#13=STYLED_ITEM('',(#2219),#14);
#14=MANIFOLD_SOLID_BREP('Body1',#1380);
#15=FACE_BOUND('',#162,.T.);
#16=FACE_BOUND('',#163,.T.);
#17=FACE_BOUND('',#165,.T.);
#18=FACE_BOUND('',#166,.T.);
#19=FACE_BOUND('',#167,.T.);
#20=FACE_BOUND('',#185,.T.);
#21=FACE_BOUND('',#216,.T.);
#22=PLANE('',#1397);
#23=PLANE('',#1398);
#24=PLANE('',#1399);
#25=PLANE('',#1402);
#26=PLANE('',#1405);
#27=PLANE('',#1406);
#28=PLANE('',#1407);
#29=PLANE('',#1408);
#30=PLANE('',#1409);
#31=PLANE('',#1410);
#32=PLANE('',#1412);
#33=PLANE('',#1414);
#34=PLANE('',#1415);
#35=PLANE('',#1416);
#36=PLANE('',#1417);
#37=PLANE('',#1418);
#38=PLANE('',#1419);
#39=PLANE('',#1420);
#40=PLANE('',#1421);
#41=PLANE('',#1423);
#42=PLANE('',#1424);
#43=PLANE('',#1425);
#44=PLANE('',#1426);
#45=PLANE('',#1427);
#46=PLANE('',#1428);
#47=PLANE('',#1429);
#48=PLANE('',#1430);
#49=PLANE('',#1431);
#50=PLANE('',#1432);
#51=PLANE('',#1433);
#52=PLANE('',#1434);
#53=PLANE('',#1435);
#54=PLANE('',#1436);
#55=PLANE('',#1437);
#56=PLANE('',#1438);
#57=PLANE('',#1439);
#58=PLANE('',#1440);
#59=PLANE('',#1441);
#60=PLANE('',#1442);
#61=PLANE('',#1443);
#62=PLANE('',#1444);
#63=PLANE('',#1445);
#64=PLANE('',#1446);
#65=PLANE('',#1447);
#66=PLANE('',#1448);
#67=PLANE('',#1449);
#68=PLANE('',#1450);
#69=PLANE('',#1453);
#70=PLANE('',#1454);
#71=PLANE('',#1455);
#72=PLANE('',#1456);
#73=PLANE('',#1457);
#74=PLANE('',#1458);
#75=PLANE('',#1459);
#76=PLANE('',#1460);
#77=PLANE('',#1461);
#78=PLANE('',#1462);
#79=PLANE('',#1463);
#80=PLANE('',#1464);
#81=PLANE('',#1465);
#82=PLANE('',#1466);
#83=PLANE('',#1467);
#84=PLANE('',#1468);
#85=PLANE('',#1469);
#86=PLANE('',#1470);
#87=PLANE('',#1471);
#88=FACE_OUTER_BOUND('',#158,.T.);
#89=FACE_OUTER_BOUND('',#159,.T.);
#90=FACE_OUTER_BOUND('',#160,.T.);
#91=FACE_OUTER_BOUND('',#161,.T.);
#92=FACE_OUTER_BOUND('',#164,.T.);
#93=FACE_OUTER_BOUND('',#168,.T.);
#94=FACE_OUTER_BOUND('',#169,.T.);
#95=FACE_OUTER_BOUND('',#170,.T.);
#96=FACE_OUTER_BOUND('',#171,.T.);
#97=FACE_OUTER_BOUND('',#172,.T.);
#98=FACE_OUTER_BOUND('',#173,.T.);
#99=FACE_OUTER_BOUND('',#174,.T.);
#100=FACE_OUTER_BOUND('',#175,.T.);
#101=FACE_OUTER_BOUND('',#176,.T.);
#102=FACE_OUTER_BOUND('',#177,.T.);
#103=FACE_OUTER_BOUND('',#178,.T.);
#104=FACE_OUTER_BOUND('',#179,.T.);
#105=FACE_OUTER_BOUND('',#180,.T.);
#106=FACE_OUTER_BOUND('',#181,.T.);
#107=FACE_OUTER_BOUND('',#182,.T.);
#108=FACE_OUTER_BOUND('',#183,.T.);
#109=FACE_OUTER_BOUND('',#184,.T.);
#110=FACE_OUTER_BOUND('',#186,.T.);
#111=FACE_OUTER_BOUND('',#187,.T.);
#112=FACE_OUTER_BOUND('',#188,.T.);
#113=FACE_OUTER_BOUND('',#189,.T.);
#114=FACE_OUTER_BOUND('',#190,.T.);
#115=FACE_OUTER_BOUND('',#191,.T.);
#116=FACE_OUTER_BOUND('',#192,.T.);
#117=FACE_OUTER_BOUND('',#193,.T.);
#118=FACE_OUTER_BOUND('',#194,.T.);
#119=FACE_OUTER_BOUND('',#195,.T.);
#120=FACE_OUTER_BOUND('',#196,.T.);
#121=FACE_OUTER_BOUND('',#197,.T.);
#122=FACE_OUTER_BOUND('',#198,.T.);
#123=FACE_OUTER_BOUND('',#199,.T.);
#124=FACE_OUTER_BOUND('',#200,.T.);
#125=FACE_OUTER_BOUND('',#201,.T.);
#126=FACE_OUTER_BOUND('',#202,.T.);
#127=FACE_OUTER_BOUND('',#203,.T.);
#128=FACE_OUTER_BOUND('',#204,.T.);
#129=FACE_OUTER_BOUND('',#205,.T.);
#130=FACE_OUTER_BOUND('',#206,.T.);
#131=FACE_OUTER_BOUND('',#207,.T.);
#132=FACE_OUTER_BOUND('',#208,.T.);
#133=FACE_OUTER_BOUND('',#209,.T.);
#134=FACE_OUTER_BOUND('',#210,.T.);
#135=FACE_OUTER_BOUND('',#211,.T.);
#136=FACE_OUTER_BOUND('',#212,.T.);
#137=FACE_OUTER_BOUND('',#213,.T.);
#138=FACE_OUTER_BOUND('',#214,.T.);
#139=FACE_OUTER_BOUND('',#215,.T.);
#140=FACE_OUTER_BOUND('',#217,.T.);
#141=FACE_OUTER_BOUND('',#218,.T.);
#142=FACE_OUTER_BOUND('',#219,.T.);
#143=FACE_OUTER_BOUND('',#220,.T.);
#144=FACE_OUTER_BOUND('',#221,.T.);
#145=FACE_OUTER_BOUND('',#222,.T.);
#146=FACE_OUTER_BOUND('',#223,.T.);
#147=FACE_OUTER_BOUND('',#224,.T.);
#148=FACE_OUTER_BOUND('',#225,.T.);
#149=FACE_OUTER_BOUND('',#226,.T.);
#150=FACE_OUTER_BOUND('',#227,.T.);
#151=FACE_OUTER_BOUND('',#228,.T.);
#152=FACE_OUTER_BOUND('',#229,.T.);
#153=FACE_OUTER_BOUND('',#230,.T.);
#154=FACE_OUTER_BOUND('',#231,.T.);
#155=FACE_OUTER_BOUND('',#232,.T.);
#156=FACE_OUTER_BOUND('',#233,.T.);
#157=FACE_OUTER_BOUND('',#234,.T.);
#158=EDGE_LOOP('',(#924,#925,#926,#927));
#159=EDGE_LOOP('',(#928,#929,#930,#931,#932,#933));
#160=EDGE_LOOP('',(#934,#935,#936,#937));
#161=EDGE_LOOP('',(#938,#939,#940,#941,#942,#943,#944,#945,#946,#947,#948,
#949,#950,#951,#952,#953,#954,#955,#956,#957,#958,#959,#960,#961,#962,#963));
#162=EDGE_LOOP('',(#964,#965,#966,#967));
#163=EDGE_LOOP('',(#968,#969,#970,#971));
#164=EDGE_LOOP('',(#972,#973,#974,#975,#976,#977,#978,#979,#980,#981,#982,
#983,#984,#985,#986,#987,#988,#989,#990,#991,#992,#993,#994,#995));
#165=EDGE_LOOP('',(#996,#997,#998,#999));
#166=EDGE_LOOP('',(#1000,#1001,#1002,#1003));
#167=EDGE_LOOP('',(#1004,#1005,#1006,#1007));
#168=EDGE_LOOP('',(#1008,#1009,#1010,#1011));
#169=EDGE_LOOP('',(#1012,#1013,#1014,#1015));
#170=EDGE_LOOP('',(#1016,#1017,#1018,#1019));
#171=EDGE_LOOP('',(#1020,#1021,#1022,#1023));
#172=EDGE_LOOP('',(#1024,#1025,#1026,#1027));
#173=EDGE_LOOP('',(#1028,#1029,#1030,#1031));
#174=EDGE_LOOP('',(#1032,#1033,#1034,#1035));
#175=EDGE_LOOP('',(#1036,#1037,#1038,#1039));
#176=EDGE_LOOP('',(#1040,#1041,#1042,#1043));
#177=EDGE_LOOP('',(#1044,#1045,#1046,#1047,#1048,#1049));
#178=EDGE_LOOP('',(#1050,#1051,#1052,#1053));
#179=EDGE_LOOP('',(#1054,#1055,#1056,#1057,#1058));
#180=EDGE_LOOP('',(#1059,#1060,#1061,#1062));
#181=EDGE_LOOP('',(#1063,#1064,#1065,#1066,#1067));
#182=EDGE_LOOP('',(#1068,#1069,#1070,#1071));
#183=EDGE_LOOP('',(#1072,#1073,#1074,#1075,#1076,#1077));
#184=EDGE_LOOP('',(#1078,#1079,#1080,#1081,#1082,#1083,#1084,#1085,#1086,
#1087));
#185=EDGE_LOOP('',(#1088));
#186=EDGE_LOOP('',(#1089,#1090,#1091,#1092,#1093,#1094));
#187=EDGE_LOOP('',(#1095,#1096,#1097,#1098));
#188=EDGE_LOOP('',(#1099,#1100,#1101,#1102,#1103));
#189=EDGE_LOOP('',(#1104,#1105,#1106,#1107));
#190=EDGE_LOOP('',(#1108,#1109,#1110,#1111,#1112));
#191=EDGE_LOOP('',(#1113,#1114,#1115,#1116));
#192=EDGE_LOOP('',(#1117,#1118,#1119,#1120,#1121));
#193=EDGE_LOOP('',(#1122,#1123,#1124,#1125));
#194=EDGE_LOOP('',(#1126,#1127,#1128,#1129,#1130));
#195=EDGE_LOOP('',(#1131,#1132,#1133,#1134));
#196=EDGE_LOOP('',(#1135,#1136,#1137,#1138));
#197=EDGE_LOOP('',(#1139,#1140,#1141,#1142));
#198=EDGE_LOOP('',(#1143,#1144,#1145,#1146));
#199=EDGE_LOOP('',(#1147,#1148,#1149,#1150));
#200=EDGE_LOOP('',(#1151,#1152,#1153,#1154));
#201=EDGE_LOOP('',(#1155,#1156,#1157,#1158));
#202=EDGE_LOOP('',(#1159,#1160,#1161,#1162));
#203=EDGE_LOOP('',(#1163,#1164,#1165,#1166));
#204=EDGE_LOOP('',(#1167,#1168,#1169,#1170));
#205=EDGE_LOOP('',(#1171,#1172,#1173,#1174,#1175));
#206=EDGE_LOOP('',(#1176,#1177,#1178,#1179,#1180,#1181,#1182));
#207=EDGE_LOOP('',(#1183,#1184,#1185,#1186));
#208=EDGE_LOOP('',(#1187,#1188,#1189,#1190,#1191));
#209=EDGE_LOOP('',(#1192,#1193,#1194,#1195));
#210=EDGE_LOOP('',(#1196,#1197,#1198,#1199));
#211=EDGE_LOOP('',(#1200,#1201,#1202));
#212=EDGE_LOOP('',(#1203,#1204,#1205,#1206));
#213=EDGE_LOOP('',(#1207,#1208,#1209,#1210));
#214=EDGE_LOOP('',(#1211,#1212,#1213,#1214));
#215=EDGE_LOOP('',(#1215,#1216,#1217,#1218));
#216=EDGE_LOOP('',(#1219));
#217=EDGE_LOOP('',(#1220,#1221,#1222,#1223,#1224,#1225,#1226));
#218=EDGE_LOOP('',(#1227,#1228,#1229,#1230));
#219=EDGE_LOOP('',(#1231,#1232,#1233,#1234,#1235,#1236,#1237));
#220=EDGE_LOOP('',(#1238,#1239,#1240,#1241));
#221=EDGE_LOOP('',(#1242,#1243,#1244,#1245,#1246,#1247,#1248));
#222=EDGE_LOOP('',(#1249,#1250,#1251,#1252,#1253,#1254,#1255));
#223=EDGE_LOOP('',(#1256,#1257,#1258,#1259));
#224=EDGE_LOOP('',(#1260,#1261,#1262,#1263));
#225=EDGE_LOOP('',(#1264,#1265,#1266,#1267));
#226=EDGE_LOOP('',(#1268,#1269,#1270,#1271));
#227=EDGE_LOOP('',(#1272,#1273,#1274,#1275));
#228=EDGE_LOOP('',(#1276,#1277,#1278,#1279));
#229=EDGE_LOOP('',(#1280,#1281,#1282,#1283,#1284));
#230=EDGE_LOOP('',(#1285,#1286,#1287,#1288,#1289));
#231=EDGE_LOOP('',(#1290,#1291,#1292,#1293));
#232=EDGE_LOOP('',(#1294,#1295,#1296,#1297));
#233=EDGE_LOOP('',(#1298,#1299,#1300,#1301));
#234=EDGE_LOOP('',(#1302,#1303,#1304,#1305));
#235=LINE('',#1818,#418);
#236=LINE('',#1823,#419);
#237=LINE('',#1825,#420);
#238=LINE('',#1827,#421);
#239=LINE('',#1829,#422);
#240=LINE('',#1831,#423);
#241=LINE('',#1832,#424);
#242=LINE('',#1835,#425);
#243=LINE('',#1837,#426);
#244=LINE('',#1838,#427);
#245=LINE('',#1841,#428);
#246=LINE('',#1843,#429);
#247=LINE('',#1845,#430);
#248=LINE('',#1847,#431);
#249=LINE('',#1849,#432);
#250=LINE('',#1851,#433);
#251=LINE('',#1853,#434);
#252=LINE('',#1855,#435);
#253=LINE('',#1857,#436);
#254=LINE('',#1859,#437);
#255=LINE('',#1861,#438);
#256=LINE('',#1863,#439);
#257=LINE('',#1865,#440);
#258=LINE('',#1869,#441);
#259=LINE('',#1873,#442);
#260=LINE('',#1875,#443);
#261=LINE('',#1877,#444);
#262=LINE('',#1879,#445);
#263=LINE('',#1881,#446);
#264=LINE('',#1883,#447);
#265=LINE('',#1885,#448);
#266=LINE('',#1887,#449);
#267=LINE('',#1888,#450);
#268=LINE('',#1891,#451);
#269=LINE('',#1893,#452);
#270=LINE('',#1895,#453);
#271=LINE('',#1896,#454);
#272=LINE('',#1899,#455);
#273=LINE('',#1901,#456);
#274=LINE('',#1903,#457);
#275=LINE('',#1904,#458);
#276=LINE('',#1908,#459);
#277=LINE('',#1909,#460);
#278=LINE('',#1911,#461);
#279=LINE('',#1913,#462);
#280=LINE('',#1915,#463);
#281=LINE('',#1917,#464);
#282=LINE('',#1918,#465);
#283=LINE('',#1920,#466);
#284=LINE('',#1922,#467);
#285=LINE('',#1924,#468);
#286=LINE('',#1928,#469);
#287=LINE('',#1932,#470);
#288=LINE('',#1934,#471);
#289=LINE('',#1936,#472);
#290=LINE('',#1938,#473);
#291=LINE('',#1940,#474);
#292=LINE('',#1942,#475);
#293=LINE('',#1944,#476);
#294=LINE('',#1946,#477);
#295=LINE('',#1947,#478);
#296=LINE('',#1950,#479);
#297=LINE('',#1952,#480);
#298=LINE('',#1954,#481);
#299=LINE('',#1955,#482);
#300=LINE('',#1958,#483);
#301=LINE('',#1960,#484);
#302=LINE('',#1962,#485);
#303=LINE('',#1963,#486);
#304=LINE('',#1966,#487);
#305=LINE('',#1968,#488);
#306=LINE('',#1970,#489);
#307=LINE('',#1971,#490);
#308=LINE('',#1973,#491);
#309=LINE('',#1974,#492);
#310=LINE('',#1976,#493);
#311=LINE('',#1978,#494);
#312=LINE('',#1980,#495);
#313=LINE('',#1981,#496);
#314=LINE('',#1983,#497);
#315=LINE('',#1985,#498);
#316=LINE('',#1987,#499);
#317=LINE('',#1988,#500);
#318=LINE('',#1990,#501);
#319=LINE('',#1992,#502);
#320=LINE('',#1994,#503);
#321=LINE('',#1995,#504);
#322=LINE('',#1997,#505);
#323=LINE('',#2002,#506);
#324=LINE('',#2003,#507);
#325=LINE('',#2004,#508);
#326=LINE('',#2006,#509);
#327=LINE('',#2007,#510);
#328=LINE('',#2009,#511);
#329=LINE('',#2013,#512);
#330=LINE('',#2014,#513);
#331=LINE('',#2015,#514);
#332=LINE('',#2018,#515);
#333=LINE('',#2021,#516);
#334=LINE('',#2022,#517);
#335=LINE('',#2025,#518);
#336=LINE('',#2027,#519);
#337=LINE('',#2028,#520);
#338=LINE('',#2031,#521);
#339=LINE('',#2033,#522);
#340=LINE('',#2034,#523);
#341=LINE('',#2037,#524);
#342=LINE('',#2039,#525);
#343=LINE('',#2040,#526);
#344=LINE('',#2043,#527);
#345=LINE('',#2044,#528);
#346=LINE('',#2047,#529);
#347=LINE('',#2048,#530);
#348=LINE('',#2050,#531);
#349=LINE('',#2053,#532);
#350=LINE('',#2055,#533);
#351=LINE('',#2057,#534);
#352=LINE('',#2058,#535);
#353=LINE('',#2061,#536);
#354=LINE('',#2062,#537);
#355=LINE('',#2066,#538);
#356=LINE('',#2067,#539);
#357=LINE('',#2068,#540);
#358=LINE('',#2070,#541);
#359=LINE('',#2072,#542);
#360=LINE('',#2077,#543);
#361=LINE('',#2079,#544);
#362=LINE('',#2080,#545);
#363=LINE('',#2083,#546);
#364=LINE('',#2084,#547);
#365=LINE('',#2087,#548);
#366=LINE('',#2088,#549);
#367=LINE('',#2090,#550);
#368=LINE('',#2094,#551);
#369=LINE('',#2096,#552);
#370=LINE('',#2097,#553);
#371=LINE('',#2100,#554);
#372=LINE('',#2102,#555);
#373=LINE('',#2104,#556);
#374=LINE('',#2105,#557);
#375=LINE('',#2108,#558);
#376=LINE('',#2109,#559);
#377=LINE('',#2111,#560);
#378=LINE('',#2112,#561);
#379=LINE('',#2115,#562);
#380=LINE('',#2116,#563);
#381=LINE('',#2118,#564);
#382=LINE('',#2121,#565);
#383=LINE('',#2125,#566);
#384=LINE('',#2126,#567);
#385=LINE('',#2129,#568);
#386=LINE('',#2130,#569);
#387=LINE('',#2136,#570);
#388=LINE('',#2138,#571);
#389=LINE('',#2140,#572);
#390=LINE('',#2142,#573);
#391=LINE('',#2143,#574);
#392=LINE('',#2146,#575);
#393=LINE('',#2148,#576);
#394=LINE('',#2149,#577);
#395=LINE('',#2152,#578);
#396=LINE('',#2154,#579);
#397=LINE('',#2155,#580);
#398=LINE('',#2156,#581);
#399=LINE('',#2158,#582);
#400=LINE('',#2161,#583);
#401=LINE('',#2163,#584);
#402=LINE('',#2165,#585);
#403=LINE('',#2167,#586);
#404=LINE('',#2168,#587);
#405=LINE('',#2171,#588);
#406=LINE('',#2173,#589);
#407=LINE('',#2175,#590);
#408=LINE('',#2177,#591);
#409=LINE('',#2178,#592);
#410=LINE('',#2180,#593);
#411=LINE('',#2181,#594);
#412=LINE('',#2183,#595);
#413=LINE('',#2187,#596);
#414=LINE('',#2189,#597);
#415=LINE('',#2190,#598);
#416=LINE('',#2194,#599);
#417=LINE('',#2197,#600);
#418=VECTOR('',#1478,2.5);
#419=VECTOR('',#1483,1000.);
#420=VECTOR('',#1484,1000.);
#421=VECTOR('',#1485,1000.);
#422=VECTOR('',#1486,1000.);
#423=VECTOR('',#1487,1000.);
#424=VECTOR('',#1488,1000.);
#425=VECTOR('',#1491,1000.);
#426=VECTOR('',#1492,1000.);
#427=VECTOR('',#1493,1000.);
#428=VECTOR('',#1496,1000.);
#429=VECTOR('',#1497,1000.);
#430=VECTOR('',#1498,1000.);
#431=VECTOR('',#1499,1000.);
#432=VECTOR('',#1500,1000.);
#433=VECTOR('',#1501,1000.);
#434=VECTOR('',#1502,1000.);
#435=VECTOR('',#1503,1000.);
#436=VECTOR('',#1504,1000.);
#437=VECTOR('',#1505,1000.);
#438=VECTOR('',#1506,1000.);
#439=VECTOR('',#1507,1000.);
#440=VECTOR('',#1508,1000.);
#441=VECTOR('',#1511,1000.);
#442=VECTOR('',#1514,1000.);
#443=VECTOR('',#1515,1000.);
#444=VECTOR('',#1516,1000.);
#445=VECTOR('',#1517,1000.);
#446=VECTOR('',#1518,1000.);
#447=VECTOR('',#1519,1000.);
#448=VECTOR('',#1520,1000.);
#449=VECTOR('',#1521,1000.);
#450=VECTOR('',#1522,1000.);
#451=VECTOR('',#1523,1000.);
#452=VECTOR('',#1524,1000.);
#453=VECTOR('',#1525,1000.);
#454=VECTOR('',#1526,1000.);
#455=VECTOR('',#1527,1000.);
#456=VECTOR('',#1528,1000.);
#457=VECTOR('',#1529,1000.);
#458=VECTOR('',#1530,1000.);
#459=VECTOR('',#1533,1000.);
#460=VECTOR('',#1534,1000.);
#461=VECTOR('',#1535,1000.);
#462=VECTOR('',#1536,1000.);
#463=VECTOR('',#1537,1000.);
#464=VECTOR('',#1538,1000.);
#465=VECTOR('',#1539,1000.);
#466=VECTOR('',#1540,1000.);
#467=VECTOR('',#1541,1000.);
#468=VECTOR('',#1542,1000.);
#469=VECTOR('',#1545,1000.);
#470=VECTOR('',#1548,1000.);
#471=VECTOR('',#1549,1000.);
#472=VECTOR('',#1550,1000.);
#473=VECTOR('',#1551,1000.);
#474=VECTOR('',#1552,1000.);
#475=VECTOR('',#1553,1000.);
#476=VECTOR('',#1554,1000.);
#477=VECTOR('',#1555,1000.);
#478=VECTOR('',#1556,1000.);
#479=VECTOR('',#1557,1000.);
#480=VECTOR('',#1558,1000.);
#481=VECTOR('',#1559,1000.);
#482=VECTOR('',#1560,1000.);
#483=VECTOR('',#1561,1000.);
#484=VECTOR('',#1562,1000.);
#485=VECTOR('',#1563,1000.);
#486=VECTOR('',#1564,1000.);
#487=VECTOR('',#1565,1000.);
#488=VECTOR('',#1566,1000.);
#489=VECTOR('',#1567,1000.);
#490=VECTOR('',#1568,1000.);
#491=VECTOR('',#1571,1000.);
#492=VECTOR('',#1572,1000.);
#493=VECTOR('',#1575,1000.);
#494=VECTOR('',#1578,1000.);
#495=VECTOR('',#1581,1000.);
#496=VECTOR('',#1582,1000.);
#497=VECTOR('',#1585,1000.);
#498=VECTOR('',#1588,1000.);
#499=VECTOR('',#1591,1000.);
#500=VECTOR('',#1592,1000.);
#501=VECTOR('',#1595,1000.);
#502=VECTOR('',#1598,1000.);
#503=VECTOR('',#1601,1000.);
#504=VECTOR('',#1602,1000.);
#505=VECTOR('',#1605,1000.);
#506=VECTOR('',#1610,1000.);
#507=VECTOR('',#1611,1000.);
#508=VECTOR('',#1612,1000.);
#509=VECTOR('',#1615,1000.);
#510=VECTOR('',#1616,1000.);
#511=VECTOR('',#1619,1000.);
#512=VECTOR('',#1622,1000.);
#513=VECTOR('',#1623,1000.);
#514=VECTOR('',#1624,1000.);
#515=VECTOR('',#1627,1000.);
#516=VECTOR('',#1630,1000.);
#517=VECTOR('',#1631,1000.);
#518=VECTOR('',#1634,1000.);
#519=VECTOR('',#1635,1000.);
#520=VECTOR('',#1636,1000.);
#521=VECTOR('',#1639,1000.);
#522=VECTOR('',#1640,1000.);
#523=VECTOR('',#1641,1000.);
#524=VECTOR('',#1644,1000.);
#525=VECTOR('',#1645,1000.);
#526=VECTOR('',#1646,1000.);
#527=VECTOR('',#1649,1000.);
#528=VECTOR('',#1650,1000.);
#529=VECTOR('',#1653,1000.);
#530=VECTOR('',#1654,1000.);
#531=VECTOR('',#1657,1000.);
#532=VECTOR('',#1660,1000.);
#533=VECTOR('',#1661,1000.);
#534=VECTOR('',#1662,1000.);
#535=VECTOR('',#1663,1000.);
#536=VECTOR('',#1666,1000.);
#537=VECTOR('',#1667,1000.);
#538=VECTOR('',#1670,1000.);
#539=VECTOR('',#1671,1000.);
#540=VECTOR('',#1672,1000.);
#541=VECTOR('',#1675,1000.);
#542=VECTOR('',#1678,1000.);
#543=VECTOR('',#1685,1000.);
#544=VECTOR('',#1686,1000.);
#545=VECTOR('',#1687,1000.);
#546=VECTOR('',#1690,1000.);
#547=VECTOR('',#1691,1000.);
#548=VECTOR('',#1694,1000.);
#549=VECTOR('',#1695,1000.);
#550=VECTOR('',#1698,1000.);
#551=VECTOR('',#1703,1000.);
#552=VECTOR('',#1704,1000.);
#553=VECTOR('',#1705,1000.);
#554=VECTOR('',#1708,1000.);
#555=VECTOR('',#1709,1000.);
#556=VECTOR('',#1710,1000.);
#557=VECTOR('',#1711,1000.);
#558=VECTOR('',#1714,1000.);
#559=VECTOR('',#1715,1000.);
#560=VECTOR('',#1716,1000.);
#561=VECTOR('',#1717,1000.);
#562=VECTOR('',#1720,1000.);
#563=VECTOR('',#1721,1000.);
#564=VECTOR('',#1724,1000.);
#565=VECTOR('',#1729,1000.);
#566=VECTOR('',#1734,1000.);
#567=VECTOR('',#1735,1000.);
#568=VECTOR('',#1738,1000.);
#569=VECTOR('',#1739,1000.);
#570=VECTOR('',#1748,1000.);
#571=VECTOR('',#1749,1000.);
#572=VECTOR('',#1750,1000.);
#573=VECTOR('',#1751,1000.);
#574=VECTOR('',#1752,1000.);
#575=VECTOR('',#1755,1000.);
#576=VECTOR('',#1756,1000.);
#577=VECTOR('',#1757,1000.);
#578=VECTOR('',#1760,1000.);
#579=VECTOR('',#1761,1000.);
#580=VECTOR('',#1762,1000.);
#581=VECTOR('',#1763,1000.);
#582=VECTOR('',#1766,1000.);
#583=VECTOR('',#1769,1000.);
#584=VECTOR('',#1770,1000.);
#585=VECTOR('',#1771,1000.);
#586=VECTOR('',#1772,1000.);
#587=VECTOR('',#1773,1000.);
#588=VECTOR('',#1776,1000.);
#589=VECTOR('',#1777,1000.);
#590=VECTOR('',#1778,1000.);
#591=VECTOR('',#1779,1000.);
#592=VECTOR('',#1780,1000.);
#593=VECTOR('',#1783,1000.);
#594=VECTOR('',#1784,1000.);
#595=VECTOR('',#1787,1000.);
#596=VECTOR('',#1794,1000.);
#597=VECTOR('',#1797,1000.);
#598=VECTOR('',#1798,1000.);
#599=VECTOR('',#1805,1000.);
#600=VECTOR('',#1810,1000.);
#601=CIRCLE('',#1395,2.5);
#602=CIRCLE('',#1396,2.5);
#603=CIRCLE('',#1400,8.5);
#604=CIRCLE('',#1401,8.5);
#605=CIRCLE('',#1403,8.5);
#606=CIRCLE('',#1404,8.5);
#607=CIRCLE('',#1422,4.5);
#608=CIRCLE('',#1452,4.5);
#609=VERTEX_POINT('',#1815);
#610=VERTEX_POINT('',#1817);
#611=VERTEX_POINT('',#1821);
#612=VERTEX_POINT('',#1822);
#613=VERTEX_POINT('',#1824);
#614=VERTEX_POINT('',#1826);
#615=VERTEX_POINT('',#1828);
#616=VERTEX_POINT('',#1830);
#617=VERTEX_POINT('',#1834);
#618=VERTEX_POINT('',#1836);
#619=VERTEX_POINT('',#1840);
#620=VERTEX_POINT('',#1842);
#621=VERTEX_POINT('',#1844);
#622=VERTEX_POINT('',#1846);
#623=VERTEX_POINT('',#1848);
#624=VERTEX_POINT('',#1850);
#625=VERTEX_POINT('',#1852);
#626=VERTEX_POINT('',#1854);
#627=VERTEX_POINT('',#1856);
#628=VERTEX_POINT('',#1858);
#629=VERTEX_POINT('',#1860);
#630=VERTEX_POINT('',#1862);
#631=VERTEX_POINT('',#1864);
#632=VERTEX_POINT('',#1866);
#633=VERTEX_POINT('',#1868);
#634=VERTEX_POINT('',#1870);
#635=VERTEX_POINT('',#1872);
#636=VERTEX_POINT('',#1874);
#637=VERTEX_POINT('',#1876);
#638=VERTEX_POINT('',#1878);
#639=VERTEX_POINT('',#1880);
#640=VERTEX_POINT('',#1882);
#641=VERTEX_POINT('',#1884);
#642=VERTEX_POINT('',#1886);
#643=VERTEX_POINT('',#1889);
#644=VERTEX_POINT('',#1890);
#645=VERTEX_POINT('',#1892);
#646=VERTEX_POINT('',#1894);
#647=VERTEX_POINT('',#1897);
#648=VERTEX_POINT('',#1898);
#649=VERTEX_POINT('',#1900);
#650=VERTEX_POINT('',#1902);
#651=VERTEX_POINT('',#1906);
#652=VERTEX_POINT('',#1907);
#653=VERTEX_POINT('',#1910);
#654=VERTEX_POINT('',#1912);
#655=VERTEX_POINT('',#1914);
#656=VERTEX_POINT('',#1916);
#657=VERTEX_POINT('',#1919);
#658=VERTEX_POINT('',#1921);
#659=VERTEX_POINT('',#1923);
#660=VERTEX_POINT('',#1925);
#661=VERTEX_POINT('',#1927);
#662=VERTEX_POINT('',#1929);
#663=VERTEX_POINT('',#1931);
#664=VERTEX_POINT('',#1933);
#665=VERTEX_POINT('',#1935);
#666=VERTEX_POINT('',#1937);
#667=VERTEX_POINT('',#1939);
#668=VERTEX_POINT('',#1941);
#669=VERTEX_POINT('',#1943);
#670=VERTEX_POINT('',#1945);
#671=VERTEX_POINT('',#1948);
#672=VERTEX_POINT('',#1949);
#673=VERTEX_POINT('',#1951);
#674=VERTEX_POINT('',#1953);
#675=VERTEX_POINT('',#1956);
#676=VERTEX_POINT('',#1957);
#677=VERTEX_POINT('',#1959);
#678=VERTEX_POINT('',#1961);
#679=VERTEX_POINT('',#1964);
#680=VERTEX_POINT('',#1965);
#681=VERTEX_POINT('',#1967);
#682=VERTEX_POINT('',#1969);
#683=VERTEX_POINT('',#2000);
#684=VERTEX_POINT('',#2001);
#685=VERTEX_POINT('',#2011);
#686=VERTEX_POINT('',#2012);
#687=VERTEX_POINT('',#2017);
#688=VERTEX_POINT('',#2019);
#689=VERTEX_POINT('',#2024);
#690=VERTEX_POINT('',#2026);
#691=VERTEX_POINT('',#2030);
#692=VERTEX_POINT('',#2032);
#693=VERTEX_POINT('',#2036);
#694=VERTEX_POINT('',#2038);
#695=VERTEX_POINT('',#2042);
#696=VERTEX_POINT('',#2046);
#697=VERTEX_POINT('',#2052);
#698=VERTEX_POINT('',#2054);
#699=VERTEX_POINT('',#2056);
#700=VERTEX_POINT('',#2060);
#701=VERTEX_POINT('',#2064);
#702=VERTEX_POINT('',#2065);
#703=VERTEX_POINT('',#2076);
#704=VERTEX_POINT('',#2078);
#705=VERTEX_POINT('',#2082);
#706=VERTEX_POINT('',#2086);
#707=VERTEX_POINT('',#2093);
#708=VERTEX_POINT('',#2095);
#709=VERTEX_POINT('',#2099);
#710=VERTEX_POINT('',#2101);
#711=VERTEX_POINT('',#2103);
#712=VERTEX_POINT('',#2107);
#713=VERTEX_POINT('',#2110);
#714=VERTEX_POINT('',#2114);
#715=VERTEX_POINT('',#2124);
#716=VERTEX_POINT('',#2128);
#717=VERTEX_POINT('',#2135);
#718=VERTEX_POINT('',#2137);
#719=VERTEX_POINT('',#2139);
#720=VERTEX_POINT('',#2141);
#721=VERTEX_POINT('',#2145);
#722=VERTEX_POINT('',#2147);
#723=VERTEX_POINT('',#2151);
#724=VERTEX_POINT('',#2153);
#725=VERTEX_POINT('',#2160);
#726=VERTEX_POINT('',#2162);
#727=VERTEX_POINT('',#2164);
#728=VERTEX_POINT('',#2166);
#729=VERTEX_POINT('',#2170);
#730=VERTEX_POINT('',#2172);
#731=VERTEX_POINT('',#2174);
#732=VERTEX_POINT('',#2176);
#733=EDGE_CURVE('',#609,#609,#601,.T.);
#734=EDGE_CURVE('',#609,#610,#235,.T.);
#735=EDGE_CURVE('',#610,#610,#602,.T.);
#736=EDGE_CURVE('',#611,#612,#236,.T.);
#737=EDGE_CURVE('',#612,#613,#237,.T.);
#738=EDGE_CURVE('',#613,#614,#238,.T.);
#739=EDGE_CURVE('',#614,#615,#239,.T.);
#740=EDGE_CURVE('',#615,#616,#240,.T.);
#741=EDGE_CURVE('',#616,#611,#241,.T.);
#742=EDGE_CURVE('',#617,#613,#242,.T.);
#743=EDGE_CURVE('',#618,#617,#243,.T.);
#744=EDGE_CURVE('',#614,#618,#244,.T.);
#745=EDGE_CURVE('',#619,#617,#245,.T.);
#746=EDGE_CURVE('',#620,#619,#246,.T.);
#747=EDGE_CURVE('',#621,#620,#247,.T.);
#748=EDGE_CURVE('',#621,#622,#248,.T.);
#749=EDGE_CURVE('',#623,#622,#249,.T.);
#750=EDGE_CURVE('',#624,#623,#250,.T.);
#751=EDGE_CURVE('',#624,#625,#251,.T.);
#752=EDGE_CURVE('',#626,#625,#252,.T.);
#753=EDGE_CURVE('',#627,#626,#253,.T.);
#754=EDGE_CURVE('',#628,#627,#254,.T.);
#755=EDGE_CURVE('',#629,#628,#255,.T.);
#756=EDGE_CURVE('',#630,#629,#256,.T.);
#757=EDGE_CURVE('',#630,#631,#257,.T.);
#758=EDGE_CURVE('',#632,#631,#603,.T.);
#759=EDGE_CURVE('',#632,#633,#258,.T.);
#760=EDGE_CURVE('',#634,#633,#604,.T.);
#761=EDGE_CURVE('',#634,#635,#259,.T.);
#762=EDGE_CURVE('',#636,#635,#260,.T.);
#763=EDGE_CURVE('',#636,#637,#261,.T.);
#764=EDGE_CURVE('',#637,#638,#262,.T.);
#765=EDGE_CURVE('',#638,#639,#263,.T.);
#766=EDGE_CURVE('',#640,#639,#264,.T.);
#767=EDGE_CURVE('',#640,#641,#265,.T.);
#768=EDGE_CURVE('',#641,#642,#266,.T.);
#769=EDGE_CURVE('',#642,#618,#267,.T.);
#770=EDGE_CURVE('',#643,#644,#268,.T.);
#771=EDGE_CURVE('',#645,#643,#269,.T.);
#772=EDGE_CURVE('',#646,#645,#270,.T.);
#773=EDGE_CURVE('',#644,#646,#271,.T.);
#774=EDGE_CURVE('',#647,#648,#272,.T.);
#775=EDGE_CURVE('',#649,#647,#273,.T.);
#776=EDGE_CURVE('',#650,#649,#274,.T.);
#777=EDGE_CURVE('',#648,#650,#275,.T.);
#778=EDGE_CURVE('',#651,#652,#276,.T.);
#779=EDGE_CURVE('',#652,#612,#277,.T.);
#780=EDGE_CURVE('',#653,#611,#278,.T.);
#781=EDGE_CURVE('',#653,#654,#279,.T.);
#782=EDGE_CURVE('',#654,#655,#280,.T.);
#783=EDGE_CURVE('',#656,#655,#281,.T.);
#784=EDGE_CURVE('',#616,#656,#282,.T.);
#785=EDGE_CURVE('',#657,#615,#283,.T.);
#786=EDGE_CURVE('',#658,#657,#284,.T.);
#787=EDGE_CURVE('',#659,#658,#285,.T.);
#788=EDGE_CURVE('',#659,#660,#605,.T.);
#789=EDGE_CURVE('',#661,#660,#286,.T.);
#790=EDGE_CURVE('',#661,#662,#606,.T.);
#791=EDGE_CURVE('',#663,#662,#287,.T.);
#792=EDGE_CURVE('',#664,#663,#288,.T.);
#793=EDGE_CURVE('',#665,#664,#289,.T.);
#794=EDGE_CURVE('',#665,#666,#290,.T.);
#795=EDGE_CURVE('',#667,#666,#291,.T.);
#796=EDGE_CURVE('',#667,#668,#292,.T.);
#797=EDGE_CURVE('',#668,#669,#293,.T.);
#798=EDGE_CURVE('',#670,#669,#294,.T.);
#799=EDGE_CURVE('',#670,#651,#295,.T.);
#800=EDGE_CURVE('',#671,#672,#296,.T.);
#801=EDGE_CURVE('',#673,#671,#297,.T.);
#802=EDGE_CURVE('',#674,#673,#298,.T.);
#803=EDGE_CURVE('',#672,#674,#299,.T.);
#804=EDGE_CURVE('',#675,#676,#300,.T.);
#805=EDGE_CURVE('',#676,#677,#301,.T.);
#806=EDGE_CURVE('',#677,#678,#302,.T.);
#807=EDGE_CURVE('',#678,#675,#303,.T.);
#808=EDGE_CURVE('',#679,#680,#304,.T.);
#809=EDGE_CURVE('',#681,#679,#305,.T.);
#810=EDGE_CURVE('',#682,#681,#306,.T.);
#811=EDGE_CURVE('',#680,#682,#307,.T.);
#812=EDGE_CURVE('',#637,#672,#308,.T.);
#813=EDGE_CURVE('',#636,#671,#309,.T.);
#814=EDGE_CURVE('',#638,#674,#310,.T.);
#815=EDGE_CURVE('',#639,#673,#311,.T.);
#816=EDGE_CURVE('',#627,#675,#312,.T.);
#817=EDGE_CURVE('',#626,#676,#313,.T.);
#818=EDGE_CURVE('',#628,#678,#314,.T.);
#819=EDGE_CURVE('',#629,#677,#315,.T.);
#820=EDGE_CURVE('',#632,#661,#316,.T.);
#821=EDGE_CURVE('',#631,#662,#317,.T.);
#822=EDGE_CURVE('',#633,#660,#318,.T.);
#823=EDGE_CURVE('',#634,#659,#319,.T.);
#824=EDGE_CURVE('',#641,#658,#320,.T.);
#825=EDGE_CURVE('',#635,#640,#321,.T.);
#826=EDGE_CURVE('',#642,#657,#322,.T.);
#827=EDGE_CURVE('',#683,#684,#323,.T.);
#828=EDGE_CURVE('',#670,#684,#324,.T.);
#829=EDGE_CURVE('',#683,#669,#325,.T.);
#830=EDGE_CURVE('',#622,#683,#326,.T.);
#831=EDGE_CURVE('',#623,#668,#327,.T.);
#832=EDGE_CURVE('',#624,#667,#328,.T.);
#833=EDGE_CURVE('',#685,#686,#329,.T.);
#834=EDGE_CURVE('',#685,#629,#330,.T.);
#835=EDGE_CURVE('',#686,#626,#331,.T.);
#836=EDGE_CURVE('',#666,#687,#332,.T.);
#837=EDGE_CURVE('',#687,#688,#607,.T.);
#838=EDGE_CURVE('',#663,#688,#333,.T.);
#839=EDGE_CURVE('',#625,#630,#334,.T.);
#840=EDGE_CURVE('',#689,#636,#335,.T.);
#841=EDGE_CURVE('',#689,#690,#336,.T.);
#842=EDGE_CURVE('',#690,#639,#337,.T.);
#843=EDGE_CURVE('',#691,#643,#338,.T.);
#844=EDGE_CURVE('',#692,#691,#339,.T.);
#845=EDGE_CURVE('',#692,#645,#340,.T.);
#846=EDGE_CURVE('',#693,#644,#341,.T.);
#847=EDGE_CURVE('',#693,#694,#342,.T.);
#848=EDGE_CURVE('',#691,#694,#343,.T.);
#849=EDGE_CURVE('',#695,#646,#344,.T.);
#850=EDGE_CURVE('',#695,#693,#345,.T.);
#851=EDGE_CURVE('',#696,#692,#346,.T.);
#852=EDGE_CURVE('',#696,#695,#347,.T.);
#853=EDGE_CURVE('',#694,#696,#348,.T.);
#854=EDGE_CURVE('',#697,#647,#349,.T.);
#855=EDGE_CURVE('',#697,#698,#350,.T.);
#856=EDGE_CURVE('',#699,#698,#351,.T.);
#857=EDGE_CURVE('',#699,#649,#352,.T.);
#858=EDGE_CURVE('',#700,#648,#353,.T.);
#859=EDGE_CURVE('',#700,#697,#354,.T.);
#860=EDGE_CURVE('',#701,#702,#355,.T.);
#861=EDGE_CURVE('',#701,#700,#356,.T.);
#862=EDGE_CURVE('',#702,#650,#357,.T.);
#863=EDGE_CURVE('',#702,#699,#358,.T.);
#864=EDGE_CURVE('',#698,#701,#359,.T.);
#865=EDGE_CURVE('',#703,#680,#360,.T.);
#866=EDGE_CURVE('',#704,#703,#361,.T.);
#867=EDGE_CURVE('',#704,#679,#362,.T.);
#868=EDGE_CURVE('',#705,#682,#363,.T.);
#869=EDGE_CURVE('',#703,#705,#364,.T.);
#870=EDGE_CURVE('',#706,#681,#365,.T.);
#871=EDGE_CURVE('',#705,#706,#366,.T.);
#872=EDGE_CURVE('',#706,#704,#367,.T.);
#873=EDGE_CURVE('',#707,#616,#368,.T.);
#874=EDGE_CURVE('',#708,#707,#369,.T.);
#875=EDGE_CURVE('',#611,#708,#370,.T.);
#876=EDGE_CURVE('',#655,#709,#371,.T.);
#877=EDGE_CURVE('',#710,#709,#372,.T.);
#878=EDGE_CURVE('',#711,#710,#373,.T.);
#879=EDGE_CURVE('',#711,#656,#374,.T.);
#880=EDGE_CURVE('',#712,#709,#375,.T.);
#881=EDGE_CURVE('',#712,#653,#376,.T.);
#882=EDGE_CURVE('',#713,#708,#377,.T.);
#883=EDGE_CURVE('',#710,#713,#378,.T.);
#884=EDGE_CURVE('',#714,#707,#379,.T.);
#885=EDGE_CURVE('',#713,#714,#380,.T.);
#886=EDGE_CURVE('',#714,#711,#381,.T.);
#887=EDGE_CURVE('',#654,#712,#382,.T.);
#888=EDGE_CURVE('',#665,#715,#383,.T.);
#889=EDGE_CURVE('',#715,#687,#384,.T.);
#890=EDGE_CURVE('',#716,#688,#385,.T.);
#891=EDGE_CURVE('',#664,#716,#386,.T.);
#892=EDGE_CURVE('',#715,#716,#608,.T.);
#893=EDGE_CURVE('',#625,#717,#387,.T.);
#894=EDGE_CURVE('',#718,#717,#388,.T.);
#895=EDGE_CURVE('',#719,#718,#389,.T.);
#896=EDGE_CURVE('',#719,#720,#390,.T.);
#897=EDGE_CURVE('',#720,#686,#391,.T.);
#898=EDGE_CURVE('',#717,#721,#392,.T.);
#899=EDGE_CURVE('',#722,#721,#393,.T.);
#900=EDGE_CURVE('',#718,#722,#394,.T.);
#901=EDGE_CURVE('',#685,#723,#395,.T.);
#902=EDGE_CURVE('',#723,#724,#396,.T.);
#903=EDGE_CURVE('',#722,#724,#397,.T.);
#904=EDGE_CURVE('',#721,#630,#398,.T.);
#905=EDGE_CURVE('',#724,#719,#399,.T.);
#906=EDGE_CURVE('',#690,#725,#400,.T.);
#907=EDGE_CURVE('',#725,#726,#401,.T.);
#908=EDGE_CURVE('',#727,#726,#402,.T.);
#909=EDGE_CURVE('',#727,#728,#403,.T.);
#910=EDGE_CURVE('',#728,#640,#404,.T.);
#911=EDGE_CURVE('',#635,#729,#405,.T.);
#912=EDGE_CURVE('',#730,#729,#406,.T.);
#913=EDGE_CURVE('',#731,#730,#407,.T.);
#914=EDGE_CURVE('',#731,#732,#408,.T.);
#915=EDGE_CURVE('',#732,#689,#409,.T.);
#916=EDGE_CURVE('',#729,#728,#410,.T.);
#917=EDGE_CURVE('',#730,#727,#411,.T.);
#918=EDGE_CURVE('',#726,#731,#412,.T.);
#919=EDGE_CURVE('',#684,#621,#413,.T.);
#920=EDGE_CURVE('',#651,#620,#414,.T.);
#921=EDGE_CURVE('',#652,#619,#415,.T.);
#922=EDGE_CURVE('',#723,#720,#416,.T.);
#923=EDGE_CURVE('',#732,#725,#417,.T.);
#924=ORIENTED_EDGE('',*,*,#733,.F.);
#925=ORIENTED_EDGE('',*,*,#734,.T.);
#926=ORIENTED_EDGE('',*,*,#735,.T.);
#927=ORIENTED_EDGE('',*,*,#734,.F.);
#928=ORIENTED_EDGE('',*,*,#736,.T.);
#929=ORIENTED_EDGE('',*,*,#737,.T.);
#930=ORIENTED_EDGE('',*,*,#738,.T.);
#931=ORIENTED_EDGE('',*,*,#739,.T.);
#932=ORIENTED_EDGE('',*,*,#740,.T.);
#933=ORIENTED_EDGE('',*,*,#741,.T.);
#934=ORIENTED_EDGE('',*,*,#742,.F.);
#935=ORIENTED_EDGE('',*,*,#743,.F.);
#936=ORIENTED_EDGE('',*,*,#744,.F.);
#937=ORIENTED_EDGE('',*,*,#738,.F.);
#938=ORIENTED_EDGE('',*,*,#745,.F.);
#939=ORIENTED_EDGE('',*,*,#746,.F.);
#940=ORIENTED_EDGE('',*,*,#747,.F.);
#941=ORIENTED_EDGE('',*,*,#748,.T.);
#942=ORIENTED_EDGE('',*,*,#749,.F.);
#943=ORIENTED_EDGE('',*,*,#750,.F.);
#944=ORIENTED_EDGE('',*,*,#751,.T.);
#945=ORIENTED_EDGE('',*,*,#752,.F.);
#946=ORIENTED_EDGE('',*,*,#753,.F.);
#947=ORIENTED_EDGE('',*,*,#754,.F.);
#948=ORIENTED_EDGE('',*,*,#755,.F.);
#949=ORIENTED_EDGE('',*,*,#756,.F.);
#950=ORIENTED_EDGE('',*,*,#757,.T.);
#951=ORIENTED_EDGE('',*,*,#758,.F.);
#952=ORIENTED_EDGE('',*,*,#759,.T.);
#953=ORIENTED_EDGE('',*,*,#760,.F.);
#954=ORIENTED_EDGE('',*,*,#761,.T.);
#955=ORIENTED_EDGE('',*,*,#762,.F.);
#956=ORIENTED_EDGE('',*,*,#763,.T.);
#957=ORIENTED_EDGE('',*,*,#764,.T.);
#958=ORIENTED_EDGE('',*,*,#765,.T.);
#959=ORIENTED_EDGE('',*,*,#766,.F.);
#960=ORIENTED_EDGE('',*,*,#767,.T.);
#961=ORIENTED_EDGE('',*,*,#768,.T.);
#962=ORIENTED_EDGE('',*,*,#769,.T.);
#963=ORIENTED_EDGE('',*,*,#743,.T.);
#964=ORIENTED_EDGE('',*,*,#770,.F.);
#965=ORIENTED_EDGE('',*,*,#771,.F.);
#966=ORIENTED_EDGE('',*,*,#772,.F.);
#967=ORIENTED_EDGE('',*,*,#773,.F.);
#968=ORIENTED_EDGE('',*,*,#774,.F.);
#969=ORIENTED_EDGE('',*,*,#775,.F.);
#970=ORIENTED_EDGE('',*,*,#776,.F.);
#971=ORIENTED_EDGE('',*,*,#777,.F.);
#972=ORIENTED_EDGE('',*,*,#778,.T.);
#973=ORIENTED_EDGE('',*,*,#779,.T.);
#974=ORIENTED_EDGE('',*,*,#736,.F.);
#975=ORIENTED_EDGE('',*,*,#780,.F.);
#976=ORIENTED_EDGE('',*,*,#781,.T.);
#977=ORIENTED_EDGE('',*,*,#782,.T.);
#978=ORIENTED_EDGE('',*,*,#783,.F.);
#979=ORIENTED_EDGE('',*,*,#784,.F.);
#980=ORIENTED_EDGE('',*,*,#740,.F.);
#981=ORIENTED_EDGE('',*,*,#785,.F.);
#982=ORIENTED_EDGE('',*,*,#786,.F.);
#983=ORIENTED_EDGE('',*,*,#787,.F.);
#984=ORIENTED_EDGE('',*,*,#788,.T.);
#985=ORIENTED_EDGE('',*,*,#789,.F.);
#986=ORIENTED_EDGE('',*,*,#790,.T.);
#987=ORIENTED_EDGE('',*,*,#791,.F.);
#988=ORIENTED_EDGE('',*,*,#792,.F.);
#989=ORIENTED_EDGE('',*,*,#793,.F.);
#990=ORIENTED_EDGE('',*,*,#794,.T.);
#991=ORIENTED_EDGE('',*,*,#795,.F.);
#992=ORIENTED_EDGE('',*,*,#796,.T.);
#993=ORIENTED_EDGE('',*,*,#797,.T.);
#994=ORIENTED_EDGE('',*,*,#798,.F.);
#995=ORIENTED_EDGE('',*,*,#799,.T.);
#996=ORIENTED_EDGE('',*,*,#800,.F.);
#997=ORIENTED_EDGE('',*,*,#801,.F.);
#998=ORIENTED_EDGE('',*,*,#802,.F.);
#999=ORIENTED_EDGE('',*,*,#803,.F.);
#1000=ORIENTED_EDGE('',*,*,#804,.T.);
#1001=ORIENTED_EDGE('',*,*,#805,.T.);
#1002=ORIENTED_EDGE('',*,*,#806,.T.);
#1003=ORIENTED_EDGE('',*,*,#807,.T.);
#1004=ORIENTED_EDGE('',*,*,#808,.F.);
#1005=ORIENTED_EDGE('',*,*,#809,.F.);
#1006=ORIENTED_EDGE('',*,*,#810,.F.);
#1007=ORIENTED_EDGE('',*,*,#811,.F.);
#1008=ORIENTED_EDGE('',*,*,#800,.T.);
#1009=ORIENTED_EDGE('',*,*,#812,.F.);
#1010=ORIENTED_EDGE('',*,*,#763,.F.);
#1011=ORIENTED_EDGE('',*,*,#813,.T.);
#1012=ORIENTED_EDGE('',*,*,#803,.T.);
#1013=ORIENTED_EDGE('',*,*,#814,.F.);
#1014=ORIENTED_EDGE('',*,*,#764,.F.);
#1015=ORIENTED_EDGE('',*,*,#812,.T.);
#1016=ORIENTED_EDGE('',*,*,#802,.T.);
#1017=ORIENTED_EDGE('',*,*,#815,.F.);
#1018=ORIENTED_EDGE('',*,*,#765,.F.);
#1019=ORIENTED_EDGE('',*,*,#814,.T.);
#1020=ORIENTED_EDGE('',*,*,#804,.F.);
#1021=ORIENTED_EDGE('',*,*,#816,.F.);
#1022=ORIENTED_EDGE('',*,*,#753,.T.);
#1023=ORIENTED_EDGE('',*,*,#817,.T.);
#1024=ORIENTED_EDGE('',*,*,#807,.F.);
#1025=ORIENTED_EDGE('',*,*,#818,.F.);
#1026=ORIENTED_EDGE('',*,*,#754,.T.);
#1027=ORIENTED_EDGE('',*,*,#816,.T.);
#1028=ORIENTED_EDGE('',*,*,#806,.F.);
#1029=ORIENTED_EDGE('',*,*,#819,.F.);
#1030=ORIENTED_EDGE('',*,*,#755,.T.);
#1031=ORIENTED_EDGE('',*,*,#818,.T.);
#1032=ORIENTED_EDGE('',*,*,#790,.F.);
#1033=ORIENTED_EDGE('',*,*,#820,.F.);
#1034=ORIENTED_EDGE('',*,*,#758,.T.);
#1035=ORIENTED_EDGE('',*,*,#821,.T.);
#1036=ORIENTED_EDGE('',*,*,#789,.T.);
#1037=ORIENTED_EDGE('',*,*,#822,.F.);
#1038=ORIENTED_EDGE('',*,*,#759,.F.);
#1039=ORIENTED_EDGE('',*,*,#820,.T.);
#1040=ORIENTED_EDGE('',*,*,#788,.F.);
#1041=ORIENTED_EDGE('',*,*,#823,.F.);
#1042=ORIENTED_EDGE('',*,*,#760,.T.);
#1043=ORIENTED_EDGE('',*,*,#822,.T.);
#1044=ORIENTED_EDGE('',*,*,#787,.T.);
#1045=ORIENTED_EDGE('',*,*,#824,.F.);
#1046=ORIENTED_EDGE('',*,*,#767,.F.);
#1047=ORIENTED_EDGE('',*,*,#825,.F.);
#1048=ORIENTED_EDGE('',*,*,#761,.F.);
#1049=ORIENTED_EDGE('',*,*,#823,.T.);
#1050=ORIENTED_EDGE('',*,*,#786,.T.);
#1051=ORIENTED_EDGE('',*,*,#826,.F.);
#1052=ORIENTED_EDGE('',*,*,#768,.F.);
#1053=ORIENTED_EDGE('',*,*,#824,.T.);
#1054=ORIENTED_EDGE('',*,*,#739,.F.);
#1055=ORIENTED_EDGE('',*,*,#744,.T.);
#1056=ORIENTED_EDGE('',*,*,#769,.F.);
#1057=ORIENTED_EDGE('',*,*,#826,.T.);
#1058=ORIENTED_EDGE('',*,*,#785,.T.);
#1059=ORIENTED_EDGE('',*,*,#827,.T.);
#1060=ORIENTED_EDGE('',*,*,#828,.F.);
#1061=ORIENTED_EDGE('',*,*,#798,.T.);
#1062=ORIENTED_EDGE('',*,*,#829,.F.);
#1063=ORIENTED_EDGE('',*,*,#749,.T.);
#1064=ORIENTED_EDGE('',*,*,#830,.T.);
#1065=ORIENTED_EDGE('',*,*,#829,.T.);
#1066=ORIENTED_EDGE('',*,*,#797,.F.);
#1067=ORIENTED_EDGE('',*,*,#831,.F.);
#1068=ORIENTED_EDGE('',*,*,#796,.F.);
#1069=ORIENTED_EDGE('',*,*,#832,.F.);
#1070=ORIENTED_EDGE('',*,*,#750,.T.);
#1071=ORIENTED_EDGE('',*,*,#831,.T.);
#1072=ORIENTED_EDGE('',*,*,#833,.F.);
#1073=ORIENTED_EDGE('',*,*,#834,.T.);
#1074=ORIENTED_EDGE('',*,*,#819,.T.);
#1075=ORIENTED_EDGE('',*,*,#805,.F.);
#1076=ORIENTED_EDGE('',*,*,#817,.F.);
#1077=ORIENTED_EDGE('',*,*,#835,.F.);
#1078=ORIENTED_EDGE('',*,*,#795,.T.);
#1079=ORIENTED_EDGE('',*,*,#836,.T.);
#1080=ORIENTED_EDGE('',*,*,#837,.T.);
#1081=ORIENTED_EDGE('',*,*,#838,.F.);
#1082=ORIENTED_EDGE('',*,*,#791,.T.);
#1083=ORIENTED_EDGE('',*,*,#821,.F.);
#1084=ORIENTED_EDGE('',*,*,#757,.F.);
#1085=ORIENTED_EDGE('',*,*,#839,.F.);
#1086=ORIENTED_EDGE('',*,*,#751,.F.);
#1087=ORIENTED_EDGE('',*,*,#832,.T.);
#1088=ORIENTED_EDGE('',*,*,#735,.F.);
#1089=ORIENTED_EDGE('',*,*,#840,.F.);
#1090=ORIENTED_EDGE('',*,*,#841,.T.);
#1091=ORIENTED_EDGE('',*,*,#842,.T.);
#1092=ORIENTED_EDGE('',*,*,#815,.T.);
#1093=ORIENTED_EDGE('',*,*,#801,.T.);
#1094=ORIENTED_EDGE('',*,*,#813,.F.);
#1095=ORIENTED_EDGE('',*,*,#771,.T.);
#1096=ORIENTED_EDGE('',*,*,#843,.F.);
#1097=ORIENTED_EDGE('',*,*,#844,.F.);
#1098=ORIENTED_EDGE('',*,*,#845,.T.);
#1099=ORIENTED_EDGE('',*,*,#846,.F.);
#1100=ORIENTED_EDGE('',*,*,#847,.T.);
#1101=ORIENTED_EDGE('',*,*,#848,.F.);
#1102=ORIENTED_EDGE('',*,*,#843,.T.);
#1103=ORIENTED_EDGE('',*,*,#770,.T.);
#1104=ORIENTED_EDGE('',*,*,#849,.F.);
#1105=ORIENTED_EDGE('',*,*,#850,.T.);
#1106=ORIENTED_EDGE('',*,*,#846,.T.);
#1107=ORIENTED_EDGE('',*,*,#773,.T.);
#1108=ORIENTED_EDGE('',*,*,#851,.F.);
#1109=ORIENTED_EDGE('',*,*,#852,.T.);
#1110=ORIENTED_EDGE('',*,*,#849,.T.);
#1111=ORIENTED_EDGE('',*,*,#772,.T.);
#1112=ORIENTED_EDGE('',*,*,#845,.F.);
#1113=ORIENTED_EDGE('',*,*,#848,.T.);
#1114=ORIENTED_EDGE('',*,*,#853,.T.);
#1115=ORIENTED_EDGE('',*,*,#851,.T.);
#1116=ORIENTED_EDGE('',*,*,#844,.T.);
#1117=ORIENTED_EDGE('',*,*,#854,.F.);
#1118=ORIENTED_EDGE('',*,*,#855,.T.);
#1119=ORIENTED_EDGE('',*,*,#856,.F.);
#1120=ORIENTED_EDGE('',*,*,#857,.T.);
#1121=ORIENTED_EDGE('',*,*,#775,.T.);
#1122=ORIENTED_EDGE('',*,*,#858,.F.);
#1123=ORIENTED_EDGE('',*,*,#859,.T.);
#1124=ORIENTED_EDGE('',*,*,#854,.T.);
#1125=ORIENTED_EDGE('',*,*,#774,.T.);
#1126=ORIENTED_EDGE('',*,*,#860,.F.);
#1127=ORIENTED_EDGE('',*,*,#861,.T.);
#1128=ORIENTED_EDGE('',*,*,#858,.T.);
#1129=ORIENTED_EDGE('',*,*,#777,.T.);
#1130=ORIENTED_EDGE('',*,*,#862,.F.);
#1131=ORIENTED_EDGE('',*,*,#776,.T.);
#1132=ORIENTED_EDGE('',*,*,#857,.F.);
#1133=ORIENTED_EDGE('',*,*,#863,.F.);
#1134=ORIENTED_EDGE('',*,*,#862,.T.);
#1135=ORIENTED_EDGE('',*,*,#856,.T.);
#1136=ORIENTED_EDGE('',*,*,#864,.T.);
#1137=ORIENTED_EDGE('',*,*,#860,.T.);
#1138=ORIENTED_EDGE('',*,*,#863,.T.);
#1139=ORIENTED_EDGE('',*,*,#855,.F.);
#1140=ORIENTED_EDGE('',*,*,#859,.F.);
#1141=ORIENTED_EDGE('',*,*,#861,.F.);
#1142=ORIENTED_EDGE('',*,*,#864,.F.);
#1143=ORIENTED_EDGE('',*,*,#847,.F.);
#1144=ORIENTED_EDGE('',*,*,#850,.F.);
#1145=ORIENTED_EDGE('',*,*,#852,.F.);
#1146=ORIENTED_EDGE('',*,*,#853,.F.);
#1147=ORIENTED_EDGE('',*,*,#808,.T.);
#1148=ORIENTED_EDGE('',*,*,#865,.F.);
#1149=ORIENTED_EDGE('',*,*,#866,.F.);
#1150=ORIENTED_EDGE('',*,*,#867,.T.);
#1151=ORIENTED_EDGE('',*,*,#811,.T.);
#1152=ORIENTED_EDGE('',*,*,#868,.F.);
#1153=ORIENTED_EDGE('',*,*,#869,.F.);
#1154=ORIENTED_EDGE('',*,*,#865,.T.);
#1155=ORIENTED_EDGE('',*,*,#810,.T.);
#1156=ORIENTED_EDGE('',*,*,#870,.F.);
#1157=ORIENTED_EDGE('',*,*,#871,.F.);
#1158=ORIENTED_EDGE('',*,*,#868,.T.);
#1159=ORIENTED_EDGE('',*,*,#809,.T.);
#1160=ORIENTED_EDGE('',*,*,#867,.F.);
#1161=ORIENTED_EDGE('',*,*,#872,.F.);
#1162=ORIENTED_EDGE('',*,*,#870,.T.);
#1163=ORIENTED_EDGE('',*,*,#866,.T.);
#1164=ORIENTED_EDGE('',*,*,#869,.T.);
#1165=ORIENTED_EDGE('',*,*,#871,.T.);
#1166=ORIENTED_EDGE('',*,*,#872,.T.);
#1167=ORIENTED_EDGE('',*,*,#741,.F.);
#1168=ORIENTED_EDGE('',*,*,#873,.F.);
#1169=ORIENTED_EDGE('',*,*,#874,.F.);
#1170=ORIENTED_EDGE('',*,*,#875,.F.);
#1171=ORIENTED_EDGE('',*,*,#783,.T.);
#1172=ORIENTED_EDGE('',*,*,#876,.T.);
#1173=ORIENTED_EDGE('',*,*,#877,.F.);
#1174=ORIENTED_EDGE('',*,*,#878,.F.);
#1175=ORIENTED_EDGE('',*,*,#879,.T.);
#1176=ORIENTED_EDGE('',*,*,#877,.T.);
#1177=ORIENTED_EDGE('',*,*,#880,.F.);
#1178=ORIENTED_EDGE('',*,*,#881,.T.);
#1179=ORIENTED_EDGE('',*,*,#780,.T.);
#1180=ORIENTED_EDGE('',*,*,#875,.T.);
#1181=ORIENTED_EDGE('',*,*,#882,.F.);
#1182=ORIENTED_EDGE('',*,*,#883,.F.);
#1183=ORIENTED_EDGE('',*,*,#874,.T.);
#1184=ORIENTED_EDGE('',*,*,#884,.F.);
#1185=ORIENTED_EDGE('',*,*,#885,.F.);
#1186=ORIENTED_EDGE('',*,*,#882,.T.);
#1187=ORIENTED_EDGE('',*,*,#873,.T.);
#1188=ORIENTED_EDGE('',*,*,#784,.T.);
#1189=ORIENTED_EDGE('',*,*,#879,.F.);
#1190=ORIENTED_EDGE('',*,*,#886,.F.);
#1191=ORIENTED_EDGE('',*,*,#884,.T.);
#1192=ORIENTED_EDGE('',*,*,#878,.T.);
#1193=ORIENTED_EDGE('',*,*,#883,.T.);
#1194=ORIENTED_EDGE('',*,*,#885,.T.);
#1195=ORIENTED_EDGE('',*,*,#886,.T.);
#1196=ORIENTED_EDGE('',*,*,#876,.F.);
#1197=ORIENTED_EDGE('',*,*,#782,.F.);
#1198=ORIENTED_EDGE('',*,*,#887,.T.);
#1199=ORIENTED_EDGE('',*,*,#880,.T.);
#1200=ORIENTED_EDGE('',*,*,#881,.F.);
#1201=ORIENTED_EDGE('',*,*,#887,.F.);
#1202=ORIENTED_EDGE('',*,*,#781,.F.);
#1203=ORIENTED_EDGE('',*,*,#836,.F.);
#1204=ORIENTED_EDGE('',*,*,#794,.F.);
#1205=ORIENTED_EDGE('',*,*,#888,.T.);
#1206=ORIENTED_EDGE('',*,*,#889,.T.);
#1207=ORIENTED_EDGE('',*,*,#838,.T.);
#1208=ORIENTED_EDGE('',*,*,#890,.F.);
#1209=ORIENTED_EDGE('',*,*,#891,.F.);
#1210=ORIENTED_EDGE('',*,*,#792,.T.);
#1211=ORIENTED_EDGE('',*,*,#837,.F.);
#1212=ORIENTED_EDGE('',*,*,#889,.F.);
#1213=ORIENTED_EDGE('',*,*,#892,.T.);
#1214=ORIENTED_EDGE('',*,*,#890,.T.);
#1215=ORIENTED_EDGE('',*,*,#888,.F.);
#1216=ORIENTED_EDGE('',*,*,#793,.T.);
#1217=ORIENTED_EDGE('',*,*,#891,.T.);
#1218=ORIENTED_EDGE('',*,*,#892,.F.);
#1219=ORIENTED_EDGE('',*,*,#733,.T.);
#1220=ORIENTED_EDGE('',*,*,#752,.T.);
#1221=ORIENTED_EDGE('',*,*,#893,.T.);
#1222=ORIENTED_EDGE('',*,*,#894,.F.);
#1223=ORIENTED_EDGE('',*,*,#895,.F.);
#1224=ORIENTED_EDGE('',*,*,#896,.T.);
#1225=ORIENTED_EDGE('',*,*,#897,.T.);
#1226=ORIENTED_EDGE('',*,*,#835,.T.);
#1227=ORIENTED_EDGE('',*,*,#894,.T.);
#1228=ORIENTED_EDGE('',*,*,#898,.T.);
#1229=ORIENTED_EDGE('',*,*,#899,.F.);
#1230=ORIENTED_EDGE('',*,*,#900,.F.);
#1231=ORIENTED_EDGE('',*,*,#756,.T.);
#1232=ORIENTED_EDGE('',*,*,#834,.F.);
#1233=ORIENTED_EDGE('',*,*,#901,.T.);
#1234=ORIENTED_EDGE('',*,*,#902,.T.);
#1235=ORIENTED_EDGE('',*,*,#903,.F.);
#1236=ORIENTED_EDGE('',*,*,#899,.T.);
#1237=ORIENTED_EDGE('',*,*,#904,.T.);
#1238=ORIENTED_EDGE('',*,*,#905,.T.);
#1239=ORIENTED_EDGE('',*,*,#895,.T.);
#1240=ORIENTED_EDGE('',*,*,#900,.T.);
#1241=ORIENTED_EDGE('',*,*,#903,.T.);
#1242=ORIENTED_EDGE('',*,*,#766,.T.);
#1243=ORIENTED_EDGE('',*,*,#842,.F.);
#1244=ORIENTED_EDGE('',*,*,#906,.T.);
#1245=ORIENTED_EDGE('',*,*,#907,.T.);
#1246=ORIENTED_EDGE('',*,*,#908,.F.);
#1247=ORIENTED_EDGE('',*,*,#909,.T.);
#1248=ORIENTED_EDGE('',*,*,#910,.T.);
#1249=ORIENTED_EDGE('',*,*,#762,.T.);
#1250=ORIENTED_EDGE('',*,*,#911,.T.);
#1251=ORIENTED_EDGE('',*,*,#912,.F.);
#1252=ORIENTED_EDGE('',*,*,#913,.F.);
#1253=ORIENTED_EDGE('',*,*,#914,.T.);
#1254=ORIENTED_EDGE('',*,*,#915,.T.);
#1255=ORIENTED_EDGE('',*,*,#840,.T.);
#1256=ORIENTED_EDGE('',*,*,#912,.T.);
#1257=ORIENTED_EDGE('',*,*,#916,.T.);
#1258=ORIENTED_EDGE('',*,*,#909,.F.);
#1259=ORIENTED_EDGE('',*,*,#917,.F.);
#1260=ORIENTED_EDGE('',*,*,#908,.T.);
#1261=ORIENTED_EDGE('',*,*,#918,.T.);
#1262=ORIENTED_EDGE('',*,*,#913,.T.);
#1263=ORIENTED_EDGE('',*,*,#917,.T.);
#1264=ORIENTED_EDGE('',*,*,#893,.F.);
#1265=ORIENTED_EDGE('',*,*,#839,.T.);
#1266=ORIENTED_EDGE('',*,*,#904,.F.);
#1267=ORIENTED_EDGE('',*,*,#898,.F.);
#1268=ORIENTED_EDGE('',*,*,#911,.F.);
#1269=ORIENTED_EDGE('',*,*,#825,.T.);
#1270=ORIENTED_EDGE('',*,*,#910,.F.);
#1271=ORIENTED_EDGE('',*,*,#916,.F.);
#1272=ORIENTED_EDGE('',*,*,#919,.F.);
#1273=ORIENTED_EDGE('',*,*,#827,.F.);
#1274=ORIENTED_EDGE('',*,*,#830,.F.);
#1275=ORIENTED_EDGE('',*,*,#748,.F.);
#1276=ORIENTED_EDGE('',*,*,#920,.T.);
#1277=ORIENTED_EDGE('',*,*,#746,.T.);
#1278=ORIENTED_EDGE('',*,*,#921,.F.);
#1279=ORIENTED_EDGE('',*,*,#778,.F.);
#1280=ORIENTED_EDGE('',*,*,#921,.T.);
#1281=ORIENTED_EDGE('',*,*,#745,.T.);
#1282=ORIENTED_EDGE('',*,*,#742,.T.);
#1283=ORIENTED_EDGE('',*,*,#737,.F.);
#1284=ORIENTED_EDGE('',*,*,#779,.F.);
#1285=ORIENTED_EDGE('',*,*,#828,.T.);
#1286=ORIENTED_EDGE('',*,*,#919,.T.);
#1287=ORIENTED_EDGE('',*,*,#747,.T.);
#1288=ORIENTED_EDGE('',*,*,#920,.F.);
#1289=ORIENTED_EDGE('',*,*,#799,.F.);
#1290=ORIENTED_EDGE('',*,*,#901,.F.);
#1291=ORIENTED_EDGE('',*,*,#833,.T.);
#1292=ORIENTED_EDGE('',*,*,#897,.F.);
#1293=ORIENTED_EDGE('',*,*,#922,.F.);
#1294=ORIENTED_EDGE('',*,*,#902,.F.);
#1295=ORIENTED_EDGE('',*,*,#922,.T.);
#1296=ORIENTED_EDGE('',*,*,#896,.F.);
#1297=ORIENTED_EDGE('',*,*,#905,.F.);
#1298=ORIENTED_EDGE('',*,*,#914,.F.);
#1299=ORIENTED_EDGE('',*,*,#918,.F.);
#1300=ORIENTED_EDGE('',*,*,#907,.F.);
#1301=ORIENTED_EDGE('',*,*,#923,.F.);
#1302=ORIENTED_EDGE('',*,*,#915,.F.);
#1303=ORIENTED_EDGE('',*,*,#923,.T.);
#1304=ORIENTED_EDGE('',*,*,#906,.F.);
#1305=ORIENTED_EDGE('',*,*,#841,.F.);
#1306=CYLINDRICAL_SURFACE('',#1394,2.5);
#1307=CYLINDRICAL_SURFACE('',#1411,8.5);
#1308=CYLINDRICAL_SURFACE('',#1413,8.5);
#1309=CYLINDRICAL_SURFACE('',#1451,4.5);
#1310=ADVANCED_FACE('',(#88),#1306,.F.);
#1311=ADVANCED_FACE('',(#89),#22,.F.);
#1312=ADVANCED_FACE('',(#90),#23,.T.);
#1313=ADVANCED_FACE('',(#91,#15,#16),#24,.T.);
#1314=ADVANCED_FACE('',(#92,#17,#18,#19),#25,.F.);
#1315=ADVANCED_FACE('',(#93),#26,.F.);
#1316=ADVANCED_FACE('',(#94),#27,.F.);
#1317=ADVANCED_FACE('',(#95),#28,.F.);
#1318=ADVANCED_FACE('',(#96),#29,.T.);
#1319=ADVANCED_FACE('',(#97),#30,.T.);
#1320=ADVANCED_FACE('',(#98),#31,.T.);
#1321=ADVANCED_FACE('',(#99),#1307,.T.);
#1322=ADVANCED_FACE('',(#100),#32,.F.);
#1323=ADVANCED_FACE('',(#101),#1308,.T.);
#1324=ADVANCED_FACE('',(#102),#33,.F.);
#1325=ADVANCED_FACE('',(#103),#34,.F.);
#1326=ADVANCED_FACE('',(#104),#35,.F.);
#1327=ADVANCED_FACE('',(#105),#36,.F.);
#1328=ADVANCED_FACE('',(#106),#37,.T.);
#1329=ADVANCED_FACE('',(#107),#38,.T.);
#1330=ADVANCED_FACE('',(#108),#39,.T.);
#1331=ADVANCED_FACE('',(#109,#20),#40,.F.);
#1332=ADVANCED_FACE('',(#110),#41,.F.);
#1333=ADVANCED_FACE('',(#111),#42,.F.);
#1334=ADVANCED_FACE('',(#112),#43,.F.);
#1335=ADVANCED_FACE('',(#113),#44,.F.);
#1336=ADVANCED_FACE('',(#114),#45,.F.);
#1337=ADVANCED_FACE('',(#115),#46,.T.);
#1338=ADVANCED_FACE('',(#116),#47,.F.);
#1339=ADVANCED_FACE('',(#117),#48,.F.);
#1340=ADVANCED_FACE('',(#118),#49,.F.);
#1341=ADVANCED_FACE('',(#119),#50,.F.);
#1342=ADVANCED_FACE('',(#120),#51,.T.);
#1343=ADVANCED_FACE('',(#121),#52,.T.);
#1344=ADVANCED_FACE('',(#122),#53,.T.);
#1345=ADVANCED_FACE('',(#123),#54,.F.);
#1346=ADVANCED_FACE('',(#124),#55,.F.);
#1347=ADVANCED_FACE('',(#125),#56,.F.);
#1348=ADVANCED_FACE('',(#126),#57,.F.);
#1349=ADVANCED_FACE('',(#127),#58,.F.);
#1350=ADVANCED_FACE('',(#128),#59,.T.);
#1351=ADVANCED_FACE('',(#129),#60,.F.);
#1352=ADVANCED_FACE('',(#130),#61,.F.);
#1353=ADVANCED_FACE('',(#131),#62,.F.);
#1354=ADVANCED_FACE('',(#132),#63,.F.);
#1355=ADVANCED_FACE('',(#133),#64,.F.);
#1356=ADVANCED_FACE('',(#134),#65,.T.);
#1357=ADVANCED_FACE('',(#135),#66,.F.);
#1358=ADVANCED_FACE('',(#136),#67,.T.);
#1359=ADVANCED_FACE('',(#137),#68,.F.);
#1360=ADVANCED_FACE('',(#138),#1309,.T.);
#1361=ADVANCED_FACE('',(#139,#21),#69,.F.);
#1362=ADVANCED_FACE('',(#140),#70,.F.);
#1363=ADVANCED_FACE('',(#141),#71,.F.);
#1364=ADVANCED_FACE('',(#142),#72,.F.);
#1365=ADVANCED_FACE('',(#143),#73,.T.);
#1366=ADVANCED_FACE('',(#144),#74,.F.);
#1367=ADVANCED_FACE('',(#145),#75,.F.);
#1368=ADVANCED_FACE('',(#146),#76,.F.);
#1369=ADVANCED_FACE('',(#147),#77,.T.);
#1370=ADVANCED_FACE('',(#148),#78,.F.);
#1371=ADVANCED_FACE('',(#149),#79,.F.);
#1372=ADVANCED_FACE('',(#150),#80,.T.);
#1373=ADVANCED_FACE('',(#151),#81,.F.);
#1374=ADVANCED_FACE('',(#152),#82,.F.);
#1375=ADVANCED_FACE('',(#153),#83,.F.);
#1376=ADVANCED_FACE('',(#154),#84,.T.);
#1377=ADVANCED_FACE('',(#155),#85,.T.);
#1378=ADVANCED_FACE('',(#156),#86,.T.);
#1379=ADVANCED_FACE('',(#157),#87,.T.);
#1380=CLOSED_SHELL('',(#1310,#1311,#1312,#1313,#1314,#1315,#1316,#1317,
#1318,#1319,#1320,#1321,#1322,#1323,#1324,#1325,#1326,#1327,#1328,#1329,
#1330,#1331,#1332,#1333,#1334,#1335,#1336,#1337,#1338,#1339,#1340,#1341,
#1342,#1343,#1344,#1345,#1346,#1347,#1348,#1349,#1350,#1351,#1352,#1353,
#1354,#1355,#1356,#1357,#1358,#1359,#1360,#1361,#1362,#1363,#1364,#1365,
#1366,#1367,#1368,#1369,#1370,#1371,#1372,#1373,#1374,#1375,#1376,#1377,
#1378,#1379));
#1381=DERIVED_UNIT_ELEMENT(#1383,1.);
#1382=DERIVED_UNIT_ELEMENT(#2204,-3.);
#1383=(
MASS_UNIT()
NAMED_UNIT(*)
SI_UNIT(.KILO.,.GRAM.)
);
#1384=DERIVED_UNIT((#1381,#1382));
#1385=MEASURE_REPRESENTATION_ITEM('density measure',
POSITIVE_RATIO_MEASURE(7850.),#1384);
#1386=PROPERTY_DEFINITION_REPRESENTATION(#1391,#1388);
#1387=PROPERTY_DEFINITION_REPRESENTATION(#1392,#1389);
#1388=REPRESENTATION('material name',(#1390),#2201);
#1389=REPRESENTATION('density',(#1385),#2201);
#1390=DESCRIPTIVE_REPRESENTATION_ITEM('Steel','Steel');
#1391=PROPERTY_DEFINITION('material property','material name',#2211);
#1392=PROPERTY_DEFINITION('material property','density of part',#2211);
#1393=AXIS2_PLACEMENT_3D('',#1813,#1472,#1473);
#1394=AXIS2_PLACEMENT_3D('',#1814,#1474,#1475);
#1395=AXIS2_PLACEMENT_3D('',#1816,#1476,#1477);
#1396=AXIS2_PLACEMENT_3D('',#1819,#1479,#1480);
#1397=AXIS2_PLACEMENT_3D('',#1820,#1481,#1482);
#1398=AXIS2_PLACEMENT_3D('',#1833,#1489,#1490);
#1399=AXIS2_PLACEMENT_3D('',#1839,#1494,#1495);
#1400=AXIS2_PLACEMENT_3D('',#1867,#1509,#1510);
#1401=AXIS2_PLACEMENT_3D('',#1871,#1512,#1513);
#1402=AXIS2_PLACEMENT_3D('',#1905,#1531,#1532);
#1403=AXIS2_PLACEMENT_3D('',#1926,#1543,#1544);
#1404=AXIS2_PLACEMENT_3D('',#1930,#1546,#1547);
#1405=AXIS2_PLACEMENT_3D('',#1972,#1569,#1570);
#1406=AXIS2_PLACEMENT_3D('',#1975,#1573,#1574);
#1407=AXIS2_PLACEMENT_3D('',#1977,#1576,#1577);
#1408=AXIS2_PLACEMENT_3D('',#1979,#1579,#1580);
#1409=AXIS2_PLACEMENT_3D('',#1982,#1583,#1584);
#1410=AXIS2_PLACEMENT_3D('',#1984,#1586,#1587);
#1411=AXIS2_PLACEMENT_3D('',#1986,#1589,#1590);
#1412=AXIS2_PLACEMENT_3D('',#1989,#1593,#1594);
#1413=AXIS2_PLACEMENT_3D('',#1991,#1596,#1597);
#1414=AXIS2_PLACEMENT_3D('',#1993,#1599,#1600);
#1415=AXIS2_PLACEMENT_3D('',#1996,#1603,#1604);
#1416=AXIS2_PLACEMENT_3D('',#1998,#1606,#1607);
#1417=AXIS2_PLACEMENT_3D('',#1999,#1608,#1609);
#1418=AXIS2_PLACEMENT_3D('',#2005,#1613,#1614);
#1419=AXIS2_PLACEMENT_3D('',#2008,#1617,#1618);
#1420=AXIS2_PLACEMENT_3D('',#2010,#1620,#1621);
#1421=AXIS2_PLACEMENT_3D('',#2016,#1625,#1626);
#1422=AXIS2_PLACEMENT_3D('',#2020,#1628,#1629);
#1423=AXIS2_PLACEMENT_3D('',#2023,#1632,#1633);
#1424=AXIS2_PLACEMENT_3D('',#2029,#1637,#1638);
#1425=AXIS2_PLACEMENT_3D('',#2035,#1642,#1643);
#1426=AXIS2_PLACEMENT_3D('',#2041,#1647,#1648);
#1427=AXIS2_PLACEMENT_3D('',#2045,#1651,#1652);
#1428=AXIS2_PLACEMENT_3D('',#2049,#1655,#1656);
#1429=AXIS2_PLACEMENT_3D('',#2051,#1658,#1659);
#1430=AXIS2_PLACEMENT_3D('',#2059,#1664,#1665);
#1431=AXIS2_PLACEMENT_3D('',#2063,#1668,#1669);
#1432=AXIS2_PLACEMENT_3D('',#2069,#1673,#1674);
#1433=AXIS2_PLACEMENT_3D('',#2071,#1676,#1677);
#1434=AXIS2_PLACEMENT_3D('',#2073,#1679,#1680);
#1435=AXIS2_PLACEMENT_3D('',#2074,#1681,#1682);
#1436=AXIS2_PLACEMENT_3D('',#2075,#1683,#1684);
#1437=AXIS2_PLACEMENT_3D('',#2081,#1688,#1689);
#1438=AXIS2_PLACEMENT_3D('',#2085,#1692,#1693);
#1439=AXIS2_PLACEMENT_3D('',#2089,#1696,#1697);
#1440=AXIS2_PLACEMENT_3D('',#2091,#1699,#1700);
#1441=AXIS2_PLACEMENT_3D('',#2092,#1701,#1702);
#1442=AXIS2_PLACEMENT_3D('',#2098,#1706,#1707);
#1443=AXIS2_PLACEMENT_3D('',#2106,#1712,#1713);
#1444=AXIS2_PLACEMENT_3D('',#2113,#1718,#1719);
#1445=AXIS2_PLACEMENT_3D('',#2117,#1722,#1723);
#1446=AXIS2_PLACEMENT_3D('',#2119,#1725,#1726);
#1447=AXIS2_PLACEMENT_3D('',#2120,#1727,#1728);
#1448=AXIS2_PLACEMENT_3D('',#2122,#1730,#1731);
#1449=AXIS2_PLACEMENT_3D('',#2123,#1732,#1733);
#1450=AXIS2_PLACEMENT_3D('',#2127,#1736,#1737);
#1451=AXIS2_PLACEMENT_3D('',#2131,#1740,#1741);
#1452=AXIS2_PLACEMENT_3D('',#2132,#1742,#1743);
#1453=AXIS2_PLACEMENT_3D('',#2133,#1744,#1745);
#1454=AXIS2_PLACEMENT_3D('',#2134,#1746,#1747);
#1455=AXIS2_PLACEMENT_3D('',#2144,#1753,#1754);
#1456=AXIS2_PLACEMENT_3D('',#2150,#1758,#1759);
#1457=AXIS2_PLACEMENT_3D('',#2157,#1764,#1765);
#1458=AXIS2_PLACEMENT_3D('',#2159,#1767,#1768);
#1459=AXIS2_PLACEMENT_3D('',#2169,#1774,#1775);
#1460=AXIS2_PLACEMENT_3D('',#2179,#1781,#1782);
#1461=AXIS2_PLACEMENT_3D('',#2182,#1785,#1786);
#1462=AXIS2_PLACEMENT_3D('',#2184,#1788,#1789);
#1463=AXIS2_PLACEMENT_3D('',#2185,#1790,#1791);
#1464=AXIS2_PLACEMENT_3D('',#2186,#1792,#1793);
#1465=AXIS2_PLACEMENT_3D('',#2188,#1795,#1796);
#1466=AXIS2_PLACEMENT_3D('',#2191,#1799,#1800);
#1467=AXIS2_PLACEMENT_3D('',#2192,#1801,#1802);
#1468=AXIS2_PLACEMENT_3D('',#2193,#1803,#1804);
#1469=AXIS2_PLACEMENT_3D('',#2195,#1806,#1807);
#1470=AXIS2_PLACEMENT_3D('',#2196,#1808,#1809);
#1471=AXIS2_PLACEMENT_3D('',#2198,#1811,#1812);
#1472=DIRECTION('axis',(0.,0.,1.));
#1473=DIRECTION('refdir',(1.,0.,0.));
#1474=DIRECTION('center_axis',(-1.,6.12323399573678E-17,0.));
#1475=DIRECTION('ref_axis',(-6.12323399573678E-17,-1.,0.));
#1476=DIRECTION('center_axis',(-1.,-1.21133177158025E-17,1.84827295965829E-16));
#1477=DIRECTION('ref_axis',(1.21133177158024E-17,-1.,-3.46944695195362E-16));
#1478=DIRECTION('',(-1.,6.12323399573678E-17,0.));
#1479=DIRECTION('center_axis',(-1.,-1.21133177158025E-17,1.84827295965829E-16));
#1480=DIRECTION('ref_axis',(1.21133177158024E-17,-1.,-3.46944695195362E-16));
#1481=DIRECTION('center_axis',(2.77555756156289E-16,-1.,0.));
#1482=DIRECTION('ref_axis',(1.,2.77555756156289E-16,0.));
#1483=DIRECTION('',(-1.,-2.77555756156289E-16,0.));
#1484=DIRECTION('',(0.,0.,1.));
#1485=DIRECTION('',(1.,2.77555756156289E-16,0.));
#1486=DIRECTION('',(0.,0.,-1.));
#1487=DIRECTION('',(-1.,-2.77555756156289E-16,0.));
#1488=DIRECTION('',(-1.,-2.77555756156289E-16,0.));
#1489=DIRECTION('center_axis',(-1.96261557335472E-16,0.707106781186548,
0.707106781186548));
#1490=DIRECTION('ref_axis',(1.,2.77555756156289E-16,0.));
#1491=DIRECTION('',(0.,0.707106781186548,-0.707106781186548));
#1492=DIRECTION('',(-1.,-2.77555756156289E-16,0.));
#1493=DIRECTION('',(0.,-0.707106781186547,0.707106781186547));
#1494=DIRECTION('center_axis',(0.,0.,1.));
#1495=DIRECTION('ref_axis',(1.,0.,0.));
#1496=DIRECTION('',(0.,1.,0.));
#1497=DIRECTION('',(1.,0.,0.));
#1498=DIRECTION('',(0.,-1.,0.));
#1499=DIRECTION('',(-1.,-2.77555756156289E-16,0.));
#1500=DIRECTION('',(0.,1.,0.));
#1501=DIRECTION('',(1.,0.,0.));
#1502=DIRECTION('',(-6.12323399573678E-17,-1.,0.));
#1503=DIRECTION('',(-1.,0.,0.));
#1504=DIRECTION('',(-1.,0.,0.));
#1505=DIRECTION('',(-1.73472347597681E-16,1.,0.));
#1506=DIRECTION('',(1.,4.44800891276104E-16,0.));
#1507=DIRECTION('',(1.,0.,0.));
#1508=DIRECTION('',(-6.12323399573678E-17,-1.,0.));
#1509=DIRECTION('center_axis',(0.,0.,-1.));
#1510=DIRECTION('ref_axis',(1.,0.,0.));
#1511=DIRECTION('',(1.,0.,0.));
#1512=DIRECTION('center_axis',(0.,0.,-1.));
#1513=DIRECTION('ref_axis',(1.,0.,0.));
#1514=DIRECTION('',(0.,1.,0.));
#1515=DIRECTION('',(1.,0.,0.));
#1516=DIRECTION('',(-1.,4.44800891276104E-16,0.));
#1517=DIRECTION('',(0.,1.,0.));
#1518=DIRECTION('',(1.,0.,0.));
#1519=DIRECTION('',(-1.,0.,0.));
#1520=DIRECTION('',(0.,1.,0.));
#1521=DIRECTION('',(-1.,-6.30808536718839E-16,0.));
#1522=DIRECTION('',(0.,1.,0.));
#1523=DIRECTION('',(0.,1.,0.));
#1524=DIRECTION('',(1.,0.,0.));
#1525=DIRECTION('',(0.,-1.,0.));
#1526=DIRECTION('',(-1.,-1.15648231731787E-16,0.));
#1527=DIRECTION('',(1.,0.,0.));
#1528=DIRECTION('',(0.,-1.,0.));
#1529=DIRECTION('',(-1.,0.,0.));
#1530=DIRECTION('',(0.,1.,0.));
#1531=DIRECTION('center_axis',(0.,0.,1.));
#1532=DIRECTION('ref_axis',(1.,0.,0.));
#1533=DIRECTION('',(1.,0.,0.));
#1534=DIRECTION('',(0.,1.,0.));
#1535=DIRECTION('',(0.,1.,0.));
#1536=DIRECTION('',(-1.,0.,0.));
#1537=DIRECTION('',(0.,-1.,0.));
#1538=DIRECTION('',(-1.,0.,0.));
#1539=DIRECTION('',(0.,-1.,0.));
#1540=DIRECTION('',(0.,1.,0.));
#1541=DIRECTION('',(-1.,-6.30808536718839E-16,0.));
#1542=DIRECTION('',(0.,1.,0.));
#1543=DIRECTION('center_axis',(0.,0.,-1.));
#1544=DIRECTION('ref_axis',(1.,0.,0.));
#1545=DIRECTION('',(1.,0.,0.));
#1546=DIRECTION('center_axis',(0.,0.,-1.));
#1547=DIRECTION('ref_axis',(1.,0.,0.));
#1548=DIRECTION('',(-6.12323399573678E-17,-1.,0.));
#1549=DIRECTION('',(-1.,6.12323399573678E-17,0.));
#1550=DIRECTION('',(-6.97290550764496E-17,-1.,-1.45716771982052E-16));
#1551=DIRECTION('',(-1.,6.12323399573678E-17,0.));
#1552=DIRECTION('',(-6.12323399573678E-17,-1.,0.));
#1553=DIRECTION('',(1.,0.,0.));
#1554=DIRECTION('',(0.,1.,0.));
#1555=DIRECTION('',(-1.,-2.77555756156289E-16,0.));
#1556=DIRECTION('',(0.,-1.,0.));
#1557=DIRECTION('',(-1.,4.44800891276104E-16,0.));
#1558=DIRECTION('',(0.,-1.,0.));
#1559=DIRECTION('',(1.,0.,0.));
#1560=DIRECTION('',(0.,1.,0.));
#1561=DIRECTION('',(-1.,0.,0.));
#1562=DIRECTION('',(2.60208521396521E-16,-1.,0.));
#1563=DIRECTION('',(1.,4.44800891276104E-16,0.));
#1564=DIRECTION('',(-1.73472347597681E-16,1.,0.));
#1565=DIRECTION('',(-1.,2.16840434497101E-16,0.));
#1566=DIRECTION('',(0.,-1.,0.));
#1567=DIRECTION('',(1.,0.,0.));
#1568=DIRECTION('',(0.,1.,0.));
#1569=DIRECTION('center_axis',(-4.44800891276104E-16,-1.,0.));
#1570=DIRECTION('ref_axis',(1.,-4.44800891276104E-16,0.));
#1571=DIRECTION('',(0.,0.,-1.));
#1572=DIRECTION('',(0.,0.,-1.));
#1573=DIRECTION('center_axis',(-1.,0.,0.));
#1574=DIRECTION('ref_axis',(0.,0.,1.));
#1575=DIRECTION('',(0.,0.,-1.));
#1576=DIRECTION('center_axis',(0.,1.,0.));
#1577=DIRECTION('ref_axis',(0.,0.,1.));
#1578=DIRECTION('',(0.,0.,-1.));
#1579=DIRECTION('center_axis',(0.,-1.,0.));
#1580=DIRECTION('ref_axis',(0.,0.,-1.));
#1581=DIRECTION('',(0.,0.,-1.));
#1582=DIRECTION('',(0.,0.,-1.));
#1583=DIRECTION('center_axis',(-1.,-1.73472347597681E-16,0.));
#1584=DIRECTION('ref_axis',(1.73472347597681E-16,-1.,0.));
#1585=DIRECTION('',(0.,0.,-1.));
#1586=DIRECTION('center_axis',(-4.44800891276105E-16,1.,0.));
#1587=DIRECTION('ref_axis',(-1.,-4.44800891276105E-16,0.));
#1588=DIRECTION('',(0.,0.,-1.));
#1589=DIRECTION('center_axis',(0.,0.,-1.));
#1590=DIRECTION('ref_axis',(-1.,0.,0.));
#1591=DIRECTION('',(0.,0.,-1.));
#1592=DIRECTION('',(0.,0.,-1.));
#1593=DIRECTION('center_axis',(0.,1.,0.));
#1594=DIRECTION('ref_axis',(0.,0.,1.));
#1595=DIRECTION('',(0.,0.,-1.));
#1596=DIRECTION('center_axis',(0.,0.,-1.));
#1597=DIRECTION('ref_axis',(-1.,0.,0.));
#1598=DIRECTION('',(0.,0.,-1.));
#1599=DIRECTION('center_axis',(-1.,0.,0.));
#1600=DIRECTION('ref_axis',(0.,0.,1.));
#1601=DIRECTION('',(0.,0.,-1.));
#1602=DIRECTION('',(0.,1.,0.));
#1603=DIRECTION('center_axis',(6.30808536718839E-16,-1.,0.));
#1604=DIRECTION('ref_axis',(1.,6.3080853671884E-16,0.));
#1605=DIRECTION('',(0.,0.,-1.));
#1606=DIRECTION('center_axis',(-1.,0.,0.));
#1607=DIRECTION('ref_axis',(0.,0.,1.));
#1608=DIRECTION('center_axis',(2.77555756156289E-16,-1.,0.));
#1609=DIRECTION('ref_axis',(1.,2.77555756156289E-16,0.));
#1610=DIRECTION('',(1.,2.77555756156289E-16,0.));
#1611=DIRECTION('',(0.,0.,1.));
#1612=DIRECTION('',(0.,0.,-1.));
#1613=DIRECTION('center_axis',(-1.,0.,0.));
#1614=DIRECTION('ref_axis',(0.,0.,1.));
#1615=DIRECTION('',(0.,0.707106781186548,-0.707106781186548));
#1616=DIRECTION('',(0.,0.,-1.));
#1617=DIRECTION('center_axis',(0.,1.,0.));
#1618=DIRECTION('ref_axis',(0.,0.,1.));
#1619=DIRECTION('',(0.,0.,-1.));
#1620=DIRECTION('center_axis',(1.,2.60208521396521E-16,0.));
#1621=DIRECTION('ref_axis',(-2.60208521396521E-16,1.,0.));
#1622=DIRECTION('',(0.,1.,0.));
#1623=DIRECTION('',(0.,0.,-1.));
#1624=DIRECTION('',(0.,0.,-1.));
#1625=DIRECTION('center_axis',(1.,-6.12323399573678E-17,0.));
#1626=DIRECTION('ref_axis',(6.12323399573678E-17,1.,0.));
#1627=DIRECTION('',(9.97406254401377E-17,0.866025403784441,-0.499999999999996));
#1628=DIRECTION('center_axis',(-1.,-1.21133177158025E-17,1.84827295965829E-16));
#1629=DIRECTION('ref_axis',(1.21133177158024E-17,-1.,-3.85494105772624E-16));
#1630=DIRECTION('',(1.27496201055767E-16,0.866025403784441,-0.499999999999996));
#1631=DIRECTION('',(-6.12323399573678E-17,-1.,0.));
#1632=DIRECTION('center_axis',(1.,0.,0.));
#1633=DIRECTION('ref_axis',(0.,0.,-1.));
#1634=DIRECTION('',(0.,0.,-1.));
#1635=DIRECTION('',(0.,1.,0.));
#1636=DIRECTION('',(0.,0.,-1.));
#1637=DIRECTION('center_axis',(0.,1.,0.));
#1638=DIRECTION('ref_axis',(0.,0.,1.));
#1639=DIRECTION('',(0.,0.,-1.));
#1640=DIRECTION('',(1.,0.,0.));
#1641=DIRECTION('',(0.,0.,-1.));
#1642=DIRECTION('center_axis',(-1.,0.,0.));
#1643=DIRECTION('ref_axis',(0.,0.,1.));
#1644=DIRECTION('',(0.,0.,-1.));
#1645=DIRECTION('',(0.,-0.707106781186548,0.707106781186547));
#1646=DIRECTION('',(0.,1.,0.));
#1647=DIRECTION('center_axis',(1.15648231731787E-16,-1.,0.));
#1648=DIRECTION('ref_axis',(1.,1.15648231731787E-16,0.));
#1649=DIRECTION('',(0.,0.,-1.));
#1650=DIRECTION('',(1.,1.15648231731787E-16,0.));
#1651=DIRECTION('center_axis',(1.,0.,0.));
#1652=DIRECTION('ref_axis',(0.,0.,-1.));
#1653=DIRECTION('',(0.,-1.,0.));
#1654=DIRECTION('',(0.,0.707106781186548,-0.707106781186547));
#1655=DIRECTION('center_axis',(0.,0.,1.));
#1656=DIRECTION('ref_axis',(1.,0.,0.));
#1657=DIRECTION('',(-1.,-1.15648231731787E-16,0.));
#1658=DIRECTION('center_axis',(1.,0.,0.));
#1659=DIRECTION('ref_axis',(0.,0.,-1.));
#1660=DIRECTION('',(0.,0.,-1.));
#1661=DIRECTION('',(0.,0.707106781186553,0.707106781186543));
#1662=DIRECTION('',(0.,-1.,0.));
#1663=DIRECTION('',(0.,0.,-1.));
#1664=DIRECTION('center_axis',(0.,1.,0.));
#1665=DIRECTION('ref_axis',(0.,0.,1.));
#1666=DIRECTION('',(0.,0.,-1.));
#1667=DIRECTION('',(-1.,0.,0.));
#1668=DIRECTION('center_axis',(-1.,0.,0.));
#1669=DIRECTION('ref_axis',(0.,0.,1.));
#1670=DIRECTION('',(0.,1.,0.));
#1671=DIRECTION('',(0.,-0.707106781186553,-0.707106781186543));
#1672=DIRECTION('',(0.,0.,-1.));
#1673=DIRECTION('center_axis',(0.,-1.,0.));
#1674=DIRECTION('ref_axis',(0.,0.,-1.));
#1675=DIRECTION('',(-1.,0.,0.));
#1676=DIRECTION('center_axis',(0.,0.,1.));
#1677=DIRECTION('ref_axis',(1.,0.,0.));
#1678=DIRECTION('',(1.,0.,0.));
#1679=DIRECTION('center_axis',(0.,-0.707106781186543,0.707106781186552));
#1680=DIRECTION('ref_axis',(-1.,0.,0.));
#1681=DIRECTION('center_axis',(-8.17756488897799E-17,0.707106781186547,
0.707106781186548));
#1682=DIRECTION('ref_axis',(1.,1.15648231731787E-16,0.));
#1683=DIRECTION('center_axis',(2.16840434497101E-16,1.,0.));
#1684=DIRECTION('ref_axis',(-1.,2.16840434497101E-16,0.));
#1685=DIRECTION('',(0.,0.,1.));
#1686=DIRECTION('',(-1.,2.16840434497101E-16,0.));
#1687=DIRECTION('',(0.,0.,1.));
#1688=DIRECTION('center_axis',(1.,0.,0.));
#1689=DIRECTION('ref_axis',(0.,0.,-1.));
#1690=DIRECTION('',(0.,0.,1.));
#1691=DIRECTION('',(0.,1.,0.));
#1692=DIRECTION('center_axis',(0.,-1.,0.));
#1693=DIRECTION('ref_axis',(0.,0.,-1.));
#1694=DIRECTION('',(0.,0.,1.));
#1695=DIRECTION('',(1.,0.,0.));
#1696=DIRECTION('center_axis',(-1.,0.,0.));
#1697=DIRECTION('ref_axis',(0.,0.,1.));
#1698=DIRECTION('',(0.,-1.,0.));
#1699=DIRECTION('center_axis',(0.,0.,1.));
#1700=DIRECTION('ref_axis',(1.,0.,0.));
#1701=DIRECTION('center_axis',(0.,0.,1.));
#1702=DIRECTION('ref_axis',(1.,0.,0.));
#1703=DIRECTION('',(0.,-1.,0.));
#1704=DIRECTION('',(1.,0.,0.));
#1705=DIRECTION('',(0.,1.,0.));
#1706=DIRECTION('center_axis',(0.,1.,0.));
#1707=DIRECTION('ref_axis',(0.,0.,1.));
#1708=DIRECTION('',(0.636181582749287,0.,-0.771539366312965));
#1709=DIRECTION('',(0.,0.,1.));
#1710=DIRECTION('',(-1.,0.,0.));
#1711=DIRECTION('',(0.,0.,1.));
#1712=DIRECTION('center_axis',(1.,0.,0.));
#1713=DIRECTION('ref_axis',(0.,0.,-1.));
#1714=DIRECTION('',(0.,-1.,0.));
#1715=DIRECTION('',(0.,0.,1.));
#1716=DIRECTION('',(0.,0.,1.));
#1717=DIRECTION('',(0.,1.,0.));
#1718=DIRECTION('center_axis',(0.,-1.,0.));
#1719=DIRECTION('ref_axis',(0.,0.,-1.));
#1720=DIRECTION('',(0.,0.,1.));
#1721=DIRECTION('',(1.,0.,0.));
#1722=DIRECTION('center_axis',(-1.,0.,0.));
#1723=DIRECTION('ref_axis',(0.,0.,1.));
#1724=DIRECTION('',(0.,-1.,0.));
#1725=DIRECTION('center_axis',(0.,0.,1.));
#1726=DIRECTION('ref_axis',(1.,0.,0.));
#1727=DIRECTION('center_axis',(-0.771539366312965,0.,-0.636181582749287));
#1728=DIRECTION('ref_axis',(-0.636181582749287,0.,0.771539366312965));
#1729=DIRECTION('',(0.636181582749287,0.,-0.771539366312965));
#1730=DIRECTION('center_axis',(0.,-1.,0.));
#1731=DIRECTION('ref_axis',(0.,0.,-1.));
#1732=DIRECTION('center_axis',(3.06161699786837E-17,0.499999999999996,0.866025403784441));
#1733=DIRECTION('ref_axis',(1.54074395550979E-33,-0.866025403784441,0.499999999999996));
#1734=DIRECTION('',(9.97406254401377E-17,0.866025403784441,-0.499999999999996));
#1735=DIRECTION('',(-1.,6.12323399573678E-17,0.));
#1736=DIRECTION('center_axis',(3.06161699786837E-17,0.499999999999996,0.866025403784441));
#1737=DIRECTION('ref_axis',(0.,-0.866025403784441,0.499999999999996));
#1738=DIRECTION('',(-1.,6.12323399573678E-17,0.));
#1739=DIRECTION('',(1.27496201055767E-16,0.866025403784441,-0.499999999999996));
#1740=DIRECTION('center_axis',(-1.,6.12323399573678E-17,0.));
#1741=DIRECTION('ref_axis',(5.30287619362457E-17,0.866025403784442,-0.499999999999994));
#1742=DIRECTION('center_axis',(-1.,-1.21133177158025E-17,1.84827295965829E-16));
#1743=DIRECTION('ref_axis',(1.21133177158024E-17,-1.,-3.85494105772624E-16));
#1744=DIRECTION('center_axis',(-1.,6.97290550764495E-17,6.19824911452809E-17));
#1745=DIRECTION('ref_axis',(-6.97290550764496E-17,-1.,-1.45716771982052E-16));
#1746=DIRECTION('center_axis',(0.,-1.,0.));
#1747=DIRECTION('ref_axis',(0.,0.,-1.));
#1748=DIRECTION('',(0.707106781186545,0.,0.70710678118655));
#1749=DIRECTION('',(0.,0.,-1.));
#1750=DIRECTION('',(-1.,0.,0.));
#1751=DIRECTION('',(0.6,0.,-0.8));
#1752=DIRECTION('',(-1.,0.,0.));
#1753=DIRECTION('center_axis',(1.,1.15648231731787E-16,0.));
#1754=DIRECTION('ref_axis',(-1.15648231731787E-16,1.,0.));
#1755=DIRECTION('',(1.15648231731787E-16,-1.,0.));
#1756=DIRECTION('',(0.,0.,-1.));
#1757=DIRECTION('',(1.15648231731787E-16,-1.,0.));
#1758=DIRECTION('center_axis',(0.,1.,0.));
#1759=DIRECTION('ref_axis',(0.,0.,1.));
#1760=DIRECTION('',(1.,0.,0.));
#1761=DIRECTION('',(-0.6,0.,0.8));
#1762=DIRECTION('',(1.,0.,0.));
#1763=DIRECTION('',(-0.707106781186545,0.,-0.70710678118655));
#1764=DIRECTION('center_axis',(0.,0.,1.));
#1765=DIRECTION('ref_axis',(1.,0.,0.));
#1766=DIRECTION('',(-2.60208521396521E-16,1.,0.));
#1767=DIRECTION('center_axis',(0.,-1.,0.));
#1768=DIRECTION('ref_axis',(0.,0.,-1.));
#1769=DIRECTION('',(-1.,0.,0.));
#1770=DIRECTION('',(0.6,0.,0.8));
#1771=DIRECTION('',(-1.,0.,0.));
#1772=DIRECTION('',(0.,0.,-1.));
#1773=DIRECTION('',(0.707106781186545,0.,-0.70710678118655));
#1774=DIRECTION('center_axis',(0.,1.,0.));
#1775=DIRECTION('ref_axis',(0.,0.,1.));
#1776=DIRECTION('',(-0.707106781186545,0.,0.70710678118655));
#1777=DIRECTION('',(0.,0.,-1.));
#1778=DIRECTION('',(1.,0.,0.));
#1779=DIRECTION('',(-0.6,0.,-0.8));
#1780=DIRECTION('',(1.,0.,0.));
#1781=DIRECTION('center_axis',(-1.,0.,0.));
#1782=DIRECTION('ref_axis',(0.,0.,1.));
#1783=DIRECTION('',(0.,1.,0.));
#1784=DIRECTION('',(0.,1.,0.));
#1785=DIRECTION('center_axis',(0.,0.,1.));
#1786=DIRECTION('ref_axis',(1.,0.,0.));
#1787=DIRECTION('',(0.,-1.,0.));
#1788=DIRECTION('center_axis',(0.70710678118655,8.17756488897802E-17,-0.707106781186545));
#1789=DIRECTION('ref_axis',(1.15648231731787E-16,-1.,0.));
#1790=DIRECTION('center_axis',(-0.70710678118655,0.,-0.707106781186545));
#1791=DIRECTION('ref_axis',(0.,1.,0.));
#1792=DIRECTION('center_axis',(-1.96261557335472E-16,0.707106781186548,
0.707106781186548));
#1793=DIRECTION('ref_axis',(1.,2.77555756156289E-16,0.));
#1794=DIRECTION('',(0.,-0.707106781186548,0.707106781186548));
#1795=DIRECTION('center_axis',(0.,-1.,0.));
#1796=DIRECTION('ref_axis',(0.,0.,-1.));
#1797=DIRECTION('',(0.,0.,1.));
#1798=DIRECTION('',(0.,0.,1.));
#1799=DIRECTION('center_axis',(1.,0.,0.));
#1800=DIRECTION('ref_axis',(0.,0.,-1.));
#1801=DIRECTION('center_axis',(-1.,0.,0.));
#1802=DIRECTION('ref_axis',(0.,0.,1.));
#1803=DIRECTION('center_axis',(0.,0.,-1.));
#1804=DIRECTION('ref_axis',(-1.,0.,0.));
#1805=DIRECTION('',(0.,1.,0.));
#1806=DIRECTION('center_axis',(0.8,0.,0.6));
#1807=DIRECTION('ref_axis',(0.6,0.,-0.8));
#1808=DIRECTION('center_axis',(-0.8,0.,0.6));
#1809=DIRECTION('ref_axis',(0.6,0.,0.8));
#1810=DIRECTION('',(0.,1.,0.));
#1811=DIRECTION('center_axis',(0.,0.,-1.));
#1812=DIRECTION('ref_axis',(-1.,0.,0.));
#1813=CARTESIAN_POINT('',(0.,0.,0.));
#1814=CARTESIAN_POINT('Origin',(2.00000000000008,29.5999999999995,-5.90000000000014));
#1815=CARTESIAN_POINT('',(2.00000000000008,32.0999999999995,-5.90000000000014));
#1816=CARTESIAN_POINT('Origin',(2.00000000000008,29.5999999999995,-5.90000000000014));
#1817=CARTESIAN_POINT('',(8.29891710907305E-14,32.0999999999995,-5.90000000000014));
#1818=CARTESIAN_POINT('',(2.00000000000008,32.0999999999995,-5.90000000000014));
#1819=CARTESIAN_POINT('Origin',(8.32667268468867E-14,29.5999999999995,-5.90000000000014));
#1820=CARTESIAN_POINT('Origin',(-1.06858966120171E-14,38.5,1.9));
#1821=CARTESIAN_POINT('',(19.,38.5,0.));
#1822=CARTESIAN_POINT('',(11.8,38.5,0.));
#1823=CARTESIAN_POINT('',(-1.06858966120171E-14,38.5,0.));
#1824=CARTESIAN_POINT('',(11.8,38.5,0.399999999999986));
#1825=CARTESIAN_POINT('',(11.8,38.5,-10.1));
#1826=CARTESIAN_POINT('',(30.5,38.5,0.39999999999999));
#1827=CARTESIAN_POINT('',(30.5,38.5,0.399999999999985));
#1828=CARTESIAN_POINT('',(30.5,38.5,0.));
#1829=CARTESIAN_POINT('',(30.5,38.5,1.9));
#1830=CARTESIAN_POINT('',(21.,38.5,0.));
#1831=CARTESIAN_POINT('',(-1.06858966120171E-14,38.5,0.));
#1832=CARTESIAN_POINT('',(-1.06858966120171E-14,38.5,0.));
#1833=CARTESIAN_POINT('Origin',(-1.02695629777827E-14,37.,1.9));
#1834=CARTESIAN_POINT('',(11.8,37.,1.9));
#1835=CARTESIAN_POINT('',(11.8,37.,1.9));
#1836=CARTESIAN_POINT('',(30.5,37.,1.9));
#1837=CARTESIAN_POINT('',(5.5,37.,1.9));
#1838=CARTESIAN_POINT('',(30.5,37.,1.9));
#1839=CARTESIAN_POINT('Origin',(0.,0.,1.9));
#1840=CARTESIAN_POINT('',(11.8,35.,1.9));
#1841=CARTESIAN_POINT('',(11.8,38.5,1.9));
#1842=CARTESIAN_POINT('',(7.3,35.,1.9));
#1843=CARTESIAN_POINT('',(11.8,35.,1.9));
#1844=CARTESIAN_POINT('',(7.3,37.,1.9));
#1845=CARTESIAN_POINT('',(7.3,35.,1.9));
#1846=CARTESIAN_POINT('',(5.5,37.,1.9));
#1847=CARTESIAN_POINT('',(5.5,37.,1.9));
#1848=CARTESIAN_POINT('',(5.5,28.5,1.9));
#1849=CARTESIAN_POINT('',(5.5,0.,1.9));
#1850=CARTESIAN_POINT('',(1.22464679914735E-15,28.5,1.9));
#1851=CARTESIAN_POINT('',(0.,28.5,1.9));
#1852=CARTESIAN_POINT('',(9.98087141305092E-16,24.8,1.9));
#1853=CARTESIAN_POINT('',(-5.2047488963763E-16,3.18698953815649E-32,1.9));
#1854=CARTESIAN_POINT('',(2.5,24.8,1.9));
#1855=CARTESIAN_POINT('',(2.5,24.8,1.9));
#1856=CARTESIAN_POINT('',(6.4,24.8,1.9));
#1857=CARTESIAN_POINT('',(0.,24.8,1.9));
#1858=CARTESIAN_POINT('',(6.4,9.8,1.9));
#1859=CARTESIAN_POINT('',(6.40000000000001,1.11022302462516E-15,1.9));
#1860=CARTESIAN_POINT('',(2.5,9.8,1.9));
#1861=CARTESIAN_POINT('',(-4.35904873450582E-15,9.8,1.9));
#1862=CARTESIAN_POINT('',(7.96020419445743E-17,9.8,1.9));
#1863=CARTESIAN_POINT('',(1.,9.8,1.9));
#1864=CARTESIAN_POINT('',(-9.62964972193618E-32,8.50000000000006,1.9));
#1865=CARTESIAN_POINT('',(-5.2047488963763E-16,3.18698953815649E-32,1.9));
#1866=CARTESIAN_POINT('',(8.50000000000006,0.,1.9));
#1867=CARTESIAN_POINT('Origin',(8.5,8.5,1.9));
#1868=CARTESIAN_POINT('',(27.4999999999999,0.,1.9));
#1869=CARTESIAN_POINT('',(0.,0.,1.9));
#1870=CARTESIAN_POINT('',(36.,8.50000000000006,1.9));
#1871=CARTESIAN_POINT('Origin',(27.5,8.5,1.9));
#1872=CARTESIAN_POINT('',(36.,9.8,1.9));
#1873=CARTESIAN_POINT('',(36.,0.,1.9));
#1874=CARTESIAN_POINT('',(33.5,9.8,1.9));
#1875=CARTESIAN_POINT('',(33.5,9.8,1.9));
#1876=CARTESIAN_POINT('',(29.6,9.8,1.9));
#1877=CARTESIAN_POINT('',(4.35904873450583E-15,9.80000000000001,1.9));
#1878=CARTESIAN_POINT('',(29.6,24.8,1.9));
#1879=CARTESIAN_POINT('',(29.6,0.,1.9));
#1880=CARTESIAN_POINT('',(33.5,24.8,1.9));
#1881=CARTESIAN_POINT('',(0.,24.8,1.9));
#1882=CARTESIAN_POINT('',(36.,24.8,1.9));
#1883=CARTESIAN_POINT('',(35.,24.8,1.9));
#1884=CARTESIAN_POINT('',(36.,28.5,1.9));
#1885=CARTESIAN_POINT('',(36.,0.,1.9));
#1886=CARTESIAN_POINT('',(30.5,28.5,1.9));
#1887=CARTESIAN_POINT('',(-1.79780432964869E-14,28.5,1.9));
#1888=CARTESIAN_POINT('',(30.5,0.,1.9));
#1889=CARTESIAN_POINT('',(25.5,0.8,1.9));
#1890=CARTESIAN_POINT('',(25.5,2.3,1.9));
#1891=CARTESIAN_POINT('',(25.5,0.8,1.9));
#1892=CARTESIAN_POINT('',(10.5,0.8,1.9));
#1893=CARTESIAN_POINT('',(18.,0.8,1.9));
#1894=CARTESIAN_POINT('',(10.5,2.3,1.9));
#1895=CARTESIAN_POINT('',(10.5,2.3,1.9));
#1896=CARTESIAN_POINT('',(25.5,2.3,1.9));
#1897=CARTESIAN_POINT('',(16.8,32.6,1.9));
#1898=CARTESIAN_POINT('',(23.4,32.6,1.9));
#1899=CARTESIAN_POINT('',(16.8,32.6,1.9));
#1900=CARTESIAN_POINT('',(16.8,34.1,1.9));
#1901=CARTESIAN_POINT('',(16.8,34.1,1.9));
#1902=CARTESIAN_POINT('',(23.4,34.1,1.9));
#1903=CARTESIAN_POINT('',(23.4,34.1,1.9));
#1904=CARTESIAN_POINT('',(23.4,32.6,1.9));
#1905=CARTESIAN_POINT('Origin',(0.,0.,0.));
#1906=CARTESIAN_POINT('',(7.3,35.,0.));
#1907=CARTESIAN_POINT('',(11.8,35.,0.));
#1908=CARTESIAN_POINT('',(0.,35.,0.));
#1909=CARTESIAN_POINT('',(11.8,0.,0.));
#1910=CARTESIAN_POINT('',(19.,37.,0.));
#1911=CARTESIAN_POINT('',(19.,40.6,0.));
#1912=CARTESIAN_POINT('',(14.3,37.,0.));
#1913=CARTESIAN_POINT('',(14.3,37.,0.));
#1914=CARTESIAN_POINT('',(14.3,35.8,0.));
#1915=CARTESIAN_POINT('',(14.3,37.,0.));
#1916=CARTESIAN_POINT('',(21.,35.8,0.));
#1917=CARTESIAN_POINT('',(19.,35.8,0.));
#1918=CARTESIAN_POINT('',(21.,35.8,0.));
#1919=CARTESIAN_POINT('',(30.5,28.5,0.));
#1920=CARTESIAN_POINT('',(30.5,0.,0.));
#1921=CARTESIAN_POINT('',(36.,28.5,0.));
#1922=CARTESIAN_POINT('',(-1.79780432964869E-14,28.5,0.));
#1923=CARTESIAN_POINT('',(36.,8.50000000000006,0.));
#1924=CARTESIAN_POINT('',(36.,0.,0.));
#1925=CARTESIAN_POINT('',(27.4999999999999,0.,0.));
#1926=CARTESIAN_POINT('Origin',(27.5,8.5,0.));
#1927=CARTESIAN_POINT('',(8.50000000000006,0.,0.));
#1928=CARTESIAN_POINT('',(0.,0.,0.));
#1929=CARTESIAN_POINT('',(-9.62964972193618E-32,8.50000000000006,0.));
#1930=CARTESIAN_POINT('Origin',(8.5,8.5,0.));
#1931=CARTESIAN_POINT('',(1.15171922636396E-16,10.3809002353427,0.));
#1932=CARTESIAN_POINT('',(-5.2047488963763E-16,3.18698953815649E-32,0.));
#1933=CARTESIAN_POINT('',(2.00000000000005,10.3809002353427,-8.32667268468867E-14));
#1934=CARTESIAN_POINT('',(2.00000000000005,10.3809002353427,-8.32667268468867E-14));
#1935=CARTESIAN_POINT('',(2.00000000000005,28.3809002353429,-8.32667268468867E-14));
#1936=CARTESIAN_POINT('',(2.,-1.22464679914736E-16,0.));
#1937=CARTESIAN_POINT('',(4.85722573273506E-14,28.3809002353429,-8.32667268468867E-14));
#1938=CARTESIAN_POINT('',(2.00000000000005,28.3809002353429,-8.32667268468867E-14));
#1939=CARTESIAN_POINT('',(1.22464679914735E-15,28.5,0.));
#1940=CARTESIAN_POINT('',(-5.2047488963763E-16,3.18698953815649E-32,0.));
#1941=CARTESIAN_POINT('',(5.5,28.5,0.));
#1942=CARTESIAN_POINT('',(0.,28.5,0.));
#1943=CARTESIAN_POINT('',(5.5,38.5,0.));
#1944=CARTESIAN_POINT('',(5.5,0.,0.));
#1945=CARTESIAN_POINT('',(7.3,38.5,0.));
#1946=CARTESIAN_POINT('',(-1.06858966120171E-14,38.5,0.));
#1947=CARTESIAN_POINT('',(7.3,0.,0.));
#1948=CARTESIAN_POINT('',(33.5,9.8,0.));
#1949=CARTESIAN_POINT('',(29.6,9.8,0.));
#1950=CARTESIAN_POINT('',(4.35904873450583E-15,9.80000000000001,0.));
#1951=CARTESIAN_POINT('',(33.5,24.8,0.));
#1952=CARTESIAN_POINT('',(33.5,0.,0.));
#1953=CARTESIAN_POINT('',(29.6,24.8,0.));
#1954=CARTESIAN_POINT('',(0.,24.8,0.));
#1955=CARTESIAN_POINT('',(29.6,0.,0.));
#1956=CARTESIAN_POINT('',(6.4,24.8,0.));
#1957=CARTESIAN_POINT('',(2.5,24.8,0.));
#1958=CARTESIAN_POINT('',(0.,24.8,0.));
#1959=CARTESIAN_POINT('',(2.5,9.8,0.));
#1960=CARTESIAN_POINT('',(2.50000000000001,6.50521303491304E-16,0.));
#1961=CARTESIAN_POINT('',(6.4,9.8,0.));
#1962=CARTESIAN_POINT('',(-4.35904873450582E-15,9.8,0.));
#1963=CARTESIAN_POINT('',(6.40000000000001,1.11022302462516E-15,0.));
#1964=CARTESIAN_POINT('',(21.,3.,0.));
#1965=CARTESIAN_POINT('',(19.,3.,0.));
#1966=CARTESIAN_POINT('',(19.,3.,0.));
#1967=CARTESIAN_POINT('',(21.,12.,0.));
#1968=CARTESIAN_POINT('',(21.,3.,0.));
#1969=CARTESIAN_POINT('',(19.,12.,0.));
#1970=CARTESIAN_POINT('',(21.,12.,0.));
#1971=CARTESIAN_POINT('',(19.,12.,0.));
#1972=CARTESIAN_POINT('Origin',(4.35904873450583E-15,9.80000000000001,1.9));
#1973=CARTESIAN_POINT('',(29.6,9.8,1.9));
#1974=CARTESIAN_POINT('',(33.5,9.8,1.9));
#1975=CARTESIAN_POINT('Origin',(29.6,0.,1.9));
#1976=CARTESIAN_POINT('',(29.6,24.8,1.9));
#1977=CARTESIAN_POINT('Origin',(0.,24.8,1.9));
#1978=CARTESIAN_POINT('',(33.5,24.8,1.9));
#1979=CARTESIAN_POINT('Origin',(0.,24.8,1.9));
#1980=CARTESIAN_POINT('',(6.4,24.8,1.9));
#1981=CARTESIAN_POINT('',(2.5,24.8,1.9));
#1982=CARTESIAN_POINT('Origin',(6.40000000000001,1.11022302462516E-15,1.9));
#1983=CARTESIAN_POINT('',(6.4,9.8,1.9));
#1984=CARTESIAN_POINT('Origin',(-4.35904873450582E-15,9.8,1.9));
#1985=CARTESIAN_POINT('',(2.5,9.8,1.9));
#1986=CARTESIAN_POINT('Origin',(8.5,8.5,1.9));
#1987=CARTESIAN_POINT('',(8.50000000000006,0.,1.9));
#1988=CARTESIAN_POINT('',(-9.62964972193618E-32,8.50000000000006,1.9));
#1989=CARTESIAN_POINT('Origin',(0.,0.,1.9));
#1990=CARTESIAN_POINT('',(27.4999999999999,0.,1.9));
#1991=CARTESIAN_POINT('Origin',(27.5,8.5,1.9));
#1992=CARTESIAN_POINT('',(36.,8.50000000000006,1.9));
#1993=CARTESIAN_POINT('Origin',(36.,0.,1.9));
#1994=CARTESIAN_POINT('',(36.,28.5,1.9));
#1995=CARTESIAN_POINT('',(36.,0.,1.9));
#1996=CARTESIAN_POINT('Origin',(-1.79780432964869E-14,28.5,1.9));
#1997=CARTESIAN_POINT('',(30.5,28.5,1.9));
#1998=CARTESIAN_POINT('Origin',(30.5,0.,1.9));
#1999=CARTESIAN_POINT('Origin',(-1.06858966120171E-14,38.5,1.9));
#2000=CARTESIAN_POINT('',(5.5,38.5,0.399999999999985));
#2001=CARTESIAN_POINT('',(7.3,38.5,0.399999999999985));
#2002=CARTESIAN_POINT('',(30.5,38.5,0.399999999999985));
#2003=CARTESIAN_POINT('',(7.3,38.5,-10.1));
#2004=CARTESIAN_POINT('',(5.5,38.5,1.9));
#2005=CARTESIAN_POINT('Origin',(5.5,0.,1.9));
#2006=CARTESIAN_POINT('',(5.5,18.5,20.4));
#2007=CARTESIAN_POINT('',(5.5,28.5,1.9));
#2008=CARTESIAN_POINT('Origin',(0.,28.5,1.9));
#2009=CARTESIAN_POINT('',(1.22464679914735E-15,28.5,1.9));
#2010=CARTESIAN_POINT('Origin',(2.50000000000001,6.50521303491304E-16,1.9));
#2011=CARTESIAN_POINT('',(2.5,9.8,11.9));
#2012=CARTESIAN_POINT('',(2.5,24.8,11.9));
#2013=CARTESIAN_POINT('',(2.5,7.3,11.9));
#2014=CARTESIAN_POINT('',(2.5,9.8,13.9));
#2015=CARTESIAN_POINT('',(2.5,24.8,13.9));
#2016=CARTESIAN_POINT('Origin',(-5.2047488963763E-16,3.18698953815649E-32,
1.9));
#2017=CARTESIAN_POINT('',(4.37146059676331E-14,31.8499999999994,-2.00288568297009));
#2018=CARTESIAN_POINT('',(3.46944695195361E-14,7.0952250588356,12.2892902930393));
#2019=CARTESIAN_POINT('',(5.34299086870681E-14,27.3499999999994,-9.79711431703006));
#2020=CARTESIAN_POINT('Origin',(8.32667268468867E-14,29.5999999999995,-5.90000000000014));
#2021=CARTESIAN_POINT('',(0.,2.59522505883564,4.4950616589793));
#2022=CARTESIAN_POINT('',(-5.2047488963763E-16,3.18698953815649E-32,1.9));
#2023=CARTESIAN_POINT('Origin',(33.5,0.,1.9));
#2024=CARTESIAN_POINT('',(33.5,9.8,11.9));
#2025=CARTESIAN_POINT('',(33.5,9.8,13.9));
#2026=CARTESIAN_POINT('',(33.5,24.8,11.9));
#2027=CARTESIAN_POINT('',(33.5,7.3,11.9));
#2028=CARTESIAN_POINT('',(33.5,24.8,13.9));
#2029=CARTESIAN_POINT('Origin',(18.,0.8,4.9));
#2030=CARTESIAN_POINT('',(25.5,0.8,4.9));
#2031=CARTESIAN_POINT('',(25.5,0.8,4.9));
#2032=CARTESIAN_POINT('',(10.5,0.8,4.9));
#2033=CARTESIAN_POINT('',(10.5,0.8,4.9));
#2034=CARTESIAN_POINT('',(10.5,0.8,4.9));
#2035=CARTESIAN_POINT('Origin',(25.5,0.8,4.9));
#2036=CARTESIAN_POINT('',(25.5,2.3,4.4));
#2037=CARTESIAN_POINT('',(25.5,2.3,4.9));
#2038=CARTESIAN_POINT('',(25.5,1.8,4.9));
#2039=CARTESIAN_POINT('',(25.5,1.8,4.9));
#2040=CARTESIAN_POINT('',(25.5,0.8,4.9));
#2041=CARTESIAN_POINT('Origin',(25.5,2.3,4.9));
#2042=CARTESIAN_POINT('',(10.5,2.3,4.4));
#2043=CARTESIAN_POINT('',(10.5,2.3,4.9));
#2044=CARTESIAN_POINT('',(25.5,2.3,4.4));
#2045=CARTESIAN_POINT('Origin',(10.5,2.3,4.9));
#2046=CARTESIAN_POINT('',(10.5,1.8,4.9));
#2047=CARTESIAN_POINT('',(10.5,2.3,4.9));
#2048=CARTESIAN_POINT('',(10.5,1.8,4.9));
#2049=CARTESIAN_POINT('Origin',(0.,0.,4.9));
#2050=CARTESIAN_POINT('',(10.5,1.8,4.9));
#2051=CARTESIAN_POINT('Origin',(16.8,34.1,4.9));
#2052=CARTESIAN_POINT('',(16.8,32.6,4.4));
#2053=CARTESIAN_POINT('',(16.8,32.6,4.9));
#2054=CARTESIAN_POINT('',(16.8,33.1,4.9));
#2055=CARTESIAN_POINT('',(16.8,33.1,4.9));
#2056=CARTESIAN_POINT('',(16.8,34.1,4.9));
#2057=CARTESIAN_POINT('',(16.8,34.1,4.9));
#2058=CARTESIAN_POINT('',(16.8,34.1,4.9));
#2059=CARTESIAN_POINT('Origin',(16.8,32.6,4.9));
#2060=CARTESIAN_POINT('',(23.4,32.6,4.4));
#2061=CARTESIAN_POINT('',(23.4,32.6,4.9));
#2062=CARTESIAN_POINT('',(16.8,32.6,4.4));
#2063=CARTESIAN_POINT('Origin',(23.4,32.6,4.9));
#2064=CARTESIAN_POINT('',(23.4,33.1,4.9));
#2065=CARTESIAN_POINT('',(23.4,34.1,4.9));
#2066=CARTESIAN_POINT('',(23.4,32.6,4.9));
#2067=CARTESIAN_POINT('',(23.4,33.1,4.9));
#2068=CARTESIAN_POINT('',(23.4,34.1,4.9));
#2069=CARTESIAN_POINT('Origin',(23.4,34.1,4.9));
#2070=CARTESIAN_POINT('',(23.4,34.1,4.9));
#2071=CARTESIAN_POINT('Origin',(0.,0.,4.9));
#2072=CARTESIAN_POINT('',(23.4,33.1,4.9));
#2073=CARTESIAN_POINT('Origin',(0.,33.1,4.9));
#2074=CARTESIAN_POINT('Origin',(-2.08166817117217E-16,1.8,4.9));
#2075=CARTESIAN_POINT('Origin',(19.,3.,-8.6));
#2076=CARTESIAN_POINT('',(19.,3.,-8.6));
#2077=CARTESIAN_POINT('',(19.,3.,-8.6));
#2078=CARTESIAN_POINT('',(21.,3.,-8.6));
#2079=CARTESIAN_POINT('',(19.,3.,-8.6));
#2080=CARTESIAN_POINT('',(21.,3.,-8.6));
#2081=CARTESIAN_POINT('Origin',(19.,12.,-8.6));
#2082=CARTESIAN_POINT('',(19.,12.,-8.6));
#2083=CARTESIAN_POINT('',(19.,12.,-8.6));
#2084=CARTESIAN_POINT('',(19.,12.,-8.6));
#2085=CARTESIAN_POINT('Origin',(21.,12.,-8.6));
#2086=CARTESIAN_POINT('',(21.,12.,-8.6));
#2087=CARTESIAN_POINT('',(21.,12.,-8.6));
#2088=CARTESIAN_POINT('',(21.,12.,-8.6));
#2089=CARTESIAN_POINT('Origin',(21.,3.,-8.6));
#2090=CARTESIAN_POINT('',(21.,3.,-8.6));
#2091=CARTESIAN_POINT('Origin',(0.,0.,-8.6));
#2092=CARTESIAN_POINT('Origin',(0.,0.,0.));
#2093=CARTESIAN_POINT('',(21.,40.6,0.));
#2094=CARTESIAN_POINT('',(21.,35.8,0.));
#2095=CARTESIAN_POINT('',(19.,40.6,0.));
#2096=CARTESIAN_POINT('',(21.,40.6,0.));
#2097=CARTESIAN_POINT('',(19.,40.6,0.));
#2098=CARTESIAN_POINT('Origin',(19.,35.8,-8.6));
#2099=CARTESIAN_POINT('',(19.,35.8,-5.7));
#2100=CARTESIAN_POINT('',(19.,35.8,-5.7));
#2101=CARTESIAN_POINT('',(19.,35.8,-8.6));
#2102=CARTESIAN_POINT('',(19.,35.8,-8.6));
#2103=CARTESIAN_POINT('',(21.,35.8,-8.6));
#2104=CARTESIAN_POINT('',(19.,35.8,-8.6));
#2105=CARTESIAN_POINT('',(21.,35.8,-8.6));
#2106=CARTESIAN_POINT('Origin',(19.,40.6,-8.6));
#2107=CARTESIAN_POINT('',(19.,37.,-5.7));
#2108=CARTESIAN_POINT('',(19.,37.,-5.7));
#2109=CARTESIAN_POINT('',(19.,37.,0.));
#2110=CARTESIAN_POINT('',(19.,40.6,-8.6));
#2111=CARTESIAN_POINT('',(19.,40.6,-8.6));
#2112=CARTESIAN_POINT('',(19.,40.6,-8.6));
#2113=CARTESIAN_POINT('Origin',(21.,40.6,-8.6));
#2114=CARTESIAN_POINT('',(21.,40.6,-8.6));
#2115=CARTESIAN_POINT('',(21.,40.6,-8.6));
#2116=CARTESIAN_POINT('',(21.,40.6,-8.6));
#2117=CARTESIAN_POINT('Origin',(21.,35.8,-8.6));
#2118=CARTESIAN_POINT('',(21.,35.8,-8.6));
#2119=CARTESIAN_POINT('Origin',(0.,0.,-8.6));
#2120=CARTESIAN_POINT('Origin',(19.,37.,-5.7));
#2121=CARTESIAN_POINT('',(19.,37.,-5.7));
#2122=CARTESIAN_POINT('Origin',(0.,37.,0.));
#2123=CARTESIAN_POINT('Origin',(2.00000000000003,7.0952250588356,12.2892902930393));
#2124=CARTESIAN_POINT('',(2.00000000000004,31.8499999999994,-2.00288568297009));
#2125=CARTESIAN_POINT('',(2.00000000000003,7.0952250588356,12.2892902930393));
#2126=CARTESIAN_POINT('',(2.00000000000004,31.8499999999994,-2.00288568297009));
#2127=CARTESIAN_POINT('Origin',(2.,2.59522505883564,4.4950616589793));
#2128=CARTESIAN_POINT('',(2.00000000000005,27.3499999999994,-9.79711431703006));
#2129=CARTESIAN_POINT('',(2.00000000000005,27.3499999999994,-9.79711431703006));
#2130=CARTESIAN_POINT('',(2.,2.59522505883564,4.4950616589793));
#2131=CARTESIAN_POINT('Origin',(2.00000000000008,29.5999999999995,-5.90000000000014));
#2132=CARTESIAN_POINT('Origin',(2.00000000000008,29.5999999999995,-5.90000000000014));
#2133=CARTESIAN_POINT('Origin',(2.,-1.22464679914736E-16,0.));
#2134=CARTESIAN_POINT('Origin',(2.5,24.8,13.9));
#2135=CARTESIAN_POINT('',(1.,24.8,2.90000000000001));
#2136=CARTESIAN_POINT('',(7.24999999999999,24.8,9.15000000000005));
#2137=CARTESIAN_POINT('',(1.,24.8,13.9));
#2138=CARTESIAN_POINT('',(1.,24.8,13.9));
#2139=CARTESIAN_POINT('',(2.5,24.8,13.9));
#2140=CARTESIAN_POINT('',(2.5,24.8,13.9));
#2141=CARTESIAN_POINT('',(4.,24.8,11.9));
#2142=CARTESIAN_POINT('',(4.,24.8,11.9));
#2143=CARTESIAN_POINT('',(2.5,24.8,11.9));
#2144=CARTESIAN_POINT('Origin',(1.,24.8,13.9));
#2145=CARTESIAN_POINT('',(1.,9.8,2.90000000000001));
#2146=CARTESIAN_POINT('',(1.,24.8,2.90000000000001));
#2147=CARTESIAN_POINT('',(1.,9.8,13.9));
#2148=CARTESIAN_POINT('',(1.,9.8,13.9));
#2149=CARTESIAN_POINT('',(1.,24.8,13.9));
#2150=CARTESIAN_POINT('Origin',(1.,9.8,13.9));
#2151=CARTESIAN_POINT('',(4.,9.8,11.9));
#2152=CARTESIAN_POINT('',(2.5,9.8,11.9));
#2153=CARTESIAN_POINT('',(2.5,9.8,13.9));
#2154=CARTESIAN_POINT('',(4.,9.8,11.9));
#2155=CARTESIAN_POINT('',(1.,9.8,13.9));
#2156=CARTESIAN_POINT('',(6.5,9.8,8.40000000000005));
#2157=CARTESIAN_POINT('Origin',(0.,0.,13.9));
#2158=CARTESIAN_POINT('',(2.5,9.8,13.9));
#2159=CARTESIAN_POINT('Origin',(35.,24.8,13.9));
#2160=CARTESIAN_POINT('',(32.,24.8,11.9));
#2161=CARTESIAN_POINT('',(33.5,24.8,11.9));
#2162=CARTESIAN_POINT('',(33.5,24.8,13.9));
#2163=CARTESIAN_POINT('',(32.,24.8,11.9));
#2164=CARTESIAN_POINT('',(35.,24.8,13.9));
#2165=CARTESIAN_POINT('',(35.,24.8,13.9));
#2166=CARTESIAN_POINT('',(35.,24.8,2.90000000000002));
#2167=CARTESIAN_POINT('',(35.,24.8,13.9));
#2168=CARTESIAN_POINT('',(29.5,24.8,8.40000000000005));
#2169=CARTESIAN_POINT('Origin',(33.5,9.8,13.9));
#2170=CARTESIAN_POINT('',(35.,9.8,2.90000000000002));
#2171=CARTESIAN_POINT('',(28.75,9.8,9.15000000000005));
#2172=CARTESIAN_POINT('',(35.,9.8,13.9));
#2173=CARTESIAN_POINT('',(35.,9.8,13.9));
#2174=CARTESIAN_POINT('',(33.5,9.8,13.9));
#2175=CARTESIAN_POINT('',(33.5,9.8,13.9));
#2176=CARTESIAN_POINT('',(32.,9.8,11.9));
#2177=CARTESIAN_POINT('',(32.,9.8,11.9));
#2178=CARTESIAN_POINT('',(33.5,9.8,11.9));
#2179=CARTESIAN_POINT('Origin',(35.,9.8,13.9));
#2180=CARTESIAN_POINT('',(35.,9.8,2.90000000000002));
#2181=CARTESIAN_POINT('',(35.,9.8,13.9));
#2182=CARTESIAN_POINT('Origin',(0.,0.,13.9));
#2183=CARTESIAN_POINT('',(33.5,24.8,13.9));
#2184=CARTESIAN_POINT('Origin',(1.,24.8,2.90000000000001));
#2185=CARTESIAN_POINT('Origin',(35.,9.8,2.90000000000002));
#2186=CARTESIAN_POINT('Origin',(-1.02695629777827E-14,37.,1.9));
#2187=CARTESIAN_POINT('',(7.3,37.,1.9));
#2188=CARTESIAN_POINT('Origin',(11.8,35.,-10.1));
#2189=CARTESIAN_POINT('',(7.3,35.,-10.1));
#2190=CARTESIAN_POINT('',(11.8,35.,-10.1));
#2191=CARTESIAN_POINT('Origin',(11.8,38.5,-10.1));
#2192=CARTESIAN_POINT('Origin',(7.3,35.,-10.1));
#2193=CARTESIAN_POINT('Origin',(2.5,7.3,11.9));
#2194=CARTESIAN_POINT('',(4.,7.3,11.9));
#2195=CARTESIAN_POINT('Origin',(4.,7.3,11.9));
#2196=CARTESIAN_POINT('Origin',(32.,7.3,11.9));
#2197=CARTESIAN_POINT('',(32.,7.3,11.9));
#2198=CARTESIAN_POINT('Origin',(33.5,7.3,11.9));
#2199=UNCERTAINTY_MEASURE_WITH_UNIT(LENGTH_MEASURE(0.01),#2203,
'DISTANCE_ACCURACY_VALUE',
'Maximum model space distance between geometric entities at asserted c
onnectivities');
#2200=UNCERTAINTY_MEASURE_WITH_UNIT(LENGTH_MEASURE(0.01),#2203,
'DISTANCE_ACCURACY_VALUE',
'Maximum model space distance between geometric entities at asserted c
onnectivities');
#2201=(
GEOMETRIC_REPRESENTATION_CONTEXT(3)
GLOBAL_UNCERTAINTY_ASSIGNED_CONTEXT((#2199))
GLOBAL_UNIT_ASSIGNED_CONTEXT((#2203,#2205,#2206))
REPRESENTATION_CONTEXT('','3D')
);
#2202=(
GEOMETRIC_REPRESENTATION_CONTEXT(3)
GLOBAL_UNCERTAINTY_ASSIGNED_CONTEXT((#2200))
GLOBAL_UNIT_ASSIGNED_CONTEXT((#2203,#2205,#2206))
REPRESENTATION_CONTEXT('','3D')
);
#2203=(
LENGTH_UNIT()
NAMED_UNIT(*)
SI_UNIT(.MILLI.,.METRE.)
);
#2204=(
LENGTH_UNIT()
NAMED_UNIT(*)
SI_UNIT($,.METRE.)
);
#2205=(
NAMED_UNIT(*)
PLANE_ANGLE_UNIT()
SI_UNIT($,.RADIAN.)
);
#2206=(
NAMED_UNIT(*)
SI_UNIT($,.STERADIAN.)
SOLID_ANGLE_UNIT()
);
#2207=SHAPE_DEFINITION_REPRESENTATION(#2208,#2209);
#2208=PRODUCT_DEFINITION_SHAPE('',$,#2211);
#2209=SHAPE_REPRESENTATION('',(#1393),#2201);
#2210=PRODUCT_DEFINITION_CONTEXT('part definition',#2215,'design');
#2211=PRODUCT_DEFINITION('2026-09-03-12-24-08-131','pantilt_3_Domyslna',
#2212,#2210);
#2212=PRODUCT_DEFINITION_FORMATION('',$,#2217);
#2213=PRODUCT_RELATED_PRODUCT_CATEGORY('pantilt_3_Domyslna',
'pantilt_3_Domyslna',(#2217));
#2214=APPLICATION_PROTOCOL_DEFINITION('international standard',
'automotive_design',2009,#2215);
#2215=APPLICATION_CONTEXT(
'Core Data for Automotive Mechanical Design Process');
#2216=PRODUCT_CONTEXT('part definition',#2215,'mechanical');
#2217=PRODUCT('2026-09-03-12-24-08-131','pantilt_3_Domyslna',$,(#2216));
#2218=PRESENTATION_STYLE_ASSIGNMENT((#2220));
#2219=PRESENTATION_STYLE_ASSIGNMENT((#2221));
#2220=SURFACE_STYLE_USAGE(.BOTH.,#2222);
#2221=SURFACE_STYLE_USAGE(.BOTH.,#2223);
#2222=SURFACE_SIDE_STYLE('',(#2224));
#2223=SURFACE_SIDE_STYLE('',(#2225));
#2224=SURFACE_STYLE_FILL_AREA(#2226);
#2225=SURFACE_STYLE_FILL_AREA(#2227);
#2226=FILL_AREA_STYLE('Steel - Satin',(#2228));
#2227=FILL_AREA_STYLE('Opaque(26,26,26)',(#2229));
#2228=FILL_AREA_STYLE_COLOUR('Steel - Satin',#2230);
#2229=FILL_AREA_STYLE_COLOUR('Opaque(26,26,26)',#2231);
#2230=COLOUR_RGB('Steel - Satin',0.627450980392157,0.627450980392157,0.627450980392157);
#2231=COLOUR_RGB('Opaque(26,26,26)',0.101960784313725,0.101960784313725,
0.101960784313725);
ENDSEC;
END-ISO-10303-21;
