ISO-10303-21;
HEADER;
/* Generated by software containing ST-Developer
 * from STEP Tools, Inc. (www.steptools.com) 
 */

FILE_DESCRIPTION(
/* description */ (''),
/* implementation_level */ '2;1');

FILE_NAME(
/* name */ 'Pan-Tilt Right Domsdlay.step',
/* time_stamp */ '2026-09-03T12:16:38+03:00',
/* author */ (''),
/* organization */ (''),
/* preprocessor_version */ 'ST-DEVELOPER v20.1',
/* originating_system */ 'Autodesk Translation Framework v15.8.0.0',
/* authorisation */ '');

FILE_SCHEMA (('AUTOMOTIVE_DESIGN { 1 0 10303 214 3 1 1 }'));
ENDSEC;

DATA;
#10=MECHANICAL_DESIGN_GEOMETRIC_PRESENTATION_REPRESENTATION('',(#13,#14),
#1474);
#11=SHAPE_REPRESENTATION_RELATIONSHIP('SRR','None',#1481,#12);
#12=ADVANCED_BREP_SHAPE_REPRESENTATION('',(#15,#16),#1473);
#13=STYLED_ITEM('',(#1490),#15);
#14=STYLED_ITEM('',(#1490),#16);
#15=MANIFOLD_SOLID_BREP('Body1',#897);
#16=MANIFOLD_SOLID_BREP('Body3',#898);
#17=ELLIPSE('',#936,1.4142135623731,1.);
#18=ELLIPSE('',#946,1.41421356237309,0.999999999999999);
#19=CYLINDRICAL_SURFACE('',#934,1.);
#20=CYLINDRICAL_SURFACE('',#938,1.00000000000001);
#21=CYLINDRICAL_SURFACE('',#941,1.00000000000004);
#22=CYLINDRICAL_SURFACE('',#944,0.999999999999999);
#23=CYLINDRICAL_SURFACE('',#951,10.0000000000001);
#24=CYLINDRICAL_SURFACE('',#959,3.75);
#25=CYLINDRICAL_SURFACE('',#963,2.);
#26=CYLINDRICAL_SURFACE('',#968,10.0000000000001);
#27=CYLINDRICAL_SURFACE('',#972,5.);
#28=FACE_BOUND('',#111,.T.);
#29=FACE_BOUND('',#139,.T.);
#30=FACE_BOUND('',#141,.T.);
#31=CIRCLE('',#929,10.0000000000001);
#32=CIRCLE('',#930,1.);
#33=CIRCLE('',#931,0.999999999999999);
#34=CIRCLE('',#932,1.00000000000004);
#35=CIRCLE('',#933,1.00000000000001);
#36=CIRCLE('',#935,1.);
#37=CIRCLE('',#939,1.00000000000001);
#38=CIRCLE('',#942,1.00000000000004);
#39=CIRCLE('',#945,0.999999999999999);
#40=CIRCLE('',#948,10.0000000000001);
#41=CIRCLE('',#960,3.75);
#42=CIRCLE('',#961,3.75);
#43=CIRCLE('',#964,2.);
#44=CIRCLE('',#965,2.);
#45=CIRCLE('',#969,10.0000000000001);
#46=CIRCLE('',#970,10.0000000000001);
#47=CIRCLE('',#973,5.);
#48=CIRCLE('',#974,5.);
#49=FACE_OUTER_BOUND('',#94,.T.);
#50=FACE_OUTER_BOUND('',#95,.T.);
#51=FACE_OUTER_BOUND('',#96,.T.);
#52=FACE_OUTER_BOUND('',#97,.T.);
#53=FACE_OUTER_BOUND('',#98,.T.);
#54=FACE_OUTER_BOUND('',#99,.T.);
#55=FACE_OUTER_BOUND('',#100,.T.);
#56=FACE_OUTER_BOUND('',#101,.T.);
#57=FACE_OUTER_BOUND('',#102,.T.);
#58=FACE_OUTER_BOUND('',#103,.T.);
#59=FACE_OUTER_BOUND('',#104,.T.);
#60=FACE_OUTER_BOUND('',#105,.T.);
#61=FACE_OUTER_BOUND('',#106,.T.);
#62=FACE_OUTER_BOUND('',#107,.T.);
#63=FACE_OUTER_BOUND('',#108,.T.);
#64=FACE_OUTER_BOUND('',#109,.T.);
#65=FACE_OUTER_BOUND('',#110,.T.);
#66=FACE_OUTER_BOUND('',#112,.T.);
#67=FACE_OUTER_BOUND('',#113,.T.);
#68=FACE_OUTER_BOUND('',#114,.T.);
#69=FACE_OUTER_BOUND('',#115,.T.);
#70=FACE_OUTER_BOUND('',#116,.T.);
#71=FACE_OUTER_BOUND('',#117,.T.);
#72=FACE_OUTER_BOUND('',#118,.T.);
#73=FACE_OUTER_BOUND('',#119,.T.);
#74=FACE_OUTER_BOUND('',#120,.T.);
#75=FACE_OUTER_BOUND('',#121,.T.);
#76=FACE_OUTER_BOUND('',#122,.T.);
#77=FACE_OUTER_BOUND('',#123,.T.);
#78=FACE_OUTER_BOUND('',#124,.T.);
#79=FACE_OUTER_BOUND('',#125,.T.);
#80=FACE_OUTER_BOUND('',#126,.T.);
#81=FACE_OUTER_BOUND('',#127,.T.);
#82=FACE_OUTER_BOUND('',#128,.T.);
#83=FACE_OUTER_BOUND('',#129,.T.);
#84=FACE_OUTER_BOUND('',#130,.T.);
#85=FACE_OUTER_BOUND('',#131,.T.);
#86=FACE_OUTER_BOUND('',#132,.T.);
#87=FACE_OUTER_BOUND('',#133,.T.);
#88=FACE_OUTER_BOUND('',#134,.T.);
#89=FACE_OUTER_BOUND('',#135,.T.);
#90=FACE_OUTER_BOUND('',#136,.T.);
#91=FACE_OUTER_BOUND('',#137,.T.);
#92=FACE_OUTER_BOUND('',#138,.T.);
#93=FACE_OUTER_BOUND('',#140,.T.);
#94=EDGE_LOOP('',(#564,#565,#566,#567,#568,#569,#570,#571));
#95=EDGE_LOOP('',(#572,#573,#574,#575,#576,#577,#578,#579));
#96=EDGE_LOOP('',(#580,#581,#582,#583));
#97=EDGE_LOOP('',(#584,#585,#586,#587));
#98=EDGE_LOOP('',(#588,#589,#590,#591));
#99=EDGE_LOOP('',(#592,#593,#594,#595));
#100=EDGE_LOOP('',(#596,#597,#598,#599));
#101=EDGE_LOOP('',(#600,#601,#602,#603,#604,#605,#606,#607,#608,#609));
#102=EDGE_LOOP('',(#610,#611,#612,#613));
#103=EDGE_LOOP('',(#614,#615,#616,#617));
#104=EDGE_LOOP('',(#618,#619,#620,#621,#622,#623,#624,#625,#626,#627,#628,
#629));
#105=EDGE_LOOP('',(#630,#631,#632,#633));
#106=EDGE_LOOP('',(#634,#635,#636,#637));
#107=EDGE_LOOP('',(#638,#639,#640,#641,#642,#643,#644,#645,#646));
#108=EDGE_LOOP('',(#647,#648,#649,#650));
#109=EDGE_LOOP('',(#651,#652,#653,#654));
#110=EDGE_LOOP('',(#655,#656,#657,#658,#659,#660));
#111=EDGE_LOOP('',(#661,#662,#663,#664,#665,#666,#667,#668));
#112=EDGE_LOOP('',(#669,#670,#671,#672,#673));
#113=EDGE_LOOP('',(#674,#675,#676,#677));
#114=EDGE_LOOP('',(#678,#679,#680,#681));
#115=EDGE_LOOP('',(#682,#683,#684,#685));
#116=EDGE_LOOP('',(#686,#687,#688,#689));
#117=EDGE_LOOP('',(#690,#691,#692,#693));
#118=EDGE_LOOP('',(#694,#695,#696,#697,#698));
#119=EDGE_LOOP('',(#699,#700,#701,#702,#703,#704,#705,#706,#707,#708,#709,
#710,#711,#712));
#120=EDGE_LOOP('',(#713,#714,#715,#716,#717));
#121=EDGE_LOOP('',(#718,#719,#720,#721));
#122=EDGE_LOOP('',(#722,#723,#724,#725));
#123=EDGE_LOOP('',(#726,#727,#728,#729));
#124=EDGE_LOOP('',(#730,#731,#732,#733,#734,#735,#736));
#125=EDGE_LOOP('',(#737,#738,#739,#740,#741,#742,#743));
#126=EDGE_LOOP('',(#744,#745,#746,#747,#748,#749,#750,#751));
#127=EDGE_LOOP('',(#752,#753,#754,#755));
#128=EDGE_LOOP('',(#756,#757,#758,#759));
#129=EDGE_LOOP('',(#760,#761,#762,#763,#764,#765,#766,#767));
#130=EDGE_LOOP('',(#768,#769,#770,#771));
#131=EDGE_LOOP('',(#772,#773,#774,#775));
#132=EDGE_LOOP('',(#776,#777,#778,#779));
#133=EDGE_LOOP('',(#780,#781,#782,#783));
#134=EDGE_LOOP('',(#784,#785,#786,#787));
#135=EDGE_LOOP('',(#788,#789,#790,#791));
#136=EDGE_LOOP('',(#792,#793,#794,#795));
#137=EDGE_LOOP('',(#796,#797,#798,#799));
#138=EDGE_LOOP('',(#800,#801,#802,#803,#804,#805,#806));
#139=EDGE_LOOP('',(#807));
#140=EDGE_LOOP('',(#808,#809,#810,#811,#812,#813,#814));
#141=EDGE_LOOP('',(#815));
#142=LINE('',#1219,#248);
#143=LINE('',#1221,#249);
#144=LINE('',#1223,#250);
#145=LINE('',#1225,#251);
#146=LINE('',#1227,#252);
#147=LINE('',#1229,#253);
#148=LINE('',#1231,#254);
#149=LINE('',#1232,#255);
#150=LINE('',#1236,#256);
#151=LINE('',#1238,#257);
#152=LINE('',#1240,#258);
#153=LINE('',#1242,#259);
#154=LINE('',#1244,#260);
#155=LINE('',#1246,#261);
#156=LINE('',#1248,#262);
#157=LINE('',#1249,#263);
#158=LINE('',#1252,#264);
#159=LINE('',#1254,#265);
#160=LINE('',#1255,#266);
#161=LINE('',#1258,#267);
#162=LINE('',#1259,#268);
#163=LINE('',#1262,#269);
#164=LINE('',#1263,#270);
#165=LINE('',#1266,#271);
#166=LINE('',#1267,#272);
#167=LINE('',#1270,#273);
#168=LINE('',#1272,#274);
#169=LINE('',#1273,#275);
#170=LINE('',#1276,#276);
#171=LINE('',#1278,#277);
#172=LINE('',#1280,#278);
#173=LINE('',#1282,#279);
#174=LINE('',#1284,#280);
#175=LINE('',#1286,#281);
#176=LINE('',#1288,#282);
#177=LINE('',#1290,#283);
#178=LINE('',#1291,#284);
#179=LINE('',#1294,#285);
#180=LINE('',#1296,#286);
#181=LINE('',#1297,#287);
#182=LINE('',#1300,#288);
#183=LINE('',#1301,#289);
#184=LINE('',#1303,#290);
#185=LINE('',#1305,#291);
#186=LINE('',#1306,#292);
#187=LINE('',#1308,#293);
#188=LINE('',#1309,#294);
#189=LINE('',#1311,#295);
#190=LINE('',#1315,#296);
#191=LINE('',#1317,#297);
#192=LINE('',#1318,#298);
#193=LINE('',#1320,#299);
#194=LINE('',#1324,#300);
#195=LINE('',#1326,#301);
#196=LINE('',#1328,#302);
#197=LINE('',#1329,#303);
#198=LINE('',#1333,#304);
#199=LINE('',#1334,#305);
#200=LINE('',#1336,#306);
#201=LINE('',#1339,#307);
#202=LINE('',#1345,#308);
#203=LINE('',#1349,#309);
#204=LINE('',#1352,#310);
#205=LINE('',#1358,#311);
#206=LINE('',#1361,#312);
#207=LINE('',#1362,#313);
#208=LINE('',#1366,#314);
#209=LINE('',#1369,#315);
#210=LINE('',#1370,#316);
#211=LINE('',#1374,#317);
#212=LINE('',#1377,#318);
#213=LINE('',#1378,#319);
#214=LINE('',#1385,#320);
#215=LINE('',#1387,#321);
#216=LINE('',#1389,#322);
#217=LINE('',#1392,#323);
#218=LINE('',#1393,#324);
#219=LINE('',#1396,#325);
#220=LINE('',#1398,#326);
#221=LINE('',#1399,#327);
#222=LINE('',#1401,#328);
#223=LINE('',#1402,#329);
#224=LINE('',#1404,#330);
#225=LINE('',#1407,#331);
#226=LINE('',#1408,#332);
#227=LINE('',#1411,#333);
#228=LINE('',#1413,#334);
#229=LINE('',#1414,#335);
#230=LINE('',#1417,#336);
#231=LINE('',#1419,#337);
#232=LINE('',#1425,#338);
#233=LINE('',#1430,#339);
#234=LINE('',#1432,#340);
#235=LINE('',#1434,#341);
#236=LINE('',#1435,#342);
#237=LINE('',#1441,#343);
#238=LINE('',#1444,#344);
#239=LINE('',#1446,#345);
#240=LINE('',#1447,#346);
#241=LINE('',#1450,#347);
#242=LINE('',#1452,#348);
#243=LINE('',#1453,#349);
#244=LINE('',#1459,#350);
#245=LINE('',#1462,#351);
#246=LINE('',#1464,#352);
#247=LINE('',#1465,#353);
#248=VECTOR('',#981,10.);
#249=VECTOR('',#982,10.);
#250=VECTOR('',#983,10.);
#251=VECTOR('',#984,10.);
#252=VECTOR('',#985,10.);
#253=VECTOR('',#986,10.);
#254=VECTOR('',#987,10.);
#255=VECTOR('',#988,10.);
#256=VECTOR('',#991,10.);
#257=VECTOR('',#992,10.);
#258=VECTOR('',#993,10.);
#259=VECTOR('',#994,10.);
#260=VECTOR('',#995,10.);
#261=VECTOR('',#996,10.);
#262=VECTOR('',#997,10.);
#263=VECTOR('',#998,10.);
#264=VECTOR('',#1001,10.);
#265=VECTOR('',#1002,10.);
#266=VECTOR('',#1003,10.);
#267=VECTOR('',#1006,10.);
#268=VECTOR('',#1007,10.);
#269=VECTOR('',#1010,10.);
#270=VECTOR('',#1011,10.);
#271=VECTOR('',#1014,10.);
#272=VECTOR('',#1015,10.);
#273=VECTOR('',#1018,10.);
#274=VECTOR('',#1019,10.);
#275=VECTOR('',#1020,10.);
#276=VECTOR('',#1023,10.);
#277=VECTOR('',#1024,10.);
#278=VECTOR('',#1025,10.);
#279=VECTOR('',#1026,10.);
#280=VECTOR('',#1027,10.);
#281=VECTOR('',#1028,10.);
#282=VECTOR('',#1029,10.);
#283=VECTOR('',#1030,10.);
#284=VECTOR('',#1031,10.);
#285=VECTOR('',#1034,10.);
#286=VECTOR('',#1035,10.);
#287=VECTOR('',#1036,10.);
#288=VECTOR('',#1039,10.);
#289=VECTOR('',#1040,10.);
#290=VECTOR('',#1043,10.);
#291=VECTOR('',#1044,10.);
#292=VECTOR('',#1045,10.);
#293=VECTOR('',#1046,10.);
#294=VECTOR('',#1047,10.);
#295=VECTOR('',#1050,10.);
#296=VECTOR('',#1055,10.);
#297=VECTOR('',#1056,10.);
#298=VECTOR('',#1057,10.);
#299=VECTOR('',#1060,10.);
#300=VECTOR('',#1063,10.);
#301=VECTOR('',#1064,10.);
#302=VECTOR('',#1065,10.);
#303=VECTOR('',#1066,10.);
#304=VECTOR('',#1069,10.);
#305=VECTOR('',#1070,10.);
#306=VECTOR('',#1071,10.);
#307=VECTOR('',#1074,10.);
#308=VECTOR('',#1079,10.);
#309=VECTOR('',#1082,10.);
#310=VECTOR('',#1085,10.);
#311=VECTOR('',#1092,10.);
#312=VECTOR('',#1095,10.);
#313=VECTOR('',#1096,10.);
#314=VECTOR('',#1101,10.);
#315=VECTOR('',#1104,10.);
#316=VECTOR('',#1105,10.);
#317=VECTOR('',#1110,10.);
#318=VECTOR('',#1113,10.);
#319=VECTOR('',#1114,10.);
#320=VECTOR('',#1123,10.);
#321=VECTOR('',#1124,10.);
#322=VECTOR('',#1125,10.);
#323=VECTOR('',#1128,10.);
#324=VECTOR('',#1129,10.);
#325=VECTOR('',#1132,10.);
#326=VECTOR('',#1133,10.);
#327=VECTOR('',#1134,10.);
#328=VECTOR('',#1137,10.);
#329=VECTOR('',#1138,10.);
#330=VECTOR('',#1141,10.);
#331=VECTOR('',#1146,10.);
#332=VECTOR('',#1147,10.);
#333=VECTOR('',#1150,10.);
#334=VECTOR('',#1151,10.);
#335=VECTOR('',#1152,10.);
#336=VECTOR('',#1157,10.);
#337=VECTOR('',#1160,10.);
#338=VECTOR('',#1167,3.75);
#339=VECTOR('',#1172,10.);
#340=VECTOR('',#1173,10.);
#341=VECTOR('',#1174,10.);
#342=VECTOR('',#1175,10.);
#343=VECTOR('',#1182,10.);
#344=VECTOR('',#1185,10.);
#345=VECTOR('',#1186,10.);
#346=VECTOR('',#1187,10.);
#347=VECTOR('',#1190,10.);
#348=VECTOR('',#1191,10.);
#349=VECTOR('',#1192,10.);
#350=VECTOR('',#1199,10.);
#351=VECTOR('',#1202,10.);
#352=VECTOR('',#1203,10.);
#353=VECTOR('',#1204,10.);
#354=VERTEX_POINT('',#1217);
#355=VERTEX_POINT('',#1218);
#356=VERTEX_POINT('',#1220);
#357=VERTEX_POINT('',#1222);
#358=VERTEX_POINT('',#1224);
#359=VERTEX_POINT('',#1226);
#360=VERTEX_POINT('',#1228);
#361=VERTEX_POINT('',#1230);
#362=VERTEX_POINT('',#1234);
#363=VERTEX_POINT('',#1235);
#364=VERTEX_POINT('',#1237);
#365=VERTEX_POINT('',#1239);
#366=VERTEX_POINT('',#1241);
#367=VERTEX_POINT('',#1243);
#368=VERTEX_POINT('',#1245);
#369=VERTEX_POINT('',#1247);
#370=VERTEX_POINT('',#1251);
#371=VERTEX_POINT('',#1253);
#372=VERTEX_POINT('',#1257);
#373=VERTEX_POINT('',#1261);
#374=VERTEX_POINT('',#1265);
#375=VERTEX_POINT('',#1269);
#376=VERTEX_POINT('',#1271);
#377=VERTEX_POINT('',#1275);
#378=VERTEX_POINT('',#1277);
#379=VERTEX_POINT('',#1279);
#380=VERTEX_POINT('',#1281);
#381=VERTEX_POINT('',#1283);
#382=VERTEX_POINT('',#1285);
#383=VERTEX_POINT('',#1287);
#384=VERTEX_POINT('',#1289);
#385=VERTEX_POINT('',#1293);
#386=VERTEX_POINT('',#1295);
#387=VERTEX_POINT('',#1299);
#388=VERTEX_POINT('',#1304);
#389=VERTEX_POINT('',#1307);
#390=VERTEX_POINT('',#1314);
#391=VERTEX_POINT('',#1316);
#392=VERTEX_POINT('',#1322);
#393=VERTEX_POINT('',#1323);
#394=VERTEX_POINT('',#1325);
#395=VERTEX_POINT('',#1327);
#396=VERTEX_POINT('',#1331);
#397=VERTEX_POINT('',#1332);
#398=VERTEX_POINT('',#1335);
#399=VERTEX_POINT('',#1337);
#400=VERTEX_POINT('',#1340);
#401=VERTEX_POINT('',#1342);
#402=VERTEX_POINT('',#1344);
#403=VERTEX_POINT('',#1346);
#404=VERTEX_POINT('',#1348);
#405=VERTEX_POINT('',#1350);
#406=VERTEX_POINT('',#1354);
#407=VERTEX_POINT('',#1355);
#408=VERTEX_POINT('',#1360);
#409=VERTEX_POINT('',#1364);
#410=VERTEX_POINT('',#1368);
#411=VERTEX_POINT('',#1372);
#412=VERTEX_POINT('',#1376);
#413=VERTEX_POINT('',#1380);
#414=VERTEX_POINT('',#1384);
#415=VERTEX_POINT('',#1386);
#416=VERTEX_POINT('',#1388);
#417=VERTEX_POINT('',#1390);
#418=VERTEX_POINT('',#1395);
#419=VERTEX_POINT('',#1397);
#420=VERTEX_POINT('',#1410);
#421=VERTEX_POINT('',#1412);
#422=VERTEX_POINT('',#1422);
#423=VERTEX_POINT('',#1424);
#424=VERTEX_POINT('',#1428);
#425=VERTEX_POINT('',#1429);
#426=VERTEX_POINT('',#1431);
#427=VERTEX_POINT('',#1433);
#428=VERTEX_POINT('',#1437);
#429=VERTEX_POINT('',#1439);
#430=VERTEX_POINT('',#1443);
#431=VERTEX_POINT('',#1445);
#432=VERTEX_POINT('',#1449);
#433=VERTEX_POINT('',#1451);
#434=VERTEX_POINT('',#1455);
#435=VERTEX_POINT('',#1457);
#436=VERTEX_POINT('',#1461);
#437=VERTEX_POINT('',#1463);
#438=EDGE_CURVE('',#354,#355,#142,.T.);
#439=EDGE_CURVE('',#356,#354,#143,.T.);
#440=EDGE_CURVE('',#357,#356,#144,.T.);
#441=EDGE_CURVE('',#358,#357,#145,.T.);
#442=EDGE_CURVE('',#359,#358,#146,.T.);
#443=EDGE_CURVE('',#360,#359,#147,.T.);
#444=EDGE_CURVE('',#361,#360,#148,.T.);
#445=EDGE_CURVE('',#355,#361,#149,.T.);
#446=EDGE_CURVE('',#362,#363,#150,.T.);
#447=EDGE_CURVE('',#364,#362,#151,.T.);
#448=EDGE_CURVE('',#365,#364,#152,.T.);
#449=EDGE_CURVE('',#366,#365,#153,.T.);
#450=EDGE_CURVE('',#367,#366,#154,.T.);
#451=EDGE_CURVE('',#368,#367,#155,.T.);
#452=EDGE_CURVE('',#369,#368,#156,.T.);
#453=EDGE_CURVE('',#363,#369,#157,.T.);
#454=EDGE_CURVE('',#370,#368,#158,.T.);
#455=EDGE_CURVE('',#371,#370,#159,.T.);
#456=EDGE_CURVE('',#369,#371,#160,.T.);
#457=EDGE_CURVE('',#367,#372,#161,.T.);
#458=EDGE_CURVE('',#372,#370,#162,.T.);
#459=EDGE_CURVE('',#366,#373,#163,.T.);
#460=EDGE_CURVE('',#372,#373,#164,.T.);
#461=EDGE_CURVE('',#374,#365,#165,.T.);
#462=EDGE_CURVE('',#373,#374,#166,.T.);
#463=EDGE_CURVE('',#375,#354,#167,.T.);
#464=EDGE_CURVE('',#376,#375,#168,.T.);
#465=EDGE_CURVE('',#376,#356,#169,.T.);
#466=EDGE_CURVE('',#361,#377,#170,.T.);
#467=EDGE_CURVE('',#377,#378,#171,.T.);
#468=EDGE_CURVE('',#378,#379,#172,.T.);
#469=EDGE_CURVE('',#379,#380,#173,.T.);
#470=EDGE_CURVE('',#381,#380,#174,.T.);
#471=EDGE_CURVE('',#382,#381,#175,.T.);
#472=EDGE_CURVE('',#383,#382,#176,.T.);
#473=EDGE_CURVE('',#384,#383,#177,.T.);
#474=EDGE_CURVE('',#355,#384,#178,.T.);
#475=EDGE_CURVE('',#385,#359,#179,.T.);
#476=EDGE_CURVE('',#386,#385,#180,.T.);
#477=EDGE_CURVE('',#386,#360,#181,.T.);
#478=EDGE_CURVE('',#387,#358,#182,.T.);
#479=EDGE_CURVE('',#385,#387,#183,.T.);
#480=EDGE_CURVE('',#386,#374,#184,.T.);
#481=EDGE_CURVE('',#387,#388,#185,.T.);
#482=EDGE_CURVE('',#388,#376,#186,.T.);
#483=EDGE_CURVE('',#389,#375,#187,.T.);
#484=EDGE_CURVE('',#371,#389,#188,.T.);
#485=EDGE_CURVE('',#357,#388,#189,.T.);
#486=EDGE_CURVE('',#390,#364,#190,.T.);
#487=EDGE_CURVE('',#390,#391,#191,.T.);
#488=EDGE_CURVE('',#377,#391,#192,.T.);
#489=EDGE_CURVE('',#363,#389,#193,.T.);
#490=EDGE_CURVE('',#392,#393,#194,.T.);
#491=EDGE_CURVE('',#392,#394,#195,.T.);
#492=EDGE_CURVE('',#395,#394,#196,.T.);
#493=EDGE_CURVE('',#393,#395,#197,.T.);
#494=EDGE_CURVE('',#396,#397,#198,.T.);
#495=EDGE_CURVE('',#381,#396,#199,.T.);
#496=EDGE_CURVE('',#380,#398,#200,.T.);
#497=EDGE_CURVE('',#398,#399,#31,.T.);
#498=EDGE_CURVE('',#399,#397,#201,.T.);
#499=EDGE_CURVE('',#400,#392,#32,.T.);
#500=EDGE_CURVE('',#393,#401,#33,.T.);
#501=EDGE_CURVE('',#401,#402,#202,.T.);
#502=EDGE_CURVE('',#402,#403,#34,.T.);
#503=EDGE_CURVE('',#403,#404,#203,.T.);
#504=EDGE_CURVE('',#404,#405,#35,.T.);
#505=EDGE_CURVE('',#405,#400,#204,.T.);
#506=EDGE_CURVE('',#406,#407,#36,.T.);
#507=EDGE_CURVE('',#394,#406,#17,.T.);
#508=EDGE_CURVE('',#400,#407,#205,.T.);
#509=EDGE_CURVE('',#407,#408,#206,.T.);
#510=EDGE_CURVE('',#405,#408,#207,.T.);
#511=EDGE_CURVE('',#408,#409,#37,.T.);
#512=EDGE_CURVE('',#409,#404,#208,.T.);
#513=EDGE_CURVE('',#409,#410,#209,.T.);
#514=EDGE_CURVE('',#403,#410,#210,.T.);
#515=EDGE_CURVE('',#410,#411,#38,.T.);
#516=EDGE_CURVE('',#402,#411,#211,.T.);
#517=EDGE_CURVE('',#411,#412,#212,.T.);
#518=EDGE_CURVE('',#401,#412,#213,.T.);
#519=EDGE_CURVE('',#412,#413,#39,.T.);
#520=EDGE_CURVE('',#413,#395,#18,.T.);
#521=EDGE_CURVE('',#413,#414,#214,.T.);
#522=EDGE_CURVE('',#415,#414,#215,.T.);
#523=EDGE_CURVE('',#415,#416,#216,.T.);
#524=EDGE_CURVE('',#416,#417,#40,.T.);
#525=EDGE_CURVE('',#379,#417,#217,.T.);
#526=EDGE_CURVE('',#378,#406,#218,.T.);
#527=EDGE_CURVE('',#396,#418,#219,.T.);
#528=EDGE_CURVE('',#419,#418,#220,.T.);
#529=EDGE_CURVE('',#382,#419,#221,.T.);
#530=EDGE_CURVE('',#415,#397,#222,.T.);
#531=EDGE_CURVE('',#416,#399,#223,.T.);
#532=EDGE_CURVE('',#417,#398,#224,.T.);
#533=EDGE_CURVE('',#418,#390,#225,.T.);
#534=EDGE_CURVE('',#391,#414,#226,.T.);
#535=EDGE_CURVE('',#362,#420,#227,.T.);
#536=EDGE_CURVE('',#420,#421,#228,.T.);
#537=EDGE_CURVE('',#421,#419,#229,.T.);
#538=EDGE_CURVE('',#383,#421,#230,.T.);
#539=EDGE_CURVE('',#384,#420,#231,.T.);
#540=EDGE_CURVE('',#422,#422,#41,.T.);
#541=EDGE_CURVE('',#422,#423,#232,.T.);
#542=EDGE_CURVE('',#423,#423,#42,.T.);
#543=EDGE_CURVE('',#424,#425,#233,.T.);
#544=EDGE_CURVE('',#425,#426,#234,.T.);
#545=EDGE_CURVE('',#427,#426,#235,.T.);
#546=EDGE_CURVE('',#424,#427,#236,.T.);
#547=EDGE_CURVE('',#428,#424,#43,.T.);
#548=EDGE_CURVE('',#429,#427,#44,.T.);
#549=EDGE_CURVE('',#428,#429,#237,.T.);
#550=EDGE_CURVE('',#430,#428,#238,.T.);
#551=EDGE_CURVE('',#431,#429,#239,.T.);
#552=EDGE_CURVE('',#430,#431,#240,.T.);
#553=EDGE_CURVE('',#432,#430,#241,.T.);
#554=EDGE_CURVE('',#433,#431,#242,.T.);
#555=EDGE_CURVE('',#432,#433,#243,.T.);
#556=EDGE_CURVE('',#432,#434,#45,.T.);
#557=EDGE_CURVE('',#435,#433,#46,.T.);
#558=EDGE_CURVE('',#434,#435,#244,.T.);
#559=EDGE_CURVE('',#436,#434,#245,.T.);
#560=EDGE_CURVE('',#437,#435,#246,.T.);
#561=EDGE_CURVE('',#436,#437,#247,.T.);
#562=EDGE_CURVE('',#436,#425,#47,.T.);
#563=EDGE_CURVE('',#426,#437,#48,.T.);
#564=ORIENTED_EDGE('',*,*,#438,.F.);
#565=ORIENTED_EDGE('',*,*,#439,.F.);
#566=ORIENTED_EDGE('',*,*,#440,.F.);
#567=ORIENTED_EDGE('',*,*,#441,.F.);
#568=ORIENTED_EDGE('',*,*,#442,.F.);
#569=ORIENTED_EDGE('',*,*,#443,.F.);
#570=ORIENTED_EDGE('',*,*,#444,.F.);
#571=ORIENTED_EDGE('',*,*,#445,.F.);
#572=ORIENTED_EDGE('',*,*,#446,.F.);
#573=ORIENTED_EDGE('',*,*,#447,.F.);
#574=ORIENTED_EDGE('',*,*,#448,.F.);
#575=ORIENTED_EDGE('',*,*,#449,.F.);
#576=ORIENTED_EDGE('',*,*,#450,.F.);
#577=ORIENTED_EDGE('',*,*,#451,.F.);
#578=ORIENTED_EDGE('',*,*,#452,.F.);
#579=ORIENTED_EDGE('',*,*,#453,.F.);
#580=ORIENTED_EDGE('',*,*,#452,.T.);
#581=ORIENTED_EDGE('',*,*,#454,.F.);
#582=ORIENTED_EDGE('',*,*,#455,.F.);
#583=ORIENTED_EDGE('',*,*,#456,.F.);
#584=ORIENTED_EDGE('',*,*,#451,.T.);
#585=ORIENTED_EDGE('',*,*,#457,.T.);
#586=ORIENTED_EDGE('',*,*,#458,.T.);
#587=ORIENTED_EDGE('',*,*,#454,.T.);
#588=ORIENTED_EDGE('',*,*,#450,.T.);
#589=ORIENTED_EDGE('',*,*,#459,.T.);
#590=ORIENTED_EDGE('',*,*,#460,.F.);
#591=ORIENTED_EDGE('',*,*,#457,.F.);
#592=ORIENTED_EDGE('',*,*,#449,.T.);
#593=ORIENTED_EDGE('',*,*,#461,.F.);
#594=ORIENTED_EDGE('',*,*,#462,.F.);
#595=ORIENTED_EDGE('',*,*,#459,.F.);
#596=ORIENTED_EDGE('',*,*,#439,.T.);
#597=ORIENTED_EDGE('',*,*,#463,.F.);
#598=ORIENTED_EDGE('',*,*,#464,.F.);
#599=ORIENTED_EDGE('',*,*,#465,.T.);
#600=ORIENTED_EDGE('',*,*,#445,.T.);
#601=ORIENTED_EDGE('',*,*,#466,.T.);
#602=ORIENTED_EDGE('',*,*,#467,.T.);
#603=ORIENTED_EDGE('',*,*,#468,.T.);
#604=ORIENTED_EDGE('',*,*,#469,.T.);
#605=ORIENTED_EDGE('',*,*,#470,.F.);
#606=ORIENTED_EDGE('',*,*,#471,.F.);
#607=ORIENTED_EDGE('',*,*,#472,.F.);
#608=ORIENTED_EDGE('',*,*,#473,.F.);
#609=ORIENTED_EDGE('',*,*,#474,.F.);
#610=ORIENTED_EDGE('',*,*,#443,.T.);
#611=ORIENTED_EDGE('',*,*,#475,.F.);
#612=ORIENTED_EDGE('',*,*,#476,.F.);
#613=ORIENTED_EDGE('',*,*,#477,.T.);
#614=ORIENTED_EDGE('',*,*,#442,.T.);
#615=ORIENTED_EDGE('',*,*,#478,.F.);
#616=ORIENTED_EDGE('',*,*,#479,.F.);
#617=ORIENTED_EDGE('',*,*,#475,.T.);
#618=ORIENTED_EDGE('',*,*,#462,.T.);
#619=ORIENTED_EDGE('',*,*,#480,.F.);
#620=ORIENTED_EDGE('',*,*,#476,.T.);
#621=ORIENTED_EDGE('',*,*,#479,.T.);
#622=ORIENTED_EDGE('',*,*,#481,.T.);
#623=ORIENTED_EDGE('',*,*,#482,.T.);
#624=ORIENTED_EDGE('',*,*,#464,.T.);
#625=ORIENTED_EDGE('',*,*,#483,.F.);
#626=ORIENTED_EDGE('',*,*,#484,.F.);
#627=ORIENTED_EDGE('',*,*,#455,.T.);
#628=ORIENTED_EDGE('',*,*,#458,.F.);
#629=ORIENTED_EDGE('',*,*,#460,.T.);
#630=ORIENTED_EDGE('',*,*,#441,.T.);
#631=ORIENTED_EDGE('',*,*,#485,.T.);
#632=ORIENTED_EDGE('',*,*,#481,.F.);
#633=ORIENTED_EDGE('',*,*,#478,.T.);
#634=ORIENTED_EDGE('',*,*,#440,.T.);
#635=ORIENTED_EDGE('',*,*,#465,.F.);
#636=ORIENTED_EDGE('',*,*,#482,.F.);
#637=ORIENTED_EDGE('',*,*,#485,.F.);
#638=ORIENTED_EDGE('',*,*,#448,.T.);
#639=ORIENTED_EDGE('',*,*,#486,.F.);
#640=ORIENTED_EDGE('',*,*,#487,.T.);
#641=ORIENTED_EDGE('',*,*,#488,.F.);
#642=ORIENTED_EDGE('',*,*,#466,.F.);
#643=ORIENTED_EDGE('',*,*,#444,.T.);
#644=ORIENTED_EDGE('',*,*,#477,.F.);
#645=ORIENTED_EDGE('',*,*,#480,.T.);
#646=ORIENTED_EDGE('',*,*,#461,.T.);
#647=ORIENTED_EDGE('',*,*,#453,.T.);
#648=ORIENTED_EDGE('',*,*,#456,.T.);
#649=ORIENTED_EDGE('',*,*,#484,.T.);
#650=ORIENTED_EDGE('',*,*,#489,.F.);
#651=ORIENTED_EDGE('',*,*,#490,.F.);
#652=ORIENTED_EDGE('',*,*,#491,.T.);
#653=ORIENTED_EDGE('',*,*,#492,.F.);
#654=ORIENTED_EDGE('',*,*,#493,.F.);
#655=ORIENTED_EDGE('',*,*,#494,.F.);
#656=ORIENTED_EDGE('',*,*,#495,.F.);
#657=ORIENTED_EDGE('',*,*,#470,.T.);
#658=ORIENTED_EDGE('',*,*,#496,.T.);
#659=ORIENTED_EDGE('',*,*,#497,.T.);
#660=ORIENTED_EDGE('',*,*,#498,.T.);
#661=ORIENTED_EDGE('',*,*,#499,.T.);
#662=ORIENTED_EDGE('',*,*,#490,.T.);
#663=ORIENTED_EDGE('',*,*,#500,.T.);
#664=ORIENTED_EDGE('',*,*,#501,.T.);
#665=ORIENTED_EDGE('',*,*,#502,.T.);
#666=ORIENTED_EDGE('',*,*,#503,.T.);
#667=ORIENTED_EDGE('',*,*,#504,.T.);
#668=ORIENTED_EDGE('',*,*,#505,.T.);
#669=ORIENTED_EDGE('',*,*,#506,.F.);
#670=ORIENTED_EDGE('',*,*,#507,.F.);
#671=ORIENTED_EDGE('',*,*,#491,.F.);
#672=ORIENTED_EDGE('',*,*,#499,.F.);
#673=ORIENTED_EDGE('',*,*,#508,.T.);
#674=ORIENTED_EDGE('',*,*,#509,.F.);
#675=ORIENTED_EDGE('',*,*,#508,.F.);
#676=ORIENTED_EDGE('',*,*,#505,.F.);
#677=ORIENTED_EDGE('',*,*,#510,.T.);
#678=ORIENTED_EDGE('',*,*,#511,.F.);
#679=ORIENTED_EDGE('',*,*,#510,.F.);
#680=ORIENTED_EDGE('',*,*,#504,.F.);
#681=ORIENTED_EDGE('',*,*,#512,.F.);
#682=ORIENTED_EDGE('',*,*,#513,.F.);
#683=ORIENTED_EDGE('',*,*,#512,.T.);
#684=ORIENTED_EDGE('',*,*,#503,.F.);
#685=ORIENTED_EDGE('',*,*,#514,.T.);
#686=ORIENTED_EDGE('',*,*,#515,.F.);
#687=ORIENTED_EDGE('',*,*,#514,.F.);
#688=ORIENTED_EDGE('',*,*,#502,.F.);
#689=ORIENTED_EDGE('',*,*,#516,.T.);
#690=ORIENTED_EDGE('',*,*,#517,.F.);
#691=ORIENTED_EDGE('',*,*,#516,.F.);
#692=ORIENTED_EDGE('',*,*,#501,.F.);
#693=ORIENTED_EDGE('',*,*,#518,.T.);
#694=ORIENTED_EDGE('',*,*,#519,.F.);
#695=ORIENTED_EDGE('',*,*,#518,.F.);
#696=ORIENTED_EDGE('',*,*,#500,.F.);
#697=ORIENTED_EDGE('',*,*,#493,.T.);
#698=ORIENTED_EDGE('',*,*,#520,.F.);
#699=ORIENTED_EDGE('',*,*,#519,.T.);
#700=ORIENTED_EDGE('',*,*,#521,.T.);
#701=ORIENTED_EDGE('',*,*,#522,.F.);
#702=ORIENTED_EDGE('',*,*,#523,.T.);
#703=ORIENTED_EDGE('',*,*,#524,.T.);
#704=ORIENTED_EDGE('',*,*,#525,.F.);
#705=ORIENTED_EDGE('',*,*,#468,.F.);
#706=ORIENTED_EDGE('',*,*,#526,.T.);
#707=ORIENTED_EDGE('',*,*,#506,.T.);
#708=ORIENTED_EDGE('',*,*,#509,.T.);
#709=ORIENTED_EDGE('',*,*,#511,.T.);
#710=ORIENTED_EDGE('',*,*,#513,.T.);
#711=ORIENTED_EDGE('',*,*,#515,.T.);
#712=ORIENTED_EDGE('',*,*,#517,.T.);
#713=ORIENTED_EDGE('',*,*,#527,.T.);
#714=ORIENTED_EDGE('',*,*,#528,.F.);
#715=ORIENTED_EDGE('',*,*,#529,.F.);
#716=ORIENTED_EDGE('',*,*,#471,.T.);
#717=ORIENTED_EDGE('',*,*,#495,.T.);
#718=ORIENTED_EDGE('',*,*,#530,.T.);
#719=ORIENTED_EDGE('',*,*,#498,.F.);
#720=ORIENTED_EDGE('',*,*,#531,.F.);
#721=ORIENTED_EDGE('',*,*,#523,.F.);
#722=ORIENTED_EDGE('',*,*,#532,.F.);
#723=ORIENTED_EDGE('',*,*,#524,.F.);
#724=ORIENTED_EDGE('',*,*,#531,.T.);
#725=ORIENTED_EDGE('',*,*,#497,.F.);
#726=ORIENTED_EDGE('',*,*,#532,.T.);
#727=ORIENTED_EDGE('',*,*,#496,.F.);
#728=ORIENTED_EDGE('',*,*,#469,.F.);
#729=ORIENTED_EDGE('',*,*,#525,.T.);
#730=ORIENTED_EDGE('',*,*,#487,.F.);
#731=ORIENTED_EDGE('',*,*,#533,.F.);
#732=ORIENTED_EDGE('',*,*,#527,.F.);
#733=ORIENTED_EDGE('',*,*,#494,.T.);
#734=ORIENTED_EDGE('',*,*,#530,.F.);
#735=ORIENTED_EDGE('',*,*,#522,.T.);
#736=ORIENTED_EDGE('',*,*,#534,.F.);
#737=ORIENTED_EDGE('',*,*,#447,.T.);
#738=ORIENTED_EDGE('',*,*,#535,.T.);
#739=ORIENTED_EDGE('',*,*,#536,.T.);
#740=ORIENTED_EDGE('',*,*,#537,.T.);
#741=ORIENTED_EDGE('',*,*,#528,.T.);
#742=ORIENTED_EDGE('',*,*,#533,.T.);
#743=ORIENTED_EDGE('',*,*,#486,.T.);
#744=ORIENTED_EDGE('',*,*,#507,.T.);
#745=ORIENTED_EDGE('',*,*,#526,.F.);
#746=ORIENTED_EDGE('',*,*,#467,.F.);
#747=ORIENTED_EDGE('',*,*,#488,.T.);
#748=ORIENTED_EDGE('',*,*,#534,.T.);
#749=ORIENTED_EDGE('',*,*,#521,.F.);
#750=ORIENTED_EDGE('',*,*,#520,.T.);
#751=ORIENTED_EDGE('',*,*,#492,.T.);
#752=ORIENTED_EDGE('',*,*,#472,.T.);
#753=ORIENTED_EDGE('',*,*,#529,.T.);
#754=ORIENTED_EDGE('',*,*,#537,.F.);
#755=ORIENTED_EDGE('',*,*,#538,.F.);
#756=ORIENTED_EDGE('',*,*,#473,.T.);
#757=ORIENTED_EDGE('',*,*,#538,.T.);
#758=ORIENTED_EDGE('',*,*,#536,.F.);
#759=ORIENTED_EDGE('',*,*,#539,.F.);
#760=ORIENTED_EDGE('',*,*,#446,.T.);
#761=ORIENTED_EDGE('',*,*,#489,.T.);
#762=ORIENTED_EDGE('',*,*,#483,.T.);
#763=ORIENTED_EDGE('',*,*,#463,.T.);
#764=ORIENTED_EDGE('',*,*,#438,.T.);
#765=ORIENTED_EDGE('',*,*,#474,.T.);
#766=ORIENTED_EDGE('',*,*,#539,.T.);
#767=ORIENTED_EDGE('',*,*,#535,.F.);
#768=ORIENTED_EDGE('',*,*,#540,.F.);
#769=ORIENTED_EDGE('',*,*,#541,.T.);
#770=ORIENTED_EDGE('',*,*,#542,.F.);
#771=ORIENTED_EDGE('',*,*,#541,.F.);
#772=ORIENTED_EDGE('',*,*,#543,.T.);
#773=ORIENTED_EDGE('',*,*,#544,.T.);
#774=ORIENTED_EDGE('',*,*,#545,.F.);
#775=ORIENTED_EDGE('',*,*,#546,.F.);
#776=ORIENTED_EDGE('',*,*,#547,.T.);
#777=ORIENTED_EDGE('',*,*,#546,.T.);
#778=ORIENTED_EDGE('',*,*,#548,.F.);
#779=ORIENTED_EDGE('',*,*,#549,.F.);
#780=ORIENTED_EDGE('',*,*,#550,.T.);
#781=ORIENTED_EDGE('',*,*,#549,.T.);
#782=ORIENTED_EDGE('',*,*,#551,.F.);
#783=ORIENTED_EDGE('',*,*,#552,.F.);
#784=ORIENTED_EDGE('',*,*,#553,.T.);
#785=ORIENTED_EDGE('',*,*,#552,.T.);
#786=ORIENTED_EDGE('',*,*,#554,.F.);
#787=ORIENTED_EDGE('',*,*,#555,.F.);
#788=ORIENTED_EDGE('',*,*,#556,.F.);
#789=ORIENTED_EDGE('',*,*,#555,.T.);
#790=ORIENTED_EDGE('',*,*,#557,.F.);
#791=ORIENTED_EDGE('',*,*,#558,.F.);
#792=ORIENTED_EDGE('',*,*,#559,.T.);
#793=ORIENTED_EDGE('',*,*,#558,.T.);
#794=ORIENTED_EDGE('',*,*,#560,.F.);
#795=ORIENTED_EDGE('',*,*,#561,.F.);
#796=ORIENTED_EDGE('',*,*,#562,.F.);
#797=ORIENTED_EDGE('',*,*,#561,.T.);
#798=ORIENTED_EDGE('',*,*,#563,.F.);
#799=ORIENTED_EDGE('',*,*,#544,.F.);
#800=ORIENTED_EDGE('',*,*,#562,.T.);
#801=ORIENTED_EDGE('',*,*,#543,.F.);
#802=ORIENTED_EDGE('',*,*,#547,.F.);
#803=ORIENTED_EDGE('',*,*,#550,.F.);
#804=ORIENTED_EDGE('',*,*,#553,.F.);
#805=ORIENTED_EDGE('',*,*,#556,.T.);
#806=ORIENTED_EDGE('',*,*,#559,.F.);
#807=ORIENTED_EDGE('',*,*,#542,.T.);
#808=ORIENTED_EDGE('',*,*,#563,.T.);
#809=ORIENTED_EDGE('',*,*,#560,.T.);
#810=ORIENTED_EDGE('',*,*,#557,.T.);
#811=ORIENTED_EDGE('',*,*,#554,.T.);
#812=ORIENTED_EDGE('',*,*,#551,.T.);
#813=ORIENTED_EDGE('',*,*,#548,.T.);
#814=ORIENTED_EDGE('',*,*,#545,.T.);
#815=ORIENTED_EDGE('',*,*,#540,.T.);
#816=PLANE('',#912);
#817=PLANE('',#913);
#818=PLANE('',#914);
#819=PLANE('',#915);
#820=PLANE('',#916);
#821=PLANE('',#917);
#822=PLANE('',#918);
#823=PLANE('',#919);
#824=PLANE('',#920);
#825=PLANE('',#921);
#826=PLANE('',#922);
#827=PLANE('',#923);
#828=PLANE('',#924);
#829=PLANE('',#925);
#830=PLANE('',#926);
#831=PLANE('',#927);
#832=PLANE('',#928);
#833=PLANE('',#937);
#834=PLANE('',#940);
#835=PLANE('',#943);
#836=PLANE('',#947);
#837=PLANE('',#949);
#838=PLANE('',#950);
#839=PLANE('',#952);
#840=PLANE('',#953);
#841=PLANE('',#954);
#842=PLANE('',#955);
#843=PLANE('',#956);
#844=PLANE('',#957);
#845=PLANE('',#958);
#846=PLANE('',#962);
#847=PLANE('',#966);
#848=PLANE('',#967);
#849=PLANE('',#971);
#850=PLANE('',#975);
#851=PLANE('',#976);
#852=ADVANCED_FACE('',(#49),#816,.F.);
#853=ADVANCED_FACE('',(#50),#817,.F.);
#854=ADVANCED_FACE('',(#51),#818,.F.);
#855=ADVANCED_FACE('',(#52),#819,.F.);
#856=ADVANCED_FACE('',(#53),#820,.T.);
#857=ADVANCED_FACE('',(#54),#821,.T.);
#858=ADVANCED_FACE('',(#55),#822,.F.);
#859=ADVANCED_FACE('',(#56),#823,.F.);
#860=ADVANCED_FACE('',(#57),#824,.T.);
#861=ADVANCED_FACE('',(#58),#825,.T.);
#862=ADVANCED_FACE('',(#59),#826,.F.);
#863=ADVANCED_FACE('',(#60),#827,.F.);
#864=ADVANCED_FACE('',(#61),#828,.F.);
#865=ADVANCED_FACE('',(#62),#829,.T.);
#866=ADVANCED_FACE('',(#63),#830,.F.);
#867=ADVANCED_FACE('',(#64),#831,.F.);
#868=ADVANCED_FACE('',(#65,#28),#832,.T.);
#869=ADVANCED_FACE('',(#66),#19,.F.);
#870=ADVANCED_FACE('',(#67),#833,.F.);
#871=ADVANCED_FACE('',(#68),#20,.F.);
#872=ADVANCED_FACE('',(#69),#834,.F.);
#873=ADVANCED_FACE('',(#70),#21,.F.);
#874=ADVANCED_FACE('',(#71),#835,.F.);
#875=ADVANCED_FACE('',(#72),#22,.F.);
#876=ADVANCED_FACE('',(#73),#836,.T.);
#877=ADVANCED_FACE('',(#74),#837,.T.);
#878=ADVANCED_FACE('',(#75),#838,.F.);
#879=ADVANCED_FACE('',(#76),#23,.T.);
#880=ADVANCED_FACE('',(#77),#839,.T.);
#881=ADVANCED_FACE('',(#78),#840,.F.);
#882=ADVANCED_FACE('',(#79),#841,.T.);
#883=ADVANCED_FACE('',(#80),#842,.T.);
#884=ADVANCED_FACE('',(#81),#843,.T.);
#885=ADVANCED_FACE('',(#82),#844,.T.);
#886=ADVANCED_FACE('',(#83),#845,.T.);
#887=ADVANCED_FACE('',(#84),#24,.F.);
#888=ADVANCED_FACE('',(#85),#846,.T.);
#889=ADVANCED_FACE('',(#86),#25,.F.);
#890=ADVANCED_FACE('',(#87),#847,.T.);
#891=ADVANCED_FACE('',(#88),#848,.T.);
#892=ADVANCED_FACE('',(#89),#26,.T.);
#893=ADVANCED_FACE('',(#90),#849,.T.);
#894=ADVANCED_FACE('',(#91),#27,.T.);
#895=ADVANCED_FACE('',(#92,#29),#850,.T.);
#896=ADVANCED_FACE('',(#93,#30),#851,.F.);
#897=CLOSED_SHELL('',(#852,#853,#854,#855,#856,#857,#858,#859,#860,#861,
#862,#863,#864,#865,#866,#867,#868,#869,#870,#871,#872,#873,#874,#875,#876,
#877,#878,#879,#880,#881,#882,#883,#884,#885,#886));
#898=CLOSED_SHELL('',(#887,#888,#889,#890,#891,#892,#893,#894,#895,#896));
#899=DERIVED_UNIT_ELEMENT(#901,1.);
#900=DERIVED_UNIT_ELEMENT(#1476,-3.);
#901=(
MASS_UNIT()
NAMED_UNIT(*)
SI_UNIT(.KILO.,.GRAM.)
);
#902=DERIVED_UNIT((#899,#900));
#903=MEASURE_REPRESENTATION_ITEM('density measure',
POSITIVE_RATIO_MEASURE(7850.),#902);
#904=PROPERTY_DEFINITION_REPRESENTATION(#909,#906);
#905=PROPERTY_DEFINITION_REPRESENTATION(#910,#907);
#906=REPRESENTATION('material name',(#908),#1473);
#907=REPRESENTATION('density',(#903),#1473);
#908=DESCRIPTIVE_REPRESENTATION_ITEM('Steel','Steel');
#909=PROPERTY_DEFINITION('material property','material name',#1483);
#910=PROPERTY_DEFINITION('material property','density of part',#1483);
#911=AXIS2_PLACEMENT_3D('',#1215,#977,#978);
#912=AXIS2_PLACEMENT_3D('',#1216,#979,#980);
#913=AXIS2_PLACEMENT_3D('',#1233,#989,#990);
#914=AXIS2_PLACEMENT_3D('',#1250,#999,#1000);
#915=AXIS2_PLACEMENT_3D('',#1256,#1004,#1005);
#916=AXIS2_PLACEMENT_3D('',#1260,#1008,#1009);
#917=AXIS2_PLACEMENT_3D('',#1264,#1012,#1013);
#918=AXIS2_PLACEMENT_3D('',#1268,#1016,#1017);
#919=AXIS2_PLACEMENT_3D('',#1274,#1021,#1022);
#920=AXIS2_PLACEMENT_3D('',#1292,#1032,#1033);
#921=AXIS2_PLACEMENT_3D('',#1298,#1037,#1038);
#922=AXIS2_PLACEMENT_3D('',#1302,#1041,#1042);
#923=AXIS2_PLACEMENT_3D('',#1310,#1048,#1049);
#924=AXIS2_PLACEMENT_3D('',#1312,#1051,#1052);
#925=AXIS2_PLACEMENT_3D('',#1313,#1053,#1054);
#926=AXIS2_PLACEMENT_3D('',#1319,#1058,#1059);
#927=AXIS2_PLACEMENT_3D('',#1321,#1061,#1062);
#928=AXIS2_PLACEMENT_3D('',#1330,#1067,#1068);
#929=AXIS2_PLACEMENT_3D('',#1338,#1072,#1073);
#930=AXIS2_PLACEMENT_3D('',#1341,#1075,#1076);
#931=AXIS2_PLACEMENT_3D('',#1343,#1077,#1078);
#932=AXIS2_PLACEMENT_3D('',#1347,#1080,#1081);
#933=AXIS2_PLACEMENT_3D('',#1351,#1083,#1084);
#934=AXIS2_PLACEMENT_3D('',#1353,#1086,#1087);
#935=AXIS2_PLACEMENT_3D('',#1356,#1088,#1089);
#936=AXIS2_PLACEMENT_3D('',#1357,#1090,#1091);
#937=AXIS2_PLACEMENT_3D('',#1359,#1093,#1094);
#938=AXIS2_PLACEMENT_3D('',#1363,#1097,#1098);
#939=AXIS2_PLACEMENT_3D('',#1365,#1099,#1100);
#940=AXIS2_PLACEMENT_3D('',#1367,#1102,#1103);
#941=AXIS2_PLACEMENT_3D('',#1371,#1106,#1107);
#942=AXIS2_PLACEMENT_3D('',#1373,#1108,#1109);
#943=AXIS2_PLACEMENT_3D('',#1375,#1111,#1112);
#944=AXIS2_PLACEMENT_3D('',#1379,#1115,#1116);
#945=AXIS2_PLACEMENT_3D('',#1381,#1117,#1118);
#946=AXIS2_PLACEMENT_3D('',#1382,#1119,#1120);
#947=AXIS2_PLACEMENT_3D('',#1383,#1121,#1122);
#948=AXIS2_PLACEMENT_3D('',#1391,#1126,#1127);
#949=AXIS2_PLACEMENT_3D('',#1394,#1130,#1131);
#950=AXIS2_PLACEMENT_3D('',#1400,#1135,#1136);
#951=AXIS2_PLACEMENT_3D('',#1403,#1139,#1140);
#952=AXIS2_PLACEMENT_3D('',#1405,#1142,#1143);
#953=AXIS2_PLACEMENT_3D('',#1406,#1144,#1145);
#954=AXIS2_PLACEMENT_3D('',#1409,#1148,#1149);
#955=AXIS2_PLACEMENT_3D('',#1415,#1153,#1154);
#956=AXIS2_PLACEMENT_3D('',#1416,#1155,#1156);
#957=AXIS2_PLACEMENT_3D('',#1418,#1158,#1159);
#958=AXIS2_PLACEMENT_3D('',#1420,#1161,#1162);
#959=AXIS2_PLACEMENT_3D('',#1421,#1163,#1164);
#960=AXIS2_PLACEMENT_3D('',#1423,#1165,#1166);
#961=AXIS2_PLACEMENT_3D('',#1426,#1168,#1169);
#962=AXIS2_PLACEMENT_3D('',#1427,#1170,#1171);
#963=AXIS2_PLACEMENT_3D('',#1436,#1176,#1177);
#964=AXIS2_PLACEMENT_3D('',#1438,#1178,#1179);
#965=AXIS2_PLACEMENT_3D('',#1440,#1180,#1181);
#966=AXIS2_PLACEMENT_3D('',#1442,#1183,#1184);
#967=AXIS2_PLACEMENT_3D('',#1448,#1188,#1189);
#968=AXIS2_PLACEMENT_3D('',#1454,#1193,#1194);
#969=AXIS2_PLACEMENT_3D('',#1456,#1195,#1196);
#970=AXIS2_PLACEMENT_3D('',#1458,#1197,#1198);
#971=AXIS2_PLACEMENT_3D('',#1460,#1200,#1201);
#972=AXIS2_PLACEMENT_3D('',#1466,#1205,#1206);
#973=AXIS2_PLACEMENT_3D('',#1467,#1207,#1208);
#974=AXIS2_PLACEMENT_3D('',#1468,#1209,#1210);
#975=AXIS2_PLACEMENT_3D('',#1469,#1211,#1212);
#976=AXIS2_PLACEMENT_3D('',#1470,#1213,#1214);
#977=DIRECTION('axis',(0.,0.,1.));
#978=DIRECTION('refdir',(1.,0.,0.));
#979=DIRECTION('center_axis',(-1.,0.,0.));
#980=DIRECTION('ref_axis',(0.,1.,0.));
#981=DIRECTION('',(0.,-1.,0.));
#982=DIRECTION('',(0.,0.,-1.));
#983=DIRECTION('',(0.,1.,0.));
#984=DIRECTION('',(0.,0.,-1.));
#985=DIRECTION('',(0.,-1.,0.));
#986=DIRECTION('',(0.,0.,-1.));
#987=DIRECTION('',(0.,1.,0.));
#988=DIRECTION('',(0.,0.,1.));
#989=DIRECTION('center_axis',(-1.,0.,0.));
#990=DIRECTION('ref_axis',(0.,1.,0.));
#991=DIRECTION('',(0.,-1.,0.));
#992=DIRECTION('',(0.,0.,-1.));
#993=DIRECTION('',(0.,1.,0.));
#994=DIRECTION('',(0.,0.,1.));
#995=DIRECTION('',(0.,-1.,0.));
#996=DIRECTION('',(0.,0.,1.));
#997=DIRECTION('',(0.,1.,0.));
#998=DIRECTION('',(0.,0.,1.));
#999=DIRECTION('center_axis',(0.,0.,-1.));
#1000=DIRECTION('ref_axis',(-1.,0.,0.));
#1001=DIRECTION('',(1.,0.,0.));
#1002=DIRECTION('',(0.,1.,0.));
#1003=DIRECTION('',(-1.,0.,0.));
#1004=DIRECTION('center_axis',(0.,1.,0.));
#1005=DIRECTION('ref_axis',(1.,0.,0.));
#1006=DIRECTION('',(-1.,0.,0.));
#1007=DIRECTION('',(0.,0.,-1.));
#1008=DIRECTION('center_axis',(0.,0.,-1.));
#1009=DIRECTION('ref_axis',(-1.,0.,0.));
#1010=DIRECTION('',(-1.,0.,0.));
#1011=DIRECTION('',(0.,-1.,0.));
#1012=DIRECTION('center_axis',(0.,-1.,0.));
#1013=DIRECTION('ref_axis',(-1.,0.,0.));
#1014=DIRECTION('',(1.,0.,0.));
#1015=DIRECTION('',(0.,0.,1.));
#1016=DIRECTION('center_axis',(0.,-1.,0.));
#1017=DIRECTION('ref_axis',(-1.,0.,0.));
#1018=DIRECTION('',(1.,0.,0.));
#1019=DIRECTION('',(0.,0.,-1.));
#1020=DIRECTION('',(1.,0.,0.));
#1021=DIRECTION('center_axis',(0.,1.,0.));
#1022=DIRECTION('ref_axis',(1.,0.,0.));
#1023=DIRECTION('',(-1.,0.,-1.01260764741441E-16));
#1024=DIRECTION('',(-0.707106781186547,0.,0.707106781186548));
#1025=DIRECTION('',(0.,0.,1.));
#1026=DIRECTION('',(-0.999999993310838,0.,-0.000115664707048043));
#1027=DIRECTION('',(0.,0.,1.));
#1028=DIRECTION('',(-0.707106781186548,0.,0.707106781186547));
#1029=DIRECTION('',(-1.,0.,0.));
#1030=DIRECTION('',(0.,0.,1.));
#1031=DIRECTION('',(-1.,0.,0.));
#1032=DIRECTION('center_axis',(0.,1.,0.));
#1033=DIRECTION('ref_axis',(1.,0.,0.));
#1034=DIRECTION('',(1.,0.,0.));
#1035=DIRECTION('',(0.,0.,-1.));
#1036=DIRECTION('',(1.,0.,0.));
#1037=DIRECTION('center_axis',(0.,0.,-1.));
#1038=DIRECTION('ref_axis',(-1.,0.,0.));
#1039=DIRECTION('',(1.,0.,0.));
#1040=DIRECTION('',(0.,-1.,0.));
#1041=DIRECTION('center_axis',(-1.,0.,0.));
#1042=DIRECTION('ref_axis',(0.,1.,0.));
#1043=DIRECTION('',(0.,1.,0.));
#1044=DIRECTION('',(0.,0.,-1.));
#1045=DIRECTION('',(0.,1.,0.));
#1046=DIRECTION('',(0.,-1.,0.));
#1047=DIRECTION('',(0.,0.,-1.));
#1048=DIRECTION('center_axis',(0.,-1.,0.));
#1049=DIRECTION('ref_axis',(-1.,0.,0.));
#1050=DIRECTION('',(-1.,0.,0.));
#1051=DIRECTION('center_axis',(0.,0.,-1.));
#1052=DIRECTION('ref_axis',(-1.,0.,0.));
#1053=DIRECTION('center_axis',(-1.01260764741441E-16,0.,1.));
#1054=DIRECTION('ref_axis',(1.,0.,1.01260764741441E-16));
#1055=DIRECTION('',(1.,0.,1.01260764741441E-16));
#1056=DIRECTION('',(-0.851926693856448,-0.52366106241998,-8.62667485235512E-17));
#1057=DIRECTION('',(0.,1.,0.));
#1058=DIRECTION('center_axis',(0.,1.,0.));
#1059=DIRECTION('ref_axis',(1.,0.,0.));
#1060=DIRECTION('',(-1.,0.,0.));
#1061=DIRECTION('center_axis',(0.,0.,-1.));
#1062=DIRECTION('ref_axis',(0.,1.,0.));
#1063=DIRECTION('',(0.,1.,0.));
#1064=DIRECTION('',(1.,0.,0.));
#1065=DIRECTION('',(0.,-1.,0.));
#1066=DIRECTION('',(1.,0.,0.));
#1067=DIRECTION('center_axis',(-1.,0.,0.));
#1068=DIRECTION('ref_axis',(0.,0.,1.));
#1069=DIRECTION('',(0.,-0.52366106241998,0.851926693856448));
#1070=DIRECTION('',(0.,1.,0.));
#1071=DIRECTION('',(0.,1.,0.));
#1072=DIRECTION('center_axis',(-1.,0.,0.));
#1073=DIRECTION('ref_axis',(0.,0.630675807431285,0.776046407066547));
#1074=DIRECTION('',(0.,0.776046407066546,-0.630675807431286));
#1075=DIRECTION('center_axis',(1.,0.,0.));
#1076=DIRECTION('ref_axis',(0.,-1.,-2.22044604925031E-15));
#1077=DIRECTION('center_axis',(1.,0.,0.));
#1078=DIRECTION('ref_axis',(0.,0.,-1.));
#1079=DIRECTION('',(0.,-0.730271413518895,0.683157128775741));
#1080=DIRECTION('center_axis',(1.,0.,0.));
#1081=DIRECTION('ref_axis',(0.,0.683157128775729,0.730271413518906));
#1082=DIRECTION('',(0.,-1.,0.));
#1083=DIRECTION('center_axis',(1.,0.,0.));
#1084=DIRECTION('ref_axis',(0.,-6.6613381477509E-15,1.));
#1085=DIRECTION('',(0.,-1.65704929048531E-16,-1.));
#1086=DIRECTION('center_axis',(1.,0.,0.));
#1087=DIRECTION('ref_axis',(0.,-1.,-2.22044604925031E-15));
#1088=DIRECTION('center_axis',(-1.,0.,0.));
#1089=DIRECTION('ref_axis',(0.,-1.,-2.22044604925031E-15));
#1090=DIRECTION('center_axis',(-0.707106781186548,0.,-0.707106781186547));
#1091=DIRECTION('ref_axis',(0.707106781186547,1.57009245868377E-15,-0.707106781186548));
#1092=DIRECTION('',(1.,0.,0.));
#1093=DIRECTION('center_axis',(0.,-1.,1.65704929048531E-16));
#1094=DIRECTION('ref_axis',(0.,-1.65704929048531E-16,-1.));
#1095=DIRECTION('',(0.,1.65704929048531E-16,1.));
#1096=DIRECTION('',(1.,0.,0.));
#1097=DIRECTION('center_axis',(1.,0.,0.));
#1098=DIRECTION('ref_axis',(0.,-6.6613381477509E-15,1.));
#1099=DIRECTION('center_axis',(-1.,0.,0.));
#1100=DIRECTION('ref_axis',(0.,-6.6613381477509E-15,1.));
#1101=DIRECTION('',(-1.,0.,0.));
#1102=DIRECTION('center_axis',(0.,0.,1.));
#1103=DIRECTION('ref_axis',(0.,-1.,0.));
#1104=DIRECTION('',(0.,1.,0.));
#1105=DIRECTION('',(1.,0.,0.));
#1106=DIRECTION('center_axis',(1.,0.,0.));
#1107=DIRECTION('ref_axis',(0.,0.683157128775729,0.730271413518906));
#1108=DIRECTION('center_axis',(-1.,0.,0.));
#1109=DIRECTION('ref_axis',(0.,0.683157128775729,0.730271413518906));
#1110=DIRECTION('',(1.,0.,0.));
#1111=DIRECTION('center_axis',(0.,0.683157128775741,0.730271413518895));
#1112=DIRECTION('ref_axis',(0.,-0.730271413518895,0.683157128775741));
#1113=DIRECTION('',(0.,0.730271413518895,-0.683157128775741));
#1114=DIRECTION('',(1.,0.,0.));
#1115=DIRECTION('center_axis',(1.,0.,0.));
#1116=DIRECTION('ref_axis',(0.,0.,-1.));
#1117=DIRECTION('center_axis',(-1.,0.,0.));
#1118=DIRECTION('ref_axis',(0.,0.,-1.));
#1119=DIRECTION('center_axis',(-0.707106781186548,0.,-0.707106781186547));
#1120=DIRECTION('ref_axis',(0.707106781186547,0.,-0.707106781186548));
#1121=DIRECTION('center_axis',(1.,0.,0.));
#1122=DIRECTION('ref_axis',(0.,0.,-1.));
#1123=DIRECTION('',(0.,1.,0.));
#1124=DIRECTION('',(0.,0.52366106241998,-0.851926693856448));
#1125=DIRECTION('',(0.,-0.776046407066546,0.630675807431286));
#1126=DIRECTION('center_axis',(1.,0.,0.));
#1127=DIRECTION('ref_axis',(0.,0.630675807431285,0.776046407066547));
#1128=DIRECTION('',(0.,1.,0.));
#1129=DIRECTION('',(0.,1.,0.));
#1130=DIRECTION('center_axis',(-0.707106781186547,0.,-0.707106781186548));
#1131=DIRECTION('ref_axis',(-0.707106781186548,0.,0.707106781186547));
#1132=DIRECTION('',(0.533660262001973,0.65605902899051,-0.533660262001973));
#1133=DIRECTION('',(-0.707106781186548,0.,0.707106781186547));
#1134=DIRECTION('',(0.,1.,0.));
#1135=DIRECTION('center_axis',(0.,-0.630675807431286,-0.776046407066546));
#1136=DIRECTION('ref_axis',(0.,-0.776046407066546,0.630675807431286));
#1137=DIRECTION('',(-0.534155682494257,-0.6560588678812,0.533164579406334));
#1138=DIRECTION('',(-1.,0.,0.));
#1139=DIRECTION('center_axis',(-1.,0.,0.));
#1140=DIRECTION('ref_axis',(0.,0.630675807431285,0.776046407066547));
#1141=DIRECTION('',(-0.999999968613493,0.00022224916260252,-0.000115664704191432));
#1142=DIRECTION('center_axis',(-0.000115664707048043,0.,0.999999993310838));
#1143=DIRECTION('ref_axis',(0.999999993310838,0.,0.000115664707048043));
#1144=DIRECTION('center_axis',(0.463903788257851,-0.75470958022277,-0.463903788257851));
#1145=DIRECTION('ref_axis',(0.533660262001973,0.65605902899051,-0.533660262001973));
#1146=DIRECTION('',(0.707106781186548,0.,0.707106781186547));
#1147=DIRECTION('',(-0.533660262001973,-0.65605902899051,0.533660262001973));
#1148=DIRECTION('center_axis',(0.,1.,0.));
#1149=DIRECTION('ref_axis',(0.,0.,1.));
#1150=DIRECTION('',(-1.,0.,0.));
#1151=DIRECTION('',(0.,0.,1.));
#1152=DIRECTION('',(-1.,0.,0.));
#1153=DIRECTION('center_axis',(0.707106781186548,0.,0.707106781186547));
#1154=DIRECTION('ref_axis',(0.707106781186547,0.,-0.707106781186548));
#1155=DIRECTION('center_axis',(0.,0.,-1.));
#1156=DIRECTION('ref_axis',(-1.,0.,0.));
#1157=DIRECTION('',(0.,1.,0.));
#1158=DIRECTION('center_axis',(-1.,0.,0.));
#1159=DIRECTION('ref_axis',(0.,0.,1.));
#1160=DIRECTION('',(0.,1.,0.));
#1161=DIRECTION('center_axis',(0.,0.,-1.));
#1162=DIRECTION('ref_axis',(-1.,0.,0.));
#1163=DIRECTION('center_axis',(-1.,0.,0.));
#1164=DIRECTION('ref_axis',(0.,1.,0.));
#1165=DIRECTION('center_axis',(1.,0.,0.));
#1166=DIRECTION('ref_axis',(0.,1.,0.));
#1167=DIRECTION('',(1.,0.,0.));
#1168=DIRECTION('center_axis',(-1.,0.,0.));
#1169=DIRECTION('ref_axis',(0.,1.,0.));
#1170=DIRECTION('center_axis',(0.,0.,-1.));
#1171=DIRECTION('ref_axis',(0.,-1.,0.));
#1172=DIRECTION('',(0.,-1.,0.));
#1173=DIRECTION('',(-1.,0.,0.));
#1174=DIRECTION('',(0.,-1.,0.));
#1175=DIRECTION('',(-1.,0.,0.));
#1176=DIRECTION('center_axis',(-1.,0.,0.));
#1177=DIRECTION('ref_axis',(0.,1.,-1.11022302462516E-15));
#1178=DIRECTION('center_axis',(1.,0.,0.));
#1179=DIRECTION('ref_axis',(0.,1.,-1.11022302462516E-15));
#1180=DIRECTION('center_axis',(1.,0.,0.));
#1181=DIRECTION('ref_axis',(0.,1.,-1.11022302462516E-15));
#1182=DIRECTION('',(-1.,0.,0.));
#1183=DIRECTION('center_axis',(0.,1.,0.));
#1184=DIRECTION('ref_axis',(0.,0.,-1.));
#1185=DIRECTION('',(0.,0.,-1.));
#1186=DIRECTION('',(0.,0.,-1.));
#1187=DIRECTION('',(-1.,0.,0.));
#1188=DIRECTION('center_axis',(0.,0.,-1.));
#1189=DIRECTION('ref_axis',(0.,-1.,0.));
#1190=DIRECTION('',(0.,-1.,0.));
#1191=DIRECTION('',(0.,-1.,0.));
#1192=DIRECTION('',(-1.,0.,0.));
#1193=DIRECTION('center_axis',(-1.,0.,0.));
#1194=DIRECTION('ref_axis',(0.,0.630675807431285,0.776046407066547));
#1195=DIRECTION('center_axis',(1.,0.,0.));
#1196=DIRECTION('ref_axis',(0.,0.630675807431285,0.776046407066547));
#1197=DIRECTION('center_axis',(-1.,0.,0.));
#1198=DIRECTION('ref_axis',(0.,0.630675807431285,0.776046407066547));
#1199=DIRECTION('',(-1.,0.,0.));
#1200=DIRECTION('center_axis',(0.,0.154710386299466,0.98795986576939));
#1201=DIRECTION('ref_axis',(0.,0.98795986576939,-0.154710386299466));
#1202=DIRECTION('',(0.,0.98795986576939,-0.154710386299466));
#1203=DIRECTION('',(0.,0.98795986576939,-0.154710386299466));
#1204=DIRECTION('',(-1.,0.,0.));
#1205=DIRECTION('center_axis',(-1.,0.,0.));
#1206=DIRECTION('ref_axis',(0.,-1.,-1.22464679914735E-16));
#1207=DIRECTION('center_axis',(1.,0.,0.));
#1208=DIRECTION('ref_axis',(0.,1.,0.));
#1209=DIRECTION('center_axis',(-1.,0.,0.));
#1210=DIRECTION('ref_axis',(0.,1.,0.));
#1211=DIRECTION('center_axis',(1.,0.,0.));
#1212=DIRECTION('ref_axis',(0.,1.,0.));
#1213=DIRECTION('center_axis',(1.,0.,0.));
#1214=DIRECTION('ref_axis',(0.,1.,0.));
#1215=CARTESIAN_POINT('',(0.,0.,0.));
#1216=CARTESIAN_POINT('Origin',(-1.1,4.44089209850063E-15,9.9));
#1217=CARTESIAN_POINT('',(-1.1,6.25,0.));
#1218=CARTESIAN_POINT('',(-1.1,4.44089209850063E-15,0.));
#1219=CARTESIAN_POINT('',(-1.1,2.22044604925031E-15,0.));
#1220=CARTESIAN_POINT('',(-1.1,6.25,3.6));
#1221=CARTESIAN_POINT('',(-1.1,6.25,9.9));
#1222=CARTESIAN_POINT('',(-1.1,1.85,3.6));
#1223=CARTESIAN_POINT('',(-1.1,2.025,3.6));
#1224=CARTESIAN_POINT('',(-1.1,1.85,5.2));
#1225=CARTESIAN_POINT('',(-1.1,1.85,9.9));
#1226=CARTESIAN_POINT('',(-1.1,6.25,5.2));
#1227=CARTESIAN_POINT('',(-1.1,2.025,5.2));
#1228=CARTESIAN_POINT('',(-1.1,6.25,9.9));
#1229=CARTESIAN_POINT('',(-1.1,6.25,9.9));
#1230=CARTESIAN_POINT('',(-1.1,4.44089209850063E-15,9.9));
#1231=CARTESIAN_POINT('',(-1.1,2.22044604925031E-15,9.9));
#1232=CARTESIAN_POINT('',(-1.1,0.,12.1498834764832));
#1233=CARTESIAN_POINT('Origin',(-1.1,4.44089209850063E-15,9.9));
#1234=CARTESIAN_POINT('',(-1.1,36.,0.));
#1235=CARTESIAN_POINT('',(-1.1,29.75,0.));
#1236=CARTESIAN_POINT('',(-1.1,2.22044604925031E-15,0.));
#1237=CARTESIAN_POINT('',(-1.1,36.,9.9));
#1238=CARTESIAN_POINT('',(-1.1,36.,12.1498834764832));
#1239=CARTESIAN_POINT('',(-1.1,29.75,9.9));
#1240=CARTESIAN_POINT('',(-1.1,2.22044604925031E-15,9.9));
#1241=CARTESIAN_POINT('',(-1.1,29.75,5.2));
#1242=CARTESIAN_POINT('',(-1.1,29.75,9.9));
#1243=CARTESIAN_POINT('',(-1.1,34.15,5.2));
#1244=CARTESIAN_POINT('',(-1.1,15.975,5.2));
#1245=CARTESIAN_POINT('',(-1.1,34.15,3.6));
#1246=CARTESIAN_POINT('',(-1.1,34.15,9.9));
#1247=CARTESIAN_POINT('',(-1.1,29.75,3.6));
#1248=CARTESIAN_POINT('',(-1.1,15.975,3.6));
#1249=CARTESIAN_POINT('',(-1.1,29.75,9.9));
#1250=CARTESIAN_POINT('Origin',(-3.5,31.95,3.6));
#1251=CARTESIAN_POINT('',(-7.,34.15,3.6));
#1252=CARTESIAN_POINT('',(1.13110805735308E-15,34.15,3.6));
#1253=CARTESIAN_POINT('',(-7.,29.75,3.6));
#1254=CARTESIAN_POINT('',(-7.,34.15,3.6));
#1255=CARTESIAN_POINT('',(-5.25,29.75,3.6));
#1256=CARTESIAN_POINT('Origin',(-7.,34.15,9.9));
#1257=CARTESIAN_POINT('',(-7.,34.15,5.2));
#1258=CARTESIAN_POINT('',(-5.25,34.15,5.2));
#1259=CARTESIAN_POINT('',(-7.,34.15,9.9));
#1260=CARTESIAN_POINT('Origin',(-3.5,31.95,5.2));
#1261=CARTESIAN_POINT('',(-7.,29.75,5.2));
#1262=CARTESIAN_POINT('',(-7.,29.75,5.2));
#1263=CARTESIAN_POINT('',(-7.,19.1,5.2));
#1264=CARTESIAN_POINT('Origin',(1.11022302462516E-15,29.75,9.9));
#1265=CARTESIAN_POINT('',(-7.,29.75,9.9));
#1266=CARTESIAN_POINT('',(-7.,29.75,9.9));
#1267=CARTESIAN_POINT('',(-7.,29.75,9.9));
#1268=CARTESIAN_POINT('Origin',(1.11022302462516E-15,6.25,9.9));
#1269=CARTESIAN_POINT('',(-7.,6.25,0.));
#1270=CARTESIAN_POINT('',(5.55111512312578E-16,6.25,0.));
#1271=CARTESIAN_POINT('',(-7.,6.25,3.6));
#1272=CARTESIAN_POINT('',(-7.,6.25,9.9));
#1273=CARTESIAN_POINT('',(-1.75,6.25,3.6));
#1274=CARTESIAN_POINT('Origin',(-8.49962247149445,0.,14.3997669529664));
#1275=CARTESIAN_POINT('',(-10.964,0.,9.9));
#1276=CARTESIAN_POINT('',(0.,0.,9.9));
#1277=CARTESIAN_POINT('',(-14.4995339059327,0.,13.4355339059327));
#1278=CARTESIAN_POINT('',(-10.964,0.,9.9));
#1279=CARTESIAN_POINT('',(-14.4995339059327,0.,28.7995339059327));
#1280=CARTESIAN_POINT('',(-14.4995339059327,0.,13.4355339059327));
#1281=CARTESIAN_POINT('',(-16.9992449429889,0.,28.799244777586));
#1282=CARTESIAN_POINT('',(-14.4995339059327,0.,28.7995339059327));
#1283=CARTESIAN_POINT('',(-16.9992449429889,0.,12.399244777586));
#1284=CARTESIAN_POINT('',(-16.9992449429889,0.,12.399244777586));
#1285=CARTESIAN_POINT('',(-12.,0.,7.39999983459711));
#1286=CARTESIAN_POINT('',(-12.,0.,7.39999983459711));
#1287=CARTESIAN_POINT('',(-9.5,0.,7.39999983459711));
#1288=CARTESIAN_POINT('',(-9.5,0.,7.39999983459711));
#1289=CARTESIAN_POINT('',(-9.5,0.,0.));
#1290=CARTESIAN_POINT('',(-9.5,0.,0.));
#1291=CARTESIAN_POINT('',(0.,0.,0.));
#1292=CARTESIAN_POINT('Origin',(-7.,6.25,9.9));
#1293=CARTESIAN_POINT('',(-7.,6.25,5.2));
#1294=CARTESIAN_POINT('',(-7.,6.25,5.2));
#1295=CARTESIAN_POINT('',(-7.,6.25,9.9));
#1296=CARTESIAN_POINT('',(-7.,6.25,9.9));
#1297=CARTESIAN_POINT('',(-7.,6.25,9.9));
#1298=CARTESIAN_POINT('Origin',(-3.5,4.05,5.2));
#1299=CARTESIAN_POINT('',(-7.,1.85,5.2));
#1300=CARTESIAN_POINT('',(-1.75,1.85,5.2));
#1301=CARTESIAN_POINT('',(-7.,5.15,5.2));
#1302=CARTESIAN_POINT('Origin',(-7.,6.25,9.9));
#1303=CARTESIAN_POINT('',(-7.,14.875,9.9));
#1304=CARTESIAN_POINT('',(-7.,1.85,3.6));
#1305=CARTESIAN_POINT('',(-7.,1.85,9.9));
#1306=CARTESIAN_POINT('',(-7.,1.85,3.6));
#1307=CARTESIAN_POINT('',(-7.,29.75,0.));
#1308=CARTESIAN_POINT('',(-7.,3.125,0.));
#1309=CARTESIAN_POINT('',(-7.,29.75,9.9));
#1310=CARTESIAN_POINT('Origin',(2.08850327279224E-17,1.85,9.9));
#1311=CARTESIAN_POINT('',(2.08850327279224E-17,1.85,3.6));
#1312=CARTESIAN_POINT('Origin',(-3.5,4.05,3.6));
#1313=CARTESIAN_POINT('Origin',(-10.964,0.,9.9));
#1314=CARTESIAN_POINT('',(-10.9596495787536,35.9999991953373,9.9));
#1315=CARTESIAN_POINT('',(0.,36.,9.9));
#1316=CARTESIAN_POINT('',(-10.964,35.9973250847263,9.9));
#1317=CARTESIAN_POINT('',(-21.2457160851398,29.6773747797624,9.9));
#1318=CARTESIAN_POINT('',(-10.964,0.,9.9));
#1319=CARTESIAN_POINT('Origin',(-7.,29.75,9.9));
#1320=CARTESIAN_POINT('',(-3.5,29.75,0.));
#1321=CARTESIAN_POINT('Origin',(-14.4995339059327,7.1,13.1995339059327));
#1322=CARTESIAN_POINT('',(-16.9992449429889,7.1,13.1995339059327));
#1323=CARTESIAN_POINT('',(-16.9992449429889,19.3672423947041,13.1995339059327));
#1324=CARTESIAN_POINT('',(-16.9992449429889,3.55,13.1995339059327));
#1325=CARTESIAN_POINT('',(-14.2635339059327,7.1,13.1995339059327));
#1326=CARTESIAN_POINT('',(-14.4995339059327,7.1,13.1995339059327));
#1327=CARTESIAN_POINT('',(-14.2635339059327,19.3672423947041,13.1995339059327));
#1328=CARTESIAN_POINT('',(-14.2635339059327,3.55,13.1995339059327));
#1329=CARTESIAN_POINT('',(-14.4995339059327,19.3672423947041,13.1995339059327));
#1330=CARTESIAN_POINT('Origin',(-16.9992449429889,0.,12.399244777586));
#1331=CARTESIAN_POINT('',(-16.9992449429889,30.7513573429974,12.399244777586));
#1332=CARTESIAN_POINT('',(-16.9992449429889,28.5789009502036,15.9335415299686));
#1333=CARTESIAN_POINT('',(-16.9992449429889,26.4274436638388,19.4336755374043));
#1334=CARTESIAN_POINT('',(-16.9992449429889,0.,12.399244777586));
#1335=CARTESIAN_POINT('',(-16.9992449429889,12.4235528231786,28.799244777586));
#1336=CARTESIAN_POINT('',(-16.9992449429889,0.,28.799244777586));
#1337=CARTESIAN_POINT('',(-16.9992449429889,14.1135169566018,27.6892402187278));
#1338=CARTESIAN_POINT('Origin',(-16.9992449429889,7.80675888228888,19.9287761480622));
#1339=CARTESIAN_POINT('',(-16.9992449429889,22.3749084144966,20.9753894995311));
#1340=CARTESIAN_POINT('',(-16.9992449429889,6.1,14.1995339059327));
#1341=CARTESIAN_POINT('Origin',(-16.9992449429889,7.1,14.1995339059327));
#1342=CARTESIAN_POINT('',(-16.9992449429889,20.0503995234798,14.9298053194516));
#1343=CARTESIAN_POINT('Origin',(-16.9992449429889,19.3672423947041,14.1995339059327));
#1344=CARTESIAN_POINT('',(-16.9992449429889,12.8883305579626,21.6298053194516));
#1345=CARTESIAN_POINT('',(-16.9992449429889,15.335233037651,19.3407675158721));
#1346=CARTESIAN_POINT('',(-16.9992449429889,12.2051734291868,21.8995339059327));
#1347=CARTESIAN_POINT('Origin',(-16.9992449429889,12.2051734291868,20.8995339059327));
#1348=CARTESIAN_POINT('',(-16.9992449429889,7.1,21.8995339059327));
#1349=CARTESIAN_POINT('',(-16.9992449429889,6.10258671459341,21.8995339059327));
#1350=CARTESIAN_POINT('',(-16.9992449429889,6.1,20.8995339059327));
#1351=CARTESIAN_POINT('Origin',(-16.9992449429889,7.10000000000001,20.8995339059327));
#1352=CARTESIAN_POINT('',(-16.9992449429889,6.1,16.6493893417594));
#1353=CARTESIAN_POINT('Origin',(-14.4995339059327,7.1,14.1995339059327));
#1354=CARTESIAN_POINT('',(-14.4995339059327,6.45478375717904,13.4355339059327));
#1355=CARTESIAN_POINT('',(-14.4995339059327,6.1,14.1995339059327));
#1356=CARTESIAN_POINT('Origin',(-14.4995339059327,7.1,14.1995339059327));
#1357=CARTESIAN_POINT('Origin',(-15.2635339059327,7.1,14.1995339059327));
#1358=CARTESIAN_POINT('',(-14.4995339059327,6.1,14.1995339059327));
#1359=CARTESIAN_POINT('Origin',(-14.4995339059327,6.1,20.8995339059327));
#1360=CARTESIAN_POINT('',(-14.4995339059327,6.1,20.8995339059327));
#1361=CARTESIAN_POINT('',(-14.4995339059327,6.1,24.8495339059327));
#1362=CARTESIAN_POINT('',(-14.4995339059327,6.1,20.8995339059327));
#1363=CARTESIAN_POINT('Origin',(-14.4995339059327,7.10000000000001,20.8995339059327));
#1364=CARTESIAN_POINT('',(-14.4995339059327,7.1,21.8995339059327));
#1365=CARTESIAN_POINT('Origin',(-14.4995339059327,7.10000000000001,20.8995339059327));
#1366=CARTESIAN_POINT('',(-14.4995339059327,7.1,21.8995339059327));
#1367=CARTESIAN_POINT('Origin',(-14.4995339059327,12.2051734291868,21.8995339059327));
#1368=CARTESIAN_POINT('',(-14.4995339059327,12.2051734291868,21.8995339059327));
#1369=CARTESIAN_POINT('',(-14.4995339059327,6.10258671459341,21.8995339059327));
#1370=CARTESIAN_POINT('',(-14.4995339059327,12.2051734291868,21.8995339059327));
#1371=CARTESIAN_POINT('Origin',(-14.4995339059327,12.2051734291868,20.8995339059327));
#1372=CARTESIAN_POINT('',(-14.4995339059327,12.8883305579626,21.6298053194516));
#1373=CARTESIAN_POINT('Origin',(-14.4995339059327,12.2051734291868,20.8995339059327));
#1374=CARTESIAN_POINT('',(-14.4995339059327,12.8883305579626,21.6298053194516));
#1375=CARTESIAN_POINT('Origin',(-14.4995339059327,20.0503995234798,14.9298053194516));
#1376=CARTESIAN_POINT('',(-14.4995339059327,20.0503995234798,14.9298053194516));
#1377=CARTESIAN_POINT('',(-14.4995339059327,11.2442619149031,23.1678050177976));
#1378=CARTESIAN_POINT('',(-14.4995339059327,20.0503995234798,14.9298053194516));
#1379=CARTESIAN_POINT('Origin',(-14.4995339059327,19.3672423947041,14.1995339059327));
#1380=CARTESIAN_POINT('',(-14.4995339059327,20.012458637525,13.4355339059327));
#1381=CARTESIAN_POINT('Origin',(-14.4995339059327,19.3672423947041,14.1995339059327));
#1382=CARTESIAN_POINT('Origin',(-15.2635339059327,19.3672423947041,14.1995339059327));
#1383=CARTESIAN_POINT('Origin',(-14.4995339059327,0.,28.7995339059327));
#1384=CARTESIAN_POINT('',(-14.4995339059327,31.6508913956451,13.4355339059327));
#1385=CARTESIAN_POINT('',(-14.4995339059327,0.,13.4355339059327));
#1386=CARTESIAN_POINT('',(-14.4995339059327,31.649087502078,13.4384686001328));
#1387=CARTESIAN_POINT('',(-14.4995339059327,23.884361483988,26.0706420420973));
#1388=CARTESIAN_POINT('',(-14.4995339059327,14.1135169566018,27.6892402187278));
#1389=CARTESIAN_POINT('',(-14.4995339059327,18.3614813659962,24.2370131876651));
#1390=CARTESIAN_POINT('',(-14.4995339059327,12.4229972644764,28.7995339059327));
#1391=CARTESIAN_POINT('Origin',(-14.4995339059327,7.80675888228888,19.9287761480622));
#1392=CARTESIAN_POINT('',(-14.4995339059327,0.,28.7995339059327));
#1393=CARTESIAN_POINT('',(-14.4995339059327,0.,13.4355339059327));
#1394=CARTESIAN_POINT('Origin',(-12.,0.,7.39999983459711));
#1395=CARTESIAN_POINT('',(-12.7298248720783,35.9999991953373,8.12982470667538));
#1396=CARTESIAN_POINT('',(-20.5925530232178,26.3338985628831,15.9925528578149));
#1397=CARTESIAN_POINT('',(-12.,36.,7.39999983459711));
#1398=CARTESIAN_POINT('',(-12.,36.,7.39999983459711));
#1399=CARTESIAN_POINT('',(-12.,0.,7.39999983459711));
#1400=CARTESIAN_POINT('Origin',(-14.4995339059327,31.6526986424816,13.4355339059327));
#1401=CARTESIAN_POINT('',(-14.4974445776484,31.651653649727,13.436383148508));
#1402=CARTESIAN_POINT('',(-14.4995339059327,14.1135169566018,27.6892402187278));
#1403=CARTESIAN_POINT('Origin',(-14.4995339059327,7.80675888228888,19.9287761480622));
#1404=CARTESIAN_POINT('',(-15.7493894244608,12.4232750438275,28.7993893417594));
#1405=CARTESIAN_POINT('Origin',(-16.9992449429889,0.,28.799244777586));
#1406=CARTESIAN_POINT('Origin',(-14.4989250059259,31.6516399511882,13.4349250059259));
#1407=CARTESIAN_POINT('',(-9.2207880144694,36.,11.6388602552054));
#1408=CARTESIAN_POINT('',(-20.0399179223375,24.8397810004259,18.9759179223375));
#1409=CARTESIAN_POINT('Origin',(-8.49962247149445,36.,14.3997669529664));
#1410=CARTESIAN_POINT('',(-9.5,36.,0.));
#1411=CARTESIAN_POINT('',(0.,36.,0.));
#1412=CARTESIAN_POINT('',(-9.5,36.,7.39999983459711));
#1413=CARTESIAN_POINT('',(-9.5,36.,0.));
#1414=CARTESIAN_POINT('',(-9.5,36.,7.39999983459711));
#1415=CARTESIAN_POINT('Origin',(-14.4995339059327,0.,13.4355339059327));
#1416=CARTESIAN_POINT('Origin',(-9.5,0.,7.39999983459711));
#1417=CARTESIAN_POINT('',(-9.5,0.,7.39999983459711));
#1418=CARTESIAN_POINT('Origin',(-9.5,0.,0.));
#1419=CARTESIAN_POINT('',(-9.5,0.,0.));
#1420=CARTESIAN_POINT('Origin',(0.,0.,0.));
#1421=CARTESIAN_POINT('Origin',(-14.4995339059327,-4.,26.8995339059327));
#1422=CARTESIAN_POINT('',(-16.9995339059327,-7.75,26.8995339059327));
#1423=CARTESIAN_POINT('Origin',(-16.9995339059327,-4.,26.8995339059327));
#1424=CARTESIAN_POINT('',(-14.4995339059327,-7.75,26.8995339059327));
#1425=CARTESIAN_POINT('',(-14.4995339059327,-7.75,26.8995339059327));
#1426=CARTESIAN_POINT('Origin',(-14.4995339059327,-4.,26.8995339059327));
#1427=CARTESIAN_POINT('Origin',(-14.4995339059327,-2.,21.8995339059327));
#1428=CARTESIAN_POINT('',(-14.4995339059327,-2.,21.8995339059327));
#1429=CARTESIAN_POINT('',(-14.4995339059327,-4.,21.8995339059327));
#1430=CARTESIAN_POINT('',(-14.4995339059327,-2.,21.8995339059327));
#1431=CARTESIAN_POINT('',(-16.9995339059327,-4.,21.8995339059327));
#1432=CARTESIAN_POINT('',(-14.4995339059327,-4.,21.8995339059327));
#1433=CARTESIAN_POINT('',(-16.9995339059327,-2.,21.8995339059327));
#1434=CARTESIAN_POINT('',(-16.9995339059327,-2.,21.8995339059327));
#1435=CARTESIAN_POINT('',(-14.4995339059327,-2.,21.8995339059327));
#1436=CARTESIAN_POINT('Origin',(-14.4995339059327,-2.,19.8995339059327));
#1437=CARTESIAN_POINT('',(-14.4995339059327,0.,19.8995339059327));
#1438=CARTESIAN_POINT('Origin',(-14.4995339059327,-2.,19.8995339059327));
#1439=CARTESIAN_POINT('',(-16.9995339059327,0.,19.8995339059327));
#1440=CARTESIAN_POINT('Origin',(-16.9995339059327,-2.,19.8995339059327));
#1441=CARTESIAN_POINT('',(-14.4995339059327,0.,19.8995339059327));
#1442=CARTESIAN_POINT('Origin',(-14.4995339059327,0.,28.7995339059327));
#1443=CARTESIAN_POINT('',(-14.4995339059327,0.,28.7995339059327));
#1444=CARTESIAN_POINT('',(-14.4995339059327,0.,28.7995339059327));
#1445=CARTESIAN_POINT('',(-16.9995339059327,0.,28.7995339059327));
#1446=CARTESIAN_POINT('',(-16.9995339059327,0.,28.7995339059327));
#1447=CARTESIAN_POINT('',(-14.4995339059327,0.,28.7995339059327));
#1448=CARTESIAN_POINT('Origin',(-14.4995339059327,12.4229972644764,28.7995339059327));
#1449=CARTESIAN_POINT('',(-14.4995339059327,12.4229972644764,28.7995339059327));
#1450=CARTESIAN_POINT('',(-14.4995339059327,32.9374168244357,28.7995339059327));
#1451=CARTESIAN_POINT('',(-16.9995339059327,12.4229972644764,28.7995339059327));
#1452=CARTESIAN_POINT('',(-16.9995339059327,32.9374168244357,28.7995339059327));
#1453=CARTESIAN_POINT('',(-14.4995339059327,12.4229972644764,28.7995339059327));
#1454=CARTESIAN_POINT('Origin',(-14.4995339059327,7.80675888228888,19.9287761480622));
#1455=CARTESIAN_POINT('',(-14.4995339059327,9.35386274528357,29.8083748057562));
#1456=CARTESIAN_POINT('Origin',(-14.4995339059327,7.80675888228888,19.9287761480622));
#1457=CARTESIAN_POINT('',(-16.9995339059327,9.35386274528357,29.8083748057562));
#1458=CARTESIAN_POINT('Origin',(-16.9995339059327,7.80675888228888,19.9287761480622));
#1459=CARTESIAN_POINT('',(-14.4995339059327,9.35386274528357,29.8083748057562));
#1460=CARTESIAN_POINT('Origin',(-14.4995339059327,-4.,31.8995339059327));
#1461=CARTESIAN_POINT('',(-14.4995339059327,-4.,31.8995339059327));
#1462=CARTESIAN_POINT('',(-14.4995339059327,-4.,31.8995339059327));
#1463=CARTESIAN_POINT('',(-16.9995339059327,-4.,31.8995339059327));
#1464=CARTESIAN_POINT('',(-16.9995339059327,-4.,31.8995339059327));
#1465=CARTESIAN_POINT('',(-14.4995339059327,-4.,31.8995339059327));
#1466=CARTESIAN_POINT('Origin',(-14.4995339059327,-4.,26.8995339059327));
#1467=CARTESIAN_POINT('Origin',(-14.4995339059327,-4.,26.8995339059327));
#1468=CARTESIAN_POINT('Origin',(-16.9995339059327,-4.,26.8995339059327));
#1469=CARTESIAN_POINT('Origin',(-14.4995339059327,1.71149863223822,25.8995339059327));
#1470=CARTESIAN_POINT('Origin',(-16.9995339059327,1.71149863223822,25.8995339059327));
#1471=UNCERTAINTY_MEASURE_WITH_UNIT(LENGTH_MEASURE(0.01),#1475,
'DISTANCE_ACCURACY_VALUE',
'Maximum model space distance between geometric entities at asserted c
onnectivities');
#1472=UNCERTAINTY_MEASURE_WITH_UNIT(LENGTH_MEASURE(0.01),#1475,
'DISTANCE_ACCURACY_VALUE',
'Maximum model space distance between geometric entities at asserted c
onnectivities');
#1473=(
GEOMETRIC_REPRESENTATION_CONTEXT(3)
GLOBAL_UNCERTAINTY_ASSIGNED_CONTEXT((#1471))
GLOBAL_UNIT_ASSIGNED_CONTEXT((#1475,#1477,#1478))
REPRESENTATION_CONTEXT('','3D')
);
#1474=(
GEOMETRIC_REPRESENTATION_CONTEXT(3)
GLOBAL_UNCERTAINTY_ASSIGNED_CONTEXT((#1472))
GLOBAL_UNIT_ASSIGNED_CONTEXT((#1475,#1477,#1478))
REPRESENTATION_CONTEXT('','3D')
);
#1475=(
LENGTH_UNIT()
NAMED_UNIT(*)
SI_UNIT(.MILLI.,.METRE.)
);
#1476=(
LENGTH_UNIT()
NAMED_UNIT(*)
SI_UNIT($,.METRE.)
);
#1477=(
NAMED_UNIT(*)
PLANE_ANGLE_UNIT()
SI_UNIT($,.RADIAN.)
);
#1478=(
NAMED_UNIT(*)
SI_UNIT($,.STERADIAN.)
SOLID_ANGLE_UNIT()
);
#1479=SHAPE_DEFINITION_REPRESENTATION(#1480,#1481);
#1480=PRODUCT_DEFINITION_SHAPE('',$,#1483);
#1481=SHAPE_REPRESENTATION('',(#911),#1473);
#1482=PRODUCT_DEFINITION_CONTEXT('part definition',#1487,'design');
#1483=PRODUCT_DEFINITION('2026-08-29-11-22-44-059',
'Pan-Tilt Right Domsdlay',#1484,#1482);
#1484=PRODUCT_DEFINITION_FORMATION('',$,#1489);
#1485=PRODUCT_RELATED_PRODUCT_CATEGORY('Pan-Tilt Right Domsdlay',
'Pan-Tilt Right Domsdlay',(#1489));
#1486=APPLICATION_PROTOCOL_DEFINITION('international standard',
'automotive_design',2009,#1487);
#1487=APPLICATION_CONTEXT(
'Core Data for Automotive Mechanical Design Process');
#1488=PRODUCT_CONTEXT('part definition',#1487,'mechanical');
#1489=PRODUCT('2026-08-29-11-22-44-059','Pan-Tilt Right Domsdlay',$,(#1488));
#1490=PRESENTATION_STYLE_ASSIGNMENT((#1491));
#1491=SURFACE_STYLE_USAGE(.BOTH.,#1492);
#1492=SURFACE_SIDE_STYLE('',(#1493));
#1493=SURFACE_STYLE_FILL_AREA(#1494);
#1494=FILL_AREA_STYLE('Steel - Satin',(#1495));
#1495=FILL_AREA_STYLE_COLOUR('Steel - Satin',#1496);
#1496=COLOUR_RGB('Steel - Satin',0.627450980392157,0.627450980392157,0.627450980392157);
ENDSEC;
END-ISO-10303-21;
